<?xml version="1.0" encoding="UTF-8" standalone="no"?>
<!-- Created with Inkscape (http://www.inkscape.org/) -->
<svg
   xmlns:a="http://ns.adobe.com/AdobeSVGViewerExtensions/3.0/"
   xmlns:dc="http://purl.org/dc/elements/1.1/"
   xmlns:cc="http://web.resource.org/cc/"
   xmlns:rdf="http://www.w3.org/1999/02/22-rdf-syntax-ns#"
   xmlns:svg="http://www.w3.org/2000/svg"
   xmlns="http://www.w3.org/2000/svg"
   xmlns:xlink="http://www.w3.org/1999/xlink"
   xmlns:sodipodi="http://inkscape.sourceforge.net/DTD/sodipodi-0.dtd"
   xmlns:inkscape="http://www.inkscape.org/namespaces/inkscape"
   inkscape:export-ydpi="90.000000"
   inkscape:export-xdpi="90.000000"
   inkscape:export-filename="/home/sean/korona.png"
   width="1024px"
   height="768px"
   id="svg1291"
   sodipodi:version="0.32"
   inkscape:version="0.41"
   sodipodi:docbase="/home/sean"
   sodipodi:docname="korona.svg">
  <defs
     id="defs3">
    <linearGradient
       id="linearGradient637">
      <stop
         style="stop-color:#ffffff;stop-opacity:0.3608;"
         offset="0"
         id="stop638" />
      <stop
         style="stop-color:#ffffff;stop-opacity:0;"
         offset="1"
         id="stop639" />
    </linearGradient>
    <linearGradient
       xlink:href="#linearGradient637"
       id="linearGradient636"
       x1="65.350141"
       y1="163.29889"
       x2="65.863399"
       y2="71.313728"
       gradientTransform="scale(1.200601,0.832916)"
       gradientUnits="userSpaceOnUse" />
    <linearGradient
       id="linearGradient627">
      <stop
         style="stop-color:#ffffff;stop-opacity:1;"
         offset="0"
         id="stop628" />
      <stop
         style="stop-color:#ffffff;stop-opacity:0;"
         offset="1"
         id="stop629" />
    </linearGradient>
    <linearGradient
       xlink:href="#linearGradient627"
       id="linearGradient618"
       x1="68.387361"
       y1="23.498608"
       x2="68.387361"
       y2="98.983212"
       gradientTransform="scale(1.159274,0.862609)"
       gradientUnits="userSpaceOnUse" />
    <radialGradient
       xlink:href="#linearGradient622"
       id="radialGradient625"
       cx="48.378522"
       cy="110.45980"
       r="159.59875"
       fx="48.378522"
       fy="110.45980"
       gradientTransform="scale(1.587450,0.629941)"
       gradientUnits="userSpaceOnUse" />
    <linearGradient
       id="linearGradient622">
      <stop
         style="stop-color:#ffffff;stop-opacity:1;"
         offset="0"
         id="stop623" />
      <stop
         style="stop-color:#000067;stop-opacity:1;"
         offset="1"
         id="stop624" />
    </linearGradient>
    <radialGradient
       xlink:href="#linearGradient622"
       id="radialGradient621"
       cx="78.383974"
       cy="44.004889"
       r="159.59872"
       fx="78.383974"
       fy="44.004889"
       gradientTransform="scale(0.905000,1.104972)"
       gradientUnits="userSpaceOnUse" />
    <linearGradient
       id="linearGradient615">
      <stop
         style="stop-color:#00ffff;stop-opacity:1;"
         offset="0"
         id="stop616" />
      <stop
         style="stop-color:#00006a;stop-opacity:1;"
         offset="1"
         id="stop617" />
    </linearGradient>
    <radialGradient
       xlink:href="#linearGradient615"
       id="radialGradient619"
       cx="82.240879"
       cy="136.67733"
       r="50.370286"
       fx="82.240879"
       fy="136.67733"
       spreadMethod="pad"
       gradientUnits="userSpaceOnUse" />
    <linearGradient
       y2="89.0913"
       x2="116.397"
       y1="33.3218"
       x1="75.8369"
       gradientUnits="userSpaceOnUse"
       id="XMLID_26_">
      <stop
         id="stop2277"
         style="stop-color:rgb(255,255,255)"
         offset="0" />
      <stop
         id="stop2279"
         style="stop-color:rgb(251,251,252)"
         offset="0.178" />
      <stop
         id="stop2281"
         style="stop-color:rgb(238,238,242)"
         offset="0.367" />
      <stop
         id="stop2283"
         style="stop-color:rgb(217,217,225)"
         offset="0.5612" />
      <stop
         id="stop2285"
         style="stop-color:rgb(187,187,201)"
         offset="0.7589" />
      <stop
         id="stop2287"
         style="stop-color:rgb(149,149,171)"
         offset="0.9575" />
      <stop
         id="stop2289"
         style="stop-color:rgb(140,140,164)"
         offset="1" />
      <a:midPointStop
         id="midPointStop2291"
         style="stop-color:#FFFFFF"
         offset="0" />
      <a:midPointStop
         id="midPointStop2293"
         style="stop-color:#FFFFFF"
         offset="0.6949" />
      <a:midPointStop
         id="midPointStop2295"
         style="stop-color:#8C8CA4"
         offset="1" />
    </linearGradient>
    <linearGradient
       id="linearGradient1172">
      <stop
         id="stop1173"
         offset="0"
         style="stop-color:#ffffff;stop-opacity:1;" />
      <stop
         id="stop1174"
         offset="1"
         style="stop-color:#ffffff;stop-opacity:0;" />
    </linearGradient>
    <linearGradient
       gradientUnits="userSpaceOnUse"
       gradientTransform="scale(1.218243,0.820854)"
       spreadMethod="pad"
       y2="132.27221"
       x2="68.270154"
       y1="22.567798"
       x1="54.290733"
       id="linearGradient679"
       xlink:href="#linearGradient1172" />
    <linearGradient
       gradientUnits="userSpaceOnUse"
       gradientTransform="scale(0.991094,1.008986)"
       y2="62.310155"
       x2="102.20824"
       y1="101.87821"
       x1="75.409111"
       id="linearGradient931"
       xlink:href="#linearGradient902" />
    <linearGradient
       gradientUnits="userSpaceOnUse"
       gradientTransform="scale(0.989108,1.011012)"
       y2="139.78199"
       x2="75.873069"
       y1="33.111392"
       x1="65.850985"
       id="linearGradient905"
       xlink:href="#linearGradient902" />
    <linearGradient
       id="linearGradient902">
      <stop
         id="stop903"
         offset="0"
         style="stop-color:#99bfff;stop-opacity:1;" />
      <stop
         id="stop904"
         offset="1"
         style="stop-color:#ffffff;stop-opacity:1;" />
    </linearGradient>
    <radialGradient
       gradientUnits="userSpaceOnUse"
       gradientTransform="scale(0.979294,1.021144)"
       spreadMethod="reflect"
       fy="86.096480"
       fx="89.174908"
       r="36.733205"
       cy="86.096480"
       cx="89.174908"
       id="radialGradient932"
       xlink:href="#linearGradient902" />
    <linearGradient
       id="linearGradient2962">
      <stop
         id="stop2964"
         offset="0"
         style="stop-color:#85a0d5;stop-opacity:1;" />
      <stop
         id="stop2970"
         offset="0.059999999"
         style="stop-color:#a8c6ec;stop-opacity:1.0000000;" />
      <stop
         id="stop2972"
         offset="0.12000000"
         style="stop-color:#b6d4f0;stop-opacity:1.0000000;" />
      <stop
         id="stop2974"
         offset="0.20000000"
         style="stop-color:#768dc3;stop-opacity:1.0000000;" />
      <stop
         id="stop2976"
         offset="0.23000000"
         style="stop-color:#5869ae;stop-opacity:1.0000000;" />
      <stop
         id="stop2978"
         offset="0.52999997"
         style="stop-color:#5e6fb4;stop-opacity:1.0000000;" />
      <stop
         id="stop2980"
         offset="0.70999998"
         style="stop-color:#6f82c4;stop-opacity:1.0000000;" />
      <stop
         id="stop2982"
         offset="0.98000002"
         style="stop-color:#768bca;stop-opacity:1.0000000;" />
      <stop
         id="stop2984"
         offset="1.0000000"
         style="stop-color:#3c4c99;stop-opacity:1.0000000;" />
      <stop
         id="stop2966"
         offset="1"
         style="stop-color:#85a0d5;stop-opacity:0;" />
    </linearGradient>
    <linearGradient
       gradientUnits="userSpaceOnUse"
       y2="676.83160"
       x2="327.97055"
       y1="0.0000000"
       x1="327.97049"
       gradientTransform="matrix(0.883883,0.000000,0.000000,1.131371,6.000000e-5,-7.000000e-5)"
       id="linearGradient2968"
       xlink:href="#linearGradient2962"
       inkscape:collect="always" />
    <linearGradient
       id="linearGradient2181">
      <stop
         style="stop-color:#a6aec4;stop-opacity:1;"
         offset="0"
         id="stop2183" />
      <stop
         style="stop-color:#e2e8ee;stop-opacity:1.0000000;"
         offset="0.0099999998"
         id="stop2189" />
      <stop
         style="stop-color:#f6f7f9;stop-opacity:1.0000000;"
         offset="0.090000004"
         id="stop2191" />
      <stop
         style="stop-color:#c3ceea;stop-opacity:1.0000000;"
         offset="0.18000001"
         id="stop2193" />
      <stop
         style="stop-color:#9ab0d5;stop-opacity:1.0000000;"
         offset="0.36000001"
         id="stop2195" />
      <stop
         style="stop-color:#b4cfed;stop-opacity:1.0000000;"
         offset="0.72000003"
         id="stop2197" />
      <stop
         style="stop-color:#adc0e0;stop-opacity:1.0000000;"
         offset="0.98000002"
         id="stop2199" />
      <stop
         style="stop-color:#909eb8;stop-opacity:1.0000000;"
         offset="1.0000000"
         id="stop2201" />
      <stop
         style="stop-color:#a6aec4;stop-opacity:0;"
         offset="1"
         id="stop2185" />
    </linearGradient>
    <linearGradient
       id="linearGradient2171">
      <stop
         style="stop-color:#a6aec4;stop-opacity:1.0000000;"
         offset="0.0000000"
         id="stop2173" />
      <stop
         style="stop-color:#5357e1;stop-opacity:0.49803922;"
         offset="0.0000000"
         id="stop2179" />
      <stop
         style="stop-color:#0000ff;stop-opacity:0;"
         offset="1"
         id="stop2175" />
    </linearGradient>
    <linearGradient
       inkscape:collect="always"
       xlink:href="#linearGradient2181"
       id="linearGradient2187"
       gradientTransform="matrix(0.905602,0.000000,0.000000,1.104009,394.1265,-1.062267)"
       x1="325.04514"
       y1="0.11282524"
       x2="325.04514"
       y2="690.27454"
       gradientUnits="userSpaceOnUse" />
    <linearGradient
       inkscape:collect="always"
       xlink:href="#linearGradient2181"
       id="linearGradient2307"
       gradientUnits="userSpaceOnUse"
       gradientTransform="matrix(0.905608,0.000000,0.000000,1.104009,394.0286,-9.881478e-2)"
       x1="325.04514"
       y1="0.11282524"
       x2="325.04514"
       y2="690.27454" />
    <linearGradient
       inkscape:collect="always"
       xlink:href="#linearGradient2181"
       id="linearGradient2371"
       gradientUnits="userSpaceOnUse"
       gradientTransform="matrix(0.909328,0.000000,0.000000,1.109827,-2.095689,-1.959051)"
       x1="760.06757"
       y1="0.023317493"
       x2="758.09320"
       y2="688.68915" />
    <linearGradient
       y2="691.67249"
       x2="762.03931"
       y1="-1.7498604"
       x1="761.23956"
       gradientTransform="matrix(0.905175,0.000000,0.000000,1.104759,-1.760231e-3,0.000000)"
       gradientUnits="userSpaceOnUse"
       id="linearGradient2894"
       xlink:href="#linearGradient2181"
       inkscape:collect="always" />
    <radialGradient
       r="36.733205"
       fy="86.096480"
       fx="89.174908"
       cy="86.096480"
       cx="89.174908"
       spreadMethod="reflect"
       gradientTransform="scale(0.979294,1.021144)"
       gradientUnits="userSpaceOnUse"
       id="radialGradient1474"
       xlink:href="#linearGradient902"
       inkscape:collect="always" />
    <linearGradient
       y2="139.78199"
       x2="75.873069"
       y1="33.111392"
       x1="65.850985"
       gradientTransform="scale(0.989108,1.011012)"
       gradientUnits="userSpaceOnUse"
       id="linearGradient1476"
       xlink:href="#linearGradient902"
       inkscape:collect="always" />
    <linearGradient
       y2="62.310155"
       x2="102.20824"
       y1="101.87821"
       x1="75.409111"
       gradientTransform="scale(0.991094,1.008986)"
       gradientUnits="userSpaceOnUse"
       id="linearGradient1478"
       xlink:href="#linearGradient902"
       inkscape:collect="always" />
    <linearGradient
       y2="132.27221"
       x2="68.270154"
       y1="22.567798"
       x1="54.290733"
       spreadMethod="pad"
       gradientTransform="scale(1.218243,0.820854)"
       gradientUnits="userSpaceOnUse"
       id="linearGradient1480"
       xlink:href="#linearGradient1172"
       inkscape:collect="always" />
    <radialGradient
       r="50.370286"
       fy="136.67733"
       fx="82.240879"
       cy="136.67733"
       cx="82.240879"
       spreadMethod="pad"
       gradientUnits="userSpaceOnUse"
       id="radialGradient1482"
       xlink:href="#linearGradient615"
       inkscape:collect="always" />
    <radialGradient
       r="159.59872"
       fy="44.004889"
       fx="78.383974"
       cy="44.004889"
       cx="78.383974"
       gradientTransform="scale(0.905000,1.104972)"
       gradientUnits="userSpaceOnUse"
       id="radialGradient1484"
       xlink:href="#linearGradient622"
       inkscape:collect="always" />
    <radialGradient
       r="159.59875"
       fy="110.45980"
       fx="48.378522"
       cy="110.45980"
       cx="48.378522"
       gradientTransform="scale(1.587450,0.629941)"
       gradientUnits="userSpaceOnUse"
       id="radialGradient1486"
       xlink:href="#linearGradient622"
       inkscape:collect="always" />
    <linearGradient
       y2="98.983212"
       x2="68.387361"
       y1="23.498608"
       x1="68.387361"
       gradientTransform="scale(1.159274,0.862609)"
       gradientUnits="userSpaceOnUse"
       id="linearGradient1488"
       xlink:href="#linearGradient627"
       inkscape:collect="always" />
    <linearGradient
       y2="71.313728"
       x2="65.863399"
       y1="163.29889"
       x1="65.350141"
       gradientTransform="scale(1.200601,0.832916)"
       gradientUnits="userSpaceOnUse"
       id="linearGradient1490"
       xlink:href="#linearGradient637"
       inkscape:collect="always" />
    <linearGradient
       y2="1121.6678"
       x2="429.10617"
       y1="1154.9011"
       x1="435.89633"
       gradientTransform="scale(2.056948,0.486157)"
       gradientUnits="userSpaceOnUse"
       id="linearGradient1492"
       xlink:href="#linearGradient902"
       inkscape:collect="always" />
    <linearGradient
       y2="148.95309"
       x2="3312.8066"
       y1="174.40712"
       x1="3313.9836"
       gradientTransform="scale(0.264361,3.782706)"
       gradientUnits="userSpaceOnUse"
       id="linearGradient1494"
       xlink:href="#linearGradient902"
       inkscape:collect="always" />
    <linearGradient
       y2="466.72351"
       x2="1109.9188"
       y1="501.77194"
       x1="1077.3000"
       gradientTransform="scale(0.827451,1.208531)"
       gradientUnits="userSpaceOnUse"
       id="linearGradient1496"
       xlink:href="#linearGradient902"
       inkscape:collect="always" />
    <linearGradient
       y2="948.98035"
       x2="548.60944"
       y1="980.40839"
       x1="551.92181"
       gradientTransform="scale(1.730262,0.577947)"
       gradientUnits="userSpaceOnUse"
       id="linearGradient1498"
       xlink:href="#linearGradient902"
       inkscape:collect="always" />
    <linearGradient
       y2="503.69199"
       x2="1088.2947"
       y1="544.51508"
       x1="1131.3043"
       gradientTransform="scale(0.826175,1.210398)"
       gradientUnits="userSpaceOnUse"
       id="linearGradient1500"
       xlink:href="#linearGradient902"
       inkscape:collect="always" />
    <linearGradient
       y2="588.90717"
       x2="899.43463"
       y1="658.91010"
       x1="944.14990"
       gradientUnits="userSpaceOnUse"
       id="linearGradient1502"
       xlink:href="#linearGradient902"
       inkscape:collect="always" />
  </defs>
  <sodipodi:namedview
     id="base"
     pagecolor="#ffffff"
     bordercolor="#666666"
     borderopacity="1.0"
     inkscape:pageopacity="0.0"
     inkscape:pageshadow="2"
     inkscape:zoom="0.64713542"
     inkscape:cx="512.00000"
     inkscape:cy="384.00000"
     inkscape:current-layer="layer1"
     inkscape:document-units="px"
     inkscape:window-width="869"
     inkscape:window-height="687"
     inkscape:window-x="137"
     inkscape:window-y="0" />
  <metadata
     id="metadata4">
    <rdf:RDF
       id="RDF5">
      <cc:Work
         rdf:about=""
         id="Work6">
        <dc:format
           id="format7">image/svg+xml</dc:format>
        <dc:type
           id="type9"
           rdf:resource="http://purl.org/dc/dcmitype/StillImage" />
      </cc:Work>
    </rdf:RDF>
  </metadata>
  <g
     id="layer1"
     inkscape:label="Layer 1"
     inkscape:groupmode="layer">
    <path
       id="rect1410"
       d="M 488.24824,0.062500000 L 488.24824,0.15625000 C 489.13489,-0.29703000 488.41046,9.9499300 486.96699,18.093750 C 486.28490,21.941910 484.19822,28.936570 482.09199,34.281250 C 480.04968,39.463750 476.87758,47.942490 475.06074,53.125000 C 471.25034,63.994060 462.45628,83.168820 455.43574,95.937500 C 452.76567,100.79370 448.21127,109.87475 445.31074,116.09375 C 442.41022,122.31277 438.62435,130.45611 436.87324,134.18750 C 417.07381,176.37802 405.07546,213.51709 401.37324,244.21875 C 400.92329,247.95014 400.36042,258.30484 400.12324,267.21875 C 399.66824,284.31913 400.26127,291.00974 403.74824,308.28125 C 408.96101,334.10097 423.44631,362.25816 441.34199,381.40625 C 444.05955,384.31398 446.94985,387.60185 447.77949,388.65625 C 450.39308,391.97785 461.84484,400.97390 468.90449,405.28125 C 484.36504,414.71436 495.21540,419.51049 517.52949,426.68750 C 551.70064,437.67809 556.59885,439.81342 570.62324,449.87500 C 581.11650,457.40324 586.00244,463.19865 591.31074,474.50000 C 601.41038,496.00215 601.96670,525.81093 592.84199,554.28125 C 583.58675,583.15885 571.89984,605.61452 540.24824,655.25000 C 508.25428,705.42240 497.39286,727.49041 491.87324,753.62500 C 491.06292,757.46173 490.41100,761.45291 490.40449,762.53125 C 490.39800,763.60948 490.00171,765.65317 489.49824,767.06250 L 489.15449,768.00000 L 1023.9982,768.00000 L 1023.9982,0.062500000 L 488.24824,0.062500000 z "
       style="fill:url(#linearGradient2894);fill-opacity:1.0000000;fill-rule:evenodd;stroke:#000000;stroke-width:0.0000000;stroke-linecap:butt;stroke-linejoin:miter;stroke-miterlimit:4.0000000;stroke-opacity:0.0000000" />
    <path
       style="fill:#000000"
       d="M 488.72433,756.95395 C 488.47471,756.70473 488.29717,757.14773 488.32978,757.93824 C 488.36583,758.81192 488.54383,758.98959 488.78364,758.39136 C 489.00064,757.84998 488.97395,757.20315 488.72433,756.95395 z "
       id="path2297" />
    <path
       style="fill:#000000;fill-opacity:0.098039217;stroke-width:0.0000000;stroke-miterlimit:4.0000000"
       d="M 2.0000000,0.0000000 L 2.0000000,768.00000 L 491.15625,768.00000 L 491.50000,767.06250 C 492.00347,765.65317 492.39976,763.60948 492.40625,762.53125 C 492.41276,761.45291 493.06468,757.46173 493.87500,753.62500 C 499.39462,727.49041 510.25604,705.42240 542.25000,655.25000 C 573.90160,605.61452 585.58851,583.15885 594.84375,554.28125 C 603.96846,525.81093 603.41214,496.00215 593.31250,474.50000 C 588.00420,463.19865 583.11826,457.40324 572.62500,449.87500 C 558.60061,439.81342 553.70240,437.67809 519.53125,426.68750 C 497.21716,419.51049 486.36680,414.71436 470.90625,405.28125 C 463.84660,400.97390 452.39484,391.97785 449.78125,388.65625 C 448.95161,387.60185 446.06131,384.31398 443.34375,381.40625 C 425.44807,362.25816 410.96277,334.10097 405.75000,308.28125 C 402.26303,291.00974 401.67000,284.31913 402.12500,267.21875 C 402.36218,258.30484 402.92505,247.95014 403.37500,244.21875 C 407.07722,213.51709 419.07557,176.37802 438.87500,134.18750 C 440.62611,130.45611 444.41198,122.31277 447.31250,116.09375 C 450.21303,109.87475 454.76743,100.79370 457.43750,95.937500 C 464.45804,83.168820 473.25210,63.994070 477.06250,53.125000 C 478.87934,47.942500 482.05144,39.463760 484.09375,34.281250 C 486.19998,28.936580 488.28666,21.941920 488.96875,18.093750 C 490.41222,9.9499400 491.13665,-0.29703000 490.25000,0.15625000 L 490.25000,0.062500000 L 602.00000,0.062500000 L 602.00000,0.0000000 L 2.0000000,0.0000000 z "
       id="path2285" />
    <path
       style="fill:#000000;fill-opacity:0.098039217;stroke-width:0.0000000;stroke-miterlimit:4.0000000"
       d="M 4.0000000,-5.6843419e-14 L 4.0000000,768.00000 L 493.15625,768.00000 L 493.50000,767.06250 C 494.00347,765.65317 494.39976,763.60948 494.40625,762.53125 C 494.41276,761.45291 495.06468,757.46173 495.87500,753.62500 C 501.39462,727.49041 512.25604,705.42240 544.25000,655.25000 C 575.90160,605.61452 587.58851,583.15885 596.84375,554.28125 C 605.96846,525.81093 605.41214,496.00215 595.31250,474.50000 C 590.00420,463.19865 585.11826,457.40324 574.62500,449.87500 C 560.60061,439.81342 555.70240,437.67809 521.53125,426.68750 C 499.21716,419.51049 488.36680,414.71436 472.90625,405.28125 C 465.84660,400.97390 454.39484,391.97785 451.78125,388.65625 C 450.95161,387.60185 448.06131,384.31398 445.34375,381.40625 C 427.44807,362.25816 412.96277,334.10097 407.75000,308.28125 C 404.26303,291.00974 403.67000,284.31913 404.12500,267.21875 C 404.36218,258.30484 404.92505,247.95014 405.37500,244.21875 C 409.07722,213.51709 421.07557,176.37802 440.87500,134.18750 C 442.62611,130.45611 446.41198,122.31277 449.31250,116.09375 C 452.21303,109.87475 456.76743,100.79370 459.43750,95.937500 C 466.45804,83.168820 475.25210,63.994070 479.06250,53.125000 C 480.87934,47.942500 484.05144,39.463760 486.09375,34.281250 C 488.19998,28.936580 490.28666,21.941920 490.96875,18.093750 C 492.41222,9.9499400 493.13665,-0.29703000 492.25000,0.15625000 L 492.25000,0.062500000 L 604.00000,0.062500000 L 604.00000,-5.6843419e-14 L 4.0000000,-5.6843419e-14 z "
       id="path3053" />
    <path
       style="fill:#000000;fill-opacity:0.098039217;stroke-width:0.0000000;stroke-miterlimit:4.0000000"
       d="M 6.0000000,0.0000000 L 6.0000000,768.00000 L 495.15625,768.00000 L 495.50000,767.06250 C 496.00347,765.65317 496.39976,763.60948 496.40625,762.53125 C 496.41276,761.45291 497.06468,757.46173 497.87500,753.62500 C 503.39462,727.49041 514.25604,705.42240 546.25000,655.25000 C 577.90160,605.61452 589.58851,583.15885 598.84375,554.28125 C 607.96846,525.81093 607.41214,496.00215 597.31250,474.50000 C 592.00420,463.19865 587.11826,457.40324 576.62500,449.87500 C 562.60061,439.81342 557.70240,437.67809 523.53125,426.68750 C 501.21716,419.51049 490.36680,414.71436 474.90625,405.28125 C 467.84660,400.97390 456.39484,391.97785 453.78125,388.65625 C 452.95161,387.60185 450.06131,384.31398 447.34375,381.40625 C 429.44807,362.25816 414.96277,334.10097 409.75000,308.28125 C 406.26303,291.00974 405.67000,284.31913 406.12500,267.21875 C 406.36218,258.30484 406.92505,247.95014 407.37500,244.21875 C 411.07722,213.51709 423.07557,176.37802 442.87500,134.18750 C 444.62611,130.45611 448.41198,122.31277 451.31250,116.09375 C 454.21303,109.87475 458.76743,100.79370 461.43750,95.937500 C 468.45804,83.168820 477.25210,63.994070 481.06250,53.125000 C 482.87934,47.942500 486.05144,39.463760 488.09375,34.281250 C 490.19998,28.936580 492.28666,21.941920 492.96875,18.093750 C 494.41222,9.9499400 495.13665,-0.29703000 494.25000,0.15625000 L 494.25000,0.062500000 L 606.00000,0.062500000 L 606.00000,0.0000000 L 6.0000000,0.0000000 z "
       id="path3055" />
    <path
       style="fill:#000000;fill-opacity:0.098039217;stroke-width:0.0000000;stroke-miterlimit:4.0000000"
       d="M 8.0000000,0.0000000 L 8.0000000,768.00000 L 497.15625,768.00000 L 497.50000,767.06250 C 498.00347,765.65317 498.39976,763.60948 498.40625,762.53125 C 498.41276,761.45291 499.06468,757.46173 499.87500,753.62500 C 505.39462,727.49041 516.25604,705.42240 548.25000,655.25000 C 579.90160,605.61452 591.58851,583.15885 600.84375,554.28125 C 609.96846,525.81093 609.41214,496.00215 599.31250,474.50000 C 594.00420,463.19865 589.11826,457.40324 578.62500,449.87500 C 564.60061,439.81342 559.70240,437.67809 525.53125,426.68750 C 503.21716,419.51049 492.36680,414.71436 476.90625,405.28125 C 469.84660,400.97390 458.39484,391.97785 455.78125,388.65625 C 454.95161,387.60185 452.06131,384.31398 449.34375,381.40625 C 431.44807,362.25816 416.96277,334.10097 411.75000,308.28125 C 408.26303,291.00974 407.67000,284.31913 408.12500,267.21875 C 408.36218,258.30484 408.92505,247.95014 409.37500,244.21875 C 413.07722,213.51709 425.07557,176.37802 444.87500,134.18750 C 446.62611,130.45611 450.41198,122.31277 453.31250,116.09375 C 456.21303,109.87475 460.76743,100.79370 463.43750,95.937505 C 470.45804,83.168825 479.25210,63.994075 483.06250,53.125005 C 484.87934,47.942505 488.05144,39.463760 490.09375,34.281250 C 492.19998,28.936580 494.28666,21.941920 494.96875,18.093750 C 496.41222,9.9499400 497.13665,-0.29703000 496.25000,0.15625000 L 496.25000,0.062500000 L 608.00000,0.062500000 L 608.00000,0.0000000 L 8.0000000,0.0000000 z "
       id="path3057" />
    <path
       style="fill:#000000;fill-opacity:0.098039217;stroke-width:0.0000000;stroke-miterlimit:4.0000000"
       d="M 10.000000,-2.0000000e-06 L 10.000000,768.00000 L 499.15625,768.00000 L 499.50000,767.06250 C 500.00347,765.65317 500.39976,763.60948 500.40625,762.53125 C 500.41276,761.45291 501.06468,757.46173 501.87500,753.62500 C 507.39462,727.49041 518.25604,705.42240 550.25000,655.25000 C 581.90160,605.61452 593.58851,583.15885 602.84375,554.28125 C 611.96846,525.81093 611.41214,496.00215 601.31250,474.50000 C 596.00420,463.19865 591.11826,457.40324 580.62500,449.87500 C 566.60061,439.81342 561.70240,437.67809 527.53125,426.68750 C 505.21716,419.51049 494.36680,414.71436 478.90625,405.28125 C 471.84660,400.97390 460.39484,391.97785 457.78125,388.65625 C 456.95161,387.60185 454.06131,384.31398 451.34375,381.40625 C 433.44807,362.25816 418.96277,334.10097 413.75000,308.28125 C 410.26303,291.00974 409.67000,284.31913 410.12500,267.21875 C 410.36218,258.30484 410.92505,247.95014 411.37500,244.21875 C 415.07722,213.51709 427.07557,176.37802 446.87500,134.18750 C 448.62611,130.45611 452.41198,122.31277 455.31250,116.09375 C 458.21303,109.87475 462.76743,100.79370 465.43750,95.937500 C 472.45804,83.168820 481.25210,63.994068 485.06250,53.124998 C 486.87934,47.942498 490.05144,39.463758 492.09375,34.281248 C 494.19998,28.936578 496.28666,21.941918 496.96875,18.093748 C 498.41222,9.9499380 499.13665,-0.29703200 498.25000,0.15624800 L 498.25000,0.062498000 L 610.00000,0.062498000 L 610.00000,-2.0000000e-06 L 10.000000,-2.0000000e-06 z "
       id="path3059" />
    <path
       style="fill:#000000;fill-opacity:0.098039217;stroke-width:0.0000000;stroke-miterlimit:4.0000000"
       d="M 12.000000,4.2632564e-14 L 12.000000,768.00000 L 501.15625,768.00000 L 501.50000,767.06250 C 502.00347,765.65317 502.39976,763.60948 502.40625,762.53125 C 502.41276,761.45291 503.06468,757.46173 503.87500,753.62500 C 509.39462,727.49041 520.25604,705.42240 552.25000,655.25000 C 583.90160,605.61452 595.58851,583.15885 604.84375,554.28125 C 613.96846,525.81093 613.41214,496.00215 603.31250,474.50000 C 598.00420,463.19865 593.11826,457.40324 582.62500,449.87500 C 568.60061,439.81342 563.70240,437.67809 529.53125,426.68750 C 507.21716,419.51049 496.36680,414.71436 480.90625,405.28125 C 473.84660,400.97390 462.39484,391.97785 459.78125,388.65625 C 458.95161,387.60185 456.06131,384.31398 453.34375,381.40625 C 435.44807,362.25816 420.96277,334.10097 415.75000,308.28125 C 412.26303,291.00974 411.67000,284.31913 412.12500,267.21875 C 412.36218,258.30484 412.92505,247.95014 413.37500,244.21875 C 417.07722,213.51709 429.07557,176.37802 448.87500,134.18750 C 450.62611,130.45611 454.41198,122.31277 457.31250,116.09375 C 460.21303,109.87475 464.76743,100.79370 467.43750,95.937499 C 474.45804,83.168819 483.25210,63.994069 487.06250,53.124999 C 488.87934,47.942499 492.05144,39.463759 494.09375,34.281249 C 496.19998,28.936579 498.28666,21.941919 498.96875,18.093749 C 500.41222,9.9499400 501.13665,-0.29703000 500.25000,0.15625000 L 500.25000,0.062500000 L 612.00000,0.062500000 L 612.00000,4.2632564e-14 L 12.000000,4.2632564e-14 z "
       id="path3061" />
    <path
       style="fill:#000000;fill-opacity:0.098039217;stroke-width:0.0000000;stroke-miterlimit:4.0000000"
       d="M 14.000000,-2.0000000e-06 L 14.000000,768.00000 L 503.15625,768.00000 L 503.50000,767.06250 C 504.00347,765.65317 504.39976,763.60948 504.40625,762.53125 C 504.41276,761.45291 505.06468,757.46173 505.87500,753.62500 C 511.39462,727.49041 522.25604,705.42240 554.25000,655.25000 C 585.90160,605.61452 597.58851,583.15885 606.84375,554.28125 C 615.96846,525.81093 615.41214,496.00215 605.31250,474.50000 C 600.00420,463.19865 595.11826,457.40324 584.62500,449.87500 C 570.60061,439.81342 565.70240,437.67809 531.53125,426.68750 C 509.21716,419.51049 498.36680,414.71436 482.90625,405.28125 C 475.84660,400.97390 464.39484,391.97785 461.78125,388.65625 C 460.95161,387.60185 458.06131,384.31398 455.34375,381.40625 C 437.44807,362.25816 422.96277,334.10097 417.75000,308.28125 C 414.26303,291.00974 413.67000,284.31913 414.12500,267.21875 C 414.36218,258.30484 414.92505,247.95014 415.37500,244.21875 C 419.07722,213.51709 431.07557,176.37802 450.87500,134.18750 C 452.62611,130.45611 456.41198,122.31277 459.31250,116.09375 C 462.21303,109.87475 466.76743,100.79370 469.43750,95.937498 C 476.45804,83.168818 485.25210,63.994068 489.06250,53.124998 C 490.87934,47.942498 494.05144,39.463758 496.09375,34.281248 C 498.19998,28.936578 500.28666,21.941918 500.96875,18.093748 C 502.41222,9.9499380 503.13665,-0.29703200 502.25000,0.15624800 L 502.25000,0.062498000 L 614.00000,0.062498000 L 614.00000,-2.0000000e-06 L 14.000000,-2.0000000e-06 z "
       id="path3063" />
    <path
       style="fill:#000000;fill-opacity:0.098039217;stroke-width:0.0000000;stroke-miterlimit:4.0000000"
       d="M 16.000000,0.0000000 L 16.000000,768.00000 L 505.15625,768.00000 L 505.50000,767.06250 C 506.00347,765.65317 506.39976,763.60948 506.40625,762.53125 C 506.41276,761.45291 507.06468,757.46173 507.87500,753.62500 C 513.39462,727.49041 524.25604,705.42240 556.25000,655.25000 C 587.90160,605.61452 599.58851,583.15885 608.84375,554.28125 C 617.96846,525.81093 617.41214,496.00215 607.31250,474.50000 C 602.00420,463.19865 597.11826,457.40324 586.62500,449.87500 C 572.60061,439.81342 567.70240,437.67809 533.53125,426.68750 C 511.21716,419.51049 500.36680,414.71436 484.90625,405.28125 C 477.84660,400.97390 466.39484,391.97785 463.78125,388.65625 C 462.95161,387.60185 460.06131,384.31398 457.34375,381.40625 C 439.44807,362.25816 424.96277,334.10097 419.75000,308.28125 C 416.26303,291.00974 415.67000,284.31913 416.12500,267.21875 C 416.36218,258.30484 416.92505,247.95014 417.37500,244.21875 C 421.07722,213.51709 433.07557,176.37802 452.87500,134.18750 C 454.62611,130.45611 458.41198,122.31277 461.31250,116.09375 C 464.21303,109.87475 468.76743,100.79370 471.43750,95.937500 C 478.45804,83.168820 487.25210,63.994070 491.06250,53.125000 C 492.87934,47.942500 496.05144,39.463760 498.09375,34.281250 C 500.19998,28.936580 502.28666,21.941920 502.96875,18.093750 C 504.41222,9.9499400 505.13665,-0.29703000 504.25000,0.15625000 L 504.25000,0.062500000 L 616.00000,0.062500000 L 616.00000,0.0000000 L 16.000000,0.0000000 z "
       id="path3065" />
    <path
       style="fill:#000000;fill-opacity:0.098039217;stroke-width:0.0000000;stroke-miterlimit:4.0000000"
       d="M 18.000000,-4.0000000e-06 L 18.000000,768.00000 L 507.15625,768.00000 L 507.50000,767.06250 C 508.00347,765.65317 508.39976,763.60948 508.40625,762.53125 C 508.41276,761.45291 509.06468,757.46173 509.87500,753.62500 C 515.39462,727.49041 526.25604,705.42240 558.25000,655.25000 C 589.90160,605.61452 601.58851,583.15885 610.84375,554.28125 C 619.96846,525.81093 619.41214,496.00215 609.31250,474.50000 C 604.00420,463.19865 599.11826,457.40324 588.62500,449.87500 C 574.60061,439.81342 569.70240,437.67809 535.53125,426.68750 C 513.21716,419.51049 502.36680,414.71436 486.90625,405.28125 C 479.84660,400.97390 468.39484,391.97785 465.78125,388.65625 C 464.95161,387.60185 462.06131,384.31398 459.34375,381.40625 C 441.44807,362.25816 426.96277,334.10097 421.75000,308.28125 C 418.26303,291.00974 417.67000,284.31913 418.12500,267.21875 C 418.36218,258.30484 418.92505,247.95014 419.37500,244.21875 C 423.07722,213.51709 435.07557,176.37802 454.87500,134.18750 C 456.62611,130.45611 460.41198,122.31277 463.31250,116.09375 C 466.21303,109.87475 470.76743,100.79370 473.43750,95.937496 C 480.45804,83.168816 489.25210,63.994066 493.06250,53.124996 C 494.87934,47.942496 498.05144,39.463756 500.09375,34.281246 C 502.19998,28.936576 504.28666,21.941916 504.96875,18.093746 C 506.41222,9.9499360 507.13665,-0.29703400 506.25000,0.15624600 L 506.25000,0.062496000 L 618.00000,0.062496000 L 618.00000,-4.0000000e-06 L 18.000000,-4.0000000e-06 z "
       id="path3067" />
    <path
       style="fill:#000000;fill-opacity:0.098039217;stroke-width:0.0000000;stroke-miterlimit:4.0000000"
       d="M 20.000000,-5.0000000e-05 L 20.000000,768.00000 L 509.15625,768.00000 L 509.50000,767.06250 C 510.00347,765.65310 510.39976,763.60940 510.40625,762.53120 C 510.41276,761.45290 511.06468,757.46170 511.87500,753.62500 C 517.39462,727.49040 528.25604,705.42240 560.25000,655.25000 C 591.90160,605.61450 603.58851,583.15880 612.84375,554.28120 C 621.96846,525.81088 621.41214,496.00210 611.31250,474.49995 C 606.00420,463.19860 601.11826,457.40319 590.62500,449.87495 C 576.60061,439.81337 571.70240,437.67804 537.53125,426.68745 C 515.21716,419.51044 504.36680,414.71431 488.90625,405.28120 C 481.84660,400.97385 470.39484,391.97780 467.78125,388.65620 C 466.95161,387.60180 464.06131,384.31393 461.34375,381.40620 C 443.44807,362.25811 428.96277,334.10092 423.75000,308.28120 C 420.26303,291.00969 419.67000,284.31908 420.12500,267.21870 C 420.36218,258.30479 420.92505,247.95009 421.37500,244.21870 C 425.07722,213.51704 437.07557,176.37797 456.87500,134.18745 C 458.62611,130.45606 462.41198,122.31272 465.31250,116.09370 C 468.21303,109.87470 472.76743,100.79365 475.43750,95.937450 C 482.45804,83.168770 491.25210,63.994020 495.06250,53.124950 C 496.87934,47.942450 500.05144,39.463710 502.09375,34.281200 C 504.19998,28.936530 506.28666,21.941870 506.96875,18.093700 C 508.41222,9.9498900 509.13665,-0.29708000 508.25000,0.15620000 L 508.25000,0.062450000 L 620.00000,0.062450000 L 620.00000,-5.0000000e-05 L 20.000000,-5.0000000e-05 z "
       id="path1342" />
    <path
       style="fill:#000000;fill-opacity:0.098039217;stroke-width:0.0000000;stroke-miterlimit:4.0000000"
       d="M 22.000000,2.0000000e-05 L 22.000000,768.00000 L 511.15625,768.00000 L 511.50000,767.06250 C 512.00347,765.65320 512.39976,763.60950 512.40625,762.53130 C 512.41276,761.45290 513.06468,757.46180 513.87500,753.62500 C 519.39462,727.49040 530.25604,705.42240 562.25000,655.25000 C 593.90160,605.61450 605.58851,583.15890 614.84375,554.28127 C 623.96846,525.81095 623.41214,496.00217 613.31250,474.50002 C 608.00420,463.19867 603.11826,457.40326 592.62500,449.87502 C 578.60061,439.81344 573.70240,437.67811 539.53125,426.68752 C 517.21716,419.51051 506.36680,414.71438 490.90625,405.28127 C 483.84660,400.97392 472.39484,391.97787 469.78125,388.65627 C 468.95161,387.60187 466.06131,384.31400 463.34375,381.40627 C 445.44807,362.25818 430.96277,334.10099 425.75000,308.28127 C 422.26303,291.00976 421.67000,284.31915 422.12500,267.21877 C 422.36218,258.30486 422.92505,247.95016 423.37500,244.21877 C 427.07722,213.51711 439.07557,176.37804 458.87500,134.18752 C 460.62611,130.45613 464.41198,122.31279 467.31250,116.09377 C 470.21303,109.87477 474.76743,100.79372 477.43750,95.937520 C 484.45804,83.168840 493.25210,63.994090 497.06250,53.125020 C 498.87934,47.942520 502.05144,39.463780 504.09375,34.281270 C 506.19998,28.936600 508.28666,21.941940 508.96875,18.093770 C 510.41222,9.9499600 511.13665,-0.29701000 510.25000,0.15627000 L 510.25000,0.062520000 L 622.00000,0.062520000 L 622.00000,2.0000000e-05 L 22.000000,2.0000000e-05 z "
       id="path1344" />
    <path
       style="fill:url(#linearGradient2968);fill-opacity:1.0000000;stroke-width:0.0000000;stroke-miterlimit:4.0000000"
       d="M 0.0000000,0.0000000 L 0.0000000,768.00000 L 489.15625,768.00000 L 489.50000,767.06250 C 490.00347,765.65317 490.39976,763.60948 490.40625,762.53125 C 490.41276,761.45291 491.06468,757.46173 491.87500,753.62500 C 497.39462,727.49041 508.25604,705.42240 540.25000,655.25000 C 571.90160,605.61452 583.58851,583.15885 592.84375,554.28125 C 601.96846,525.81093 601.41214,496.00215 591.31250,474.50000 C 586.00420,463.19865 581.11826,457.40324 570.62500,449.87500 C 556.60061,439.81342 551.70240,437.67809 517.53125,426.68750 C 495.21716,419.51049 484.36680,414.71436 468.90625,405.28125 C 461.84660,400.97390 450.39484,391.97785 447.78125,388.65625 C 446.95161,387.60185 444.06131,384.31398 441.34375,381.40625 C 423.44807,362.25816 408.96277,334.10097 403.75000,308.28125 C 400.26303,291.00974 399.67000,284.31913 400.12500,267.21875 C 400.36218,258.30484 400.92505,247.95014 401.37500,244.21875 C 405.07722,213.51709 417.07557,176.37802 436.87500,134.18750 C 438.62611,130.45611 442.41198,122.31277 445.31250,116.09375 C 448.21303,109.87475 452.76743,100.79370 455.43750,95.937500 C 462.45804,83.168820 471.25210,63.994070 475.06250,53.125000 C 476.87934,47.942500 480.05144,39.463760 482.09375,34.281250 C 484.19998,28.936580 486.28666,21.941920 486.96875,18.093750 C 488.41222,9.9499400 489.13665,-0.29703000 488.25000,0.15625000 L 488.25000,0.062500000 L 600.00000,0.062500000 L 600.00000,0.0000000 L 0.0000000,0.0000000 z "
       id="rect2156" />
    <g
       transform="translate(-48.68633,-45.18000)"
       id="g1430">
      <path
         style="font-size:12.000000;fill:#000000;fill-opacity:0.097999997;fill-rule:evenodd;stroke:none;stroke-width:2.5000000"
         d="M 821.17000,669.42038 L 838.43660,662.29196 C 839.30780,658.49014 840.65430,654.84673 842.47600,651.44096 L 832.97150,638.60979 C 832.97150,638.60979 841.84240,627.91716 841.84240,627.91716 L 856.65360,634.01594 C 859.82180,631.40217 863.38600,629.18444 867.10870,627.52114 L 870.67290,610.09613 C 870.75210,610.01692 883.26640,607.56158 883.26640,607.56158 C 883.26640,607.56158 891.74130,618.57102 891.74130,618.57102 L 893.08770,624.03614 C 894.83030,624.35296 896.49350,624.90739 898.07760,625.54103 L 912.17590,613.66034 C 912.25510,613.66034 921.12600,620.78875 921.12600,620.78875 C 921.12600,620.78875 929.52170,631.79819 929.52170,631.79819 L 921.28450,647.00547 L 933.24430,647.16388 L 941.64000,658.17332 C 941.64000,658.25253 941.64000,670.76686 941.64000,670.76686 L 924.84870,678.21209 C 923.89820,682.09302 922.47250,685.89490 920.49240,689.37990 L 929.52170,702.44860 C 929.52170,702.44860 920.65080,713.06200 920.65080,713.14120 L 905.83960,706.56730 C 902.82990,709.02260 899.42410,710.92350 895.93910,712.50760 L 891.74130,730.64550 C 891.74130,730.64550 879.22690,733.10080 879.06850,733.18000 C 879.06850,733.18000 870.67290,722.17060 870.67290,722.17060 L 869.31780,715.42110 C 868.05050,715.50030 866.79180,714.64610 865.76220,714.25010 L 850.31730,726.76440 C 850.31730,726.76440 841.44630,719.63600 841.36710,719.63600 C 841.36710,719.63600 832.97150,708.62660 832.97150,708.62660 L 841.60480,693.57770 L 829.56570,693.02330 L 821.17000,682.01382 C 821.17000,682.01382 821.17000,669.49958 821.17000,669.42038 z M 929.77190,702.44860 C 929.77190,702.44860 920.90100,713.06200 920.90100,713.14120 L 929.77190,702.44860 z M 897.93190,661.97390 C 897.93190,670.21118 891.04120,681.22184 882.64480,686.44930 C 874.16990,691.75600 867.35900,689.30070 867.35900,681.06334 C 867.35900,672.82493 874.16990,661.81549 882.64480,656.50999 C 891.04120,651.28248 897.93190,653.65862 897.93190,661.97390 z "
         id="path4963" />
      <path
         style="font-size:12.000000;fill:#000000;fill-opacity:0.097999997;fill-rule:evenodd;stroke:none;stroke-width:2.5000000"
         d="M 819.17000,667.42038 L 836.43662,660.29196 C 837.30782,656.49014 838.65432,652.84673 840.47602,649.44096 L 830.97149,636.60979 C 830.97149,636.60979 839.84242,625.91716 839.84242,625.91716 L 854.65372,632.01594 C 857.82182,629.40217 861.38602,627.18444 865.10872,625.52114 L 868.67292,608.09613 C 868.75212,608.01692 881.26642,605.56158 881.26642,605.56158 C 881.26642,605.56158 889.74132,616.57102 889.74132,616.57102 L 891.08782,622.03614 C 892.83032,622.35296 894.49362,622.90739 896.07772,623.54103 L 910.17592,611.66034 C 910.25512,611.66034 919.12602,618.78875 919.12602,618.78875 C 919.12602,618.78875 927.52172,629.79819 927.52172,629.79819 L 919.28452,645.00547 L 931.24432,645.16388 L 939.64002,656.17332 C 939.64002,656.25253 939.64002,668.76686 939.64002,668.76686 L 922.84872,676.21209 C 921.89822,680.09302 920.47252,683.89490 918.49242,687.37990 L 927.52172,700.44860 C 927.52172,700.44860 918.65082,711.06200 918.65082,711.14120 L 903.83962,704.56730 C 900.82992,707.02260 897.42412,708.92350 893.93912,710.50760 L 889.74132,728.64550 C 889.74132,728.64550 877.22702,731.10080 877.06862,731.18000 C 877.06862,731.18000 868.67292,720.17060 868.67292,720.17060 L 867.31782,713.42110 C 866.05052,713.50030 864.79182,712.64610 863.76222,712.25010 L 848.31732,724.76440 C 848.31732,724.76440 839.44642,717.63600 839.36722,717.63600 C 839.36722,717.63600 830.97149,706.62660 830.97149,706.62660 L 839.60482,691.57770 L 827.56569,691.02330 L 819.17000,680.01382 C 819.17000,680.01382 819.17000,667.49958 819.17000,667.42038 z M 927.77192,700.44860 C 927.77192,700.44860 918.90102,711.06200 918.90102,711.14120 L 927.77192,700.44860 z M 895.93192,659.97390 C 895.93192,668.21118 889.04122,679.22184 880.64482,684.44930 C 872.16992,689.75600 865.35902,687.30070 865.35902,679.06334 C 865.35902,670.82493 872.16992,659.81549 880.64482,654.50999 C 889.04122,649.28248 895.93192,651.65862 895.93192,659.97390 z "
         id="path4961" />
      <path
         style="font-size:12.000000;fill:#000000;fill-opacity:0.097999997;fill-rule:evenodd;stroke:none;stroke-width:2.5000000"
         d="M 817.17000,665.42038 L 834.43660,658.29196 C 835.30790,654.49014 836.65440,650.84673 838.47610,647.44096 L 828.97150,634.60979 C 828.97150,634.60979 837.84240,623.91716 837.84240,623.91716 L 852.65370,630.01594 C 855.82190,627.40217 859.38610,625.18444 863.10870,623.52114 L 866.67290,606.09613 C 866.75210,606.01692 879.26640,603.56158 879.26640,603.56158 C 879.26640,603.56158 887.74130,614.57102 887.74130,614.57102 L 889.08780,620.03614 C 890.83030,620.35296 892.49360,620.90739 894.07770,621.54103 L 908.17590,609.66034 C 908.25510,609.66034 917.12600,616.78875 917.12600,616.78875 C 917.12600,616.78875 925.52170,627.79819 925.52170,627.79819 L 917.28450,643.00547 L 929.24430,643.16388 L 937.64000,654.17332 C 937.64000,654.25253 937.64000,666.76686 937.64000,666.76686 L 920.84870,674.21209 C 919.89820,678.09302 918.47250,681.89490 916.49240,685.37990 L 925.52170,698.44860 C 925.52170,698.44860 916.65080,709.06200 916.65080,709.14120 L 901.83960,702.56730 C 898.82990,705.02260 895.42420,706.92350 891.93920,708.50760 L 887.74130,726.64550 C 887.74130,726.64550 875.22700,729.10080 875.06860,729.18000 C 875.06860,729.18000 866.67290,718.17060 866.67290,718.17060 L 865.31790,711.42110 C 864.05060,711.50030 862.79190,710.64610 861.76220,710.25010 L 846.31730,722.76440 C 846.31730,722.76440 837.44640,715.63600 837.36720,715.63600 C 837.36720,715.63600 828.97150,704.62660 828.97150,704.62660 L 837.60480,689.57770 L 825.56570,689.02330 L 817.17000,678.01382 C 817.17000,678.01382 817.17000,665.49958 817.17000,665.42038 z M 925.77190,698.44860 C 925.77190,698.44860 916.90100,709.06200 916.90100,709.14120 L 925.77190,698.44860 z M 893.93200,657.97390 C 893.93200,666.21118 887.04130,677.22184 878.64480,682.44930 C 870.17000,687.75600 863.35910,685.30070 863.35910,677.06334 C 863.35910,668.82493 870.17000,657.81549 878.64480,652.50999 C 887.04130,647.28248 893.93200,649.65862 893.93200,657.97390 z "
         id="path4959" />
      <path
         style="font-size:12.000000;fill:#000000;fill-opacity:0.097999997;fill-rule:evenodd;stroke:none;stroke-width:2.5000000"
         d="M 815.17000,663.42038 L 832.43660,656.29196 C 833.30780,652.49014 834.65430,648.84673 836.47600,645.44096 L 826.97150,632.60979 C 826.97150,632.60979 835.84240,621.91716 835.84240,621.91716 L 850.65360,628.01594 C 853.82180,625.40217 857.38600,623.18444 861.10870,621.52114 L 864.67290,604.09613 C 864.75210,604.01692 877.26640,601.56158 877.26640,601.56158 C 877.26640,601.56158 885.74130,612.57102 885.74130,612.57102 L 887.08770,618.03614 C 888.83030,618.35296 890.49350,618.90739 892.07760,619.54103 L 906.17590,607.66034 C 906.25510,607.66034 915.12600,614.78875 915.12600,614.78875 C 915.12600,614.78875 923.52170,625.79819 923.52170,625.79819 L 915.28450,641.00547 L 927.24430,641.16388 L 935.64000,652.17332 C 935.64000,652.25253 935.64000,664.76686 935.64000,664.76686 L 918.84870,672.21209 C 917.89820,676.09302 916.47250,679.89490 914.49240,683.37990 L 923.52170,696.44860 C 923.52170,696.44860 914.65080,707.06200 914.65080,707.14120 L 899.83960,700.56730 C 896.82990,703.02260 893.42410,704.92350 889.93910,706.50760 L 885.74130,724.64550 C 885.74130,724.64550 873.22690,727.10080 873.06850,727.18000 C 873.06850,727.18000 864.67290,716.17060 864.67290,716.17060 L 863.31780,709.42110 C 862.05050,709.50030 860.79180,708.64610 859.76220,708.25010 L 844.31730,720.76440 C 844.31730,720.76440 835.44630,713.63600 835.36710,713.63600 C 835.36710,713.63600 826.97150,702.62660 826.97150,702.62660 L 835.60480,687.57770 L 823.56570,687.02330 L 815.17000,676.01382 C 815.17000,676.01382 815.17000,663.49958 815.17000,663.42038 z M 923.77190,696.44860 C 923.77190,696.44860 914.90100,707.06200 914.90100,707.14120 L 923.77190,696.44860 z M 891.93190,655.97390 C 891.93190,664.21118 885.04120,675.22184 876.64480,680.44930 C 868.16990,685.75600 861.35900,683.30070 861.35900,675.06334 C 861.35900,666.82493 868.16990,655.81549 876.64480,650.50999 C 885.04120,645.28248 891.93190,647.65862 891.93190,655.97390 z "
         id="path4957" />
      <path
         style="font-size:12.000000;fill:#000000;fill-opacity:0.097999997;fill-rule:evenodd;stroke:none;stroke-width:2.5000000"
         d="M 813.17000,661.42038 L 830.43660,654.29196 C 831.30780,650.49014 832.65430,646.84673 834.47600,643.44096 L 824.97150,630.60979 C 824.97150,630.60979 833.84240,619.91716 833.84240,619.91716 L 848.65360,626.01594 C 851.82180,623.40217 855.38600,621.18444 859.10870,619.52114 L 862.67290,602.09613 C 862.75210,602.01692 875.26640,599.56158 875.26640,599.56158 C 875.26640,599.56158 883.74130,610.57102 883.74130,610.57102 L 885.08770,616.03614 C 886.83030,616.35296 888.49350,616.90739 890.07760,617.54103 L 904.17590,605.66034 C 904.25510,605.66034 913.12600,612.78875 913.12600,612.78875 C 913.12600,612.78875 921.52170,623.79819 921.52170,623.79819 L 913.28450,639.00547 L 925.24430,639.16388 L 933.64000,650.17332 C 933.64000,650.25253 933.64000,662.76686 933.64000,662.76686 L 916.84870,670.21209 C 915.89820,674.09302 914.47250,677.89490 912.49240,681.37990 L 921.52170,694.44860 C 921.52170,694.44860 912.65080,705.06200 912.65080,705.14120 L 897.83960,698.56730 C 894.82990,701.02260 891.42410,702.92350 887.93910,704.50760 L 883.74130,722.64550 C 883.74130,722.64550 871.22690,725.10080 871.06850,725.18000 C 871.06850,725.18000 862.67290,714.17060 862.67290,714.17060 L 861.31780,707.42110 C 860.05050,707.50030 858.79180,706.64610 857.76220,706.25010 L 842.31730,718.76440 C 842.31730,718.76440 833.44630,711.63600 833.36710,711.63600 C 833.36710,711.63600 824.97150,700.62660 824.97150,700.62660 L 833.60480,685.57770 L 821.56570,685.02330 L 813.17000,674.01382 C 813.17000,674.01382 813.17000,661.49958 813.17000,661.42038 z M 921.77190,694.44860 C 921.77190,694.44860 912.90100,705.06200 912.90100,705.14120 L 921.77190,694.44860 z M 889.93190,653.97390 C 889.93190,662.21118 883.04120,673.22184 874.64480,678.44930 C 866.16990,683.75600 859.35900,681.30070 859.35900,673.06334 C 859.35900,664.82493 866.16990,653.81549 874.64480,648.50999 C 883.04120,643.28248 889.93190,645.65862 889.93190,653.97390 z "
         id="path834" />
      <g
         transform="translate(791.3493,579.9895)"
         id="g1392">
        <path
           id="path930"
           d="M 20.727030,79.115300 L 37.993640,71.986880 C 38.864890,68.185060 40.211370,64.541650 42.033070,61.135850 L 32.528520,48.304710 C 32.528520,48.304710 41.399440,37.612080 41.399440,37.612080 L 56.210700,43.710840 C 59.378880,41.097090 62.943090,38.879360 66.665700,37.216060 L 70.229910,19.791050 C 70.309120,19.711840 82.823440,17.256500 82.823440,17.256500 C 82.823440,17.256500 91.298340,28.265940 91.298340,28.265940 L 92.644810,33.731060 C 94.387320,34.047880 96.050610,34.602310 97.634700,35.235950 L 111.73310,23.355260 C 111.81230,23.355260 120.68320,30.483670 120.68320,30.483670 C 120.68320,30.483670 129.07890,41.493110 129.07890,41.493110 L 120.84170,56.700390 L 132.80150,56.858800 L 141.19720,67.868240 C 141.19720,67.947450 141.19720,80.461780 141.19720,80.461780 L 124.40590,87.907010 C 123.45540,91.788030 122.02970,95.589850 120.04960,99.074860 L 129.07890,112.14360 C 129.07890,112.14360 120.20800,122.75700 120.20800,122.83620 L 105.39680,116.26230 C 102.38700,118.71760 98.981180,120.61850 95.496180,122.20260 L 91.298340,140.34050 C 91.298340,140.34050 78.784010,142.79580 78.625600,142.87500 C 78.625600,142.87500 70.229910,131.86560 70.229910,131.86560 L 68.645820,124.65790 C 67.378550,124.73710 66.348890,124.34110 65.319230,123.94510 L 49.874330,136.45940 C 49.874330,136.45940 41.003410,129.33100 40.924210,129.33100 C 40.924210,129.33100 32.528520,118.32160 32.528520,118.32160 L 41.161820,103.27270 L 29.122720,102.71830 L 20.727030,91.708830 C 20.727030,91.708830 20.727030,79.194500 20.727030,79.115300 z M 97.713910,71.670060 C 97.713910,79.907340 90.823110,90.916780 82.427420,96.144290 C 73.952530,101.45100 67.140930,98.995650 67.140930,90.758370 C 67.140930,82.521090 73.952530,71.511650 82.427420,66.204950 C 90.823110,60.977440 97.713910,63.353580 97.713910,71.670060 z "
           style="font-size:12.000000;fill:url(#radialGradient1474);fill-rule:evenodd;stroke-width:1.8750000" />
        <path
           id="path940"
           d="M 38.150550,72.102180 L 47.057940,83.114950"
           style="font-size:12.000000;fill:none;fill-rule:evenodd;stroke:#ffffff;stroke-width:1.5840920;stroke-opacity:1.0000000" />
        <path
           id="path939"
           d="M 20.827850,79.605000 L 29.760210,90.598700"
           style="font-size:12.000000;fill:none;fill-rule:evenodd;stroke:#ffffff;stroke-width:1.5840920;stroke-opacity:1.0000000" />
        <path
           id="path933"
           d="M 41.670050,37.920590 L 50.373380,48.914280"
           style="font-size:12.000000;fill:none;fill-rule:evenodd;stroke:#ffffff;stroke-width:1.5840920;stroke-opacity:1.0000000" />
        <path
           id="path934"
           d="M 56.328300,44.104540 L 64.802610,54.640160"
           style="font-size:12.000000;fill:none;fill-rule:evenodd;stroke:#ffffff;stroke-width:1.5840920;stroke-opacity:1.0000000" />
        <path
           id="path935"
           d="M 66.634900,37.462520 L 75.338230,48.685240"
           style="font-size:12.000000;fill:none;fill-rule:evenodd;stroke:#ffffff;stroke-width:1.5840920;stroke-opacity:1.0000000" />
        <path
           id="path937"
           d="M 97.325620,35.401200 L 106.48700,46.165850"
           style="font-size:12.000000;fill:none;fill-rule:evenodd;stroke:#ffffff;stroke-width:1.5840920;stroke-opacity:1.0000000" />
        <path
           id="path936"
           d="M 70.299450,20.055850 L 79.231830,31.049550"
           style="font-size:12.000000;fill:none;fill-rule:evenodd;stroke:#ffffff;stroke-width:1.5840920;stroke-opacity:1.0000000" />
        <path
           id="path926"
           d="M 29.373140,90.124610 L 46.639710,82.995080 C 47.510960,79.193260 48.936650,75.549850 50.758350,72.144050 L 41.174600,59.314110 C 41.253800,59.314110 50.124720,48.700690 50.124720,48.700690 L 64.856770,54.720240 C 68.024940,52.106490 71.588440,49.888760 75.311050,48.225460 L 78.875240,30.800770 C 79.033650,30.721560 91.548750,28.266220 91.548750,28.266220 L 95.508980,43.948440 C 99.310670,44.106850 103.03330,44.898870 106.28070,46.245350 L 120.45820,34.364960 C 120.45820,34.364960 129.32910,41.493240 129.32910,41.493240 L 120.53740,57.730020 C 122.59670,60.581380 124.10160,63.907970 124.97280,67.630590 L 141.44740,67.868200 C 141.44740,67.947410 141.44740,80.460530 141.44740,80.460530 L 124.65600,87.905470 C 123.78480,91.788030 122.27990,95.589850 120.29980,99.074860 L 129.32910,112.14360 C 129.32910,112.14360 120.45820,122.75700 120.45820,122.83620 L 105.64700,116.26230 C 102.63730,118.71760 99.310670,120.61850 95.746470,122.20260 L 91.548750,140.34050 C 91.548750,140.34050 79.033650,142.79580 78.875240,142.87500 L 75.152640,126.08360 C 71.746850,125.84600 68.500100,125.13320 65.569600,123.94510 L 50.124720,136.45940 C 50.124720,136.45940 41.253800,129.33100 41.174600,129.33100 L 50.995970,112.30200 C 49.174260,109.76750 47.748580,106.75770 46.877330,103.51030 L 29.373140,102.71830 C 29.373140,102.71830 29.373140,90.203810 29.373140,90.124610 z M 97.488970,71.668820 C 97.488970,79.906100 90.598290,90.916780 82.201830,96.144290 C 73.726970,101.45100 66.916080,98.995650 66.916080,90.758250 C 66.916080,82.519850 73.726970,71.510410 82.201830,66.204910 C 90.598290,60.977400 97.488970,63.353540 97.488970,71.668820 z "
           style="font-size:12.000000;fill:url(#linearGradient1476);fill-opacity:0.18979998;fill-rule:evenodd;stroke:#ffffff;stroke-width:2.3761380;stroke-opacity:1.0000000" />
        <path
           id="path938"
           d="M 111.52580,23.949440 L 120.68720,34.714100"
           style="font-size:12.000000;fill:none;fill-rule:evenodd;stroke:#ffffff;stroke-width:1.2672740;stroke-opacity:1.0000000" />
        <path
           sodipodi:nodetypes="ccccccccc"
           id="path628"
           d="M 66.832660,89.966200 C 66.832660,92.263130 67.228680,94.322450 68.099930,96.064960 C 70.476070,99.787570 75.782780,100.02520 81.960770,96.144160 C 90.356500,90.916660 97.247300,79.907250 97.247300,71.669980 C 97.247300,63.353530 91.652160,62.596900 83.282410,65.180530 C 95.692860,60.988010 106.98950,66.838510 106.98950,78.655950 C 106.98950,90.473360 97.960140,100.65880 86.871460,103.90620 C 78.158950,106.36160 70.792890,103.03500 68.099930,96.064960"
           style="font-size:12.000000;fill:url(#linearGradient1478);fill-opacity:0.18979998;fill-rule:evenodd;stroke-width:1.8750000;stroke-linecap:round;stroke-linejoin:round" />
        <path
           sodipodi:nodetypes="ccccccccccccccccccccccccccc"
           id="path1178"
           d="M 20.727030,79.115400 C 20.727030,79.194600 20.727030,81.296800 20.727030,84.958300 L 29.597950,96.540300 C 49.082280,99.312400 60.170930,99.261000 67.783150,94.859900 C 66.920460,93.072500 67.140930,92.263300 67.140930,90.758400 C 67.140930,82.521200 73.952530,71.511700 82.427420,66.205000 C 90.823110,60.977500 97.713910,63.353600 97.713910,71.670100 C 97.713910,74.204600 97.767390,74.994700 96.077350,78.876700 C 104.76310,75.867900 118.06950,73.254200 141.19720,74.521500 C 141.19720,71.432500 141.19720,67.947500 141.19720,67.868300 L 132.80150,56.858900 L 120.84170,56.700500 L 129.07890,41.493170 C 129.07890,41.493170 120.68320,30.483780 120.68320,30.483780 C 120.68320,30.483780 111.81230,23.355370 111.73310,23.355370 L 97.634700,35.236060 C 96.050610,34.602420 94.387320,34.047990 92.644810,33.731170 L 91.298340,28.266050 C 91.298340,28.266050 82.823440,17.256610 82.823440,17.256610 C 82.823440,17.256610 70.309120,19.711950 70.229940,19.791160 L 66.665730,37.216170 C 62.943090,38.879470 59.378880,41.097170 56.210700,43.711000 L 41.399440,37.612190 C 41.399440,37.612190 32.528520,48.304800 32.528520,48.304800 L 42.033070,61.135900 C 40.211370,64.541700 38.864890,68.185200 37.993640,71.986900 L 20.727030,79.115400"
           style="font-size:12.000000;fill:url(#linearGradient1480);fill-rule:evenodd;stroke-width:1.8750000" />
        <path
           sodipodi:nodetypes="cccccccc"
           id="path629"
           d="M 129.32910,112.14360 C 129.32910,112.14360 120.45820,122.75700 120.45820,122.83620 L 129.32910,112.14360 z M 97.488970,71.668820 C 97.488970,79.906100 90.598290,90.916780 82.201830,96.144290 C 73.726970,101.45100 66.916080,98.995650 66.916080,90.758250 C 66.916080,82.519850 73.726970,71.510410 82.201830,66.204910 C 90.598290,60.977400 97.488970,63.353540 97.488970,71.668820 z "
           style="font-size:12.000000;fill:none;fill-opacity:0.18979998;fill-rule:evenodd;stroke:#667f99;stroke-width:2.3761380;stroke-opacity:1.0000000" />
        <path
           sodipodi:nodetypes="ccccccccccccccccccccccccccccccccccccc"
           id="path927"
           d="M 20.727030,79.115300 L 37.993640,71.986880 C 38.864890,68.185060 40.211370,64.541650 42.033070,61.135880 L 32.528520,48.304710 C 32.528520,48.304710 41.399440,37.612080 41.399440,37.612080 L 56.210700,43.710860 C 59.378880,41.097090 62.943090,38.879360 66.665730,37.216060 L 70.229940,19.791050 C 70.309120,19.711840 82.823440,17.256500 82.823440,17.256500 C 82.823440,17.256500 91.298340,28.265940 91.298340,28.265940 L 92.644810,33.731060 C 94.387320,34.047880 96.050610,34.602310 97.634700,35.235950 L 111.73310,23.355260 C 111.81230,23.355260 120.68320,30.483670 120.68320,30.483670 C 120.68320,30.483670 129.07890,41.493110 129.07890,41.493110 L 120.84170,56.700390 L 132.80150,56.858800 L 141.19720,67.868240 C 141.19720,67.947450 141.19720,80.461780 141.19720,80.461780 L 124.40590,87.907010 C 123.45540,91.788030 122.02970,95.589850 120.04960,99.074860 L 129.07890,112.14360 C 129.07890,112.14360 120.20800,122.75700 120.20800,122.83620 L 105.39680,116.26230 C 102.38700,118.71760 98.981180,120.61850 95.496180,122.20260 L 91.298340,140.34050 C 91.298340,140.34050 78.784010,142.79580 78.625600,142.87500 C 78.625600,142.87500 70.229940,131.86560 70.229940,131.86560 L 68.874890,125.11610 C 67.607580,125.19530 66.348890,124.34110 65.319230,123.94510 L 49.874330,136.45940 C 49.874330,136.45940 41.003410,129.33100 40.924210,129.33100 C 40.924210,129.33100 32.528520,118.32160 32.528520,118.32160 L 41.161820,103.27270 L 29.122720,102.71830 L 20.727030,91.708830 C 20.727030,91.708830 20.727030,79.194500 20.727030,79.115300 z "
           style="font-size:12.000000;fill:none;fill-rule:evenodd;stroke:#667f99;stroke-width:2.5000000;stroke-opacity:1.0000000" />
      </g>
      <g
         id="g2304"
         transform="matrix(0.409758,0.169468,-0.184123,0.453152,858.3605,615.5303)"
         style="stroke:none">
        <path
           sodipodi:type="arc"
           style="fill:url(#radialGradient1482);fill-opacity:1.0000000;fill-rule:evenodd;stroke-width:2.5000000;stroke-linecap:butt;stroke-linejoin:miter;stroke-opacity:1.0000000"
           id="path614"
           d="M 144.15335 79.233231 A 63.386581 63.386585 0 1 1  17.380188,79.233231 A 63.386581 63.386585 0 1 1  144.15335 79.233231 z"
           sodipodi:cx="80.766769"
           sodipodi:cy="79.233231"
           sodipodi:rx="63.386581"
           sodipodi:ry="63.386585"
           transform="translate(-0.511184,1.533546)" />
        <path
           style="fill:#000000;fill-opacity:0.55470002;fill-rule:evenodd;stroke-width:1.0000000pt;stroke-linecap:butt;stroke-linejoin:miter;stroke-opacity:1.0000000"
           d="M 66.134850,117.70510 L 60.643530,115.05330 L 58.649940,110.84450 L 53.776780,109.95860 L 51.118690,105.97140 L 45.359480,104.19930 L 42.036860,99.104710 L 42.036860,93.566940 L 36.056140,92.016390 L 33.841070,85.814180 L 31.404480,76.067830 L 33.619560,67.872040 L 37.828210,62.555840 L 38.714240,57.682670 L 41.372340,56.575120 L 42.701390,50.372910 L 37.828210,48.822350 L 41.372340,44.170690 L 47.131550,43.949170 L 50.454160,42.398620 L 54.662810,42.841640 L 57.763920,45.721240 L 61.529560,42.841640 L 64.852170,45.942740 L 69.282330,42.841640 L 75.484550,42.177120 L 82.129790,43.284650 L 87.889000,46.164260 L 91.433130,49.043860 L 93.205190,53.695530 L 90.104080,56.575120 L 85.673920,54.138530 L 81.686770,49.708390 L 80.357730,52.809500 L 83.680340,57.239650 L 88.110490,61.005290 L 90.325590,64.327910 L 92.983680,69.201080 L 88.110490,69.865600 L 86.559950,72.745220 L 81.022260,75.181780 L 77.921140,78.725920 L 74.598520,78.947430 L 75.263040,84.263610 L 69.946860,86.257190 L 68.839320,94.674480 L 64.187650,95.339010 L 63.301620,89.579800 L 60.422020,86.035680 L 57.985420,89.579800 L 54.441300,86.478700 L 51.561700,90.022820 L 49.346620,94.895990 L 52.004720,97.997120 L 55.548840,101.09820 L 57.985420,97.775640 L 61.529560,97.554070 L 60.865030,104.19930 L 63.966140,106.19280 L 64.187650,110.62300 L 66.845750,112.61660 L 70.168360,112.61660 L 72.383440,115.49620 L 75.041540,112.83810 L 81.465270,112.61660 L 83.901860,115.49620 L 86.781450,112.39520 L 90.547090,112.61660 L 92.540670,115.27460 L 96.306290,118.59730 L 101.40100,118.59730 L 104.50210,121.69840 L 107.38170,121.47690 L 107.82470,125.46410 L 109.59680,128.56510 L 104.28050,132.33080 L 97.635350,134.98890 L 89.218040,136.98250 L 81.908280,137.64710 L 75.041540,137.64710 L 69.282330,136.76100 L 63.523130,134.98890 L 63.523130,130.55870 L 65.516700,126.35000 L 66.624240,123.47050 L 69.503830,121.03400 L 69.282330,118.15430 L 66.134850,117.70510 z "
           id="path620"
           sodipodi:nodetypes="cccccccccccccccccccccccccccccccccccccccccccccccccccccccccccccccccccccccccccccccccccccccc" />
        <path
           style="fill:url(#radialGradient1484);fill-opacity:1.0000000;fill-rule:evenodd;stroke-width:1.0000000pt;stroke-linecap:butt;stroke-linejoin:miter;stroke-opacity:1.0000000"
           d="M 64.611050,121.14300 L 58.274770,118.08310 L 55.974450,113.22680 L 50.351450,112.20450 L 47.284360,107.60380 L 40.638990,105.55910 L 36.805120,99.680500 L 36.805120,93.290720 L 29.904160,91.501580 L 27.348250,84.345030 L 24.536750,73.099020 L 27.092660,63.642150 L 31.948890,57.507960 L 32.971260,51.884960 L 36.038350,50.606990 L 37.571900,43.450450 L 31.948890,41.661310 L 36.038350,36.293900 L 42.683720,36.038300 L 46.517590,34.249160 L 51.373820,34.760350 L 54.952090,38.083040 L 59.297140,34.760350 L 63.131010,38.338620 L 68.242830,34.760350 L 75.399380,33.993580 L 83.067110,35.271530 L 89.712490,38.594220 L 93.801950,41.916900 L 95.846670,47.284320 L 92.268400,50.606990 L 87.156570,47.795490 L 82.555930,42.683680 L 81.022380,46.261950 L 84.856250,51.373770 L 89.968070,55.718820 L 92.523990,59.552690 L 95.591080,65.175700 L 89.968070,65.942470 L 88.178940,69.265170 L 81.789160,72.076650 L 78.210880,76.166110 L 74.377020,76.421700 L 75.143790,82.555890 L 69.009600,84.856210 L 67.731650,94.568670 L 62.364230,95.335450 L 61.341870,88.690080 L 58.019190,84.600620 L 55.207680,88.690080 L 51.118230,85.111800 L 47.795540,89.201260 L 45.239630,94.824260 L 48.306720,98.402540 L 52.396180,101.98080 L 55.207680,98.146950 L 59.297140,97.891360 L 58.530370,105.55910 L 62.108640,107.85940 L 62.364230,112.97120 L 65.431330,115.27160 L 69.265190,115.27160 L 71.821110,118.59420 L 74.888200,115.52710 L 82.300340,115.27160 L 85.111850,118.59420 L 88.434520,115.01600 L 92.779580,115.27160 L 95.079900,118.33860 L 99.424940,122.17250 L 105.30350,122.17250 L 108.88180,125.75080 L 112.20450,125.49520 L 112.71570,130.09580 L 114.76040,133.67410 L 108.62620,138.01920 L 100.95850,141.08630 L 91.246030,143.38660 L 82.811520,144.15340 L 74.888200,144.15340 L 68.242830,143.13100 L 61.597460,141.08630 L 61.597460,135.97440 L 63.897780,131.11820 L 65.175740,127.79550 L 68.498420,124.98400 L 68.242830,121.66130 L 64.611050,121.14300 z "
           id="path608"
           sodipodi:nodetypes="cccccccccccccccccccccccccccccccccccccccccccccccccccccccccccccccccccccccccccccccccccccccc" />
        <path
           style="fill:#000000;fill-opacity:1.0000000;fill-rule:evenodd;stroke-width:1.0000000pt;stroke-linecap:butt;stroke-linejoin:miter;stroke-opacity:1.0000000"
           d="M 82.097250,99.762310 L 76.723740,99.506440 L 73.653150,96.350540 L 66.062000,96.862290 L 65.976710,98.909340 L 71.179640,100.87100 L 75.444330,104.28280 L 81.244310,104.87990 L 87.470770,104.36810 L 87.214880,102.32100 L 82.097250,99.762310 z "
           id="path630"
           sodipodi:nodetypes="ccccccccccc" />
        <path
           sodipodi:type="arc"
           style="fill:none;fill-opacity:1.0000000;fill-rule:evenodd;stroke-width:2.5000000;stroke-linecap:butt;stroke-linejoin:miter;stroke-opacity:1.0000000"
           id="path607"
           d="M 144.15335 79.233231 A 63.386581 63.386585 0 1 1  17.380188,79.233231 A 63.386581 63.386585 0 1 1  144.15335 79.233231 z"
           sodipodi:cx="80.766769"
           sodipodi:cy="79.233231"
           sodipodi:rx="63.386581"
           sodipodi:ry="63.386585"
           transform="translate(-0.511184,1.533546)" />
        <path
           style="fill:url(#radialGradient1486);fill-opacity:1.0000000;fill-rule:evenodd;stroke-width:1.0000000pt;stroke-linecap:butt;stroke-linejoin:miter;stroke-opacity:1.0000000"
           d="M 80.244220,100.99160 L 74.551220,100.72050 L 71.298070,97.376980 L 63.255580,97.919160 L 63.165220,100.08790 L 68.677490,102.16630 L 73.195740,105.78090 L 79.340570,106.41350 L 85.937230,105.87130 L 85.666130,103.70250 L 80.244220,100.99160 z "
           id="path609"
           sodipodi:nodetypes="ccccccccccc" />
        <path
           sodipodi:type="arc"
           style="fill:url(#linearGradient1488);fill-opacity:1.0000000;fill-rule:evenodd;stroke-width:1.0000000pt;stroke-linecap:butt;stroke-linejoin:miter;stroke-opacity:1.0000000"
           id="path626"
           d="M 120.36635 52.826962 A 45.905487 34.158016 0 1 1  28.555374,52.826962 A 45.905487 34.158016 0 1 1  120.36635 52.826962 z"
           sodipodi:cx="74.460861"
           sodipodi:cy="52.826962"
           sodipodi:rx="45.905487"
           sodipodi:ry="34.158016"
           transform="matrix(1.000000,0.000000,0.000000,0.957672,5.783367,0.790224)" />
        <path
           style="font-size:12.000000;fill:url(#linearGradient1490);fill-rule:evenodd;stroke-width:1.0000000"
           d="M 137.00000,80.250000 C 137.00000,111.75000 111.50000,137.25000 80.000000,137.25000 C 48.500000,137.25000 23.000000,111.75000 23.000000,80.250000 C 23.000000,80.250000 23.000000,80.187500 23.000000,80.187500 C 23.062500,106.68750 48.755580,123.97300 80.255580,123.97300 C 111.75560,123.97300 136.93750,106.68750 137.00000,80.187500 C 137.00000,80.187500 137.00000,80.250000 137.00000,80.250000 z M 136.93750,79.812500 C 136.75000,48.500000 136.81250,53.500000 136.93750,79.812500 z "
           id="path635"
           sodipodi:nodetypes="ccccccccc" />
      </g>
      <path
         sodipodi:type="arc"
         style="fill:#000000;fill-opacity:0.0000000;stroke:#667f99;stroke-width:2.0000000;stroke-miterlimit:4.0000000;stroke-opacity:1.0000000"
         id="path3102"
         sodipodi:cx="878.33728"
         sodipodi:cy="664.42249"
         sodipodi:rx="32.272572"
         sodipodi:ry="33.362862"
         d="M 910.60985 664.42249 A 32.272572 33.362862 0 1 1  846.06471,664.42249 A 32.272572 33.362862 0 1 1  910.60985 664.42249 z"
         transform="matrix(0.616736,0.601550,-0.601180,0.729686,734.1090,-347.6705)" />
      <path
         style="fill:#000000;fill-opacity:0.098039217;fill-rule:evenodd;stroke:#000000;stroke-width:0.0000000;stroke-linecap:butt;stroke-linejoin:miter;stroke-miterlimit:4.0000000;stroke-opacity:0.098039217"
         d="M 895.01259,546.91336 L 868.69000,549.56774 L 869.13240,655.96405 L 876.43194,661.27281 L 902.75454,657.51244 L 902.75454,619.24516 L 929.07714,657.29124 L 936.37664,662.60000 L 964.46884,653.97327 L 929.29834,605.30967 L 964.69004,559.52165 L 956.50564,554.21290 L 928.85594,548.01935 L 903.19694,582.74746 L 903.19694,552.00092 L 895.01259,546.91336 z "
         id="path2200" />
      <path
         style="fill:#000000;fill-opacity:0.098039217;fill-rule:evenodd;stroke:#000000;stroke-width:0.0000000;stroke-linecap:butt;stroke-linejoin:miter;stroke-miterlimit:4.0000000;stroke-opacity:0.098039217"
         d="M 901.01256,552.91336 L 874.69000,555.56774 L 875.13240,661.96405 L 882.43196,667.27281 L 908.75456,663.51244 L 908.75456,625.24516 L 935.07716,663.29124 L 942.37666,668.60000 L 970.46886,659.97327 L 935.29836,611.30967 L 970.69006,565.52165 L 962.50566,560.21290 L 934.85596,554.01935 L 909.19696,588.74746 L 909.19696,558.00092 L 901.01256,552.91336 z "
         id="path4906" />
      <path
         style="fill:#000000;fill-opacity:0.098039217;fill-rule:evenodd;stroke:#000000;stroke-width:0.0000000;stroke-linecap:butt;stroke-linejoin:miter;stroke-miterlimit:4.0000000;stroke-opacity:0.098039217"
         d="M 903.01260,554.91336 L 876.69000,557.56774 L 877.13240,663.96405 L 884.43190,669.27281 L 910.75450,665.51244 L 910.75450,627.24516 L 937.07710,665.29124 L 944.37660,670.60000 L 972.46880,661.97327 L 937.29830,613.30967 L 972.69000,567.52165 L 964.50560,562.21290 L 936.85590,556.01935 L 911.19690,590.74746 L 911.19690,560.00092 L 903.01260,554.91336 z "
         id="path4908" />
      <path
         style="fill:#000000;fill-opacity:0.098039217;fill-rule:evenodd;stroke:#000000;stroke-width:0.0000000;stroke-linecap:butt;stroke-linejoin:miter;stroke-miterlimit:4.0000000;stroke-opacity:0.098039217"
         d="M 899.01260,550.91336 L 872.69000,553.56774 L 873.13240,659.96405 L 880.43190,665.27281 L 906.75450,661.51244 L 906.75450,623.24516 L 933.07710,661.29124 L 940.37660,666.60000 L 968.46880,657.97327 L 933.29830,609.30967 L 968.69000,563.52165 L 960.50560,558.21290 L 932.85590,552.01935 L 907.19690,586.74746 L 907.19690,556.00092 L 899.01260,550.91336 z "
         id="path4904" />
      <path
         style="fill:#000000;fill-opacity:0.098039217;fill-rule:evenodd;stroke:#000000;stroke-width:0.0000000;stroke-linecap:butt;stroke-linejoin:miter;stroke-miterlimit:4.0000000;stroke-opacity:0.098039217"
         d="M 897.01259,548.91336 L 870.69000,551.56774 L 871.13240,657.96405 L 878.43194,663.27281 L 904.75454,659.51244 L 904.75454,621.24516 L 931.07714,659.29124 L 938.37664,664.60000 L 966.46884,655.97327 L 931.29834,607.30967 L 966.69004,561.52165 L 958.50564,556.21290 L 930.85594,550.01935 L 905.19694,584.74746 L 905.19694,554.00092 L 897.01259,548.91336 z "
         id="path4902" />
      <path
         style="fill:url(#linearGradient1492);fill-opacity:1.0000000;fill-rule:evenodd;stroke:#ffffff;stroke-width:0.69999999;stroke-linecap:butt;stroke-linejoin:miter;stroke-miterlimit:4.0000000;stroke-opacity:1.0000000"
         d="M 865.54839,547.68664 L 872.62673,552.33180 L 898.72811,549.89862 L 891.20738,545.25346 L 865.54839,547.68664 z "
         id="path1383" />
      <path
         style="fill:url(#linearGradient1494);fill-opacity:1.0000000;fill-rule:evenodd;stroke:#ffffff;stroke-width:0.69999999;stroke-linecap:butt;stroke-linejoin:miter;stroke-miterlimit:4.0000000;stroke-opacity:1.0000000"
         d="M 865.54839,653.86175 L 872.40553,658.72811 L 872.62673,552.55299 L 865.54839,548.12903 L 865.54839,653.86175 z "
         id="path2153" />
      <path
         style="fill:url(#linearGradient1496);fill-opacity:1.0000000;fill-rule:evenodd;stroke:#ffffff;stroke-width:0.69999999;stroke-linecap:butt;stroke-linejoin:miter;stroke-miterlimit:4.0000000;stroke-opacity:1.0000000"
         d="M 925.05069,546.58064 L 932.12903,551.00461 L 898.72811,595.68664 L 898.72811,581.97235 L 925.05069,546.58064 z "
         id="path2163" />
      <path
         style="fill:url(#linearGradient1498);fill-opacity:1.0000000;fill-rule:evenodd;stroke:#fffeff;stroke-width:0.69999999;stroke-linecap:butt;stroke-linejoin:miter;stroke-miterlimit:4.0000000;stroke-opacity:1.0000000"
         d="M 952.58986,552.77419 L 960.00000,557.30876 L 932.68203,551.00461 L 925.49309,546.24885 L 952.58986,552.77419 z "
         id="path2176" />
      <path
         style="fill:url(#linearGradient1500);fill-opacity:1.0000000;fill-rule:evenodd;stroke:#ffffff;stroke-width:0.69999999;stroke-linecap:butt;stroke-linejoin:miter;stroke-miterlimit:4.0000000;stroke-opacity:1.0000000"
         d="M 898.57957,609.86877 L 932.52069,659.92019 L 925.48221,655.22787 L 898.57957,615.96878 L 898.57957,609.86877 z "
         id="path2186" />
      <path
         id="path2888"
         style="fill:url(#linearGradient1502);fill-opacity:1.0000000;stroke:#ffffff;stroke-opacity:1.0000000"
         d="M 873.05580,659.09737 L 873.05580,552.66775 L 898.90445,550.19588 L 898.62898,596.94822 L 932.73307,551.29040 L 960.23456,557.61147 L 924.75430,603.26316 L 959.95912,651.66831 L 933.00976,660.20046 L 898.62898,609.87316 L 898.62898,655.24204 L 873.05580,659.09737 z " />
      <path
         style="fill:none;fill-opacity:0.75000000;fill-rule:evenodd;stroke:#667f99;stroke-width:2.0000000;stroke-linecap:butt;stroke-linejoin:miter;stroke-miterlimit:4.0000000;stroke-opacity:1.0000000"
         d="M 891.20738,544.81106 L 864.88479,547.46544 L 865.32719,653.86175 L 872.62673,659.17051 L 898.94931,655.41014 L 898.94931,617.14286 L 925.27189,655.18894 L 932.57143,660.49770 L 960.66360,651.87097 L 925.49309,603.20737 L 960.88479,557.41935 L 952.70046,552.11060 L 925.05069,545.91705 L 899.39171,580.64516 L 899.39171,549.89862 L 891.20738,544.81106 z "
         id="path2198" />
    </g>
    <path
       id="path3080"
       d="M 473.24824,0.062502600 L 473.24824,0.15625260 C 474.13490,-0.29702740 473.41046,9.9499326 471.96699,18.093753 C 471.28491,21.941913 469.19822,28.936573 467.09199,34.281253 C 465.04969,39.463753 461.87758,47.942493 460.06074,53.125003 C 456.25035,63.994063 447.45628,83.168823 440.43574,95.937503 C 437.76568,100.79370 433.21127,109.87475 430.31074,116.09375 C 427.41023,122.31277 423.62435,130.45611 421.87324,134.18750 C 402.07382,176.37802 390.07546,213.51709 386.37324,244.21875 C 385.92330,247.95014 385.36042,258.30484 385.12324,267.21875 C 384.66825,284.31913 385.26127,291.00974 388.74824,308.28125 C 393.96102,334.10097 408.44631,362.25816 426.34199,381.40625 C 429.05956,384.31398 431.94985,387.60185 432.77949,388.65625 C 435.39309,391.97785 446.84484,400.97390 453.90449,405.28125 C 469.36505,414.71436 480.21540,419.51049 502.52949,426.68750 C 536.70065,437.67809 541.59889,439.81342 555.62324,449.87500 C 566.11651,457.40324 571.00244,463.19865 576.31074,474.50000 C 586.41041,496.00215 586.96669,525.81093 577.84199,554.28125 C 568.58681,583.15885 556.89980,605.61452 525.24824,655.25000 C 493.25429,705.42240 482.39286,727.49041 476.87324,753.62500 C 476.06293,757.46173 475.41100,761.45291 475.40449,762.53125 C 475.39801,763.60948 475.00171,765.65317 474.49824,767.06250 L 474.15449,768.00000 L 489.15449,768.00000 L 489.49824,767.06250 C 490.00171,765.65317 490.39800,763.60948 490.40449,762.53125 C 490.41100,761.45291 491.06292,757.46173 491.87324,753.62500 C 497.39286,727.49041 508.25428,705.42240 540.24824,655.25000 C 571.89984,605.61452 583.58669,583.15885 592.84199,554.28125 C 601.96668,525.81093 601.41034,496.00215 591.31074,474.50000 C 586.00244,463.19865 581.11654,457.40324 570.62324,449.87500 C 556.59885,439.81342 551.70064,437.67809 517.52949,426.68750 C 495.21540,419.51049 484.36504,414.71436 468.90449,405.28125 C 461.84484,400.97390 450.39308,391.97785 447.77949,388.65625 C 446.94985,387.60185 444.05955,384.31398 441.34199,381.40625 C 423.44631,362.25816 408.96101,334.10097 403.74824,308.28125 C 400.26127,291.00974 399.66824,284.31913 400.12324,267.21875 C 400.36042,258.30484 400.92329,247.95014 401.37324,244.21875 C 405.07546,213.51709 417.07381,176.37802 436.87324,134.18750 C 438.62435,130.45611 442.41022,122.31277 445.31074,116.09375 C 448.21127,109.87475 452.76567,100.79370 455.43574,95.937503 C 462.45628,83.168823 471.25034,63.994073 475.06074,53.125003 C 476.87758,47.942503 480.04968,39.463763 482.09199,34.281253 C 484.19822,28.936583 486.28490,21.941923 486.96699,18.093753 C 488.41046,9.9499426 489.13489,-0.29702740 488.24824,0.15625260 L 488.24824,0.062502600 L 473.24824,0.062502600 z "
       style="fill:#000000;fill-opacity:1.0000000;fill-rule:evenodd;stroke:#000000;stroke-width:0.0000000;stroke-linecap:butt;stroke-linejoin:miter;stroke-miterlimit:4.0000000;stroke-opacity:0.0000000" />
  </g>
</svg>
