/* XPM */
static char * star2_xpm[] = {
"50 50 657 2",
"  	c None",
". 	c #07080F",
"+ 	c #080911",
"@ 	c #070810",
"# 	c #06070F",
"$ 	c #05060F",
"% 	c #080811",
"& 	c #0A0A13",
"* 	c #070711",
"= 	c #070811",
"- 	c #080912",
"; 	c #080913",
"> 	c #060711",
", 	c #0A0B16",
"' 	c #0A0A15",
") 	c #080813",
"! 	c #0C0C18",
"~ 	c #0D0E19",
"{ 	c #0C0D18",
"] 	c #0B0C17",
"^ 	c #090A15",
"/ 	c #080814",
"( 	c #0C0C17",
"_ 	c #0D0D18",
": 	c #070813",
"< 	c #0A0B15",
"[ 	c #0B0C15",
"} 	c #090A13",
"| 	c #080812",
"1 	c #090912",
"2 	c #0B0B14",
"3 	c #0A0B13",
"4 	c #090A12",
"5 	c #070710",
"6 	c #06060F",
"7 	c #0A0A14",
"8 	c #0B0B16",
"9 	c #080914",
"0 	c #0E0F1A",
"a 	c #0B0C18",
"b 	c #0C0D19",
"c 	c #0A0B17",
"d 	c #090914",
"e 	c #090A14",
"f 	c #0C0D17",
"g 	c #0B0B15",
"h 	c #0A0B14",
"i 	c #060610",
"j 	c #070812",
"k 	c #070713",
"l 	c #090A16",
"m 	c #0E0F1B",
"n 	c #0D0E1A",
"o 	c #080915",
"p 	c #090915",
"q 	c #0B0C16",
"r 	c #060710",
"s 	c #090913",
"t 	c #0B0B18",
"u 	c #0A0A17",
"v 	c #10101D",
"w 	c #0F101C",
"x 	c #090916",
"y 	c #0D0D1A",
"z 	c #0F0F1C",
"A 	c #0C0C16",
"B 	c #070814",
"C 	c #0C0C19",
"D 	c #0B0C19",
"E 	c #090A17",
"F 	c #10111E",
"G 	c #0F101D",
"H 	c #0D0E1B",
"I 	c #0C0D1A",
"J 	c #080916",
"K 	c #0E0E19",
"L 	c #0A0B19",
"M 	c #0F101E",
"N 	c #10111F",
"O 	c #0D0E1C",
"P 	c #0E0F1D",
"Q 	c #0D0D1B",
"R 	c #090A18",
"S 	c #0A0B18",
"T 	c #05050E",
"U 	c #0A0A16",
"V 	c #0B0B1A",
"W 	c #0C0D1B",
"X 	c #121321",
"Y 	c #0F101F",
"Z 	c #0E0F1E",
"` 	c #0C0C1B",
" .	c #10111D",
"..	c #0E0E1A",
"+.	c #05050F",
"@.	c #0B0B17",
"#.	c #0B0C1A",
"$.	c #0C0D1C",
"%.	c #0D0E1D",
"&.	c #121323",
"*.	c #0F1020",
"=.	c #0E0F1F",
"-.	c #101121",
";.	c #0C0D1D",
">.	c #131423",
",.	c #0B0C1B",
"'.	c #0E0F1C",
").	c #090A19",
"!.	c #141525",
"~.	c #111222",
"{.	c #111221",
"].	c #0B0C1C",
"^.	c #111220",
"/.	c #070712",
"(.	c #10101E",
"_.	c #0D0E1E",
":.	c #0D0E1F",
"<.	c #151628",
"[.	c #131526",
"}.	c #111324",
"|.	c #111223",
"1.	c #0B0C1E",
"2.	c #141526",
"3.	c #0E0F20",
"4.	c #11111F",
"5.	c #0B0C1D",
"6.	c #0F1022",
"7.	c #141528",
"8.	c #151629",
"9.	c #121326",
"0.	c #111225",
"a.	c #0D0E21",
"b.	c #161729",
"c.	c #0D0E20",
"d.	c #0D0F20",
"e.	c #131424",
"f.	c #101120",
"g.	c #111120",
"h.	c #080815",
"i.	c #060712",
"j.	c #0E0E1D",
"k.	c #0E101F",
"l.	c #0F1122",
"m.	c #0E0F21",
"n.	c #131428",
"o.	c #18192D",
"p.	c #141529",
"q.	c #16172B",
"r.	c #111226",
"s.	c #17182B",
"t.	c #0E0F22",
"u.	c #0F1023",
"v.	c #151728",
"w.	c #101122",
"x.	c #121423",
"y.	c #121324",
"z.	c #101124",
"A.	c #101225",
"B.	c #0E0F23",
"C.	c #15162A",
"D.	c #111327",
"E.	c #111227",
"F.	c #1A1B30",
"G.	c #16172D",
"H.	c #15162C",
"I.	c #18192F",
"J.	c #14152A",
"K.	c #17182D",
"L.	c #121428",
"M.	c #0F1024",
"N.	c #121427",
"O.	c #151627",
"P.	c #090918",
"Q.	c #080917",
"R.	c #0D0E18",
"S.	c #0E0E1C",
"T.	c #101123",
"U.	c #121328",
"V.	c #0F1126",
"W.	c #17182E",
"X.	c #12142A",
"Y.	c #11132A",
"Z.	c #1D1E35",
"`.	c #181931",
" +	c #16172F",
".+	c #191A32",
"++	c #13142B",
"@+	c #1A1C33",
"#+	c #101228",
"$+	c #111228",
"%+	c #111328",
"&+	c #191A2F",
"*+	c #131426",
"=+	c #0C0C1A",
"-+	c #0F101B",
";+	c #0F0F1A",
">+	c #111322",
",+	c #121325",
"'+	c #131529",
")+	c #121329",
"!+	c #13152B",
"~+	c #111229",
"{+	c #181A32",
"]+	c #161730",
"^+	c #20213B",
"/+	c #1A1C35",
"(+	c #181A33",
"_+	c #1B1D36",
":+	c #12132D",
"<+	c #1F2039",
"[+	c #12142C",
"}+	c #14152C",
"|+	c #16182E",
"1+	c #15172B",
"2+	c #18192C",
"3+	c #111224",
"4+	c #0A0B1B",
"5+	c #090B1A",
"6+	c #10111C",
"7+	c #0F0F1B",
"8+	c #090A1A",
"9+	c #13152A",
"0+	c #13142A",
"a+	c #12132A",
"b+	c #15172F",
"c+	c #13142E",
"d+	c #1B1D37",
"e+	c #171933",
"f+	c #1F213C",
"g+	c #1C1E3A",
"h+	c #1B1C38",
"i+	c #141631",
"j+	c #141630",
"k+	c #161731",
"l+	c #1C1E36",
"m+	c #15162D",
"n+	c #191A30",
"o+	c #1B1D32",
"p+	c #0C0D1E",
"q+	c #121320",
"r+	c #12121F",
"s+	c #0A0B1C",
"t+	c #131427",
"u+	c #101227",
"v+	c #16172E",
"w+	c #15162E",
"x+	c #1A1B34",
"y+	c #181A35",
"z+	c #181A36",
"A+	c #181A38",
"B+	c #1A1C3A",
"C+	c #202241",
"D+	c #1E203F",
"E+	c #1F2140",
"F+	c #1E203E",
"G+	c #161836",
"H+	c #1E203B",
"I+	c #1E1F37",
"J+	c #0D0E22",
"K+	c #141527",
"L+	c #141523",
"M+	c #131422",
"N+	c #11121E",
"O+	c #0E0E1B",
"P+	c #0C0D20",
"Q+	c #13142C",
"R+	c #191A33",
"S+	c #171833",
"T+	c #20213D",
"U+	c #191B39",
"V+	c #181A3A",
"W+	c #222445",
"X+	c #1B1D3F",
"Y+	c #272A4C",
"Z+	c #222447",
"`+	c #232648",
" @	c #292B4D",
".@	c #191B3C",
"+@	c #1B1D3D",
"@@	c #1F213F",
"#@	c #232440",
"$@	c #21223D",
"%@	c #181932",
"&@	c #11122A",
"*@	c #0E0F25",
"=@	c #14162A",
"-@	c #161727",
";@	c #141524",
">@	c #16182B",
",@	c #1B1C35",
"'@	c #1D1E3B",
")@	c #1C1E3F",
"!@	c #202345",
"~@	c #24264B",
"{@	c #22254C",
"]@	c #30335A",
"^@	c #272A52",
"/@	c #282B52",
"(@	c #2E3158",
"_@	c #1F2146",
":@	c #2B2E50",
"<@	c #202243",
"[@	c #242644",
"}@	c #1C1D3A",
"|@	c #12132E",
"1@	c #11122B",
"2@	c #191A31",
"3@	c #14152B",
"4@	c #191B2E",
"5@	c #1A1B2D",
"6@	c #171829",
"7@	c #151626",
"8@	c #121322",
"9@	c #0D0D1C",
"0@	c #101223",
"a@	c #121327",
"b@	c #1C1E34",
"c@	c #11132B",
"d@	c #10122C",
"e@	c #1D1E3A",
"f@	c #1B1D3B",
"g@	c #212345",
"h@	c #1B1D41",
"i@	c #1F2148",
"j@	c #20234D",
"k@	c #252854",
"l@	c #3A3D6B",
"m@	c #2D305F",
"n@	c #272A58",
"o@	c #222551",
"p@	c #242751",
"q@	c #24264D",
"r@	c #27294D",
"s@	c #202244",
"t@	c #141634",
"u@	c #181935",
"v@	c #1F213B",
"w@	c #1E2036",
"x@	c #1D1F34",
"y@	c #1B1C30",
"z@	c #141627",
"A@	c #21233E",
"B@	c #131533",
"C@	c #1D1F40",
"D@	c #232549",
"E@	c #282A56",
"F@	c #2C2F5F",
"G@	c #373B6F",
"H@	c #3F4279",
"I@	c #373A72",
"J@	c #292C63",
"K@	c #292D61",
"L@	c #393C6C",
"M@	c #343662",
"N@	c #272A51",
"O@	c #17193D",
"P@	c #22243F",
"Q@	c #24253F",
"R@	c #1F2037",
"S@	c #1B1C32",
"T@	c #1A1C32",
"U@	c #1E2038",
"V@	c #191B35",
"W@	c #1A1C43",
"X@	c #31335F",
"Y@	c #333668",
"Z@	c #41447C",
"`@	c #313574",
" #	c #373C80",
".#	c #45498F",
"+#	c #52579B",
"@#	c #373B7A",
"##	c #474A82",
"$#	c #313466",
"%#	c #1D1F4B",
"&#	c #2F3158",
"*#	c #242749",
"=#	c #2D2F4F",
"-#	c #262844",
";#	c #161830",
">#	c #111329",
",#	c #0F1125",
"'#	c #181A31",
")#	c #151731",
"!#	c #222442",
"~#	c #262849",
"{#	c #25274C",
"]#	c #232656",
"^#	c #3B3E76",
"/#	c #44488B",
"(#	c #3F4492",
"_#	c #4B51AA",
":#	c #5C62BF",
"<#	c #454BA4",
"[#	c #494E9C",
"}#	c #414588",
"|#	c #30336B",
"1#	c #252858",
"2#	c #3C3F69",
"3#	c #303257",
"4#	c #212344",
"5#	c #171937",
"6#	c #16182F",
"7#	c #18192E",
"8#	c #191A2E",
"9#	c #1F203A",
"0#	c #252749",
"a#	c #21244B",
"b#	c #353864",
"c#	c #34386C",
"d#	c #343987",
"e#	c #676DD1",
"f#	c #636BE9",
"g#	c #8B94FF",
"h#	c #7078F6",
"i#	c #6369CD",
"j#	c #5F64B2",
"k#	c #5B5F9E",
"l#	c #3F4377",
"m#	c #232652",
"n#	c #1F2249",
"o#	c #222446",
"p#	c #20223D",
"q#	c #1A1B35",
"r#	c #131429",
"s#	c #101125",
"t#	c #0E1021",
"u#	c #171932",
"v#	c #1A1C3B",
"w#	c #1B1E40",
"x#	c #262950",
"y#	c #40437A",
"z#	c #4A4F93",
"A#	c #6A70C9",
"B#	c #646CEA",
"C#	c #CFDBFF",
"D#	c #FFFFFF",
"E#	c #C7D3FF",
"F#	c #B7BFFF",
"G#	c #474DA6",
"H#	c #454A8E",
"I#	c #41447B",
"J#	c #2C2F5D",
"K#	c #1B1D3C",
"L#	c #1B1D39",
"M#	c #1A1B33",
"N#	c #0F0F1D",
"O#	c #131425",
"P#	c #1E1F3B",
"Q#	c #212342",
"R#	c #26284B",
"S#	c #2B2E56",
"T#	c #323564",
"U#	c #3D4078",
"V#	c #4C5096",
"W#	c #666CC9",
"X#	c #99A2FF",
"Y#	c #9BA4FF",
"Z#	c #676DCA",
"`#	c #4D5197",
" $	c #3E4179",
".$	c #333665",
"+$	c #1F203C",
"@$	c #303361",
"#$	c #363970",
"$$	c #54599D",
"%$	c #565CB5",
"&$	c #8A92FF",
"*$	c #BFCBFF",
"=$	c #E6F8FF",
"-$	c #94A0FF",
";$	c #555BB4",
">$	c #3D4286",
",$	c #3B3E75",
"'$	c #2F3260",
")$	c #191B34",
"!$	c #171830",
"~$	c #15162B",
"{$	c #181930",
"]$	c #191A34",
"^$	c #1A1C37",
"/$	c #2A2C4E",
"($	c #2B2E5A",
"_$	c #3D4175",
":$	c #444887",
"<$	c #6065B3",
"[$	c #5F65C9",
"}$	c #7F87FF",
"|$	c #737CFF",
"1$	c #838BFF",
"2$	c #494FB3",
"3$	c #5358A6",
"4$	c #383C7B",
"5$	c #414579",
"6$	c #2A2D59",
"7$	c #1D2047",
"8$	c #1E2042",
"9$	c #1D1F3A",
"0$	c #17182F",
"a$	c #16172C",
"b$	c #1B1D34",
"c$	c #1C1D36",
"d$	c #1C1E3C",
"e$	c #232546",
"f$	c #23254A",
"g$	c #2D305A",
"h$	c #292C5C",
"i$	c #40437B",
"j$	c #3F4386",
"k$	c #404593",
"l$	c #4E54AD",
"m$	c #4C52AF",
"n$	c #6369C2",
"o$	c #414694",
"p$	c #303477",
"q$	c #3C3F77",
"r$	c #252852",
"s$	c #212348",
"t$	c #27294A",
"u$	c #13152F",
"v$	c #14152E",
"w$	c #13152C",
"x$	c #15172D",
"y$	c #1E203A",
"z$	c #212343",
"A$	c #1C1F41",
"B$	c #303259",
"C$	c #2E305C",
"D$	c #2F3264",
"E$	c #262961",
"F$	c #3F4382",
"G$	c #3E4387",
"H$	c #393D83",
"I$	c #5A5FA3",
"J$	c #414584",
"K$	c #33366E",
"L$	c #242759",
"M$	c #252753",
"N$	c #292B52",
"O$	c #26294B",
"P$	c #151733",
"Q$	c #20223C",
"R$	c #1B1D35",
"S$	c #14162C",
"T$	c #0F1021",
"U$	c #1B1C36",
"V$	c #161833",
"W$	c #202246",
"X$	c #25284F",
"Y$	c #232551",
"Z$	c #2A2D5D",
"`$	c #393C73",
" %	c #2E3169",
".%	c #2F3367",
"+%	c #393B67",
"@%	c #191B3F",
"#%	c #252748",
"$%	c #232540",
"%%	c #16182D",
"&%	c #14162E",
"*%	c #1F2143",
"=%	c #212347",
"-%	c #202249",
";%	c #292C56",
">%	c #272A56",
",%	c #2E315F",
"'%	c #252857",
")%	c #222553",
"!%	c #313460",
"~%	c #2B2E58",
"{%	c #37395D",
"]%	c #17193B",
"^%	c #1D1F35",
"/%	c #121429",
"(%	c #0F1124",
"_%	c #101126",
":%	c #1B1C33",
"<%	c #161732",
"[%	c #1B1C39",
"}%	c #181A3B",
"|%	c #2E3055",
"1%	c #1B1E45",
"2%	c #20234B",
"3%	c #1A1D44",
"4%	c #292C53",
"5%	c #282A4F",
"6%	c #212446",
"7%	c #262846",
"8%	c #151633",
"9%	c #171831",
"0%	c #1A1B32",
"a%	c #17192C",
"b%	c #17192D",
"c%	c #181934",
"d%	c #131430",
"e%	c #1F2141",
"f%	c #1C1E41",
"g%	c #1E2143",
"h%	c #2D2F51",
"i%	c #202242",
"j%	c #191A36",
"k%	c #1D1E39",
"l%	c #12132C",
"m%	c #101129",
"n%	c #181A2E",
"o%	c #121425",
"p%	c #14162B",
"q%	c #1C1E39",
"r%	c #1D1F3B",
"s%	c #202240",
"t%	c #222443",
"u%	c #181A39",
"v%	c #232544",
"w%	c #282A48",
"x%	c #1F213D",
"y%	c #0F1027",
"z%	c #171834",
"A%	c #21233F",
"B%	c #1C1D33",
"C%	c #0C0D1F",
"D%	c #101221",
"E%	c #0E1024",
"F%	c #17192F",
"G%	c #14162F",
"H%	c #1D1F38",
"I%	c #151630",
"J%	c #13152D",
"K%	c #101127",
"L%	c #1D1E32",
"M%	c #0D0F1E",
"N%	c #11111E",
"O%	c #14162D",
"P%	c #12132B",
"Q%	c #1D1F36",
"R%	c #181A30",
"S%	c #15172C",
"T%	c #1B1C2E",
"U%	c #141629",
"V%	c #101226",
"W%	c #0E0F24",
"X%	c #1E1F34",
"Y%	c #111326",
"Z%	c #0A0B1A",
"`%	c #0A0C1B",
" &	c #16172A",
".&	c #17182C",
"+&	c #0A0A19",
"@&	c #10101F",
"#&	c #090917",
"$&	c #161728",
"%&	c #171828",
"&&	c #131420",
"*&	c #0B0B19",
"=&	c #0E0F19",
"-&	c #0E0E18",
";&	c #0D0D16",
">&	c #05060E",
". + @ # $ % & % * = - ; ; > ; , ' ) ' ) ! ~ { ] { , , { ] ^ / ( _ ) ) : ; ; ; < [ } | 1 2 & - 3 4 + ",
"# @ + = 5 6 % 7 = = ; ; ; : ) 8 8 ^ ^ 9 ] 0 { a b c c b ] ^ ^ ~ { 9 ) ) d 9 e f < - - g & 1 2 h + @ ",
"# # - 1 1 * i } e j j 9 d d k , ] , l l c m n a b a a b a o c m c 9 9 ^ p d ( ] e ; q [ 7 g 2 1 = @ ",
"# r 5 1 s s = j < e ) d ' ^ 9 9 b a l t u v w n n b b n b x y z l o o ^ ^ ] _ ' d < f < [ A 7 % % r ",
"= 5 5 * s h e j j ( d 9 ^ , l B C y c D E F G H H I H H H J G G l x u c l 0 { , ' K q q f h s | 5 6 ",
"1 % * * = e < ^ ) d { 9 l c t x c H I D L M N O P Q P O O R M H E S a t y n c , ~ ( ( ~ < e - * i T ",
"1 & s - j j ^ 8 U 9 , a o u a D J O O V W P X Y Y Z Y Z O W X ` L L D D  .C c n ~ { ..( ^ ; j r +.T ",
"% s h e ; : ) @.] c o y a S D #.L W M $.%.$.&.*.*.=.-.*.;.Z >.,.#.W #.P '.D n z b m { U d : > > r * ",
"i = e < < d p 9 a a t l G L #.O W ).Y =.Z ;.!.~.-.-.&.-.;.&.{.].,.%.O ^.W W F n v n a , / /.> > ; } ",
"r r j e 8 ( , l l C n D L (.#.$._.].=.~.:.:.<.[.}.|.[.}.1.2.3.;._._.~.Y W 4.P F w C c o : /.) e < [ ",
"r > > /.d ] { a u c H O ` O Z ].=.=.5.}.6.6.7.8.9.0.8.9.a.b.c.d.3.*.e._.f.^.g.M I a h.B : ^ 8 ( < ; ",
"q ; i./.: ^ a y b D L j.Z $.k.=.3.l.m.0.0.0.n.o.p.n.q.p.r.s.t.u.6.v.w.-.x.{.{.j.#.J o h.c { ~ ' : ; ",
"e f 8 ) : B o b H O ` ,.Y f._.y.c.z.A.B.C.D.E.F.G.H.I.J.K.L.M.r.N.7.6.O.&.>.Z $.P.Q.E b n b ^ d ( R.",
"j : ' 0 ] o h.J L S.N %.%.w.T.c.8.u.U.V.W.X.Y.Z.`. +.+++@+#+$+%+&+9.s.*+<.w.%.).R =+P G t o ] -+;+0 ",
"e ' p 9 a v a J Q.L Z >+*.c.,+9.M.'+)+!+~+{+]+^+/+(+_+:+<+[+}+|+H.1+q.2+3+c.4+5+Z N O E b v  .6+7+K ",
"^ ' ] , l x H N #.).8+=.y.3+u.p.9+0+a+b+c+d+e+f+g+h+g+i+d+j+k+l+m+n+o+n.t.1.p+~.&.$.W N q+r+ .-+0 _ ",
"_ ( ] a C b D L M ~.].s+c.t+p.u+v+w+x+j+y+z+A+B+C+D+E+F+G+z+H+e+<+I+m+V.J+u.K+w.;.~.L+M+q+N+v m { 8 ",
"' ~ 6+m O+I O P $.].&.}.P+a.'+I.Q+R+S+T+U+V+W+X+Y+Z+`+ @.@+@@@#@$@%@&@*@=@s.t.}.-@-@;@M+N G y c ^ 9 ",
"' ^ l a w q+N M Z -.3.m.>@E.*@++,@S+'@U+)@!@~@{@]@^@/@(@_@:@<@[@}@|@1@2@3@U.4@5@6@7@8@N W S c o o 9 ",
"8 { a C D S 9@{.!.e.0@9.a@V.b@c@d@e@f@g@h@i@j@k@l@m@n@o@p@q@r@s@t@u@v@[+w@x@y@s.z@-.;.,.V E S t c ] ",
"! { b y '.P P %.%.3.<.2+C.H.v+c+A@B@C@D@/@E@F@G@H@I@J@K@L@M@N@O@W+U+P@Q@R@S@q.z.m.p+$.$.O O '.O+m ~ ",
"{ 0 m z G M N f.~.y.,+0.D.T@U@V@g+V+`+W@X@Y@Z@`@ #.#+#@###$#%#&#*#=#-#v@;#>#,#z.T.w.~.{.X M '.y a , ",
"^ 9 l a I O N &.!.K+8.q.K.'#%@)#!#~#{#j@]#^#/#(#_#:#<#[#}#|#1#2#3#4#5#j+]+6#7#8#8.,+-.=.O #.S c l 9 ",
", c c a D #.$.;._.d.u.n.K.Z.9#f+!#0#a#b#c#`@d#e#f#g#h#i#j#k#l#m#n#o#[@p#q#v+r#s#t.d._._.%.O H n b b ",
"9 o o l S L ,.;._.t#z.a@3@ +u#z+v#w#x#l@y#z#A#B#C#D#E#F#G#H#I#J#a#w#K#L#/+M#I.q.7.[.&.~.f.M '.m n b ",
"] b b n '.N#Y -.~.O#t+C.W..+_+P#Q#R#S#T#U#V#W#X#D#D#D#Y#Z#`# $.$S#R#Q#+$_+.+W.C.7.O#~.-.Y N#'.n b b ",
"^ l l c D #.$._.*.l.0.n.G..+/+g+D+!@x#@$#$$$%$&$*$=$-$h#;$>$,$'$/@`+E+L#)$!$H.n.0.l.=._.$.#.D c l l ",
"] b b n H O Z =.*.l.0.n.~${$]$^$@@/$/@($_$:$<$[$}$|$1$2$3$4$5$6$7$8$@@9$q#0$a$p.9.}.-.*.Z O H b a a ",
", , c b I O P *.-.T.0.n.K.b$c$V@d$e$f$g$h$i$j$k$l$m$n$o$p$q$h$r$s$t$f@u$v$w$~$C.t+3+-.*.P O H b a ] ",
"] ] a C I W O Y &.2.<.7.'+x${+y$z+z$A$B$C$D$E$F$G$H$I$J$K$L$M$N$O$+@P$Q$R$S$,#u.6.3.*.Y M P H y a ] ",
"U , a y '.N ^.f.f.T$3+9.q.G.}+U$V$d$~#W$X$Y$Z$G@`$ %`$.%Z$+%7$@%#%U+$%k+~+G.8#8.3+p+,.,.W #.I C b { ",
"( ~ m O+H I 9@Z =.~.[.0.a@%%X.&%v@T+U+*%=%-%;%>%,%'%)%!%~%-%{%]%t@P#d+&%^%/%M.z.v.e.-.%.V E E u l ^ ",
"8 ] c c b I P N Y =.T$*+(%_%G.:%,@<%[%d$}%!@|%1%x#2%3%4%5%6%C@7%8%|@9%0%3@r#a%T.p+;.f.X M '.b l o 9 ",
"' , , a O+G O W Z -.=.d.z.2+b%G.w+9%c%d%A+e%.@*%*#f%g%h%}%i%5#j%k%l%m%)+n%7.u.o%e._.,.L W F z n { , ",
"' 8 ~ b t c I P O ;._.|.<.7.n.p%}+w+1@j+q%r%U+s%t%u%v%w%s%x%^$)#x+ +y%V.M.t+*+T$_.&.N #.S l t b 0 _ ",
"] 8 ^ ^ a y D L W Z &.e.y.T.t+a@/%$+a+&%]$d+)#q%x%z%A%q%y$e+q#&%}+B%/%B.t.C%w.e.*.$.O ^.'.t l 9 9 8 ",
"; d U { c u c D P ^.{.D%_.,+3+z.r.E%$+F%m+[+l%]$_+G%H%I%,@J%2@x$K%L.L%u.c.c.].M%{.M W S n N%b ^ / ) ",
"e , ' ^ ^ l C G M (.M $.8@T$6.T.P+z.U.p%B%!+O%0$`.P%M#~+Q%R%G.S%U.z.z.T%c.5.%.).W N#M H t l { 0 8 9 ",
"e ; ) d , b n m '.W V {.Z Z *.5.m.u.U%s#r.V%a$J.G.$+W.W%X%b%s#q.Y%u.6.w.-@%.Z%$.P.L I m b a ^ ' ( f ",
"j j 9 8 ~ ~ n y a S N 9@%.%.`%;.:.l.,+ &t.t.p.n.n.s#p.J+.&8.u.t+,+0@p+=.>+8@,.+&#.J l t b { ] ' : e ",
"= e q ( ( { { c t w I #.9@#.Z%;.=.e.:.}.6.m.9.9.0.t.9.t.9.<.*+l.y.*.=.;.%.X @&L E a h.B ^ ] ( 8 e ; ",
"} [ q q 8 8 ^ c m t a D #.#&#.$.=.*.&.;.:.T$3+}.l.3.0@t#6.$&O#;.~.*.=.,.W =+X '.l x c B : d ' q < } ",
"g h < < e d U ~ c c t a J L L W ^.,.8@].$.-.-.~.*._.-.-._.%&{._.Z f.P O L #.I &&C o o , / /.j e < h ",
"& 7 h e j ^ _ U ^ c c h.l S S O O P O $.Z%Y =.-._.].=.~.4+>.Y f.W M O W S S a y N+c 9 k d : > j - s ",
"& 1 | = e q ^ d U , 9 B l u a G S X R ` #.M P f.$.,.Z 8@R N ^.@&R O '.I b x l c ~ -+U ) i.; j $ i 5 ",
"1 % * s [ ; ; 9 ' ) : 9 l l y C b H S S #.O W M #.*&O N Q.O ^.'.D D m y C l o ^ ^ K K 9 > > - * +.6 ",
"r 5 1 7 | - ; ; j /.) 9 ^ , n l z u a E H H I '.S S I G J D q+H m x y b c , ^ ^ d d R.f ; r i | 5 6 ",
"# - & % | | - ; > > ) ) d ] ] , n o l x y C b n c c b m l u N%y n l c { ] , ' ) d ; e =&[ * i 6 5 r ",
"+ 4 = 5 % | | r > j j 9 ' _ / { , ^ o l a a a b o l a n l o m n b , ^ ] ! ' ' 9 j ; ; h -&7 5 6 $ # ",
"+ @ # = % % 6 i = = j ; < ^ d K ) ^ 9 , ] ] ] a o o a b ^ 9 { 0 { { ) 8 8 , e ; j = - | & ;&1 r >&>&"};
