/* XPM */
static char * star3_xpm[] = {
"50 50 885 2",
"  	c None",
". 	c #0C0D19",
"+ 	c #0D0D1A",
"@ 	c #0D0E1A",
"# 	c #0D0E1B",
"$ 	c #0B0C19",
"% 	c #090A17",
"& 	c #0E0F1D",
"* 	c #0F101E",
"= 	c #0B0C1A",
"- 	c #0C0D1C",
"; 	c #0E0F1E",
"> 	c #121322",
", 	c #0F1020",
"' 	c #0E0F1F",
") 	c #101120",
"! 	c #0C0D1D",
"~ 	c #0E0F20",
"{ 	c #101122",
"] 	c #0D0E1F",
"^ 	c #0C0D1E",
"/ 	c #0F1021",
"( 	c #131425",
"_ 	c #121324",
": 	c #111223",
"< 	c #141526",
"[ 	c #161727",
"} 	c #111222",
"| 	c #141525",
"1 	c #0C0D1B",
"2 	c #0D0E1C",
"3 	c #10111E",
"4 	c #0E0F1C",
"5 	c #0B0C18",
"6 	c #0B0B19",
"7 	c #111220",
"8 	c #0B0C1B",
"9 	c #0D0E1E",
"0 	c #101121",
"a 	c #121323",
"b 	c #0D0E20",
"c 	c #0F1022",
"d 	c #0F1122",
"e 	c #0D0F20",
"f 	c #121425",
"g 	c #131426",
"h 	c #151627",
"i 	c #0D0E1D",
"j 	c #10101E",
"k 	c #0E0E1D",
"l 	c #131423",
"m 	c #0B0C1C",
"n 	c #101123",
"o 	c #0E1021",
"p 	c #0E0F21",
"q 	c #111224",
"r 	c #151628",
"s 	c #141527",
"t 	c #161729",
"u 	c #141627",
"v 	c #0F101F",
"w 	c #10111F",
"x 	c #0E0F1B",
"y 	c #0F0F1E",
"z 	c #131526",
"A 	c #101124",
"B 	c #0D0E21",
"C 	c #111225",
"D 	c #101225",
"E 	c #0D0F22",
"F 	c #111326",
"G 	c #15172A",
"H 	c #131528",
"I 	c #16182B",
"J 	c #141528",
"K 	c #18192C",
"L 	c #17182A",
"M 	c #111221",
"N 	c #131427",
"O 	c #121326",
"P 	c #0E0F22",
"Q 	c #121327",
"R 	c #111226",
"S 	c #0E0F23",
"T 	c #17182C",
"U 	c #141529",
"V 	c #191A2E",
"W 	c #1B1C2F",
"X 	c #16172A",
"Y 	c #17192C",
"Z 	c #131424",
"` 	c #0F101D",
" .	c #0F1023",
"..	c #141629",
"+.	c #131428",
"@.	c #0F1025",
"#.	c #111327",
"$.	c #111328",
"%.	c #13152A",
"&.	c #0E1025",
"*.	c #14152A",
"=.	c #181A2F",
"-.	c #14162B",
";.	c #1A1C31",
">.	c #16182C",
",.	c #1A1B30",
"'.	c #10101F",
").	c #0E1023",
"!.	c #111227",
"~.	c #121328",
"{.	c #121329",
"].	c #13142A",
"^.	c #16172E",
"/.	c #0F1127",
"(.	c #14162C",
"_.	c #1A1C32",
":.	c #15162D",
"<.	c #1A1B31",
"[.	c #191A30",
"}.	c #1B1C31",
"|.	c #16172B",
"1.	c #111324",
"2.	c #121325",
"3.	c #0F1024",
"4.	c #16182D",
"5.	c #16172C",
"6.	c #16172D",
"7.	c #13152B",
"8.	c #12132A",
"9.	c #171830",
"0.	c #101129",
"a.	c #16172F",
"b.	c #1C1D35",
"c.	c #1B1C33",
"d.	c #1D1E35",
"e.	c #181A30",
"f.	c #1C1E34",
"g.	c #15172C",
"h.	c #151629",
"i.	c #141422",
"j.	c #121427",
"k.	c #18192E",
"l.	c #101126",
"m.	c #14152B",
"n.	c #15172E",
"o.	c #11132B",
"p.	c #15172F",
"q.	c #181932",
"r.	c #11122B",
"s.	c #171831",
"t.	c #1E1F38",
"u.	c #1A1B34",
"v.	c #1A1C34",
"w.	c #21233B",
"x.	c #1B1D34",
"y.	c #1B1C34",
"z.	c #17182F",
"A.	c #15162C",
"B.	c #131529",
"C.	c #161726",
"D.	c #121321",
"E.	c #131429",
"F.	c #1B1C32",
"G.	c #111329",
"H.	c #13142B",
"I.	c #1A1B33",
"J.	c #171931",
"K.	c #1B1C35",
"L.	c #161731",
"M.	c #13152E",
"N.	c #171933",
"O.	c #181A34",
"P.	c #11132D",
"Q.	c #191A35",
"R.	c #20223C",
"S.	c #1C1E38",
"T.	c #1B1D37",
"U.	c #20223B",
"V.	c #1F203A",
"W.	c #181A32",
"X.	c #181931",
"Y.	c #111228",
"Z.	c #15162B",
"`.	c #15162A",
" +	c #151626",
".+	c #181929",
"++	c #0A0B19",
"@+	c #15172B",
"#+	c #12142C",
"$+	c #1F213A",
"%+	c #181934",
"&+	c #171934",
"*+	c #181A35",
"=+	c #191B37",
"-+	c #131531",
";+	c #1A1B37",
">+	c #21233F",
",+	c #20223E",
"'+	c #1E203B",
")+	c #1F213C",
"!+	c #22233E",
"~+	c #1A1C36",
"{+	c #1B1D36",
"]+	c #14162E",
"^+	c #14152D",
"/+	c #16182F",
"(+	c #18192F",
"_+	c #17182D",
":+	c #171829",
"<+	c #0A0B1B",
"[+	c #181930",
"}+	c #14162D",
"|+	c #151730",
"1+	c #141630",
"2+	c #1D1F39",
"3+	c #1D1E3B",
"4+	c #1A1C39",
"5+	c #171937",
"6+	c #191B39",
"7+	c #161836",
"8+	c #1C1E3C",
"9+	c #242644",
"0+	c #252745",
"a+	c #232543",
"b+	c #20223F",
"c+	c #21223F",
"d+	c #1B1D39",
"e+	c #181A33",
"f+	c #17182B",
"g+	c #1B1C2E",
"h+	c #0B0C1D",
"i+	c #0A0B1A",
"j+	c #191A31",
"k+	c #191B32",
"l+	c #14162F",
"m+	c #23243F",
"n+	c #151733",
"o+	c #1A1C38",
"p+	c #202240",
"q+	c #1B1D3C",
"r+	c #171938",
"s+	c #1C1E3E",
"t+	c #181A3A",
"u+	c #1E2040",
"v+	c #252747",
"w+	c #282A4A",
"x+	c #2B2D4C",
"y+	c #262847",
"z+	c #1F213F",
"A+	c #181A36",
"B+	c #151631",
"C+	c #1E2039",
"D+	c #1A1B2F",
"E+	c #1C1E31",
"F+	c #1C1E39",
"G+	c #171834",
"H+	c #1E203D",
"I+	c #181A38",
"J+	c #222444",
"K+	c #1D2041",
"L+	c #1A1C3E",
"M+	c #1F2144",
"N+	c #1C1F42",
"O+	c #212346",
"P+	c #26294C",
"Q+	c #282A4D",
"R+	c #2C2E50",
"S+	c #2A2D4E",
"T+	c #202242",
"U+	c #191B38",
"V+	c #21223E",
"W+	c #14152C",
"X+	c #1E1F34",
"Y+	c #0C0D1F",
"Z+	c #181A31",
"`+	c #1C1D36",
" @	c #1D1F3A",
".@	c #1E1F3C",
"+@	c #1D1F3D",
"@@	c #1F2140",
"#@	c #1A1C3C",
"$@	c #1E2041",
"%@	c #272A4C",
"&@	c #26284C",
"*@	c #212348",
"=@	c #23254B",
"-@	c #21244A",
";@	c #23264C",
">@	c #282B51",
",@	c #292B51",
"'@	c #2A2C51",
")@	c #282A4E",
"!@	c #25284A",
"~@	c #1F2141",
"{@	c #1E203F",
"]@	c #1F203D",
"^@	c #1C1E35",
"/@	c #22243B",
"(@	c #0F1125",
"_@	c #0B0D1E",
":@	c #0C0D20",
"<@	c #17192F",
"[@	c #15162E",
"}@	c #191B34",
"|@	c #1D1F38",
"1@	c #2C2E51",
"2@	c #1C1E43",
"3@	c #26284F",
"4@	c #24264E",
"5@	c #242750",
"6@	c #282B55",
"7@	c #282A54",
"8@	c #292C56",
"9@	c #2D3059",
"0@	c #30325A",
"a@	c #282A51",
"b@	c #27294F",
"c@	c #1E2045",
"d@	c #1C1E41",
"e@	c #242647",
"f@	c #1E203E",
"g@	c #1A1C37",
"h@	c #21233C",
"i@	c #11122A",
"j@	c #12142A",
"k@	c #101223",
"l@	c #0C0E21",
"m@	c #0D0E22",
"n@	c #0D0F24",
"o@	c #0F1026",
"p@	c #1A1B36",
"q@	c #20213D",
"r@	c #212341",
"s@	c #212343",
"t@	c #232547",
"u@	c #24274A",
"v@	c #1F2146",
"w@	c #292B52",
"x@	c #23254E",
"y@	c #2D305A",
"z@	c #282B57",
"A@	c #242654",
"B@	c #2F3261",
"C@	c #2C2F5E",
"D@	c #3B3D6B",
"E@	c #393C68",
"F@	c #22244B",
"G@	c #2B2D52",
"H@	c #25284B",
"I@	c #222446",
"J@	c #282945",
"K@	c #1B1C37",
"L@	c #161830",
"M@	c #0E0F24",
"N@	c #12132C",
"O@	c #161832",
"P@	c #1E203C",
"Q@	c #212342",
"R@	c #262849",
"S@	c #282A4F",
"T@	c #292C53",
"U@	c #23254F",
"V@	c #232652",
"W@	c #343766",
"X@	c #373A6B",
"Y@	c #282B5E",
"Z@	c #313569",
"`@	c #32356A",
" #	c #3A3E72",
".#	c #424578",
"+#	c #353869",
"@#	c #313463",
"##	c #2A2D59",
"$#	c #31335D",
"%#	c #2A2D54",
"&#	c #27294E",
"*#	c #202346",
"=#	c #252748",
"-#	c #313352",
";#	c #151734",
">#	c #15172D",
",#	c #10122A",
"'#	c #11132C",
")#	c #12142E",
"!#	c #141632",
"~#	c #222447",
"{#	c #2B2E55",
"]#	c #2E305B",
"^#	c #303260",
"/#	c #373B6C",
"(#	c #2A2E62",
"_#	c #33376E",
":#	c #353973",
"<#	c #343874",
"[#	c #393D79",
"}#	c #4B4F8B",
"|#	c #41457F",
"1#	c #383C73",
"2#	c #292D61",
"3#	c #2C3061",
"4#	c #313361",
"5#	c #2C2E59",
"6#	c #23264D",
"7#	c #2F3156",
"8#	c #26284B",
"9#	c #101226",
"0#	c #0F1124",
"a#	c #131533",
"b#	c #151737",
"c#	c #181A3B",
"d#	c #24264D",
"e#	c #30325C",
"f#	c #333563",
"g#	c #36396B",
"h#	c #383C72",
"i#	c #3E427C",
"j#	c #454988",
"k#	c #3C4183",
"l#	c #3F4389",
"m#	c #43478D",
"n#	c #52569C",
"o#	c #555A9C",
"p#	c #424685",
"q#	c #343872",
"r#	c #343769",
"s#	c #282A58",
"t#	c #3D3F69",
"u#	c #1C1E45",
"v#	c #222449",
"w#	c #1F2142",
"x#	c #15162F",
"y#	c #12132B",
"z#	c #171930",
"A#	c #1A1B35",
"B#	c #1B1C39",
"C#	c #171A3C",
"D#	c #1A1C42",
"E#	c #1F214A",
"F#	c #30335F",
"G#	c #333768",
"H#	c #3D4177",
"I#	c #404480",
"J#	c #3D4183",
"K#	c #3A3E87",
"L#	c #4C519F",
"M#	c #4A4FA1",
"N#	c #5055A9",
"O#	c #5C61B3",
"P#	c #5156A4",
"Q#	c #3E428B",
"R#	c #494D8F",
"S#	c #3E427E",
"T#	c #34386E",
"U#	c #424677",
"V#	c #262955",
"W#	c #252750",
"X#	c #25274D",
"Y#	c #222547",
"Z#	c #1A1C3A",
"`#	c #171835",
" $	c #161732",
".$	c #181933",
"+$	c #101125",
"@$	c #13152D",
"#$	c #1B1D3A",
"$$	c #202241",
"%$	c #202344",
"&$	c #222448",
"*$	c #23254C",
"=$	c #1D204A",
"-$	c #202352",
";$	c #2D3165",
">$	c #363A74",
",$	c #4D5193",
"'$	c #5156A0",
")$	c #474CA0",
"!$	c #686ECC",
"~$	c #5157BD",
"{$	c #646AD3",
"]$	c #858BF1",
"^$	c #6369C7",
"/$	c #6368BC",
"($	c #4E539D",
"_$	c #4C5092",
":$	c #2B2F69",
"<$	c #303468",
"[$	c #2E3160",
"}$	c #2A2D57",
"|$	c #1D1F43",
"1$	c #1B1E3F",
"2$	c #1C1E3B",
"3$	c #161831",
"4$	c #161833",
"5$	c #191B3A",
"6$	c #1B1D3F",
"7$	c #2A2C54",
"8$	c #2C2F5B",
"9$	c #2F3263",
"0$	c #2A2E65",
"a$	c #2B2F6E",
"b$	c #51559E",
"c$	c #6065B9",
"d$	c #6C72D6",
"e$	c #7C84F8",
"f$	c #7982FF",
"g$	c #868FFF",
"h$	c #ABB4FF",
"i$	c #6870E4",
"j$	c #686ED2",
"k$	c #7A7FD3",
"l$	c #464A93",
"m$	c #3D4180",
"n$	c #34386F",
"o$	c #2A2D5E",
"p$	c #292B53",
"q$	c #1E2042",
"r$	c #1D1F3E",
"s$	c #1B1D3B",
"t$	c #191B35",
"u$	c #191B2E",
"v$	c #191A2C",
"w$	c #181A2B",
"x$	c #17192E",
"y$	c #1D1E37",
"z$	c #1E203A",
"A$	c #1F2147",
"B$	c #21244D",
"C$	c #252755",
"D$	c #292C5F",
"E$	c #373B75",
"F$	c #424789",
"G$	c #474C9A",
"H$	c #4248A6",
"I$	c #6C74E8",
"J$	c #A3ADFF",
"K$	c #D2DEFF",
"L$	c #C8D6FF",
"M$	c #C8D4FF",
"N$	c #9DA7FF",
"O$	c #565ED2",
"P$	c #5D63C1",
"Q$	c #464B99",
"R$	c #383D7F",
"S$	c #383C76",
"T$	c #2E3164",
"U$	c #2B2D5B",
"V$	c #282B54",
"W$	c #232548",
"X$	c #262844",
"Y$	c #252741",
"Z$	c #22233C",
"`$	c #1E1F37",
" %	c #1A1B32",
".%	c #1C1E3A",
"+%	c #242646",
"@%	c #282B4E",
"#%	c #2C2F55",
"$%	c #30335D",
"%%	c #363968",
"&%	c #3D4175",
"*%	c #3D417D",
"=%	c #3A3E84",
"-%	c #44499B",
";%	c #5359BF",
">%	c #858EFF",
",%	c #8591FF",
"'%	c #FFFFFF",
")%	c #BBC7FF",
"!%	c #727BFF",
"~%	c #5C62C8",
"{%	c #5156A8",
"]%	c #474B91",
"^%	c #4C508C",
"/%	c #4C5084",
"(%	c #3C3F6E",
"_%	c #222548",
":%	c #191A33",
"<%	c #16182E",
"[%	c #2B2E5D",
"}%	c #42468C",
"|%	c #C7D5FF",
"1%	c #D7E5FF",
"2%	c #9099FF",
"3%	c #6C72DB",
"4%	c #565BAF",
"5%	c #484C92",
"6%	c #36396E",
"7%	c #2B2D57",
"8%	c #26294F",
"9%	c #242649",
"0%	c #1C1D39",
"a%	c #18192A",
"b%	c #1A1B2C",
"c%	c #1A1B2D",
"d%	c #1A1C2F",
"e%	c #1B1C30",
"f%	c #1B1D32",
"g%	c #1D1E36",
"h%	c #1D1F3B",
"i%	c #1D2043",
"j%	c #202349",
"k%	c #242751",
"l%	c #292C5B",
"m%	c #2E3266",
"n%	c #494D93",
"o%	c #6267B9",
"p%	c #7278DE",
"q%	c #747DFF",
"r%	c #D0DCFF",
"s%	c #B0BCFF",
"t%	c #6D76FB",
"u%	c #7C82E8",
"v%	c #7075C7",
"w%	c #5A5EA4",
"x%	c #2F3367",
"y%	c #2A2D50",
"z%	c #272949",
"A%	c #161730",
"B%	c #30335C",
"C%	c #373967",
"D%	c #393C6F",
"E%	c #3B3F79",
"F%	c #393E80",
"G%	c #666BB9",
"H%	c #676DCB",
"I%	c #939BFF",
"J%	c #D2DCFF",
"K%	c #A7B3FF",
"L%	c #9BA9FF",
"M%	c #8892FF",
"N%	c #7A82F6",
"O%	c #575DBB",
"P%	c #595EAC",
"Q%	c #363B7D",
"R%	c #3E4174",
"S%	c #3C3E6C",
"T%	c #373A63",
"U%	c #32345A",
"V%	c #20223D",
"W%	c #252746",
"X%	c #252749",
"Y%	c #282A52",
"Z%	c #36396A",
"`%	c #353970",
" &	c #444887",
".&	c #40448D",
"+&	c #5459AD",
"@&	c #8C92F6",
"#&	c #555DD1",
"$&	c #7881FF",
"%&	c #6871FD",
"&&	c #7179ED",
"*&	c #5B61C5",
"=&	c #3C4195",
"-&	c #5559A2",
";&	c #3A3E7D",
">&	c #2E3269",
",&	c #323566",
"'&	c #242753",
")&	c #21234B",
"!&	c #26284D",
"~&	c #292B4D",
"{&	c #282A49",
"]&	c #272947",
"^&	c #242641",
"/&	c #22243E",
"(&	c #20223A",
"_&	c #1E1F36",
":&	c #17192D",
"<&	c #1B1D35",
"[&	c #1C1E37",
"}&	c #1D1F3C",
"|&	c #1C1F40",
"1&	c #33355C",
"2&	c #232650",
"3&	c #333665",
"4&	c #262A5E",
"5&	c #494D87",
"6&	c #3A3E80",
"7&	c #696EB8",
"8&	c #5D62B6",
"9&	c #5359B7",
"0&	c #6066CC",
"a&	c #4E54BD",
"b&	c #4A4FA3",
"c&	c #444993",
"d&	c #2F3375",
"e&	c #3D417B",
"f&	c #35396D",
"g&	c #1E214B",
"h&	c #2C2E55",
"i&	c #212347",
"j&	c #1A1D3E",
"k&	c #181A39",
"l&	c #1E2038",
"m&	c #1D1E34",
"n&	c #1B1D31",
"o&	c #18192B",
"p&	c #17182E",
"q&	c #171832",
"r&	c #171833",
"s&	c #191A37",
"t&	c #232545",
"u&	c #1E2143",
"v&	c #1B1D46",
"w&	c #2D305C",
"x&	c #35396A",
"y&	c #33376D",
"z&	c #535793",
"A&	c #363A83",
"B&	c #575CAE",
"C&	c #3E4397",
"D&	c #666BBD",
"E&	c #4F54A2",
"F&	c #585CA5",
"G&	c #414587",
"H&	c #363A76",
"I&	c #2B2F65",
"J&	c #25295A",
"K&	c #333662",
"L&	c #272952",
"M&	c #191C3E",
"N&	c #14152F",
"O&	c #13152C",
"P&	c #21233D",
"Q&	c #161839",
"R&	c #31335A",
"S&	c #2A2C56",
"T&	c #2E305E",
"U&	c #46497B",
"V&	c #3C4076",
"W&	c #2A2E68",
"X&	c #373B7A",
"Y&	c #3B4082",
"Z&	c #4B4F95",
"`&	c #34387E",
" *	c #3C4086",
".*	c #393D73",
"+*	c #2D3062",
"@*	c #1E204A",
"#*	c #161834",
"$*	c #14162A",
"%*	c #171932",
"&*	c #27294C",
"**	c #282B52",
"=*	c #3C3E69",
"-*	c #282C5D",
";*	c #272B5F",
">*	c #393D74",
",*	c #2C306C",
"'*	c #292D69",
")*	c #3F437D",
"!*	c #2F336A",
"~*	c #42467A",
"{*	c #2B2F60",
"]*	c #2C2E5C",
"^*	c #272954",
"/*	c #1A1C41",
"(*	c #191A2D",
"_*	c #191A32",
":*	c #242643",
"<*	c #1C1E3F",
"[*	c #232649",
"}*	c #34365B",
"|*	c #24274E",
"1*	c #2E305A",
"2*	c #20234F",
"3*	c #292C5D",
"4*	c #303366",
"5*	c #272A5F",
"6*	c #424576",
"7*	c #252751",
"8*	c #1F2245",
"9*	c #17193A",
"0*	c #151736",
"a*	c #101127",
"b*	c #101128",
"c*	c #1F203B",
"d*	c #2E3052",
"e*	c #20224B",
"f*	c #2D2F5D",
"g*	c #252857",
"h*	c #222554",
"i*	c #232655",
"j*	c #383A68",
"k*	c #2D2F58",
"l*	c #25274E",
"m*	c #1D1F41",
"n*	c #141531",
"o*	c #121429",
"p*	c #0D0E23",
"q*	c #1A1C35",
"r*	c #191B36",
"s*	c #292B49",
"t*	c #191B3B",
"u*	c #191B3E",
"v*	c #212349",
"w*	c #25274F",
"x*	c #2B2E57",
"y*	c #1F224C",
"z*	c #1F214B",
"A*	c #21244E",
"B*	c #32355E",
"C*	c #272951",
"D*	c #272950",
"E*	c #22244A",
"F*	c #1E2043",
"G*	c #202243",
"H*	c #1A1B38",
"I*	c #151732",
"J*	c #12142D",
"K*	c #191B31",
"L*	c #0C0E1F",
"M*	c #0B0C1F",
"N*	c #262843",
"O*	c #1C1E3D",
"P*	c #171939",
"Q*	c #1F2244",
"R*	c #1E2044",
"S*	c #282A50",
"T*	c #1D2046",
"U*	c #1B1E44",
"V*	c #1F2248",
"W*	c #2C2E53",
"X*	c #2D2F53",
"Y*	c #212344",
"Z*	c #14152E",
"`*	c #101229",
" =	c #0F1128",
".=	c #0A0B1C",
"+=	c #23243D",
"@=	c #1F203C",
"#=	c #141633",
"$=	c #1B1D3D",
"%=	c #1F2143",
"&=	c #25274A",
"*=	c #1B1E41",
"==	c #1A1C3F",
"-=	c #1E2144",
";=	c #1D1F42",
">=	c #181935",
",=	c #151731",
"'=	c #202138",
")=	c #13142F",
"!=	c #1D1F3F",
"~=	c #272948",
"{=	c #090A19",
"]=	c #13152F",
"^=	c #181936",
"/=	c #141634",
"(=	c #1F213E",
"_=	c #20213E",
":=	c #171935",
"<=	c #21233E",
"[=	c #1C1E36",
"}=	c #151630",
"|=	c #21223B",
"1=	c #17192A",
"2=	c #0E1024",
"3=	c #191B33",
"4=	c #1D1F37",
"5=	c #0E0E1C",
"6=	c #13142C",
"7=	c #1C1D34",
"8=	c #0A0A18",
"9=	c #0C0D1A",
"0=	c #0D0D1C",
"a=	c #181A2D",
"b=	c #0B0B1A",
"c=	c #090A18",
"d=	c #141524",
"e=	c #0F1126",
"f=	c #101227",
"g=	c #181A2E",
"h=	c #141423",
"i=	c #18192D",
"j=	c #151728",
"k=	c #0C0C1B",
"l=	c #121320",
"m=	c #11111E",
"n=	c #10111D",
"o=	c #0F0F1D",
"p=	c #0C0C1A",
"q=	c #0A0B18",
"r=	c #0B0B18",
". . + @ # $ % & * = = - ; > , ' ) ' , ! ~ ~ { ] ^ / ( _ : < _ [ } | > , , ) ; - 1 2 = 1 3 4 # @ + 5 ",
". + @ # # 2 = 6 7 * 8 8 9 0 a ' a ~ ~ ^ b c d e ] { < f f g g h ( h } 0 } , 9 8 i 1 1 j * 2 # # @ + ",
"+ @ # # 2 2 k 1 i l 9 m 9 0 < { { n o ~ p n n c b q r g s s t h u s : { : 0 9 9 9 8 v w k & & # # x ",
"@ # # & & y * ; - , l 9 ! ~ _ z { g c A B C D D E F G H I J K J L s _ f : ~ 9 , i ' M v * y 2 2 4 # ",
"4 4 & & y * v v ' ! a : ] e q t A N D O P Q R Q S Q T U V U W X Y N O g q e / ~ ' Z 0 v ) * k & 2 $ ",
"` & & y * v v , 0 , ] r { p  .J ..N +.R @.#.$.%.&.*.=.-.;.>.,.T T J H N A c { b ( a } 0 v v w k = 1 ",
"4 * '.w v v 0 } : : o n t P ).+.V !.>.~.{.{.].^./.(._.:.<.[.[.}.>.*.|.+.).C c g z : _ 0 , ) ; 1 k * ",
"& j w ) ) 0 } : : 1.2. .H J 3.!.4.5.6.7.(.8.:.9.0.a.b.9.c.d.e.f.6.5.g.!.R C F h.2.f : : a ' - v 7 i.",
"1 & ) M } a : : f g N j.3.k.#.l.m.f.:.9.n.o.p.q.r.s.t.u.v.w.x.y.z.e.A.!.B.!.T H N g 1.( / ' 0 l C.D.",
"& 2 ; 0 a Z _ f g N H U E.!.F.G.H.I.J.K.L.M.N.O.P.Q.R.S.T.U.V.u.W.X.H.(.Y.k.Z.`.H N s d / a  +.+v ++",
"w v ' v } _ z s J H `.@+5.m.n.X.#+s.$+O.%+&+*+=+-+;+>+,+'+)+!+~+{+s.]+^+/+(+_+@+U G A q u :+[ ; <+- ",
"8 ; } 0 / n g h.G `.@+_+z.[+}+{+|+1+2+=+3+4+5+6+7+8+9+0+a+b+c+d+S.1+e+|+x.[+z.5.>.R j.f+g+2.h+9 ' i ",
"i+<+9 0 _ : q ..|._+_+z.j+k+u.l+m+n+o+a+p+q+r+s+t+u+v+w+x+y+p+z+o+A+B+C+u.k+[+[+~.Z.D+E+n ] ~ , ' 9 ",
"i+<+m h+o s N O *.k.[.j+k+K.T.F+G+H+I+J+s+K+L+M+N+O+P+Q+R+S+T+T+I+U+V+F+T.u.k+W+[.X+k.P  .q d / , ' ",
"<+m h+h+Y+B F |.B.A.Z+x.`+T. @.@+@@@#@$@%@&@*@=@-@;@>@,@'@)@!@$@~@{@z+]@F+~+s.^@/@m.(@Q F A q { { , ",
"9 9 h+_@Y+:@S @.Z.<@[@}@|@'+]@z+T+$@1@2@,@3@4@5@6@7@8@9@0@a@b@c@d@e@J+f@3+g@h@U.i@j@*.~.Q O q k@/ , ",
"v , / / B l@m@n@o@8.v.}@p@q@r@s@t@u@v@w@x@y@z@A@B@C@B@D@E@y@x@F@G@H@I@u+f@J@K@M.L@:.m.%.+.j.C { ~ 9 ",
"0 { n q C C @.M@/.0.N@O@P@4+Q@R@H@S@T@U@V@W@X@Y@Z@`@ #.#+#@###$#%#&#*#=#-#;#A+N.s.9.>#Z.~.C  .p b ] ",
", { 1.2.j.+.B.m.H.,#'#)#!#+@s@~#G@{#]#^#/#(#_#:#<#[#}#|#1#2#3#4#5#6#7#8##@8+o+~+}@J.:.{.9#3.0#n k@{ ",
"9 ] ~ A O U 5.>#a.s.N.!#a#b#c#S@d#e#f#g#h#i#j#k#l#m#n#o#p#q#h#r#s#t#u#v#w#u+8+=+O@x#y#j@*.U N A / ~ ",
"] b p P  .l.{.(.z#A#p@B#8+#@C#D#E#F#G#H#I#J#K#L#M#N#O#P#Q#R#S#T#U#V#W#X#Y#u+Z#`# $.$z#(.].!.C A n c ",
"~ b p  .+$9#Y.8.@$l+&+#$$$%$&$*$=$-$;$>$,$'$)$!$~${$]$^$/$($_$:$<$[$}$*$|$1${@2$*+3$p.:.m.B.+.O q q ",
"( z s ..U %.].H.@$1+4$5+5$6$*@7$8$9$0$a$b$c$d$e$f$g$h$i$j$k$l$m$n$o$V#p$v#q$r$s$g@t$J.z.(+=.V u$v$w$",
"_ z r G T x$j+y.y$z$P@f@u+d@A$B$C$D$E$F$G$H$I$J$K$L$M$N$O$P$Q$R$S$T$U$V$X#W$v+0+X$Y$Z$`$ %x$`.H 2.k@",
"~ { n F Q %.(.a.q.~+.%p++%@%#%$%%%&%*%=%-%;%>%,%'%'%'%)%!%~%{%]%^%/%(%$%>@_%T+f@.%~+:%X.<%g.`.H g ( ",
"/ { q F Q *.(.[@s.Q.;+8+u+O+;@7@[%`@[#}%N#{$>%|%'%'%'%1%2%3%4%5%*%6%B@7%8%9%T+f@0%K@:%9.<%Z.U j.2._ ",
"a%b%c%d%e%f%f.g%y$2+h%f@u+i%j%k%l%m%[#n%o%p%q%r%'%'%'%s%t%u%v%w%S#x%B@y@#%y%z%9+,+2+`+I.e.4.|...s ( ",
"~ o c 0#R $.H.^+A%O@=+8+T+9%,@B%C%D%E%F%G%H%I%J%K%L%s%M%N%O%P%Q%q#R%S%T%U%1@v+f@o+N.q.9.z.4.|.G r u ",
"~ o n F +.%.6.[+v.S.V%a+W%X%&#Y%V#Z%`% &.&+&@&#&$&%&!%&&*&=&-&;&>&,&'&)&!&~&{&]&^&/&(&_&<.4.U j.n d ",
"{ q g J |.:&<.c.<&[&F+}&r$|&&$1&2&3&4&5&6&7&8&9&0&a&u%O%b&c&d&e&f&[%g&h&i&j&k&4+ @C+l&_&m&n&D+K o&r ",
"( s r h.X 5.p&<%z#q&r&s&9+t&u&,@v&w&x&y&z&_$A&L#B&C&D&E&F&G&H&I&J&K&L&=@M&u+r@s&B+N&O&>#(+k.K f+L t ",
"a _ ( N J +.*.j@^+K.P&o+Z#s@Q&v@R&S&T&U&V&W&X&Y&Z&`& *R$;&S$.*+*s#@*a@'@w#s+7+#*2+:%^+G.!.+$C O < < ",
"0 { k@n 0#+$$*F. %]+%*2+!#I+t&&*v#**=*T&-*;*>*:#*%,*'*)*!*~*{*]*^*6#/*d@+%p+o+t$M.o.z.(+B.+$).p e ~ ",
"' ~ b q h.(*Z.!.>#_*N@)#o+:*$$<*[*}*|*1*2*l%3*4*m%5*4&R%6*[%F#7*6#v#8*9*0*H+,+~+s.[@G.@.~.X N n b ] ",
"; } h h C 0#+.4.a*b*]+[&c*0%Z#T+d*i%G@u#e*8@z@f*g*h*i*j*V#6@k*l*v#i%m*s+7+n*r&{+<&^.m.o*+$E  ._ ( 0 ",
"Z } ~ o 2.J 3.p*!.<%g%q*%*r*3+s*t*=#u*/*v*3@w*x*y*z*A*B*C*D*E*G@F*G*t*Z#H*I*'#J*X.K*_+E.Q C p L*^ , ",
"! ' { _ p M*).Q :&[.z#}+q.~+N*s&r@O*P*<*Q*R*v#S*T*U*V*S*W*X*Y#Y*s@q+f@`#*+N.Z*`* =].>.T H A n / ] ! ",
"v 0 9 .=L*c N K 5.Z.].z.Z++=N.'+@=#=7+$=J+K+%=&=*===-=;=~&1$$=s+]&#$>=F+,=A%/+W+o@@.@.J J r 1./ , 9 ",
"- <+m 9 { < r H Q ~.5.z.'=z#u.|@)=-+A+6+Z#O*{@J+#@P*!=P*~=q+9+f@o+P@%+3$:%O&:.W+~.M@m@E n ( ( a , 9 ",
"{=8 9 } < g 2.A F U @+X+^.z.x.M.J*]=N..%^=4++@f@I+7++@/=a+(=_=:=O.R.}@|+/+^.8.E.B.R ).:@Y+b : a } v ",
"1 ; } l } { o q O H e%@+*.[.n.0.o.x#|+O.%+r*F+o+#*n*d+-+<=V% $t${+A%[=a.O&A.E.9#Q F A p _@h+! v 0 ) ",
"* D.M , , ' { 1.g (*..Q _+_+o@/.8.^+J.Z*q&%*T.O@,=)=t$)#2+C+}=|=p.[@c.<@].~.*.R 0#A q d ] m m <+- * ",
"w w ; i 9 0 : _ 1=s A G T @.2=@.].j@[+^+n.L@3=Z*Z*N@q.N@J.4=z#_*W+e.{.}.$*!.R H  .c d / ~ 9 <+i+i+= ",
"& 5=1 i ; , } :+( o s h.D P S @.$.*.].7.(.^.j+y#6=i@a.i@W+7=K*j@(+*.o*5.|.O D A g o ~ ~ , 9 - 8 ++8=",
"9== 0=& v )  +Z ] : z q b B E R +$Z.9#E.m.A.p&b*G./.(.b*a*<.[.!.n&l.`.+$a=N n c k@{ ] 9 9 i i 1 b=c=",
"$ 1 2 k w d=> ! 0 a _ Y+] b P A F N R Q ~.@+4.e=f=@.o*f=&.g=k.+.U N F A O r : p ~ 0 , ! - i 2 0== ++",
"9=# 2 * h=D.- ; } a 9 h+h+L*n c O  .D O O `.U 3.+$S R +$m@i=K h.0#f+ .g p j=_ / ' ' , ; 8 1 0=1 1 $ ",
"@ # 4 D.w k=2 ) M 9 8 m ! ] ~ d _ c n A C N j.).).E 0#0#l@N X h.p t { k@/ { | 0 ; 9 i v 2 b== = 9=$ ",
"+ x l=3 = 1 '.w ; i+<+<+! ' ] { / p d { q g n p p b c c Y+q t h d q _ ~ : 9 Z } ' i - 2 y = ++$ $ 5 ",
"@ m=n=$ $ & * o== ++i+i+! 9 ' } 9 ~ / / n 2.o e ~ ] ~ o L*p s < : ]  +9 0 9 ' l v 2 1 p=1 2 $ q=5 r="};
