/* XPM */
static char * star1_xpm[] = {
"50 50 348 2",
"  	c None",
". 	c #030307",
"+ 	c #040408",
"@ 	c #040409",
"# 	c #030308",
"$ 	c #020207",
"% 	c #040509",
"& 	c #04050A",
"* 	c #030409",
"= 	c #05050A",
"- 	c #04040A",
"; 	c #05050B",
"> 	c #07070D",
", 	c #07070C",
"' 	c #05060B",
") 	c #06070C",
"! 	c #06060B",
"~ 	c #06060C",
"{ 	c #08080D",
"] 	c #030408",
"^ 	c #04040B",
"/ 	c #05050C",
"( 	c #05060C",
"_ 	c #07070E",
": 	c #06060D",
"< 	c #08080E",
"[ 	c #04050B",
"} 	c #06070D",
"| 	c #08090F",
"1 	c #08080F",
"2 	c #05060D",
"3 	c #04050C",
"4 	c #06070E",
"5 	c #080910",
"6 	c #07080E",
"7 	c #05060A",
"8 	c #07080F",
"9 	c #05050D",
"0 	c #07070F",
"a 	c #06060E",
"b 	c #090A11",
"c 	c #080810",
"d 	c #090910",
"e 	c #070810",
"f 	c #06070F",
"g 	c #090A12",
"h 	c #080911",
"i 	c #0A0A12",
"j 	c #0A0A11",
"k 	c #020307",
"l 	c #060710",
"m 	c #070811",
"n 	c #080912",
"o 	c #070710",
"p 	c #0A0B14",
"q 	c #0B0C14",
"r 	c #090911",
"s 	c #090912",
"t 	c #080811",
"u 	c #070711",
"v 	c #080812",
"w 	c #090913",
"x 	c #0B0B15",
"y 	c #0A0A13",
"z 	c #090A13",
"A 	c #0A0B13",
"B 	c #0A0A14",
"C 	c #080913",
"D 	c #090A14",
"E 	c #0B0C16",
"F 	c #0C0C16",
"G 	c #0B0B14",
"H 	c #05060E",
"I 	c #0A0A15",
"J 	c #0B0B16",
"K 	c #090914",
"L 	c #0D0E18",
"M 	c #0C0D16",
"N 	c #0A0B15",
"O 	c #090A15",
"P 	c #0D0D18",
"Q 	c #0B0C17",
"R 	c #0A0B16",
"S 	c #0A0B17",
"T 	c #090A16",
"U 	c #0C0D18",
"V 	c #0C0C17",
"W 	c #0A0A17",
"X 	c #0B0C18",
"Y 	c #0C0D19",
"Z 	c #0F0F1C",
"` 	c #10111D",
" .	c #0D0E19",
"..	c #020308",
"+.	c #0C0C19",
"@.	c #0D0E1B",
"#.	c #0C0D1A",
"$.	c #0A0B19",
"%.	c #0B0C1A",
"&.	c #0C0C1A",
"*.	c #0C0D1B",
"=.	c #111220",
"-.	c #0B0C19",
";.	c #0F101D",
">.	c #080914",
",.	c #030309",
"'.	c #090915",
").	c #0E0F1C",
"!.	c #0E0F1D",
"~.	c #0E0F1E",
"{.	c #0D0E1D",
"].	c #0C0D1D",
"^.	c #0D0E1E",
"/.	c #111221",
"(.	c #101120",
"_.	c #0F101E",
":.	c #0C0C18",
"<.	c #0B0B18",
"[.	c #0B0B19",
"}.	c #0E0F1F",
"|.	c #0F1021",
"1.	c #0F1122",
"2.	c #101122",
"3.	c #181929",
"4.	c #131424",
"5.	c #0F101F",
"6.	c #0E0E1B",
"7.	c #070812",
"8.	c #0C0C1B",
"9.	c #0F1020",
"0.	c #121425",
"a.	c #151629",
"b.	c #111225",
"c.	c #141529",
"d.	c #111226",
"e.	c #0F1023",
"f.	c #111324",
"g.	c #10101F",
"h.	c #0A0B18",
"i.	c #05060F",
"j.	c #090A17",
"k.	c #121322",
"l.	c #0E0F20",
"m.	c #121325",
"n.	c #16172A",
"o.	c #14162B",
"p.	c #16182E",
"q.	c #15162D",
"r.	c #14152D",
"s.	c #181930",
"t.	c #181A30",
"u.	c #191B30",
"v.	c #141528",
"w.	c #111224",
"x.	c #121324",
"y.	c #0C0D1C",
"z.	c #060711",
"A.	c #141527",
"B.	c #13142A",
"C.	c #1A1C34",
"D.	c #1B1D37",
"E.	c #161833",
"F.	c #191A36",
"G.	c #232540",
"H.	c #1E203A",
"I.	c #171931",
"J.	c #16172B",
"K.	c #101123",
"L.	c #0D0E1C",
"M.	c #10111F",
"N.	c #101223",
"O.	c #0E0F22",
"P.	c #14152B",
"Q.	c #161730",
"R.	c #161733",
"S.	c #1E2040",
"T.	c #1F2143",
"U.	c #1F2144",
"V.	c #212345",
"W.	c #272949",
"X.	c #1C1D36",
"Y.	c #17182E",
"Z.	c #060610",
"`.	c #121429",
" +	c #191B33",
".+	c #1C1E40",
"++	c #2C2E55",
"@+	c #2D305C",
"#+	c #292C5B",
"$+	c #323561",
"%+	c #282A51",
"&+	c #252749",
"*+	c #161830",
"=+	c #101121",
"-+	c #090916",
";+	c #080813",
">+	c #090A18",
",+	c #0B0C1B",
"'+	c #141526",
")+	c #121326",
"!+	c #12142A",
"~+	c #12142E",
"{+	c #1B1D3D",
"]+	c #1D1F46",
"^+	c #2C2F61",
"/+	c #3E4281",
"(+	c #3F4389",
"_+	c #4F5392",
":+	c #393C6E",
"<+	c #22244B",
"[+	c #191B35",
"}+	c #15172D",
"|+	c #101124",
"1+	c #0C0D1E",
"2+	c #0A0B1B",
"3+	c #0B0D1E",
"4+	c #0E0F23",
"5+	c #13142B",
"6+	c #141631",
"7+	c #2A2C4E",
"8+	c #262955",
"9+	c #383C7B",
"0+	c #585EC2",
"a+	c #7E87FF",
"b+	c #7278DC",
"c+	c #2C2F5B",
"d+	c #191B3D",
"e+	c #171934",
"f+	c #17182F",
"g+	c #131428",
"h+	c #0F101C",
"i+	c #0E0F1B",
"j+	c #0D0E1A",
"k+	c #0E0E1C",
"l+	c #181931",
"m+	c #1D1E3A",
"n+	c #25274A",
"o+	c #313463",
"p+	c #4A4E94",
"q+	c #959EFF",
"r+	c #FFFFFF",
"s+	c #A7B0FF",
"t+	c #53579D",
"u+	c #373A69",
"v+	c #292B4E",
"w+	c #21223E",
"x+	c #1B1C34",
"y+	c #17182C",
"z+	c #111222",
"A+	c #10101E",
"B+	c #09090F",
"C+	c #090A10",
"D+	c #151728",
"E+	c #15162A",
"F+	c #14152C",
"G+	c #1C1E39",
"H+	c #282A4C",
"I+	c #292C58",
"J+	c #303473",
"K+	c #464CB0",
"L+	c #747DFF",
"M+	c #646ACE",
"N+	c #2B2F6E",
"O+	c #30335F",
"P+	c #22243F",
"Q+	c #1D1E35",
"R+	c #191A2E",
"S+	c #161829",
"T+	c #131425",
"U+	c #1A1B2E",
"V+	c #14162C",
"W+	c #141630",
"X+	c #171939",
"Y+	c #2A2C53",
"Z+	c #232658",
"`+	c #404483",
" @	c #3A3E84",
".@	c #444887",
"+@	c #323567",
"@@	c #151737",
"#@	c #181A34",
"$@	c #17192F",
"%@	c #0E0F1A",
"&@	c #0C0D17",
"*@	c #131421",
"=@	c #131427",
"-@	c #0F1126",
";@	c #1E1F3B",
">@	c #16183A",
",@	c #25274E",
"'@	c #232652",
")@	c #262958",
"!@	c #202244",
"~@	c #13152D",
"{@	c #0D0F24",
"]@	c #0D0D1A",
"^@	c #080915",
"/@	c #121321",
"(@	c #0B0C1C",
"_@	c #121329",
":@	c #11122B",
"<@	c #1B1C38",
"[@	c #1F2141",
"}@	c #1D1F42",
"|@	c #1D1F41",
"1@	c #212343",
"2@	c #171834",
"3@	c #191A33",
"4@	c #101127",
"5@	c #0E1021",
"6@	c #0A0B12",
"7@	c #0F1022",
"8@	c #0D0E22",
"9@	c #1A1B31",
"0@	c #181A32",
"a@	c #161832",
"b@	c #1E203B",
"c@	c #111228",
"d@	c #0D0E20",
"e@	c #141525",
"f@	c #080815",
"g@	c #070813",
"h@	c #0F0F1D",
"i@	c #0B0C1D",
"j@	c #18192B",
"k@	c #111329",
"l@	c #13142C",
"m@	c #1C1D34",
"n@	c #16182D",
"o@	c #0A0B1A",
"p@	c #060712",
"q@	c #06060F",
"r@	c #0A0A19",
"s@	c #131423",
"t@	c #101125",
"u@	c #0E0E1D",
"v@	c #10111E",
"w@	c #0D0D1B",
"x@	c #0D0F20",
"y@	c #131526",
"z@	c #070713",
"A@	c #0A0A16",
"B@	c #03040B",
"C@	c #03030A",
"D@	c #0C0C15",
"E@	c #070712",
"F@	c #03040A",
"G@	c #020206",
". . . + @ # $ # @ % % & & * & & @ = @ = - ; - ; ; - ; ; - ; > = @ = , ' & & ) & % % @ # # # # . . + ",
". . . # @ @ # # % % ' & ' & @ ! @ ; ; ; - ; ; ; ; - ; ; ; ; ~ ; - ~ { = = ' ' & & % ] # # # # # + + ",
". . # # @ @ @ ] * & ' ' ! ! - ~ ; ; ; ; - - ; ; ; ; ; ; ; ~ ~ - ; > > ; ; , = & & & * ] # # # @ @ + ",
"+ @ # # # @ % & * * = ! ! ~ ; ; ~ - ; ^ / ^ ( ( ( ( ( ( ( _ : ^ ; < ~ ; > ~ = = = * * * ] # @ @ @ # ",
"@ @ @ # ] ] & & & @ = ~ ~ ~ ~ - : / ( ( ( [ } ( ( ( ( ( ( | } [ } 1 / ~ < ; ; ; = @ * & * % % @ # # ",
"# @ = @ ] * * & = @ - ; ~ ~ : / ( } ( ( 2 3 4 2 4 : 4 2 2 5 2 ( 6 6 ( _ : ; ; ; - @ = * & & % # # # ",
"# # @ 7 & * * @ ; ; - - ~ : } } [ 8 2 _ : : _ 9 0 a 0 a : 1 : : b 2 } | ( : ; - - ; ; = ' & * ] # @ ",
"# # ] & ' & @ - ; ; ; ^ ( } } 4 4 _ _ 0 a a a a 0 a 0 a 0 c 9 c d _ 8 8 } } ( ^ ; ; ; ~ = * * & % # ",
"# ] * * & ! ~ ; - ; / ( [ 4 8 1 1 9 c a 4 e f f e f e f g h 4 i 0 0 j _ 4 2 [ ( / ~ ~ ; - @ & & * ] ",
"] k * * @ = ~ ~ ; / ( } 2 / _ c c 0 h f e e l m n o n m p e e q e r c 0 _ / 2 ( } : ; - - = = * * ] ",
"% & * @ @ - ; ~ : ( ( 2 _ : a c h h f n s t u v w v w v x o y z h A e 0 a : : 4 } ( ^ ; ~ - @ @ * * ",
"& & & @ - - ; / } 6 2 : 0 0 4 e g n t B v n C D D C D C E m F v G n h e 4 0 0 1 2 [ ( / - - - @ * & ",
"* * = = ; - - ( ( 4 d 0 a 8 e H s B p C C D I J I K I K J C L D M w s f e 8 c a / 4 ( [ - - ; = = & ",
"& * @ ; ; ~ / [ 3 : : r 8 f m s u p N O P Q R R S T S Q R U I U D z u t m h 8 a _ : 3 ( / ; ; ; ! ' ",
"& = ; - ; / } } 3 / a 4 g n o w D C V U R T W W X X Y Z W ` Q  .J C C v y m f 5 9 : 2 ( ( : ~ > ~ = ",
"..@ ; ~ ; / ( 2 _ 0 9 f e y w C R K Q Y +.@.#.$.%.&.*.=.-.;.Z X R K >.N v t e H a a : 4 } _ ~ ; ; = ",
"@ @ ,.- / } ( 2 : 0 h f o v D R '.X W ).!.!.~.{.].^.^./.(.!._.@.W S :.>.D v o f e 0 1 8 } ( / ; ; = ",
"@ - - - ^ [ 2 1 0 a e m w l C I Y <.@.[./.}.}.|.1.|.1.2.3.4.5.[.#.6.T J 7.n v m h r c : 2 ( / ; ; ; ",
"= - - - [ ( 3 / 9 h h t n D K O <.;.8.5.9.0.a.b.c.d.d.e.b.f.9.~.g.h.+.O K D p G h e 0 _ 4 } ( ; - - ",
"= ~ > : ( [ / a a H i.v D >.R Y j.&.k.l.m.n.o.p.q.r.s.t.u.v.w.x.y.&.-.S Q U D v m e 0 0 : ( [ ^ - - ",
"- ,.- ^ } 8 d 0 4 f o u z.K U <.*.~.}.A.d.B.C.D.E.F.G.H.I.B.J.K.].{.L.Z Q I D w t e 4 9 / 3 [ ^ - - ",
"- - - ^ [ 3 / 9 e g G n 7.O T j.M.^.N.O.P.Q.R.S.T.U.V.W.R.X.Y.b.N.4.L.#.X R C m o H H 9 / 2 ( / ; ; ",
",.,.,.[ [ 3 / a f l Z.z.K  .6.h.y.].b.`. +F..+++@+#+$+%+&+F.*+u.b.=+~.-.-+>.;+7.u m e 0 _ 2 ( ( ; ; ",
"- - - [ [ 3 9 9 H i.Z.z.;+O W >+,+'+)+!+~+{+]+^+/+(+_+:+<+W.[+}+|+1+,+%.<.Q I D v m e 0 c 8 6 6 > > ",
"> > > 6 6 8 c c h n w C K T T >+2+3+4+5+6+7+8+9+0+a+b+_+c+d+e+f+g+1.9._.h+i+P E B z h c 0 4 } } ; ; ",
"; ; ~ } } _ 0 0 h s w D J X j+k+9.x.c.l+m+n+o+p+q+r+s+t+u+v+w+x+y+'+z+A+i+j+V E B y g c c 1 6 } ~ ~ ",
"< < B+C+C+b i i g z B N J S Y L.=+D+E+F+G+H+I+J+K+L+M+N+O+&+P+Q+R+S+z+L.X T K C v m e 0 0 4 ( ( ; ; ",
"; ; ; ( } 4 0 c g p B N I O <.L./.T+U+V+W+X+Y+Z+`+ @.@+@++@@#@$@a.x./.M.Z %@P &@F p g c 0 4 ( ( ; - ",
"~ > ~ } } 4 : a f m w N V  .Z *@{.].=@-@I.;@>@,@'@)@I+Y+!@m+~@{@)+=+5.).]@U V E x p g r d 5 6 6 > > ",
"- - - / ( 4 1 c h g G M L R ^@h./@(@0.a._@:@<@[@H+}@|@1@2@3@4@n.5@2+!.#.X Q N p s h h c d 8 6 _ > > ",
"; ~ ~ : } 8 1 r 6@g t Z.7.I  .-+_.~.4.7@8@9@0@a@P+2@b@~+I.c@g+d@e@{.*.f@R I D w s h 5 c _ 4 } : > > ",
"! ~ ~ _ | C+1 a 9 H l w N g@U X @.h@{.i@j@)+o.k@f+l@m@V+n@a.7@2.o@k+).T R p@C w m e 0 0 _ } } : ~ ~ ",
", > < ~ ( [ 3 / a g e q@z N J  .<.h.r@s@=+0.|+v.t@t@y+n.O.5@9.y.u@j.W  .I C n q@f e 0 _ 4 } } ~ ~ ~ ",
"! ; - - ^ [ 4 d 0 9 e n w p &@K ^@f@v@w@{.9.9.T+x@l.y@l.].=+5.[.h.+.^@;+&@p u l f 9 9 _ 4 ( / ; ; ; ",
"@ @ - - : 6 ( 3 _ c e h y w C g@z@j+]@#.L.L.,+k.].].z+y.{.*.*.@.W T A@g@z.w y e f a / B@[ ( / ; ; = ",
"* = ~ ~ ; ^ ( 8 _ 0 c g e o Z.z.Q P Q X +.-.#.M.%.[.!.!.@.j.]@X Q ;+g@D u q@f g c a : 2 [ C@- ; ; = ",
"' ! - - ; : } ( 4 1 c 4 f i.q@B &@D K Q Q S 6.6.X S j+Z ]@^@R R V C 7.u s l H 2 r 1 4 [ ( / - ,.- @ ",
"* * @ ~ ~ ; / } 8 _ : a 2 H n D@v n N O K >. .Q S T X  .O R E@R C p u o l e 4 9 / _ 8 } / - - ; @ ..",
"* & = = ; ; ~ 6 ( 2 : 9 9 8 A h t v z D C C P K I ;+I V ;+D 7.D z w s f f 4 0 a / 3 ( 6 ~ ; - @ @ * ",
"& & & = ; ~ ~ / [ [ B@/ 0 r 5 e e n s v v z E 7.D 7.C E C p u u s l h e 2 a a _ 2 [ [ ^ ~ ~ ~ = * * ",
"% & & = ! ; - - ^ F@F@2 d 1 0 0 e e h l o y x u v u v B B s t i.h e e c a / : 2 ( ( ^ - - ; ! ! & * ",
"% % ' ' = @ - - ,.C@( 6 5 : _ a c 0 f e f g z l m o l z p f e H f c a 0 _ / 3 [ ( / ; - ,.@ = ' ' % ",
"@ 7 & * * @ - ,.,.; _ | ( 4 2 _ _ c a a 8 g h f e f f h g H 5 a 9 c _ : 4 2 [ [ ^ ; ; ; - # ..* & 7 ",
"= @ ] * * * # ,.- ~ > : ( ( ( 4 4 : : 9 c r 0 a 0 a a c r a c a / : 4 2 } } ( ^ - - ; ; = * ....] @ ",
"@ # # ] ......@ ~ > ~ ; ; / } ( } 3 2 / 1 d : 9 0 9 a c 1 _ _ _ 3 3 } } ( : ~ - - - - = & & * k $ $ ",
"# # # $ k ..* ' , ! ; ; ; ; : / ( ( ( ( 8 8 2 2 2 / 3 4 8 4 2 } [ [ ( : / ; ~ ; - @ @ * & & % # $ $ ",
"# # $ $ k ] & ' ' = = ; ; ~ ; ~ / / [ } 6 6 [ ( ( [ [ } 6 6 [ } ( ^ ^ ~ ; - ; ; = @ * * * ] % # # $ ",
". $ $ $ # @ 7 ' & & = @ = ; ; ; - ; - : _ : [ ( ( [ [ } } _ ^ : ; - - ; ~ ; = ! = * * * ] # # @ # # ",
"G@G@$ # @ = = % & & * & = = ; ; ; - ; ~ > ~ - ; ; - - ; ~ > ; ; ; - - - ~ = @ & & & * ] # # # # # . ",
"G@G@. @ = = @ # % ] * & & & = @ = - ; ~ ~ ; - ; ; - - ; ~ ~ ; - ~ ; @ # = & & * & % % # # # # # . . "};
