/* XPM */
static char * green_xpm[] = {
"12 12 49 1",
" 	c None",
".	c #006800",
"+	c #006200",
"@	c #007400",
"#	c #007E00",
"$	c #007800",
"%	c #009A00",
"&	c #00B600",
"*	c #00BE00",
"=	c #00AE00",
"-	c #009C00",
";	c #009E00",
">	c #008400",
",	c #006C00",
"'	c #00A800",
")	c #00BC00",
"!	c #00D200",
"~	c #00D000",
"{	c #008200",
"]	c #009800",
"^	c #00B400",
"/	c #006A00",
"(	c #009200",
"_	c #008800",
":	c #00CE00",
"<	c #00FA00",
"[	c #00BA00",
"}	c #00C000",
"|	c #008600",
"1	c #008E00",
"2	c #00C600",
"3	c #00CA00",
"4	c #00C200",
"5	c #00F000",
"6	c #00B200",
"7	c #008000",
"8	c #00A200",
"9	c #00E000",
"0	c #007A00",
"a	c #00FE00",
"b	c #00F200",
"c	c #006400",
"d	c #00E400",
"e	c #00FC00",
"f	c #00A600",
"g	c #00AA00",
"h	c #00C800",
"i	c #00F800",
"j	c #00F400",
"            ",
"    .+@#    ",
"  $%&*=-;>  ",
"  ,')!~{]^  ",
" /(_(:<[-}' ",
" #|{1234[56 ",
" 7789:[01ab ",
" c%daa)7]e5 ",
"  f[3a6;9~  ",
"  gh<aie5e  ",
"    jee<    ",
"            "};
