/* XPM */
static char * red_xpm[] = {
"12 12 56 1",
" 	c None",
".	c #6B0000",
"+	c #650000",
"@	c #770000",
"#	c #800000",
"$	c #7A0000",
"%	c #9D0000",
"&	c #B80000",
"*	c #C00000",
"=	c #B00000",
"-	c #9E0000",
";	c #A10000",
">	c #890000",
",	c #6F0000",
"'	c #AB0000",
")	c #BF0000",
"!	c #D40000",
"~	c #D30000",
"{	c #9A0000",
"]	c #C20000",
"^	c #B70000",
"/	c #6D0000",
"(	c #950000",
"_	c #8A0000",
":	c #B30000",
"<	c #D50000",
"[	c #FE0000",
"}	c #CE0000",
"|	c #C70000",
"1	c #B60000",
"2	c #AD0000",
"3	c #880000",
"4	c #860000",
"5	c #AF0000",
"6	c #F50000",
"7	c #F40000",
"8	c #CA0000",
"9	c #CC0000",
"0	c #F60000",
"a	c #B50000",
"b	c #830000",
"c	c #A70000",
"d	c #FF0000",
"e	c #FA0000",
"f	c #E20000",
"g	c #CD0000",
"h	c #FD0000",
"i	c #670000",
"j	c #9C0000",
"k	c #D80000",
"l	c #FC0000",
"m	c #E30000",
"n	c #BB0000",
"o	c #A80000",
"p	c #E50000",
"q	c #E80000",
"            ",
"    .+@#    ",
"  $%&*=-;>  ",
"  ,')!~{]^  ",
" /(_:<[}|12 ",
" #34567890a ",
" bbcdefg*h7 ",
" ijkllm)ndd ",
"  o=5m8pdd  ",
"  28kqeddd  ",
"    0ddd    ",
"            "};
