<?xml version="1.0" standalone="yes"?>
<svg width="64" height="64">
<path style="fill:#000000; stroke:none;" d="M30 12C15.7256 17.412 17.4543 25.8461 20.0123 38C21.5775 45.4367 18.439 47.757 28 49L28 50L4 54C9.4482 63.0352 23.2736 57.267 32 57.267C37.1896 57.267 41.5858 58.7831 47 58.3009C53.2098 57.7479 56.2389 60.2374 60 54L36 50L36 49C45.561 47.757 42.4225 45.4367 43.9877 38C46.5457 25.8461 48.2744 17.412 34 12C38.4257 3.25 25.5743 3.25001 30 12z"/>
<path style="fill:#ffffff; stroke:none;" d="M31 6L30 7L30 9L31 10L33 10L34 9L34 7L33 6L31 6M30 13.8981C22.4295 16.2123 13.9089 28.9291 22.419 35.3071C25.0834 37.304 36.6576 37.0191 39.892 36.1111C51.8112 32.7651 40.8014 10.5965 30 13.8981z"/>
<path style="fill:#000000; stroke:none;" d="M31 20L31 25L26 25L26 27L31 27L31 31L33 31L33 27L38 27L38 25L33 25L33 20L31 20z"/>
<path style="fill:#ffffff; stroke:none;" d="M22 43L42 43C38.7725 35.6907 25.2275 35.6907 22 43M21 45L21 46L43 46C37.5217 42.2574 27.2212 43.5189 21 45M7 54L8 57L45 56.5764L57 54C41.2492 50.2501 22.7508 50.2501 7 54z"/>
</svg>
