<?xml version="1.0" standalone="yes"?>
<svg width="64" height="64">
<path style="fill:#000000; stroke:none;" d="M30 12C10.4697 19.4047 22.5914 32.8511 18 47L29 49L29 50L5 54L8 59C19.8226 54.6925 44.1774 54.6925 56 59L59 54L35 50L35 49L46 47C41.4086 32.8511 53.5303 19.4047 34 12C38.4257 3.25 25.5743 3.25001 30 12z"/>
<path style="fill:#ffffff; stroke:none;" d="M31 20L31 25L26 25L26 27L31 27L31 32L33 32L33 27L38 27L38 25L33 25L33 20L31 20M24 38L40 38C35.9532 34.9342 28.0468 34.9342 24 38M22 42L22 44L42 44L42 42L22 42z"/>
</svg>
