<?xml version="1.0" standalone="yes"?>
<svg width="64" height="64">
<path style="fill:#000000; stroke:none;" d="M31 3L28 8L31 9L26 22C18.5068 18.9473 2.79629 17.8261 5.40972 31C6.40151 35.9994 10.8303 38.6701 12.973 43C14.5411 46.1688 13.0069 50.6283 15.6034 53.2724C23.354 61.1651 41.0405 56.049 50 54C50 50.8153 49.4879 47.0388 50.6034 44C52.275 39.4463 56.9163 36.7637 58.3434 32C60.753 23.9563 52.4133 17.9146 45.0015 19.3935C42.5737 19.878 40.2792 21.0715 38 22C37.7162 16.8297 32.1943 12.2155 36 8L33 7L33 3L31 3z"/>
<path style="fill:#ffffff; stroke:none;" d="M31 30L33 30C39.8011 13.3059 24.1989 13.3059 31 30z"/>
<path style="fill:#000000; stroke:none;" d="M31 17L31 25L33 25L33 17L31 17z"/>
<path style="fill:#ffffff; stroke:none;" d="M33 38L31 38C30.6479 30.3139 26.4835 22.3011 18 21.2292C10.6966 20.3064 4.57222 27.2436 8.74228 34C15.3241 44.664 23.8814 39.6119 34 40.0394C38.0506 40.2105 43.0336 42.3058 47 41.2269C51.7815 39.9261 57.6313 33.2093 56.6381 28.0039C55.3718 21.3671 47.259 19.8158 42.0008 22.4568C35.7861 25.5782 33.3014 31.4191 33 38z"/>
<path style="fill:#000000; stroke:none;" d="M29 38C28.5802 35.1995 27.991 32.5217 26.5826 30.0154C16.672 12.3799 0.94644 35.3089 18.0008 38.9576C21.3737 39.6792 25.5474 38.1486 29 38M35 38C38.4526 38.1486 42.6263 39.6792 45.9992 38.9576C63.0536 35.3089 47.328 12.3799 37.4174 30.0154C36.009 32.5217 35.4198 35.1995 35 38z"/>
<path style="fill:#ffffff; stroke:none;" d="M17 48L47 48C42.3191 41.8444 21.6809 41.8444 17 48M17 53L47 53C42.5834 46.7227 21.4166 46.7227 17 53z"/>
</svg>
