<?xml version="1.0" standalone="yes"?>
<svg width="64" height="64">
<path style="fill:#000000; stroke:none;" d="M31 3L28 8L31 9L26 22C23.7208 21.0715 21.4263 19.878 18.9985 19.3935C11.5867 17.9146 3.24695 23.9564 5.65664 32C7.08373 36.7637 11.725 39.4463 13.3966 44C14.5121 47.0388 14 50.8153 14 54C27.2534 56.7355 36.7477 57.0308 50 54C50 50.8153 49.4879 47.0388 50.6034 44C52.275 39.4463 56.9163 36.7637 58.3434 32C60.753 23.9563 52.4133 17.9146 45.0015 19.3935C42.5737 19.878 40.2792 21.0715 38 22C37.7162 16.8297 32.1943 12.2155 36 8L33 7L33 3L31 3z"/>
<path style="fill:#ffffff; stroke:none;" d="M31 30L33 30C39.4078 13.3607 24.5922 13.3607 31 30M31 38C30.7209 34.8228 30.1478 31.8417 28.5826 29.0039C27.4262 26.9074 25.8987 25.0674 23.9568 23.6528C9.56889 13.1714 0.73918 37.1508 16.0008 39.5123C20.6959 40.2389 26.1996 38.0991 31 38M33 38C37.8004 38.0991 43.3041 40.2389 47.9992 39.5123C63.2608 37.1508 54.4311 13.1714 40.0432 23.6528C38.1013 25.0674 36.5738 26.9073 35.4174 29.0039C33.8522 31.8417 33.2791 34.8228 33 38M16 47C27.1312 43.4641 36.8688 43.4641 48 47C47.1614 36.485 16.8386 36.485 16 47M16 52C27.1312 48.4641 36.8688 48.4641 48 52C45.116 43.0986 18.884 43.0986 16 52M20 52L20 53L44 54L44 52L20 52z"/>
</svg>
