<?xml version="1.0" standalone="yes"?>
<svg width="64" height="64">
<path style="fill:#000000; stroke:none;" d="M17 5C17.107 16.9726 6.77228 25.853 6.24691 36.9961C5.7181 48.2124 17.7655 43.1975 22.0895 39.1003C25.3123 36.0465 29.2086 34.2154 33 32L20 57L58 57C58 34.343 51.8348 12.3363 28 5L26 10L17 5z"/>
<path style="fill:#ffffff; stroke:none;" d="M21 16L27 13L21 16M32 12L32 13C48.6336 20.9294 51.9887 37.8543 52 55L56 55C56 38.2952 52.8303 13.8324 32 12M17 23L23 17L17 23M34 26L33 30L34 30L34 26M10 34L9 39L13 35L12 34L10 34M15 39L13 42L15 39z"/>
</svg>
