<?xml version="1.0" standalone="yes"?>
<svg width="64" height="64">
<path style="fill:#000000; stroke:none;" d="M17 5C17.107 16.9726 6.77228 25.853 6.24691 36.9961C5.7181 48.2124 17.7655 43.1975 22.0895 39.1003C25.3123 36.0465 29.2086 34.2154 33 32L20 57L59 57C59 33.3144 52.5378 12.5526 28 5L26 10L17 5z"/>
<path style="fill:#ffffff; stroke:none;" d="M19 8C20.0042 16.8763 12.4395 27.0159 9 35L12 34L13 35C11.6522 37.4094 10.6362 38.7643 9 36L8 36C8.80033 41.018 12.0525 42.745 15 38L16 38L15 43L16 43C21.8517 35.3418 33.4272 32.4614 34 22L36 22C35.379 36.4632 27.2337 42.5151 22 55L55 55C54.9926 43.7846 50.3796 4.11581 31 14L30 8L29 8L28 13L21 15C22.2378 11.4973 22.332 9.89905 19 8z"/>
<path style="fill:#000000; stroke:none;" d="M17 23L23 17L17 23z"/>
</svg>
