<?xml version="1.0" standalone="yes"?>
<svg width="64" height="64">
<path style="fill:#000000; stroke:none;" d="M31 11L27 31L26 31C25.0718 24.715 24.1462 14.8494 22.2716 9.23225C21.39 6.59047 17.5819 5.96909 16.0856 8.44907C14.6848 10.771 16.6821 13.6489 17.0309 16C17.7587 20.9066 17.1262 26.5818 15 31C13.5071 27.4143 8.67195 8.00457 3.62191 12.7855C0.866274 15.3943 4.47088 18.7713 5.58565 21.1698C8.68306 27.8339 7.39493 35.3722 11.1914 42C14.0236 46.9444 10.9486 52.8113 13.1327 56.4367C14.6871 59.0169 19.4114 58.9008 22 59.2708C29.7337 60.3764 41.5198 61.4899 48.848 58.1065C53.7131 55.8603 49.2735 50.6728 50.365 46.8302C53.2462 36.6864 59.226 26.2805 61.2677 15.9545C61.9056 12.7284 58.0816 10.5237 55.6165 12.7863C53.4681 14.7583 54.2185 19.3595 53.1644 22C51.9408 25.0648 50.2701 27.9493 49 31C46.8738 26.5818 46.2413 20.9066 46.9691 16C47.3179 13.6489 49.3152 10.771 47.9144 8.44907C46.4181 5.96909 42.6101 6.59047 41.7284 9.23225C39.8538 14.8494 38.9282 24.7149 38 31L37 31L33 11C43.2206 4.30478 20.7794 4.30478 31 11z"/>
<path style="fill:#ffffff; stroke:none;" d="M16 42L16 44L48 44L48 42L16 42M17 48L17 50L47 50L47 48L17 48M14 52L14 54L17 54L17 52L14 52z"/>
</svg>
