<?xml version="1.0" standalone="yes"?>
<svg width="64" height="64">
<path style="fill:#000000; stroke:none;" d="M31 11L27 31L26 31L20 13C24.6254 9.97004 20.0964 4.47761 16.6219 7.78627C14.237 10.0573 16.7595 13.4624 17.1698 16C17.9771 20.9943 16.9157 27.0678 16 32L15 32C13.9261 28.2721 8.69336 7.9843 3.62191 12.7855C0.867809 15.3928 4.46844 18.773 5.58565 21.1698C8.70387 27.8593 7.39798 35.4029 11.1937 42C14.0037 46.884 10.7935 52.8295 13.0826 56.436C14.7119 59.0029 19.3668 58.8944 22 59.2708C29.7557 60.3795 41.4953 61.4739 48.8511 58.1065C53.8056 55.8383 49.5393 50.868 50.3681 47C52.5556 36.7899 59.2346 26.2368 61.2677 15.9545C61.9056 12.7284 58.0816 10.5237 55.6165 12.7863C53.4679 14.7584 54.2188 19.3594 53.1644 22C51.7826 25.4604 49.8736 28.7899 48 32C46.8865 27.323 45.836 20.7621 46.7145 16C47.1827 13.462 49.8017 10.0944 47.3781 7.78627C43.9039 4.47754 39.3745 9.96995 44 13L38 31L37 31L33 11C43.2206 4.30478 20.7794 4.30478 31 11z"/>
<path style="fill:#ffffff; stroke:none;" d="M31 6L30 7L30 9L31 10L33 10L34 9L34 7L33 6L31 6M18 8L17 9L17 11L18 12L20 12L21 11L21 9L20 8L18 8M44 8L43 9L43 11L44 12L46 12L47 11L47 9L46 8L44 8M5 13L4 14L4 16L5 17L7 17L8 16L8 14L7 13L5 13M57 13L56 14L56 16L57 17L59 17L60 16L60 14L59 13L57 13M19 19L18 36L25 35L19 19M31 19L28 35L36 35L33 19L31 19M44 20L39 35L46 36L44 20M9 25L11 37L15 36L9 25M54 25L49 36L53 37L54 25M12 38C15.4329 44.2256 38.7221 42.2037 45.9954 41.902C49.1776 41.77 50.5506 40.6284 52 38L12 38M16 44C17.842 49.5455 46.158 49.5455 48 44L16 44M16 51L16 52L48 52C40.7203 46.2716 24.2785 48.1976 16 51M14 55C21.7053 60.2652 42.0877 59.741 50 55C39.1855 51.7139 24.8145 51.7139 14 55z"/>
</svg>
