<?xml version="1.0" standalone="yes"?>
<svg width="64" height="64">
<path style="fill:#000000; stroke:none;" d="M14 7L18.9954 27L14 50L10 50L10 56L54 56L54 50L50 50L45.0046 27L50 7L41 7L41 11L36 11L36 7L28 7L28 11L23 11L23 7L14 7z"/>
<path style="fill:#ffffff; stroke:none;" d="M16 9L16 15L48 15L48 9L43 9L43 13L34 13L34 9L30 9L30 13L21 13L21 9L16 9M18 17L18 18C26.4318 20.0074 37.5682 20.0074 46 18L18 17M21 21L21 40L43 40L43 21L21 21M19 43L19 44L45 44C39.5772 39.8917 25.3517 41.1225 19 43M16 46L16 50L48 50L48 46L16 46M12 52L12 54L52 54L52 52L12 52z"/>
</svg>
