<?xml version="1.0" standalone="yes"?>
<svg width="129" height="129">
<path style="fill:#000000; stroke:none;" d="M27 107C24.7678 107.008 21.4842 106.532 19.6034 108.028C16.6507 110.376 17.4267 117.577 21.1481 118.682C27.2173 120.484 35.6864 119 42 119L86 119C91.8892 119 102.344 121.023 107.682 118.397C116.33 114.142 106.249 107.019 101 107C101 103.386 101.813 98.5467 99.9722 95.2855C98.0336 91.8517 94.3371 90.0599 93.3179 86C90.8443 76.1468 92.1765 61.1282 93.0586 51C93.6154 44.6074 99.2136 42.7823 102.397 37.9606C104.866 34.2194 104.946 25.4047 103.682 21.1481C101.314 13.1732 85.1025 17.3489 85 26L74 26C73.8622 14.3753 55.1378 14.3753 55 26L43 26C42.8975 17.3489 26.6856 13.1732 24.3179 21.1481C23.0675 25.36 23.1091 34.2297 25.6034 37.9105C28.8505 42.7023 34.3822 44.5775 34.9414 51C35.8232 61.1284 37.1558 76.1466 34.6821 86C33.6629 90.0599 29.9664 91.8517 28.0278 95.2855C26.1866 98.5467 27 103.386 27 107z"/>
<path style="fill:#ffffff; stroke:none;" d="M28 22L28 34L100 34L100 22L89 22C88.629 33.3919 70.371 33.3919 70 22L59 22C58.6252 33.5084 39.3748 33.5084 39 22L28 22M32 38C35.8802 42.8949 40.078 42.9977 46 43C58.3902 43.0048 87.7822 48.3669 96 38L32 38M39 47L39 86L89 86L89 47L39 47M35 94L93 94C89.3785 89.6521 85.3435 90.0003 80 90C69.1088 89.9993 42.3203 85.2115 35 94M31 98L31 107L97 107L97 98L31 98M22 111L22 115L106 115L106 111L22 111z"/>
</svg>
