/* XPM */
static const char * ggz_xpm[] = {
"48 48 490 2",
"  	c None",
". 	c #B6B6B6",
"+ 	c #C1C1C1",
"@ 	c #B8B8B8",
"# 	c #BDBDBD",
"$ 	c #C3C3C3",
"% 	c #B1B1B1",
"& 	c #C9C9C9",
"* 	c #D1CBCB",
"= 	c #D1C6C6",
"- 	c #D0D0D0",
"; 	c #C2C2C2",
"> 	c #CACACA",
", 	c #D1D1D1",
"' 	c #B7B7B7",
") 	c #D2CFCF",
"! 	c #D25252",
"~ 	c #D20E0E",
"{ 	c #D20A0A",
"] 	c #D23939",
"^ 	c #D2C9C9",
"/ 	c #BFBFBF",
"( 	c #C7C7C7",
"_ 	c #D2D2D2",
": 	c #A1A1A1",
"< 	c #BEBEBE",
"[ 	c #CBCBCB",
"} 	c #D3D3D3",
"| 	c #D3C4C4",
"1 	c #D31414",
"2 	c #D30909",
"3 	c #D41B1B",
"4 	c #D4C3C3",
"5 	c #D4D4D4",
"6 	c #C4C4C4",
"7 	c #CCCCCC",
"8 	c #919191",
"9 	c #A9A9A9",
"0 	c #A6A6A6",
"a 	c #A7A7A7",
"b 	c #B9B9B9",
"c 	c #D0D0D1",
"d 	c #BCBBD3",
"e 	c #C0BFD4",
"f 	c #D4BFBF",
"g 	c #D48B8B",
"h 	c #D49191",
"i 	c #D5C6C6",
"j 	c #D5D5D5",
"k 	c #CFCFCF",
"l 	c #B5B5B5",
"m 	c #C8C8C8",
"n 	c #5F5F5F",
"o 	c #1B1B1B",
"p 	c #424242",
"q 	c #6C6C6C",
"r 	c #717171",
"s 	c #B3B3B3",
"t 	c #B0B0B0",
"u 	c #CDCDCD",
"v 	c #B8B8D4",
"w 	c #2523D4",
"x 	c #0300D5",
"y 	c #4442D5",
"z 	c #D4D4D5",
"A 	c #D6D6D6",
"B 	c #BBBBBB",
"C 	c #DFDFDF",
"D 	c #AAAAAA",
"E 	c #0A0A0A",
"F 	c #494949",
"G 	c #B2B2B2",
"H 	c #3A3A3A",
"I 	c #545454",
"J 	c #727272",
"K 	c #EAEAEA",
"L 	c #E3E3E3",
"M 	c #9796D5",
"N 	c #0401D6",
"O 	c #0300D6",
"P 	c #2E2BD6",
"Q 	c #D5D5D6",
"R 	c #D5D6D5",
"S 	c #76C58E",
"T 	c #37BA5F",
"U 	c #37BA5E",
"V 	c #83C898",
"W 	c #C0C0C0",
"X 	c #FEFEFE",
"Y 	c #F9F9F9",
"Z 	c #D7D7D7",
"` 	c #606060",
" .	c #171717",
"..	c #636363",
"+.	c #333333",
"@.	c #4B4B4B",
"#.	c #A3A3A3",
"$.	c #DADADA",
"%.	c #EBEBEB",
"&.	c #E7E7E7",
"*.	c #D9D9D9",
"=.	c #AFAED7",
"-.	c #8483D7",
";.	c #9897D7",
">.	c #D1D1D7",
",.	c #A4CEB0",
"'.	c #06B23A",
").	c #0DB33F",
"!.	c #D0D6D2",
"~.	c #E0E0E0",
"{.	c #FFFFFF",
"].	c #FCFCFC",
"^.	c #E4E4E4",
"/.	c #B4B4B4",
"(.	c #2B2B2B",
"_.	c #7B7B7B",
":.	c #838383",
"<.	c #A4A4A4",
"[.	c #949494",
"}.	c #0D0D0D",
"|.	c #2F2F2F",
"1.	c #ADADAD",
"2.	c #ACACAC",
"3.	c #DBDBDB",
"4.	c #D8D8D8",
"5.	c #D6D8D7",
"6.	c #7BC892",
"7.	c #46BE6A",
"8.	c #55C175",
"9.	c #A6CFB2",
"0.	c #DEDEDE",
"a.	c #ECECEC",
"b.	c #FAFAFA",
"c.	c #F6F6F6",
"d.	c #999999",
"e.	c #2D2D2D",
"f.	c #696969",
"g.	c #111111",
"h.	c #353535",
"i.	c #292929",
"j.	c #777777",
"k.	c #DCDCDC",
"l.	c #EDEDED",
"m.	c #E9E9E9",
"n.	c #D9D8C2",
"o.	c #D9D65E",
"p.	c #D9D639",
"q.	c #D9D647",
"r.	c #D9D8A3",
"s.	c #F3F3F3",
"t.	c #FDFDFD",
"u.	c #F8F8F8",
"v.	c #C3B0B0",
"w.	c #E2E1E1",
"x.	c #F0F0F0",
"y.	c #A0A0A0",
"z.	c #444444",
"A.	c #909090",
"B.	c #ABABAB",
"C.	c #E1E1E1",
"D.	c #F4F4F4",
"E.	c #D9D877",
"F.	c #D9D626",
"G.	c #DAD626",
"H.	c #DAD75A",
"I.	c #DDDDDD",
"J.	c #CACAC9",
"K.	c #B16161",
"L.	c #B04545",
"M.	c #DAD9DA",
"N.	c #F2F2F2",
"O.	c #F7F7F7",
"P.	c #A9A9AB",
"Q.	c #E5E5E5",
"R.	c #EEEEEE",
"S.	c #DADACE",
"T.	c #DAD880",
"U.	c #DAD867",
"V.	c #DAD882",
"W.	c #DBDBCE",
"X.	c #D4D4D3",
"Y.	c #C5C5C4",
"Z.	c #C1C1C0",
"`.	c #B16060",
" +	c #B40000",
".+	c #AD7676",
"++	c #F5F5F5",
"@+	c #F1F1F1",
"#+	c #A8A8A8",
"$+	c #AAAAAB",
"%+	c #5C539B",
"&+	c #E2E2E2",
"*+	c #E6E6E6",
"=+	c #E1E1E0",
"-+	c #CCCCCB",
";+	c #C2C2C1",
">+	c #C1C1BF",
",+	c #B05F5F",
"'+	c #B30000",
")+	c #AB1C1C",
"!+	c #ADA9A9",
"~+	c #C2BEBE",
"{+	c #9D9E9D",
"]+	c #A5A5A5",
"^+	c #9D9DA3",
"/+	c #84809C",
"(+	c #53499A",
"_+	c #1702A8",
":+	c #9491A7",
"<+	c #FBFBFB",
"[+	c #D7D7D6",
"}+	c #C4C4C3",
"|+	c #979796",
"1+	c #7E7E7E",
"2+	c #A5A5A4",
"3+	c #C0C0BF",
"4+	c #B20000",
"5+	c #A90E0E",
"6+	c #AE0C0C",
"7+	c #B98787",
"8+	c #E8E8E8",
"9+	c #BABABA",
"0+	c #AFAFAF",
"a+	c #74767F",
"b+	c #565A74",
"c+	c #505563",
"d+	c #5F6166",
"e+	c #99989E",
"f+	c #2310A0",
"g+	c #1500A7",
"h+	c #1500A8",
"i+	c #1500A9",
"j+	c #5F55A5",
"k+	c #CECECD",
"l+	c #A1A19F",
"m+	c #272728",
"n+	c #020204",
"o+	c #252526",
"p+	c #0D0D0F",
"q+	c #A2A2A1",
"r+	c #C0C0BE",
"s+	c #BFBFBE",
"t+	c #AF5E5E",
"u+	c #B10000",
"v+	c #AF0606",
"w+	c #B29898",
"x+	c #AEAEAE",
"y+	c #6E718E",
"z+	c #414D90",
"A+	c #9C9DA7",
"B+	c #8F9196",
"C+	c #51587E",
"D+	c #888693",
"E+	c #1500A4",
"F+	c #1500A6",
"G+	c #2513A5",
"H+	c #A6A5A8",
"I+	c #D1D1D0",
"J+	c #C7C7C6",
"K+	c #ABABAA",
"L+	c #131314",
"M+	c #010103",
"N+	c #09090A",
"O+	c #AE5E5E",
"P+	c #B00000",
"Q+	c #AB2E2E",
"R+	c #9E9EA1",
"S+	c #1B258C",
"T+	c #5C67A1",
"U+	c #898C95",
"V+	c #6F758D",
"W+	c #434B79",
"X+	c #9C9B9E",
"Y+	c #1F0BA0",
"Z+	c #70699F",
"`+	c #B7B7B6",
" @	c #1A191B",
".@	c #434343",
"+@	c #565656",
"@@	c #BFBFBD",
"#@	c #BEBEBD",
"$@	c #AF0101",
"%@	c #AC9393",
"&@	c #9C9D9C",
"*@	c #6F707D",
"=@	c #10198A",
"-@	c #38459B",
";@	c #4F5A9F",
">@	c #2C378B",
",@	c #747689",
"'@	c #53489D",
")@	c #1500A3",
"!@	c #1500A5",
"~@	c #2817A5",
"{@	c #A4A3A6",
"]@	c #222223",
"^@	c #202020",
"/@	c #040405",
"(@	c #656565",
"_@	c #6F6F6F",
":@	c #4A4A4B",
"<@	c #BEBEBC",
"[@	c #BDBDBC",
"}@	c #AD5D5D",
"|@	c #AF0000",
"1@	c #AB5E5E",
"2@	c #A9AAAA",
"3@	c #6D7174",
"4@	c #858787",
"5@	c #878989",
"6@	c #757678",
"7@	c #191D4F",
"8@	c #272E7A",
"9@	c #111876",
"0@	c #545782",
"a@	c #9D9D9D",
"b@	c #96959D",
"c@	c #25149E",
"d@	c #6961A0",
"e@	c #404041",
"f@	c #727171",
"g@	c #413610",
"h@	c #776828",
"i@	c #7E6D2D",
"j@	c #040404",
"k@	c #1B1B1C",
"l@	c #B6B6B5",
"m@	c #AC5C5C",
"n@	c #AE0000",
"o@	c #AA4040",
"p@	c #9FA0A1",
"q@	c #474D55",
"r@	c #333B43",
"s@	c #6E7274",
"t@	c #686B6D",
"u@	c #A4A5A8",
"v@	c #8C8E94",
"w@	c #525354",
"x@	c #404148",
"y@	c #7B7B7F",
"z@	c #9E9E9E",
"A@	c #8B889E",
"B@	c #372999",
"C@	c #362894",
"D@	c #1804A1",
"E@	c #2311A2",
"F@	c #A09FA3",
"G@	c #B5B5B4",
"H@	c #535353",
"I@	c #664F13",
"J@	c #B19511",
"K@	c #AF9612",
"L@	c #8F7223",
"M@	c #181819",
"N@	c #4C4C4C",
"O@	c #BBBBBA",
"P@	c #BCBCBB",
"Q@	c #A76565",
"R@	c #A73B3B",
"S@	c #898B8D",
"T@	c #373D47",
"U@	c #2A333C",
"V@	c #1D262D",
"W@	c #434950",
"X@	c #94959B",
"Y@	c #939298",
"Z@	c #9C9C9D",
"`@	c #9F9F9F",
" #	c #7C7896",
".#	c #3E3099",
"+#	c #6C659F",
"@#	c #534833",
"##	c #A67F07",
"$#	c #A3860C",
"%#	c #8F7128",
"&#	c #AAA9A5",
"*#	c #010102",
"=#	c #020203",
"-#	c #414141",
";#	c #B0B0AF",
">#	c #A69D9D",
",#	c #A90808",
"'#	c #AD0000",
")#	c #A94848",
"!#	c #C6C6C6",
"~#	c #87898B",
"{#	c #383F49",
"]#	c #2C343E",
"^#	c #182128",
"/#	c #4C5255",
"(#	c #666092",
"_#	c #797593",
":#	c #403493",
"<#	c #676194",
"[#	c #1602A0",
"}#	c #1500A2",
"|#	c #3D2F9F",
"1#	c #BDBDBB",
"2#	c #4C4A47",
"3#	c #7F6E47",
"4#	c #887347",
"5#	c #A5A39E",
"6#	c #BCBCBA",
"7#	c #AAAAA9",
"8#	c #060607",
"9#	c #575757",
"0#	c #A64C4C",
"a#	c #AC0000",
"b#	c #A76F6F",
"c#	c #85878A",
"d#	c #2C353E",
"e#	c #171F26",
"f#	c #505659",
"g#	c #473C97",
"h#	c #14009E",
"i#	c #594F9A",
"j#	c #554B99",
"k#	c #1400A0",
"l#	c #271796",
"m#	c #4A4A4A",
"n#	c #A6A6A5",
"o#	c #A8A8A7",
"p#	c #BBBBB9",
"q#	c #9C9C9C",
"r#	c #101010",
"s#	c #0C0C0C",
"t#	c #505050",
"u#	c #A09393",
"v#	c #A90A0A",
"w#	c #AB0000",
"x#	c #A61010",
"y#	c #ACA5A5",
"z#	c #C5C5C5",
"A#	c #818486",
"B#	c #303942",
"C#	c #272F38",
"D#	c #1B242A",
"E#	c #4F5356",
"F#	c #514696",
"G#	c #24129B",
"H#	c #98979C",
"I#	c #5B5399",
"J#	c #544B95",
"K#	c #B2B2B1",
"L#	c #616161",
"M#	c #8E8E8E",
"N#	c #B9B9B8",
"O#	c #BABAB8",
"P#	c #595959",
"Q#	c #848484",
"R#	c #9E5F5F",
"S#	c #AA0606",
"T#	c #A50808",
"U#	c #A17A7A",
"V#	c #727679",
"W#	c #373F45",
"X#	c #212B32",
"Y#	c #53585D",
"Z#	c #999A9A",
"`#	c #989898",
" $	c #5A5195",
".$	c #5A5295",
"+$	c #B9B9B7",
"@$	c #B7B7B5",
"#$	c #A9A9A8",
"$$	c #9A6D6D",
"%$	c #9F5E5E",
"&$	c #9B9C9D",
"*$	c #939495",
"=$	c #909292",
"-$	c #969696",
";$	c #665F93",
">$	c #7D7996",
",$	c #A2A2A2",
"'$	c #BABAB9",
")$	c #424243",
"!$	c #B8B8B7",
"~$	c #B8B8B6",
"{$	c #B3B3B2",
"]$	c #979797",
"^$	c #9B9B9B",
"/$	c #736F90",
"($	c #939299",
"_$	c #B4B4B2",
":$	c #141414",
"<$	c #929292",
"[$	c #ADADAC",
"}$	c #9A9A9A",
"|$	c #9C9C9B",
"1$	c #666666",
"                                                                                                ",
"                                                                                                ",
"                                                                                                ",
"                                                                                                ",
"                                                                                                ",
"                                                                                                ",
"                                                                                                ",
"                                                                                                ",
"                                                                                                ",
"                                                                                                ",
"                          . + @                                         # $ %                   ",
"                      # & * = - #                                   ; > , , - @                 ",
"                ' $ - ) ! ~ { ] ^ $                           / ( - _ , , _ , , + :             ",
"            < [ _ } } | 1 2 2 3 4 5 & %                   6 7 , 8 9 0 - _ _ _ _ _ > a           ",
"      b 6 c d e 5 5 5 5 f g h i j j j k l             m , 5 , n o p q r s } } } _ } k t         ",
"  > u 5 v w x x y z j j j j j A A A A A } B     C _ j j j j j D E F G H I J $ } } } } _ b       ",
"7 K L A M N O O P Q A A A A A A R S T U V j W - X Y C Z A A j j `  .G n ..+.I @.@ 5 5 5 } ; #.  ",
"' $.%.&.*.=.-.;.>.Z Z Z Z Z Z Z ,.'.'.'.).!.Z & ~.{.].^.Z Z A A /.(._.:.<.[.8 }.|.: j 5 5 5 [ 1.",
"2.. A K K 3.4.4.4.4.4.4.4.4.4.4.5.6.7.8.9.0.a.b.c.K {.X K *.4.Z Z m d.e.f.H g.h.i.j.j 5 A k.&.l.",
"9 2.s _ m.a.0.*.*.n.o.p.q.r.*.*.*.*.$.^.s.t.{.{.u.v.w.X {.x.$.4.4.4.4.y.z.A.B.f.A.j *.C.l.D.D.%.",
"D B.2.% u &.l.~.*.E.F.G.G.H.$.$.0.%.Y {.{.t.s.I.J.K.L.M.].{.c.I.*.*.*.4.m 2.. Z I.&.N.O.s.&.- @ ",
"a D B.2.P.m Q.R.L S.T.U.V.W.L N.t.{.{.b.%.X.Y.Z.Z.`. +.+- u.{.b.C.*.*.*.A *.C.a.++u.@+C.m /.B.D ",
"a #+D $+%+1.; &+l.*+k.0.K u.X {.X ++=+-+;+Z.Z.>+>+,+'+)+!+~+s.{.t.*+$.I.*+@+u.O.R.*.+ t 2.9 {+#+",
"]+^+/+(+_+:+2.# 0.R.++].{.{.<+l.[+}+|+1+2+>+3+3+3+,+'+4+5+6+7+a.X X D.++Y c.8+, 9+0+1.2.a+b+c+d+",
"e+f+g+h+i+j+D B.' ^.{.t.c.L k+;+l+m+n+o+p+q+r+r+s+t+4+4+4+u+v+w+L {.t.N.C.& l x+x+1.1.y+z+A+B+C+",
"D+E+F+g+h+G+H+D D 9+*.I+J+3+3+K+L+M+n+N+M+f.s+s+s+O+u+u+u+u+P+Q+l ~.4.W G 0+x+x+1.1.R+S+T+U+V+W+",
"X+Y+E+F+g+h+Z+#+#+0+9+`+r+r+r+I M+M+ @.@M++@@@#@#@O+P+P+P+P+P+$@%@m @ 0+0+x+x+D &@2.*@=@-@;@>@,@",
": '@)@E+!@F+~@{@a x+b . s+s+s+]@^@/@(@_@n+:@#@<@[@}@P+P+P+|@|@|@1@m @ 0+x+2@3@4@5@2.6@7@8@9@0@0 ",
"a@b@c@)@E+!@F+d@0 1.b l #@@@#@e@f@g@h@i@j@k@l@[@[@m@|@|@|@|@|@n@o@m ' x+p@q@r@s@t@u@v@w@x@y@a a ",
"a@z@A@B@C@D@E+E@F@B.@ G@<@<@<@H@I@J@K@L@g.M@N@O@P@Q@n@n@n@n@n@n@R@( . x+S@T@U@V@W@X@D 9 #+#+a 0 ",
"  Y@Z@`@ #.#)@)@+#D @ /.[@[@[@@###$#%#&#H@*#=#-#;#>#,#'#'#'#'#'#)#!#l 1.~#{#]#^#/#D 9 9 #+a 0 ]+",
"    (#_#:#<#[#}#|##+' s 1#1#1#2#3#4#5#6#7#/@8#*#9#9 0#a#a#a#a#a#b#!#/.1.c#{#d#e#f#9 9 #+a 0 0 <.",
"      g#h#i#j#k#l#a . G P@P@G@m#n#o#p#x+q#..r#s#t#: u#v#w#a#a#x#y#z#s 2.A#B#C#D#E#9 #+a 0 0 ]+: ",
"        F#G#H#I#J#]+l K#O@O@L#M#N#G@N#N#O#G@P#Q#      R#S#w#T#U#x+6 G 2.V#W#X#Y#Z##+a a 0 y.`#  ",
"           $.$a@z@#./.% p#l+ .n#N#+$N#@$#$q#            $$%$u#D x+$ % B.&$*$=$9 #+a 0 z@-$      ",
"            ;$>$a@,$s t '$)$-#!$~${$<.]$                  ^$a 9 1.$ t D D 9 9 #+0 q#[.          ",
"              /$($y.G 0+_$:$<$[$y.                            <.2.; 0+9 9 #+<.}$                ",
"                8 q#% x+|$1$}$                                  0 + x+9 : d.                    ",
"                    8 -$                                          ,$]$-$                        ",
"                                                                                                ",
"                                                                                                ",
"                                                                                                ",
"                                                                                                ",
"                                                                                                ",
"                                                                                                ",
"                                                                                                ",
"                                                                                                ",
"                                                                                                "};
