/* XPM */
const char * tictactoe_xpm[] = {
"48 48 358 2",
"  	c None",
". 	c #0D2C81",
"+ 	c #0D2C82",
"@ 	c #0D2D84",
"# 	c #0D2C80",
"$ 	c #0C2B7D",
"% 	c #3A549B",
"& 	c #667AB1",
"* 	c #8292BF",
"= 	c #8090BF",
"- 	c #B7C0DB",
"; 	c #B3BDD9",
"> 	c #8796C2",
", 	c #7889BA",
"' 	c #687CB3",
") 	c #40599E",
"! 	c #1A388A",
"~ 	c #0C2B7F",
"{ 	c #0D2D83",
"] 	c #95A3C9",
"^ 	c #E1E5EF",
"/ 	c #FCFCFD",
"( 	c #F8F8FB",
"_ 	c #F3F4F9",
": 	c #F0F1F8",
"< 	c #EBEDF5",
"[ 	c #E7E9F3",
"} 	c #E3E5F1",
"| 	c #DFE1EF",
"1 	c #DBDEED",
"2 	c #D7DAEB",
"3 	c #D2D6E9",
"4 	c #B6BDDB",
"5 	c #8392C1",
"6 	c #475EA2",
"7 	c #4A62A3",
"8 	c #C3CBE0",
"9 	c #FFFFFF",
"0 	c #CDD1E7",
"a 	c #B9BFDD",
"b 	c #B6BDDC",
"c 	c #BEC3DF",
"d 	c #C2C7E1",
"e 	c #B3BADA",
"f 	c #7889BC",
"g 	c #37519A",
"h 	c #0C2A7C",
"i 	c #2B4793",
"j 	c #B1B8D9",
"k 	c #9EB0D7",
"l 	c #A5C1E2",
"m 	c #8CB2DB",
"n 	c #8AA4D2",
"o 	c #BDC2DF",
"p 	c #B9C0DD",
"q 	c #B5BCDB",
"r 	c #8F9BC8",
"s 	c #0C2977",
"t 	c #7789BA",
"u 	c #8DA0CE",
"v 	c #68A0D4",
"w 	c #488BCA",
"x 	c #2877C2",
"y 	c #508DCA",
"z 	c #C0C6E1",
"A 	c #A7AED4",
"B 	c #A0A8D1",
"C 	c #A9B1D5",
"D 	c #A5ADD3",
"E 	c #7B8ABE",
"F 	c #314B97",
"G 	c #1C3A8C",
"H 	c #CED2E7",
"I 	c #B3BDDD",
"J 	c #4083C6",
"K 	c #0360B7",
"L 	c #4D8DCB",
"M 	c #B6CAE5",
"N 	c #AAB2D6",
"O 	c #9CB0C4",
"P 	c #A4CBB5",
"Q 	c #8CC29D",
"R 	c #90ADB7",
"S 	c #A2ABD2",
"T 	c #9CA5CF",
"U 	c #98A2CD",
"V 	c #596CAC",
"W 	c #0C2B7E",
"X 	c #D2D8E8",
"Y 	c #AAABCD",
"Z 	c #AFA7C1",
"` 	c #A9A7C7",
" .	c #C1C6E1",
"..	c #CACEE5",
"+.	c #C5CBE3",
"@.	c #91A4C0",
"#.	c #93D693",
"$.	c #71CA71",
"%.	c #50BD50",
"&.	c #59B95F",
"*.	c #A8B0D5",
"=.	c #949ECB",
"-.	c #909AC9",
";.	c #7482BB",
">.	c #153388",
",.	c #C8CDE4",
"'.	c #BAA1AB",
").	c #FFB383",
"!.	c #FFA065",
"~.	c #FF8E47",
"{.	c #C8B4BC",
"].	c #A7B8CB",
"^.	c #51BC53",
"/.	c #26AD26",
"(.	c #2BAE2C",
"_.	c #B3D2C2",
":.	c #9DA6CF",
"<.	c #8C96C7",
"[.	c #8792C5",
"}.	c #6D7CB7",
"|.	c #143388",
"1.	c #0C2A7B",
"2.	c #A4B0D1",
"3.	c #E78E60",
"4.	c #FF7722",
"5.	c #FF6B0E",
"6.	c #FE6D13",
"7.	c #DACACE",
"8.	c #9FA7D0",
"9.	c #B1B5CF",
"0.	c #C9C7C7",
"a.	c #A7ABC7",
"b.	c #BDC3DF",
"c.	c #C7CCE4",
"d.	c #BFC5E0",
"e.	c #838EC3",
"f.	c #7F8BC1",
"g.	c #596BAD",
"h.	c #0B2772",
"i.	c #596FAA",
"j.	c #EEF0F7",
"k.	c #C4C9E2",
"l.	c #9CA0BA",
"m.	c #949AB7",
"n.	c #989DB8",
"o.	c #A1A6BD",
"p.	c #C9CEE5",
"q.	c #CFC0C8",
"r.	c #F3A67A",
"s.	c #F7A97C",
"t.	c #E0D0D0",
"u.	c #9EA7D0",
"v.	c #E6DBBA",
"w.	c #FFE89A",
"x.	c #FFDF71",
"y.	c #FAD350",
"z.	c #B4BBDB",
"A.	c #7B87BF",
"B.	c #7884BD",
"C.	c #4358A1",
"D.	c #F0F2F7",
"E.	c #BABFD8",
"F.	c #686D82",
"G.	c #949598",
"H.	c #B4B4B4",
"I.	c #BCBCBC",
"J.	c #B7B7B7",
"K.	c #A3A3A3",
"L.	c #7C7D7F",
"M.	c #888C9C",
"N.	c #CFD3E8",
"O.	c #DADEED",
"P.	c #CACFE5",
"Q.	c #C6CBE3",
"R.	c #A4ACD3",
"S.	c #FAD761",
"T.	c #FFD02F",
"U.	c #FFC910",
"V.	c #F9CF3F",
"W.	c #7883BD",
"X.	c #213D8F",
"Y.	c #8696C2",
"Z.	c #A8ADCA",
"`.	c #7B7D84",
" +	c #CBCBCB",
".+	c #D8D8D8",
"++	c #ADADAD",
"@+	c #C4C4C4",
"#+	c #C7C7C7",
"$+	c #BFBFBF",
"%+	c #919191",
"&+	c #8C8F9A",
"*+	c #D3D7EA",
"=+	c #B0B7D9",
"-+	c #CAC8C7",
";+	c #E3C972",
">+	c #E3D4A2",
",+	c #BEC4DF",
"'+	c #98A1CD",
")+	c #6473B2",
"!+	c #0B256C",
"~+	c #CCD1E6",
"{+	c #656877",
"]+	c #C5C5C5",
"^+	c #D6D6D6",
"/+	c #CFCFCF",
"(+	c #B8B8B8",
"_+	c #B0B0B0",
":+	c #989898",
"<+	c #8F8F8F",
"[+	c #777777",
"}+	c #C8CCDC",
"|+	c #ADB4D7",
"1+	c #A0A9D1",
"2+	c #687CB2",
"3+	c #AFB6D8",
"4+	c #7D7D7D",
"5+	c #B1B1B1",
"6+	c #A9A9A9",
"7+	c #A0A0A0",
"8+	c #939393",
"9+	c #8A8A8A",
"0+	c #848484",
"a+	c #C5C7D2",
"b+	c #717EB9",
"c+	c #143288",
"d+	c #7E7E7E",
"e+	c #ACACAC",
"f+	c #A4A4A4",
"g+	c #A1A1A1",
"h+	c #999999",
"i+	c #828282",
"j+	c #898989",
"k+	c #DADDE9",
"l+	c #8893C5",
"m+	c #3C539D",
"n+	c #D4D8EA",
"o+	c #838590",
"p+	c #A8A8A8",
"q+	c #A7A7A7",
"r+	c #8D8D8D",
"s+	c #797979",
"t+	c #7B7B7B",
"u+	c #C4C4C7",
"v+	c #CCD0E6",
"w+	c #586BA5",
"x+	c #6878B0",
"y+	c #6B78B6",
"z+	c #09205D",
"A+	c #4961A3",
"B+	c #C2C7DE",
"C+	c #9798A0",
"D+	c #979797",
"E+	c #929292",
"F+	c #818181",
"G+	c #717171",
"H+	c #CACBCD",
"I+	c #D0D4E8",
"J+	c #4C629D",
"K+	c #586BA6",
"L+	c #7682BB",
"M+	c #0B2874",
"N+	c #8494C0",
"O+	c #EFF1F8",
"P+	c #D7DBEC",
"Q+	c #BFC2CF",
"R+	c #B1B3B9",
"S+	c #AAABAE",
"T+	c #AAABAD",
"U+	c #BABABC",
"V+	c #CECFD3",
"W+	c #DDDFEB",
"X+	c #8490C2",
"Y+	c #4F649F",
"Z+	c #6575AF",
"`+	c #737FB9",
" @	c #2D4891",
".@	c #909FC7",
"+@	c #EFF0F7",
"@@	c #D9DCED",
"#@	c #D8DBEC",
"$@	c #7180B5",
"%@	c #5065A0",
"&@	c #344E94",
"*@	c #405898",
"=@	c #5266A1",
"-@	c #7581BB",
";@	c #5468A3",
">@	c #3C5597",
",@	c #B9C2DC",
"'@	c #909AC8",
")@	c #7786B9",
"!@	c #5469A2",
"~@	c #113086",
"{@	c #5F70AB",
"]@	c #6273AD",
"^@	c #5A6CA7",
"/@	c #B6BFDA",
"(@	c #A2ABCF",
"_@	c #5A6EA5",
":@	c #7A8AB8",
"<@	c #8B98C3",
"[@	c #95A0C9",
"}@	c #929DC7",
"|@	c #8F9BC6",
"1@	c #8C98C4",
"2@	c #8895C3",
"3@	c #7382B5",
"4@	c #6375AC",
"5@	c #5066A0",
"6@	c #0B256D",
"7@	c #0B2773",
"8@	c #29448F",
"9@	c #485F9B",
"0@	c #385195",
"a@	c #9EA9CD",
"b@	c #304B92",
"c@	c #0A2366",
"d@	c #153487",
"e@	c #25418D",
"f@	c #B0BAD7",
"g@	c #8895C0",
"h@	c #445B9A",
"i@	c #1D3A8A",
"j@	c #0A2368",
"k@	c #0C2979",
"l@	c #0A2263",
"m@	c #ADB7D6",
"n@	c #7283B4",
"o@	c #081A4D",
"p@	c #0C2876",
"q@	c #AAB4D4",
"r@	c #586DA4",
"s@	c #213E8C",
"t@	c #0C2978",
"u@	c #0A2264",
"v@	c #9BA5CD",
"w@	c #0A246A",
"x@	c #0C2877",
"y@	c #7183B7",
"z@	c #7585B6",
"A@	c #081A4E",
"B@	c #3E579D",
"C@	c #A3ACD2",
"D@	c #5267A1",
"E@	c #7988B8",
"F@	c #7D8CBD",
"G@	c #C1C7E1",
"H@	c #959FC9",
"I@	c #939FC6",
"J@	c #5267A0",
"K@	c #091D56",
"L@	c #7484B5",
"M@	c #9EA8CE",
"N@	c #9EA7CE",
"O@	c #0D2B7F",
"P@	c #081D55",
"Q@	c #0C2A7A",
"                                                                                                ",
"                                                                                                ",
"                                                                                                ",
"                                                                                                ",
"                                                                                                ",
"                                  . + @ @ @ @ @ @ @ . # $                                       ",
"                            + @ @ % & * = - ; > , ' ) ! @ @ @ ~                                 ",
"                        { @ % ] ^ / ( _ : < [ } | 1 2 3 4 5 6 @ @ { $                           ",
"                    { @ 7 8 9 9 / ( _ : < [ } | 1 2 0 a b c d e f g @ @ h                       ",
"                { @ i 8 9 9 9 / ( _ : < [ } | 1 2 j k l m n o p q j r 6 @ + s                   ",
"              { @ t 9 9 9 9 / ( _ : < [ } | 1 2 3 u v w x y z q A B C D E F @ $                 ",
"            { G ; 9 9 9 9 / ( _ : < [ } | 1 2 3 H I J K L M N O P Q R S T U V @ W               ",
"          { G X 9 9 9 9 / ( _ : < [ } | 1 2 d Y Z `  ...+.q @.#.$.%.&.*.U =.-.;.>.$             ",
"        { G X 9 9 9 9 / ( _ : < [ } | 1 2 ,.'.).!.~.{.p q j ].^./.(._.:.=.-.<.[.}.|.1.          ",
"        @ 2.9 9 9 9 / ( _ : < [ } | 1 2 3 b 3.4.5.6.7.8.9.0.a.b.c.d.U =.-.<.[.e.f.g.@ h.        ",
"      { i.9 9 j.k.l.m.n.o.,.} } | 1 2 3 H p.q.r.s.t.u.v.w.x.y.z.T U =.-.<.[.e.f.A.B.C.@         ",
"    + G D.9 E.F.G.H.I.J.K.L.M.N.O.2 3 H P.Q.d c p q R.S.T.U.V.b U =.-.<.[.e.f.A.B.W.W.X.~       ",
"    @ Y.9 Z.`. +.+++@+#+$+J.%+&+*+3 H P.Q.d c p q j =+-+;+>+,+'+=.-.<.[.e.f.A.B.W.W.W.)+@ !+    ",
"  + G D.~+{+]+^+/+#+$+(+_+:+<+[+}+H P.Q.d c p q j |+C D 1+T '+=.-.<.[.e.f.A.B.W.W.W.W.W.C.@     ",
"  { 2+9 3+4+/+]+$+(+5+6+7+8+9+0+a+P.Q.d c p q j |+C D 1+T '+=.-.<.[.e.f.A.B.W.W.W.W.W.W.b+c+h.  ",
"  @ 8 9 q d+e+f+5+6+g+h+%+9+i+j+k+Q.d c p q j |+C D 1+T '+=.-.l+[.e.f.A.B.W.W.W.W.W.W.W.W.m+.   ",
"  G 9 / n+o+p+q+g+h+r+s+4+t+0+u+v+d c p q j |+C D 1+T '+=.-.l+w+x+f.A.B.W.W.W.W.W.W.W.W.W.y+@ z+",
"+ A+/ ( _ B+C+D+E+9+F+G+t+D+H+I+d c p q j |+C D 1+T '+=.-.l+w+J+J+K+L+W.W.W.W.W.W.W.W.W.W.W.X.M+",
"+ N+( _ O+< P+Q+R+S+T+U+V+W+p.d c p q j |+C D 1+T '+=.-.X+w+J+J+J+J+Y+Z+W.W.W.W.W.W.W.W.W.`+ @. ",
"@ .@_ +@< [ } | O.@@#@I+P.Q.d c p q j |+C D 1+T '+=.-.$@%@J+J+J+&@*@J+J+=@Z+-@W.W.W.W.W.`+;@>@@ ",
"@ ,@+@< [ } | O.2 3 H P.Q.d c p q j |+C D 1+T '+'@)@!@J+J+J+J+&@@ ~@&@J+J+J+J+;@{@]@]@^@J+J+>@@ ",
"@ /@< [ } | O.2 3 H P.Q.d (@_@:@<@[@}@|@1@2@3@4@5@J+J+J+J+J+&@@ 6@7@@ 8@9@J+J+J+J+J+J+J+J+J+0@@ ",
"@ ; [ } | O.2 3 H P.Q.d c a@J+J+J+J+J+J+J+J+J+J+J+J+J+J+J+b@@ 6@    c@@ d@&@J+J+J+J+J+J+J+J+e@W ",
"@ f@} | O.2 3 H P.Q.d c p g@J+J+J+J+J+J+J+J+J+J+J+J+J+h@i@@ j@          k@@ d@b@h@J+J+J+J+b@@ l@",
"@ m@| O.2 3 H P.Q.d c p q n@h@*@J+J+J+J+J+J+J+J+J+>@e@@ W o@                p@@ @ d@i@i@~@@ j@  ",
"@ q@O.2 3 H P.Q.d c p q j r@i@@ d@e@ @0@>@&@ @s@~@@ W z+                        z+c@t@7@u@      ",
"@ = 2 3 H P.Q.d c p q j v@J+d@6@w@t@. @ @ @ . x@u@                                              ",
". y@3 H P.Q.d c p q j |+z@J+@ A@                                                                ",
"# B@H P.Q.d c p q j |+C@D@>@@                                                                   ",
"$ @ P.Q.d c p q j |+C E@J+b@@                                                                   ",
"  @ F@G@c p q j |+C H@J+J+s@h.                                                                  ",
"  + e@I@p q j |+C H@J@J+9@@ K@                                                                  ",
"  h @ 9@L@M@|+N@E@J@J+J+ @@                                                                     ",
"    @ 8@J+J+J+J+J+J+J+9@~@6@                                                                    ",
"    s @ >@J+J+J+J+J+J+s@.                                                                       ",
"      O@~@*@J+J+J+J+e@@ P@                                                                      ",
"        W ~@8@>@0@i@@ z+                                                                        ",
"          M+. @ @ Q@o@                                                                          ",
"                                                                                                ",
"                                                                                                ",
"                                                                                                ",
"                                                                                                ",
"                                                                                                "};
