/* XPM */
static char * purple_xpm[] = {
"12 12 2 1",
" 	c None",
".	c #FF00FF",
"            ",
"    ....    ",
"  ........  ",
"  ........  ",
" .......... ",
" .......... ",
" .......... ",
" .......... ",
"  ........  ",
"  ........  ",
"    ....    ",
"            "};
