/* XPM */
static char * hastings_xpm[] = {
"32 32 29 1",
" 	c None",
".	c #00B557",
"+	c #00B153",
"@	c #00AE50",
"#	c #00AB4D",
"$	c #00A74A",
"%	c #00A447",
"&	c #00A144",
"*	c #009E41",
"=	c #009A3E",
"-	c #00973B",
";	c #009438",
">	c #009135",
",	c #008D32",
"'	c #008A2F",
")	c #00872C",
"!	c #008329",
"~	c #008026",
"{	c #FFFFFF",
"]	c #007D23",
"^	c #007A20",
"/	c #00761D",
"(	c #00731A",
"_	c #007017",
":	c #006D14",
"<	c #006911",
"[	c #00660E",
"}	c #00630B",
"|	c #005F07",
".................+@#$%&*=-;>,')!",
"................+@#$%&*=-;>,')!~",
"...{{{.......{{{@#$%&*=-;>,')!~]",
"..{...{.....{.+@{$%&*=-;>,')!~]^",
".{.....{...{.+@#${&*=-;>,')!~]^/",
"{.......{{{.+@#$%&{=-;>,')!~]^/(",
".{.....{...{@#$%&{=-;>,')!~]^/(_",
"..{...{...+@{$%&{=-;>,')!~]^/(_:",
"...{{{...+@#${{{=-;>,')!~]^/(_:<",
"..{...{.+@#${&*={;>,')!~]^/(_:<[",
".{.....{@#${&*=-;{,')!~]^/(_:<[}",
"{.....+@{{{&*=-;>,{{{~]^/(_:<[}|",
".{...+@{$%&{=-;>,{)!~{^/(_:<[}||",
"..{.+@{$%&*={;>,{)!~]^{(_:<[}|||",
"...{{{$%&*=-;{{{)!~]^/({:<[}||||",
"..+@#${&*=-;{,'){~]^/({:<[}|||||",
".+@#$%&{=-;{,')!~{^/({:<[}||||||",
"+@#$%&*={{{,')!~]^{{{:<[}|||||||",
"@#$%&*=-;>,{)!~]^{(_:<[}||||||||",
"#$%&*=-;>,'){~]^{(_:<[}|||||||||",
"$%&*=-;>,')!~{{{(_:<[}||||||||||",
"%&*=-;>,')!~]^/(_:<[}|||||||||||",
"&*=-;>,')!~]^/(_:<[}||||||||||||",
"*=-;>,')!~]^/(_:<[}|||||||||||||",
"=-;>,')!~]^/(_:<[}||||||||||||||",
"-;>,')!~]^/(_:<[}|||||||||||||||",
";>,')!~]^/(_:<[}||||||||||||||||",
">,')!~]^/(_:<[}|||||||||||||||||",
",')!~]^/(_:<[}||||||||||||||||||",
"')!~]^/(_:<[}|||||||||||||||||||",
")!~]^/(_:<[}||||||||||||||||||||",
"!~]^/(_:<[}|||||||||||||||||||||"};
