/* XPM */
static char * tictactoe_xpm[] = {
"32 32 5 1",
" 	c None",
".	c #FFFFFF",
"+	c #FF0000",
"@	c #000000",
"#	c #0400FF",
"................................",
"................................",
"................................",
"................................",
"........................+.......",
"........................+.......",
"..........@.......@.....+..++...",
"..........@.......@.....++++....",
"..........@.......@...++++......",
"..........@.......@......++.....",
"..........@.......@.......+.....",
"..........@.......@.............",
"..........@.......@.............",
"...@@@@@@@@@@@@@@@@@@@@@@@@@....",
"..........@.......@.............",
"..........@.......@.............",
"..........@..##...@.............",
"..........@..###..@.............",
"..........@..#.##.@.............",
"..........@..#..#.@.............",
"..........@..####.@.............",
"..........@.......@.............",
"...@@@@@@@@@@@@@@@@@@@@@@@@@....",
"..........@.......@.............",
"..........@.......@.............",
"..........@.......@.............",
"..........@.......@.............",
"..........@.......@.............",
"..........@.......@.............",
"..........@.......@.............",
"................................",
"................................"};
