<?xml version="1.0" encoding="UTF-8" standalone="no"?>
<!DOCTYPE svg PUBLIC "-//W3C//DTD SVG 20010904//EN"
"http://www.w3.org/TR/2001/REC-SVG-20010904/DTD/svg10.dtd">
<!-- Created with Sodipodi ("http://www.sodipodi.com/") -->
<svg
   xmlns="http://www.w3.org/2000/svg"
   xmlns:sodipodi="http://sodipodi.sourceforge.net/DTD/sodipodi-0.dtd"
   xmlns:xlink="http://www.w3.org/1999/xlink"
   id="svg602"
   sodipodi:version="0.34"
   width="210mm"
   height="297mm"
   xml:space="preserve"
   sodipodi:docname="king-white.png"><defs
   id="defs604" /><sodipodi:namedview
   id="base" /><path
   sodipodi:type="arc"
   style="fill-rule:evenodd;stroke:none;fill:#000000;fill-opacity:1;stroke-opacity:1;stroke-width:1pt;stroke-linejoin:miter;stroke-linecap:butt;"
   id="path606"
   d="M 520 664.8622 A 136.25 102.5 0 1 0 247.5 664.8622 A 136.25 102.5 0 1 0  520 664.8622 z"
   sodipodi:cx="383.75"
   sodipodi:cy="664.862183"
   sodipodi:rx="136.25"
   sodipodi:ry="102.5" /><path
   sodipodi:type="arc"
   style="fill-rule:evenodd;stroke:none;fill:#edffff;fill-opacity:1;stroke-opacity:1;stroke-width:1pt;stroke-linejoin:miter;stroke-linecap:butt;"
   id="path607"
   d="M 520 664.8622 A 136.25 102.5 0 1 0 247.5 664.8622 A 136.25 102.5 0 1 0  520 664.8622 z"
   sodipodi:cx="383.75"
   sodipodi:cy="664.862183"
   sodipodi:rx="136.25"
   sodipodi:ry="102.5"
   transform="translate(0,-20)" /><path
   sodipodi:type="arc"
   style="fill-rule:evenodd;stroke:none;fill:#000000;fill-opacity:1;stroke-opacity:1;stroke-width:1pt;stroke-linejoin:miter;stroke-linecap:butt;"
   id="path622"
   d="M 520 664.8622 A 136.25 102.5 0 1 0 247.5 664.8622 A 136.25 102.5 0 1 0  520 664.8622 z"
   sodipodi:cx="383.75"
   sodipodi:cy="664.862183"
   sodipodi:rx="136.25"
   sodipodi:ry="102.5"
   transform="translate(0,-34.05701)" /><path
   sodipodi:type="arc"
   style="fill-rule:evenodd;stroke:none;fill:#edffff;fill-opacity:1;stroke-opacity:1;stroke-width:1pt;stroke-linejoin:miter;stroke-linecap:butt;"
   id="path623"
   d="M 520 664.8622 A 136.25 102.5 0 1 0 247.5 664.8622 A 136.25 102.5 0 1 0  520 664.8622 z"
   sodipodi:cx="383.75"
   sodipodi:cy="664.862183"
   sodipodi:rx="136.25"
   sodipodi:ry="102.5"
   transform="translate(0,-54.05701)" /></svg>
