/* XPM */
static char * frame_ll_xpm[] = {
"5 5 4 1",
" 	c None",
".	c #00C910",
"+	c #000000",
"@	c #45F422",
"...++",
".@.++",
".@...",
".@@@.",
"....."};
