/* XPM */
static char * frame_lr_xpm[] = {
"5 5 4 1",
" 	c None",
".	c #000000",
"+	c #00C910",
"@	c #45F422",
"..+++",
"..+@+",
"+++@+",
"+@@@+",
"+++++"};
