/* XPM */
static char * frame_ur_xpm[] = {
"5 5 4 1",
" 	c None",
".	c #00C910",
"+	c #45F422",
"@	c #000000",
".....",
".+++.",
"...+.",
"@@.+.",
"@@..."};
