/* XPM */
static char * newmanyellow_xpm[] = {
"32 32 5 1",
" 	c None",
".	c #000000",
"+	c #898989",
"@	c #FFFA00",
"#	c #FFFFFF",
"                                ",
"            .....               ",
"           ..+++..              ",
"           .+.+.+.              ",
"           .+.+.+.              ",
"           .+++++.              ",
"          .........             ",
"         ..+++++++..            ",
"       ...+++++++++..           ",
"      ..+++++.....+++..         ",
"      .++++++.@@@.++++.      .. ",
"      .++++++.@@@.++++.     ..  ",
"      .++.+++.@@@.+.++.    ..   ",
"      .++.+++..@..+.++.   ..    ",
"      .++.++++...++.++.  ..     ",
"     .....+++++++++.++. ..      ",
"    ..@@@..++++++...+....       ",
"   ..@@.@@..++++++......        ",
"  ..@@@.@@@..+++++.....         ",
"  .@@.@.@.@@.+++++....          ",
"  .@@.@.@.@@.+++++.....         ",
"  .@@.@@@.@@........ ..         ",
"  ..@.@@@@@.....+.              ",
"   ..@@@@@..+. .+.              ",
"    ..@@@...+. .+.              ",
"     ..... .+. .+.       .......",
"           .+. .+.       .#####.",
"           .+. .+.       .#####.",
"           .+. .+.       .#####.",
"          ..+. .+..      .#####.",
"          .++. .++.      .#####.",
"          .... ....      ......."};
