/* XPM */
static char * blue_xpm[] = {
"12 12 72 1",
". 	c None",
"	c #FFFFFF",
"+	c #8B90FF",
"@	c #878DFF",
"#	c #333DFF",
"$	c #2933FF",
"%	c #1122FF",
"&	c #000AD0",
"*	c #000456",
"=	c #00045E",
"-	c #0008B0",
";	c #0009BA",
">	c #000ADC",
",	c #074CFF",
"'	c #0B2FFF",
")	c #000CFC",
"!	c #0B16FF",
"~	c #000BEA",
"{	c #1722FF",
"]	c #4750FF",
"^	c #0039FF",
"/	c #000AD6",
"(	c #000560",
"_	c #000234",
":	c #000344",
"<	c #000572",
"[	c #0009BC",
"}	c #131EFF",
"|	c #212BFF",
"1	c #007BFF",
"2	c #0055FF",
"3	c #000AC8",
"4	c #000AD2",
"5	c #313BFF",
"6	c #6970FF",
"7	c #858BFF",
"8	c #9398FF",
"9	c #9196FF",
"0	c #9DA2FF",
"a	c #002BFF",
"b	c #000BD4",
"c	c #000672",
"d	c #000342",
"e	c #00022E",
"f	c #00033E",
"g	c #00056E",
"h	c #000798",
"i	c #000BE6",
"j	c #0068FF",
"k	c #0059FF",
"l	c #0028FF",
"m	c #414AFF",
"n	c #8F94FF",
"o	c #959AFF",
"p	c #A1A5FF",
"q	c #979CFF",
"r	c #003DFF",
"s	c #000788",
"t	c #0008A8",
"u	c #0008AC",
"v	c #007AFF",
"w	c #0053FF",
"x	c #002FFF",
"y	c #0344FF",
"z	c #6B8DFF",
"A	c #7F92FF",
"B	c #8992FF",
"C	c #7B85FF",
"D	c #000CEA",
"E	c #000BDA",
"F	c #0F4CFF",
"G	c #194AFF",
"............",
"....+@#$....",
"..%&*=--;>..",
"..,')#!~{]..",
".^/(_:(<[}|.",
".1234567890.",
".abcdefghii.",
".jkl3&mnopq.",
"..r3s(t4u~..",
"..vwxyzABC..",
"....DEFG....",
"............"};
