/* XPM */
static char * cyan_xpm[] = {
"12 12 76 1",
". 	c None",
"	c #FFFFFF",
"+	c #8BDDFF",
"@	c #87DCFF",
"#	c #33C3FF",
"$	c #29C0FF",
"%	c #11BBFF",
"&	c #0094D0",
"*	c #003D56",
"=	c #00425E",
"-	c #007CB0",
";	c #0083BA",
">	c #009BDC",
",	c #07C8FF",
"'	c #0BBFFF",
")	c #00B2FC",
"!	c #0BB7FF",
"~	c #00A5EA",
"{	c #17BBFF",
"]	c #47C9FF",
"^	c #00C2FF",
"/	c #009DD6",
"(	c #004560",
"_	c #002534",
":	c #003044",
"<	c #004460",
"[	c #005072",
"}	c #0085BC",
"|	c #13BAFF",
"1	c #21BEFF",
"2	c #00D6FF",
"3	c #00CBFF",
"4	c #0090C8",
"5	c #0096D2",
"6	c #31C2FF",
"7	c #69D3FF",
"8	c #85DBFF",
"9	c #93DFFF",
"0	c #91DFFF",
"a	c #9DE2FF",
"b	c #00BEFF",
"c	c #00A5D4",
"d	c #005872",
"e	c #003042",
"f	c #00202E",
"g	c #002C3E",
"h	c #004E6E",
"i	c #006B98",
"j	c #00A2E6",
"k	c #00D1FF",
"l	c #00CCFF",
"m	c #00BDFF",
"n	c #0091C8",
"o	c #41C7FF",
"p	c #8FDEFF",
"q	c #95E0FF",
"r	c #A1E3FF",
"s	c #97E0FF",
"t	c #00C3FF",
"u	c #009AC8",
"v	c #006788",
"w	c #004760",
"x	c #0077A8",
"y	c #0094D2",
"z	c #0079AC",
"A	c #00CAFF",
"B	c #00BFFF",
"C	c #03C5FF",
"D	c #6BDCFF",
"E	c #7FDDFF",
"F	c #89DDFF",
"G	c #7BD9FF",
"H	c #00B0EA",
"I	c #00A2DA",
"J	c #0FC8FF",
"K	c #19C7FF",
"............",
"....+@#$....",
"..%&*=--;>..",
"..,')#!~{]..",
".^/(_:<[}|1.",
".234567890a.",
".bcdefghijj.",
".klmn&opqrs.",
"..tuvwxyz~..",
"..2ABCDEFG..",
"....HIJK....",
"............"};
