/* XPM */
static char * green_xpm[] = {
"12 12 77 1",
". 	c None",
"	c #FFFFFF",
"+	c #97E08B",
"@	c #93DF87",
"#	c #48C933",
"$	c #3FC629",
"%	c #29C115",
"&	c #149A00",
"*	c #093F00",
"=	c #0A4500",
"-	c #128100",
";	c #138800",
">	c #16A100",
",	c #20CD39",
"'	c #24C521",
")	c #1AB900",
"!	c #24BE0B",
"~	c #18AC00",
"{	c #2FC117",
"]	c #5ACE47",
"^	c #18C825",
"/	c #0FA300",
"(	c #094800",
"_	c #052600",
":	c #073200",
"<	c #0A4600",
"[	c #0C5400",
"}	c #138A00",
"|	c #2BC013",
"1	c #38C421",
"2	c #1ADA63",
"3	c #19D043",
"4	c #129600",
"5	c #159B00",
"6	c #46C831",
"7	c #78D769",
"8	c #91DE85",
"9	c #9EE293",
"0	c #9CE291",
"a	c #A7E59D",
"b	c #0FC40D",
"c	c #0AAC00",
"d	c #065B00",
"e	c #053200",
"f	c #042200",
"g	c #062D00",
"h	c #0B5100",
"i	c #0F6F00",
"j	c #17A900",
"k	c #18D54F",
"l	c #14D13D",
"m	c #14C311",
"n	c #119700",
"o	c #54CC41",
"p	c #9AE18F",
"q	c #A0E395",
"r	c #ABE6A1",
"s	c #A2E397",
"t	c #0EC917",
"u	c #0AA000",
"v	c #076B00",
"w	c #074900",
"x	c #107B00",
"y	c #159A00",
"z	c #127E00",
"A	c #19DA5F",
"B	c #13CF35",
"C	c #12C513",
"D	c #1DCB33",
"E	c #7ADF81",
"F	c #8CE18B",
"G	c #95E18D",
"H	c #88DD7F",
"I	c #0FB700",
"J	c #0FA900",
"K	c #27CD3D",
"L	c #30CC3B",
"............",
"....+@#$....",
"..%&*=--;>..",
"..,')#!~{]..",
".^/(_:<[}|1.",
".234567890a.",
".bcdefghijj.",
".klmn&opqrs.",
"..tuvwxyz~..",
"..ABCDEFGH..",
"....IJKL....",
"............"};
