/* XPM */
static char * hole_xpm[] = {
"12 12 20 1",
". 	c None",
"	c #FFFFFF",
"+	c #08F603",
"@	c #07F701",
"#	c #06EC01",
"$	c #06F600",
"%	c #0AE706",
"&	c #07FB01",
"*	c #06FC00",
"=	c #06FD00",
"-	c #07FC01",
";	c #08F803",
">	c #06FB00",
",	c #07FE01",
"'	c #06FE00",
")	c #0AFB04",
"!	c #06F300",
"~	c #14F20F",
"{	c #08DF03",
"]	c #06EE00",
"............",
"....+@#$....",
"..%&....*=..",
"..-......*..",
".;........>.",
".,........'.",
".,........*.",
".)........'.",
"..,......!..",
"..~{....]&..",
"....,,--....",
"............"};
