/* XPM */
static char * purple_xpm[] = {
"12 12 76 1",
". 	c None",
"	c #FFFFFF",
"+	c #FE8BFF",
"@	c #FE87FF",
"#	c #FD33FF",
"$	c #FC29FF",
"%	c #FC17FF",
"&	c #BE00D0",
"*	c #550056",
"=	c #5D005E",
"-	c #AE00B0",
";	c #B800BA",
">	c #D900DC",
",	c #FC43FF",
"'	c #FC25FF",
")	c #F900FC",
"!	c #FC0BFF",
"~	c #E700EA",
"{	c #FD47FF",
"]	c #EB2FFF",
"^	c #9600D6",
"/	c #570060",
"(	c #310034",
"_	c #430044",
":	c #5F0060",
"<	c #710072",
"[	c #BA00BC",
"}	c #FC13FF",
"|	c #FC21FF",
"1	c #FB75FF",
"2	c #F34DFF",
"3	c #B000C8",
"4	c #CC00D2",
"5	c #FD31FF",
"6	c #FD69FF",
"7	c #FE85FF",
"8	c #FE93FF",
"9	c #FE91FF",
"0	c #FE9DFF",
"a	c #9221FF",
"b	c #6300D4",
"c	c #3D0072",
"d	c #310042",
"e	c #2A002E",
"f	c #3D003E",
"g	c #6D006E",
"h	c #960098",
"i	c #E300E6",
"j	c #E761FF",
"k	c #C051FF",
"l	c #C21DFF",
"m	c #A200C8",
"n	c #C200D0",
"o	c #FD41FF",
"p	c #FE8FFF",
"q	c #FE95FF",
"r	c #FEA1FF",
"s	c #FE97FF",
"t	c #8C33FF",
"u	c #6300C8",
"v	c #470088",
"w	c #450060",
"x	c #9E00A8",
"y	c #D000D2",
"z	c #AA00AC",
"A	c #F773FF",
"B	c #B64BFF",
"C	c #B225FF",
"D	c #FC3BFF",
"E	c #FD87FF",
"F	c #FD8DFF",
"G	c #FE8DFF",
"H	c #FD7FFF",
"I	c #9200EA",
"J	c #8E00DA",
"K	c #FC41FF",
"............",
"....+@#$....",
"..%&*=--;>..",
"..,')#!~%{..",
".]^/(_:<[}|.",
".1234567890.",
".abcdefghii.",
".jklmnopqrs.",
"..tuvwxyz~..",
"..ABCDEFGH..",
"....IJ,K....",
"............"};
