/* XPM */
static char * red_xpm[] = {
"12 12 74 1",
". 	c None",
"	c #FFFFFF",
"+	c #FF8B8B",
"@	c #FF8787",
"#	c #FF3333",
"$	c #FF2929",
"%	c #FF1715",
"&	c #C00000",
"*	c #560000",
"=	c #5E0000",
"-	c #B00000",
";	c #BA0000",
">	c #DC0000",
",	c #FF4339",
"'	c #FF2521",
")	c #FC0000",
"!	c #FF0B0B",
"~	c #EA0000",
"{	c #FF1717",
"]	c #FF4747",
"^	c #EE2F25",
"/	c #980000",
"(	c #580000",
"_	c #320000",
":	c #440000",
"<	c #600000",
"[	c #720000",
"}	c #BC0000",
"|	c #FF1313",
"1	c #FF2121",
"2	c #FE7563",
"3	c #F64D43",
"4	c #B20000",
"5	c #CE0000",
"6	c #FF3131",
"7	c #FF6969",
"8	c #FF8585",
"9	c #FF9393",
"0	c #FF9191",
"a	c #FF9D9D",
"b	c #94210D",
"c	c #640000",
"d	c #3E0000",
"e	c #2A0000",
"f	c #6E0000",
"g	c #E60000",
"h	c #EA614F",
"i	c #C2513D",
"j	c #C41D11",
"k	c #A40000",
"l	c #C40000",
"m	c #FF4141",
"n	c #FF8F8F",
"o	c #FF9595",
"p	c #FFA1A1",
"q	c #FF9797",
"r	c #8E3317",
"s	c #480000",
"t	c #460000",
"u	c #A00000",
"v	c #D20000",
"w	c #AC0000",
"x	c #FA735F",
"y	c #B84B35",
"z	c #B42513",
"A	c #FF3B33",
"B	c #FF8781",
"C	c #FF8D8B",
"D	c #FF8D8D",
"E	c #FF7F7F",
"F	c #940000",
"G	c #900000",
"H	c #FF433D",
"I	c #FF413B",
"............",
"....+@#$....",
"..%&*=--;>..",
"..,')#!~{]..",
".^/(_:<[}|1.",
".234567890a.",
".bcd_edf/gg.",
".hijklmnopq.",
"..rcstuvw~..",
"..xyzABCDE..",
"....FGHI....",
"............"};
