/* XPM */
static char * yellow_xpm[] = {
"12 12 78 1",
". 	c None",
"	c #FFFFFF",
"+	c #FFED8B",
"@	c #FFED87",
"#	c #FFE033",
"$	c #FFDE29",
"%	c #FFDC15",
"&	c #C0B200",
"*	c #564900",
"=	c #5E5000",
"-	c #B09500",
";	c #BA9E00",
">	c #DCBA00",
",	c #FFE239",
"'	c #FFDE21",
")	c #FCD500",
"!	c #FFDA0B",
"~	c #EAC600",
"{	c #FFDC17",
"]	c #FFE347",
"^	c #EEDF25",
"/	c #98BC00",
"(	c #585300",
"_	c #322C00",
":	c #443A00",
"<	c #605100",
"[	c #726100",
"}	c #BC9F00",
"|	c #FFDB13",
"1	c #FFDD21",
"2	c #FEEA63",
"3	c #F6E443",
"4	c #B2AD00",
"5	c #CEB400",
"6	c #FFDF31",
"7	c #FFE869",
"8	c #FFEC85",
"9	c #FFEE93",
"0	c #FFEE91",
"a	c #FFF09D",
"b	c #94DD0D",
"c	c #64C600",
"d	c #3E6900",
"e	c #323A00",
"f	c #2A2700",
"g	c #3E3500",
"h	c #6E5D00",
"i	c #988100",
"j	c #E6C300",
"k	c #EAE74F",
"l	c #C2E43D",
"m	c #C4DC11",
"n	c #A4AE00",
"o	c #C4B200",
"p	c #FFE241",
"q	c #FFEE8F",
"r	c #FFEF95",
"s	c #FFF1A1",
"t	c #FFEF97",
"u	c #8EE017",
"v	c #64B900",
"w	c #487C00",
"x	c #465500",
"y	c #A08E00",
"z	c #D2B200",
"A	c #AC9200",
"B	c #FAEA5F",
"C	c #B8E335",
"D	c #B4DE13",
"E	c #FFE133",
"F	c #FFED81",
"G	c #FFEE8B",
"H	c #FFEE8D",
"I	c #FFEB7F",
"J	c #94D400",
"K	c #90C300",
"L	c #FFE23D",
"M	c #FFE23B",
"............",
"....+@#$....",
"..%&*=--;>..",
"..,')#!~{]..",
".^/(_:<[}|1.",
".234567890a.",
".bcdefghijj.",
".klmnopqrst.",
"..uvwxyzA~..",
"..BCDEFGHI..",
"....JKLM....",
"............"};
