/* XPM */
static char * bomb_xpm[] = {
"48 48 5 1",
" 	c None",
".	c #000000",
"+	c #FF8400",
"@	c #FFAD52",
"#	c #FFFFFF",
"                                                ",
"                                                ",
"                                                ",
"                                  .             ",
"                                                ",
"                                                ",
"  .....                                         ",
"  ..  .                       +                 ",
"  ..  ..               +     +                  ",
"  ..  .                                         ",
"  .....                  .                      ",
"  ..  ..                .  @@ ++                ",
"  ..  ..           .        @@                  ",
"  .....                  .   @                  ",
"                      +    +  @                 ",
"                              @                 ",
"                          .   @                 ",
"                          ....@                 ",
"                         ..#.....               ",
"                         .##.....               ",
"                         .#......               ",
"                     ...........                ",
"                  ..............                ",
"                 ...............                ",
"               .................                ",
"              ....##.............               ",
"              ...##...............              ",
"             ...##................              ",
"             ..##..................             ",
"            ...##..................             ",
"            ..##...................             ",
"            ..##....................            ",
"            ..##....................            ",
"            ..##....................            ",
"            ..##....................            ",
"            ..##...................             ",
"            ...#...................             ",
"             ..##..................             ",
"             .....................              ",
"              ....................              ",
"              ...................               ",
"               .................                ",
"                ...............                 ",
"                  ...........                   ",
"                     .....                      ",
"                                                ",
"                                                ",
"                                                "};
