/* XPM */
static char * bomb_xpm[] = {
"34 48 257 2",
"  	c None",
". 	c #000000",
"+ 	c #FF8400",
"@ 	c #FFAD52",
"# 	c #FFFFFF",
"$ 	c #FFFFFF",
"% 	c #FFFFFF",
"& 	c #FFFFFF",
"* 	c #FFFFFF",
"= 	c #FFFFFF",
"- 	c #FFFFFF",
"; 	c #FFFFFF",
"> 	c #FFFFFF",
", 	c #FFFFFF",
"' 	c #FFFFFF",
") 	c #FFFFFF",
"! 	c #FFFFFF",
"~ 	c #FFFFFF",
"{ 	c #FFFFFF",
"] 	c #FFFFFF",
"^ 	c #FFFFFF",
"/ 	c #FFFFFF",
"( 	c #FFFFFF",
"_ 	c #FFFFFF",
": 	c #FFFFFF",
"< 	c #FFFFFF",
"[ 	c #FFFFFF",
"} 	c #FFFFFF",
"| 	c #FFFFFF",
"1 	c #FFFFFF",
"2 	c #FFFFFF",
"3 	c #FFFFFF",
"4 	c #FFFFFF",
"5 	c #FFFFFF",
"6 	c #FFFFFF",
"7 	c #FFFFFF",
"8 	c #FFFFFF",
"9 	c #FFFFFF",
"0 	c #FFFFFF",
"a 	c #FFFFFF",
"b 	c #FFFFFF",
"c 	c #FFFFFF",
"d 	c #FFFFFF",
"e 	c #FFFFFF",
"f 	c #FFFFFF",
"g 	c #FFFFFF",
"h 	c #FFFFFF",
"i 	c #FFFFFF",
"j 	c #FFFFFF",
"k 	c #FFFFFF",
"l 	c #FFFFFF",
"m 	c #FFFFFF",
"n 	c #FFFFFF",
"o 	c #FFFFFF",
"p 	c #FFFFFF",
"q 	c #FFFFFF",
"r 	c #FFFFFF",
"s 	c #FFFFFF",
"t 	c #FFFFFF",
"u 	c #FFFFFF",
"v 	c #FFFFFF",
"w 	c #FFFFFF",
"x 	c #FFFFFF",
"y 	c #FFFFFF",
"z 	c #FFFFFF",
"A 	c #FFFFFF",
"B 	c #FFFFFF",
"C 	c #FFFFFF",
"D 	c #FFFFFF",
"E 	c #FFFFFF",
"F 	c #FFFFFF",
"G 	c #FFFFFF",
"H 	c #FFFFFF",
"I 	c #FFFFFF",
"J 	c #FFFFFF",
"K 	c #FFFFFF",
"L 	c #FFFFFF",
"M 	c #FFFFFF",
"N 	c #FFFFFF",
"O 	c #FFFFFF",
"P 	c #FFFFFF",
"Q 	c #FFFFFF",
"R 	c #FFFFFF",
"S 	c #FFFFFF",
"T 	c #FFFFFF",
"U 	c #FFFFFF",
"V 	c #FFFFFF",
"W 	c #FFFFFF",
"X 	c #FFFFFF",
"Y 	c #FFFFFF",
"Z 	c #FFFFFF",
"` 	c #FFFFFF",
" .	c #FFFFFF",
"..	c #FFFFFF",
"+.	c #FFFFFF",
"@.	c #FFFFFF",
"#.	c #FFFFFF",
"$.	c #FFFFFF",
"%.	c #FFFFFF",
"&.	c #FFFFFF",
"*.	c #FFFFFF",
"=.	c #FFFFFF",
"-.	c #FFFFFF",
";.	c #FFFFFF",
">.	c #FFFFFF",
",.	c #FFFFFF",
"'.	c #FFFFFF",
").	c #FFFFFF",
"!.	c #FFFFFF",
"~.	c #FFFFFF",
"{.	c #FFFFFF",
"].	c #FFFFFF",
"^.	c #FFFFFF",
"/.	c #FFFFFF",
"(.	c #FFFFFF",
"_.	c #FFFFFF",
":.	c #FFFFFF",
"<.	c #FFFFFF",
"[.	c #FFFFFF",
"}.	c #FFFFFF",
"|.	c #FFFFFF",
"1.	c #FFFFFF",
"2.	c #FFFFFF",
"3.	c #FFFFFF",
"4.	c #FFFFFF",
"5.	c #FFFFFF",
"6.	c #FFFFFF",
"7.	c #FFFFFF",
"8.	c #FFFFFF",
"9.	c #FFFFFF",
"0.	c #FFFFFF",
"a.	c #FFFFFF",
"b.	c #FFFFFF",
"c.	c #FFFFFF",
"d.	c #FFFFFF",
"e.	c #FFFFFF",
"f.	c #FFFFFF",
"g.	c #FFFFFF",
"h.	c #FFFFFF",
"i.	c #FFFFFF",
"j.	c #FFFFFF",
"k.	c #FFFFFF",
"l.	c #FFFFFF",
"m.	c #FFFFFF",
"n.	c #FFFFFF",
"o.	c #FFFFFF",
"p.	c #FFFFFF",
"q.	c #FFFFFF",
"r.	c #FFFFFF",
"s.	c #FFFFFF",
"t.	c #FFFFFF",
"u.	c #FFFFFF",
"v.	c #FFFFFF",
"w.	c #FFFFFF",
"x.	c #FFFFFF",
"y.	c #FFFFFF",
"z.	c #FFFFFF",
"A.	c #FFFFFF",
"B.	c #FFFFFF",
"C.	c #FFFFFF",
"D.	c #FFFFFF",
"E.	c #FFFFFF",
"F.	c #FFFFFF",
"G.	c #FFFFFF",
"H.	c #FFFFFF",
"I.	c #FFFFFF",
"J.	c #FFFFFF",
"K.	c #FFFFFF",
"L.	c #FFFFFF",
"M.	c #FFFFFF",
"N.	c #FFFFFF",
"O.	c #FFFFFF",
"P.	c #FFFFFF",
"Q.	c #FFFFFF",
"R.	c #FFFFFF",
"S.	c #FFFFFF",
"T.	c #FFFFFF",
"U.	c #FFFFFF",
"V.	c #FFFFFF",
"W.	c #FFFFFF",
"X.	c #FFFFFF",
"Y.	c #FFFFFF",
"Z.	c #FFFFFF",
"`.	c #FFFFFF",
" +	c #FFFFFF",
".+	c #FFFFFF",
"++	c #FFFFFF",
"@+	c #FFFFFF",
"#+	c #FFFFFF",
"$+	c #FFFFFF",
"%+	c #FFFFFF",
"&+	c #FFFFFF",
"*+	c #FFFFFF",
"=+	c #FFFFFF",
"-+	c #FFFFFF",
";+	c #FFFFFF",
">+	c #FFFFFF",
",+	c #FFFFFF",
"'+	c #FFFFFF",
")+	c #FFFFFF",
"!+	c #FFFFFF",
"~+	c #FFFFFF",
"{+	c #FFFFFF",
"]+	c #FFFFFF",
"^+	c #FFFFFF",
"/+	c #FFFFFF",
"(+	c #FFFFFF",
"_+	c #FFFFFF",
":+	c #FFFFFF",
"<+	c #FFFFFF",
"[+	c #FFFFFF",
"}+	c #FFFFFF",
"|+	c #FFFFFF",
"1+	c #FFFFFF",
"2+	c #FFFFFF",
"3+	c #FFFFFF",
"4+	c #FFFFFF",
"5+	c #FFFFFF",
"6+	c #FFFFFF",
"7+	c #FFFFFF",
"8+	c #FFFFFF",
"9+	c #FFFFFF",
"0+	c #FFFFFF",
"a+	c #FFFFFF",
"b+	c #FFFFFF",
"c+	c #FFFFFF",
"d+	c #FFFFFF",
"e+	c #FFFFFF",
"f+	c #FFFFFF",
"g+	c #FFFFFF",
"h+	c #FFFFFF",
"i+	c #FFFFFF",
"j+	c #FFFFFF",
"k+	c #FFFFFF",
"l+	c #FFFFFF",
"m+	c #FFFFFF",
"n+	c #FFFFFF",
"o+	c #000000",
"p+	c #BF0000",
"q+	c #00BF00",
"r+	c #BFBF00",
"s+	c #0000BF",
"t+	c #BF00BF",
"u+	c #00BFBF",
"v+	c #C0C0C0",
"w+	c #808080",
"x+	c #FF0000",
"y+	c #00FF00",
"z+	c #FFFF00",
"A+	c #0000FF",
"B+	c #FF00FF",
"C+	c #00FFFF",
"D+	c #FFFFFF",
"E+	c #000000",
"F+	c #000000",
"G+	c #000000",
"H+	c #000000",
"                                                                    ",
"                                                                    ",
"                                                                    ",
"                                                      H+            ",
"                                                                    ",
"                                                                    ",
"                                                                    ",
"                                              +                     ",
"                                +           +                       ",
"                                                                    ",
"                                    H+                              ",
"                                  H+    @ @   + +                   ",
"                        H+                @ @                       ",
"                                    H+      @                       ",
"                              +         +     @                     ",
"                                              @                     ",
"                                      H+      @                     ",
"                                      H+H+H+H+@                     ",
"                                    H+H+D+H+H+H+H+H+                ",
"                                    H+D+D+H+H+H+H+H+                ",
"                                    H+D+H+H+H+H+H+H+                ",
"                            H+H+H+H+H+H+H+H+H+H+H+                  ",
"                      H+H+H+H+H+H+H+H+H+H+H+H+H+H+                  ",
"                    H+H+H+H+H+H+H+H+H+H+H+H+H+H+H+                  ",
"                H+H+H+H+H+H+H+H+H+H+H+H+H+H+H+H+H+                  ",
"              H+H+H+H+D+D+H+H+H+H+H+H+H+H+H+H+H+H+H+                ",
"              H+H+H+D+D+H+H+H+H+H+H+H+H+H+H+H+H+H+H+H+              ",
"            H+H+H+D+D+H+H+H+H+H+H+H+H+H+H+H+H+H+H+H+H+              ",
"            H+H+D+D+H+H+H+H+H+H+H+H+H+H+H+H+H+H+H+H+H+H+            ",
"          H+H+H+D+D+H+H+H+H+H+H+H+H+H+H+H+H+H+H+H+H+H+H+            ",
"          H+H+D+D+H+H+H+H+H+H+H+H+H+H+H+H+H+H+H+H+H+H+H+            ",
"          H+H+D+D+H+H+H+H+H+H+H+H+H+H+H+H+H+H+H+H+H+H+H+H+          ",
"          H+H+D+D+H+H+H+H+H+H+H+H+H+H+H+H+H+H+H+H+H+H+H+H+          ",
"          H+H+D+D+H+H+H+H+H+H+H+H+H+H+H+H+H+H+H+H+H+H+H+H+          ",
"          H+H+D+D+H+H+H+H+H+H+H+H+H+H+H+H+H+H+H+H+H+H+H+H+          ",
"          H+H+D+D+H+H+H+H+H+H+H+H+H+H+H+H+H+H+H+H+H+H+H+            ",
"          H+H+H+D+H+H+H+H+H+H+H+H+H+H+H+H+H+H+H+H+H+H+H+            ",
"            H+H+D+D+H+H+H+H+H+H+H+H+H+H+H+H+H+H+H+H+H+H+            ",
"            H+H+H+H+H+H+H+H+H+H+H+H+H+H+H+H+H+H+H+H+H+              ",
"              H+H+H+H+H+H+H+H+H+H+H+H+H+H+H+H+H+H+H+H+              ",
"              H+H+H+H+H+H+H+H+H+H+H+H+H+H+H+H+H+H+H+                ",
"                H+H+H+H+H+H+H+H+H+H+H+H+H+H+H+H+H+                  ",
"                  H+H+H+H+H+H+H+H+H+H+H+H+H+H+H+                    ",
"                      H+H+H+H+H+H+H+H+H+H+H+                        ",
"                            H+H+H+H+H+                              ",
"                                                                    ",
"                                                                    ",
"                                                                    "};
