/* XPM */
static char * captain_xpm[] = {
"48 48 148 2",
"  	c None",
". 	c #151507",
"+ 	c #53531C",
"@ 	c #B9B946",
"# 	c #B5B544",
"$ 	c #2C2C0E",
"% 	c #3A3A13",
"& 	c #B0B040",
"* 	c #A9A932",
"= 	c #0E0E05",
"- 	c #25250D",
"; 	c #5A5A1E",
"> 	c #4B4B19",
", 	c #191909",
"' 	c #ACAC3D",
") 	c #E1E100",
"! 	c #A1A123",
"~ 	c #989835",
"{ 	c #0D0D05",
"] 	c #F4CA71",
"^ 	c #FBDC8B",
"/ 	c #A15C2B",
"( 	c #4A4017",
"_ 	c #323211",
": 	c #161607",
"< 	c #5C3618",
"[ 	c #FFF4B9",
"} 	c #FFEFAE",
"| 	c #F1C46A",
"1 	c #D39344",
"2 	c #6C631E",
"3 	c #93932C",
"4 	c #84842C",
"5 	c #23230C",
"6 	c #0B0B04",
"7 	c #6A6A23",
"8 	c #6C6323",
"9 	c #FEE9A3",
"0 	c #FDE498",
"a 	c #F5CC74",
"b 	c #C7843B",
"c 	c #8B8423",
"d 	c #CDA540",
"e 	c #985828",
"f 	c #5E4D1D",
"g 	c #090903",
"h 	c #FFFFFF",
"i 	c #464617",
"j 	c #606021",
"k 	c #673A1A",
"l 	c #2F190C",
"m 	c #532D15",
"n 	c #DDA34D",
"o 	c #CC893F",
"p 	c #E2A953",
"q 	c #070702",
"r 	c #1E1E0A",
"s 	c #010100",
"t 	c #000000",
"u 	c #B97435",
"v 	c #FEE79C",
"w 	c #DFA54F",
"x 	c #FFF1B2",
"y 	c #FDE295",
"z 	c #FCE6A9",
"A 	c #B28135",
"B 	c #8E8E30",
"C 	c #111106",
"D 	c #A1A138",
"E 	c #030201",
"F 	c #D79A48",
"G 	c #FADA8B",
"H 	c #DBD7D3",
"I 	c #EAEAE9",
"J 	c #DEA74F",
"K 	c #424216",
"L 	c #FCE193",
"M 	c #FFEEAC",
"N 	c #D4CABD",
"O 	c #D3D3D3",
"P 	c #F1F1F1",
"Q 	c #D69846",
"R 	c #0E0C05",
"S 	c #F7D079",
"T 	c #D8A760",
"U 	c #AC8435",
"V 	c #6F6F25",
"W 	c #241C0B",
"X 	c #FFF2B5",
"Y 	c #E6B45A",
"Z 	c #6F401C",
"` 	c #797928",
" .	c #0D0B04",
"..	c #E4B458",
"+.	c #FADA89",
"@.	c #6A5820",
"#.	c #989833",
"$.	c #2B280E",
"%.	c #7E7E2B",
"&.	c #3F3F15",
"*.	c #281B0B",
"=.	c #030301",
"-.	c #F8D47E",
";.	c #79421E",
">.	c #28160A",
",.	c #8B4D23",
"'.	c #190F04",
").	c #B06730",
"!.	c #1E1104",
"~.	c #403224",
"{.	c #C0C0C0",
"].	c #100702",
"^.	c #250D02",
"/.	c #4A2B0A",
"(.	c #675E1E",
"_.	c #3A3A14",
":.	c #A5A53B",
"<.	c #232315",
"[.	c #0B0B08",
"}.	c #24241B",
"|.	c #151515",
"1.	c #2B2B2B",
"2.	c #191919",
"3.	c #101010",
"4.	c #242424",
"5.	c #323232",
"6.	c #464646",
"7.	c #3D3D3D",
"8.	c #020202",
"9.	c #1E1E1E",
"0.	c #080808",
"a.	c #0C0C0C",
"b.	c #060606",
"c.	c #050505",
"d.	c #222222",
"e.	c #3A3A3A",
"f.	c #12120C",
"g.	c #7B7B51",
"h.	c #565636",
"i.	c #19190F",
"j.	c #010101",
"k.	c #2D2D1B",
"l.	c #020201",
"m.	c #404027",
"n.	c #21211C",
"o.	c #272722",
"p.	c #51513B",
"q.	c #202013",
"                                                      .                                         ",
"                                                  + @ @ # $                                     ",
"                                              % & @ * @ @ @ =                                   ",
"                          - ; > ,             & @ ' ) ! @ @ $                                   ",
"                        > @ @ @ @ ~ + {   ] ^ / ( @ ' @ @ @ _                                   ",
"                        : @ @ @ @ @ @ & < [ } | 1 2 3 4 @ @ 5                                   ",
"                        6 @ @ @ @ @ 7 8 9 [ 0 a b c d e f ~ g                                   ",
"            h             & @ - i ~ j > k l m n o ^ < p n p q r                                 ",
"          h               + @ @ - s t t t t u v w x [ y z A % B _                               ",
"        h                 C @ @ @ @ D % { E [ p ^ F G H I J ~ @ @ _                             ",
"      h h                   K @ @ @ @ ~ B f [ L y M N O P Q & @ @ D                             ",
"      h   h h                 $ # @ @ @ ' R [ [ M S M ] T U @ @ @ @ V                           ",
"      h       h h               { ~ @ @ > W [ [ [ X Y Z f @ @ @ @ @ '                           ",
"      h         h                   ` @ B  ...[ +.@.7 ' @ @ @ @ @ @ @                           ",
"      h         h                   6 #.' $ # ( $.4 D @ @ B + @ @ @ @ '                         ",
"      h         h                   5 #.%.K i 7 i &.V > + #   B @ @ @ 4                         ",
"      h h       h                   &.# # + $ V @ 7 &.B _ ~     D @ @ >                         ",
"        h h   h                     % 5 &.> @ @ @ j B > j V     - @ @ j                         ",
"                                    > j ; ; @ @ @ > V B j K       ' @ >                         ",
"                                    r &.~ i @ @ @ #.+ 7 D $       7 @ K                         ",
"                                      % + D @ @ @ @ @ @ @         + @ %                         ",
"                                      #.@ @ @ @ @ @ @ @ @         + @ -                         ",
"                                      i @ @ @ @ @ @ @ @ @         %.@                           ",
"                                        # @ @ @ @ @ @ @ @ g       $.; *.                        ",
"                                        > @ @ @ @ @ @ @ @ K     p [ [ v                         ",
"                                        =.' @ @ @ @ @ @ @ 4     -.^ [ [ ;.                      ",
"                                          - @ @ @ @ @ @ @ B     >.[ [ [ ,.                      ",
"                                            j @ #.V & # V '.        ).                          ",
"                                              !.~.{.].^./.(._.                                  ",
"                                              + (.V %.B @ @ 7                                   ",
"                                              @ @ @ @ @ @ @ 4                                   ",
"                                              @ @ ~ V @ @ @ +                                   ",
"                                              ~ @ @ > @ @ @ &.                                  ",
"                                              &.@ @ B #.@ @ ,                                   ",
"                                                V @ D V @ @                                     ",
"                                                % @ * V @ @ r                                   ",
"                                                B @ %.4 @ @ >                                   ",
"                                              6 @ @ j B @ @ @ C                                 ",
"                                              , @ @ > :.@ @ @ ,                                 ",
"                                                %.@ ` i %.j <.                                  ",
"                                                  [.}.|.1.1.2.                                  ",
"                                                  3.4.5.6.7.4.                                  ",
"                                                  8.5.9.6.4.0.                                  ",
"                                                  a.1.2.6.1.a.b.|.3.                            ",
"                                          c.7.6.9.3.6.d.6.6.|.6.6.6.a.                          ",
"                                          d.6.6.6.e.6.|.7.6.6.6.6.5.                            ",
"                                          f.g.h.i.j.k.l.m.0.n.o.p.q.                            ",
"                                                                                                "};
