/* XPM */
static char * captain_xpm[] = {
"48 48 148 2",
"  	c None",
". 	c #151507",
"+ 	c #53531C",
"@ 	c #B9B946",
"# 	c #B5B544",
"$ 	c #2C2C0E",
"% 	c #3A3A13",
"& 	c #B0B040",
"* 	c #A9A932",
"= 	c #0E0E05",
"- 	c #25250D",
"; 	c #5A5A1E",
"> 	c #4B4B19",
", 	c #191909",
"' 	c #ACAC3D",
") 	c #E1E100",
"! 	c #A1A123",
"~ 	c #989835",
"{ 	c #0D0D05",
"] 	c #F4CA71",
"^ 	c #FBDC8B",
"/ 	c #A15C2B",
"( 	c #4A4017",
"_ 	c #323211",
": 	c #161607",
"< 	c #5C3618",
"[ 	c #FFF4B9",
"} 	c #FFEFAE",
"| 	c #F1C46A",
"1 	c #D39344",
"2 	c #6C631E",
"3 	c #93932C",
"4 	c #84842C",
"5 	c #23230C",
"6 	c #0B0B04",
"7 	c #6A6A23",
"8 	c #6C6323",
"9 	c #FEE9A3",
"0 	c #FDE498",
"a 	c #F5CC74",
"b 	c #C7843B",
"c 	c #8B8423",
"d 	c #CDA540",
"e 	c #985828",
"f 	c #5E4D1D",
"g 	c #090903",
"h 	c #464617",
"i 	c #606021",
"j 	c #673A1A",
"k 	c #2F190C",
"l 	c #532D15",
"m 	c #DDA34D",
"n 	c #CC893F",
"o 	c #E2A953",
"p 	c #070702",
"q 	c #1E1E0A",
"r 	c #010100",
"s 	c #000000",
"t 	c #B97435",
"u 	c #FEE79C",
"v 	c #DFA54F",
"w 	c #FFF1B2",
"x 	c #FDE295",
"y 	c #FCE6A9",
"z 	c #B28135",
"A 	c #8E8E30",
"B 	c #111106",
"C 	c #A1A138",
"D 	c #030201",
"E 	c #D79A48",
"F 	c #FADA8B",
"G 	c #DBD7D3",
"H 	c #EAEAE9",
"I 	c #DEA74F",
"J 	c #424216",
"K 	c #FCE193",
"L 	c #FFEEAC",
"M 	c #D4CABD",
"N 	c #D3D3D3",
"O 	c #F1F1F1",
"P 	c #D69846",
"Q 	c #0E0C05",
"R 	c #F7D079",
"S 	c #D8A760",
"T 	c #AC8435",
"U 	c #6F6F25",
"V 	c #241C0B",
"W 	c #FFF2B5",
"X 	c #E6B45A",
"Y 	c #6F401C",
"Z 	c #797928",
"` 	c #0D0B04",
" .	c #E4B458",
"..	c #FADA89",
"+.	c #6A5820",
"@.	c #989833",
"#.	c #2B280E",
"$.	c #7E7E2B",
"%.	c #3F3F15",
"&.	c #281B0B",
"*.	c #030301",
"=.	c #F8D47E",
"-.	c #79421E",
";.	c #28160A",
">.	c #8B4D23",
",.	c #190F04",
"'.	c #B06730",
").	c #1E1104",
"!.	c #403224",
"~.	c #C0C0C0",
"{.	c #100702",
"].	c #250D02",
"^.	c #4A2B0A",
"/.	c #675E1E",
"(.	c #3A3A14",
"_.	c #FFFFFF",
":.	c #A5A53B",
"<.	c #232315",
"[.	c #0B0B08",
"}.	c #24241B",
"|.	c #151515",
"1.	c #2B2B2B",
"2.	c #191919",
"3.	c #101010",
"4.	c #242424",
"5.	c #323232",
"6.	c #464646",
"7.	c #3D3D3D",
"8.	c #020202",
"9.	c #1E1E1E",
"0.	c #080808",
"a.	c #0C0C0C",
"b.	c #060606",
"c.	c #050505",
"d.	c #222222",
"e.	c #3A3A3A",
"f.	c #12120C",
"g.	c #7B7B51",
"h.	c #565636",
"i.	c #19190F",
"j.	c #010101",
"k.	c #2D2D1B",
"l.	c #020201",
"m.	c #404027",
"n.	c #21211C",
"o.	c #272722",
"p.	c #51513B",
"q.	c #202013",
"                                                      .                                         ",
"                                                  + @ @ # $                                     ",
"                                              % & @ * @ @ @ =                                   ",
"                          - ; > ,             & @ ' ) ! @ @ $                                   ",
"                        > @ @ @ @ ~ + {   ] ^ / ( @ ' @ @ @ _                                   ",
"                        : @ @ @ @ @ @ & < [ } | 1 2 3 4 @ @ 5                                   ",
"                        6 @ @ @ @ @ 7 8 9 [ 0 a b c d e f ~ g                                   ",
"                          & @ - h ~ i > j k l m n ^ < o m o p q                                 ",
"                          + @ @ - r s s s s t u v w [ x y z % A _                               ",
"                          B @ @ @ @ C % { D [ o ^ E F G H I ~ @ @ _                             ",
"                            J @ @ @ @ ~ A f [ K x L M N O P & @ @ C                             ",
"                              $ # @ @ @ ' Q [ [ L R L ] S T @ @ @ @ U                           ",
"                                { ~ @ @ > V [ [ [ W X Y f @ @ @ @ @ '                           ",
"                                    Z @ A `  .[ ..+.7 ' @ @ @ @ @ @ @                           ",
"                                    6 @.' $ # ( #.4 C @ @ A + @ @ @ @ '                         ",
"                                    5 @.$.J h 7 h %.U > + #   A @ @ @ 4                         ",
"                                    %.# # + $ U @ 7 %.A _ ~     C @ @ >                         ",
"                                    % 5 %.> @ @ @ i A > i U     - @ @ i                         ",
"                                    > i ; ; @ @ @ > U A i J       ' @ >                         ",
"                                    q %.~ h @ @ @ @.+ 7 C $       7 @ J                         ",
"                                      % + C @ @ @ @ @ @ @         + @ %                         ",
"                                      @.@ @ @ @ @ @ @ @ @         + @ -                         ",
"                                      h @ @ @ @ @ @ @ @ @         $.@                           ",
"                                        # @ @ @ @ @ @ @ @ g       #.; &.                        ",
"                                        > @ @ @ @ @ @ @ @ J     o [ [ u                         ",
"                                        *.' @ @ @ @ @ @ @ 4     =.^ [ [ -.                      ",
"                                          - @ @ @ @ @ @ @ A     ;.[ [ [ >.                      ",
"                                            i @ @.U & # U ,.        '.                          ",
"                                              ).!.~.{.].^./.(.                                  ",
"                                              + /.U $.A @ @ 7                                   ",
"                                              @ @ @ @ @ @ @ 4                                   ",
"                                              @ @ ~ U @ @ @ +                                   ",
"                                              ~ @ @ > @ @ @ %.                                  ",
"                                              %.@ @ A @.@ @ ,                                   ",
"              _.                                U @ C U @ @                                     ",
"            _.                                  % @ * U @ @ q                                   ",
"          _.                                    A @ $.4 @ @ >                                   ",
"        _._.                                  6 @ @ i A @ @ @ B                                 ",
"        _.  _._.                              , @ @ > :.@ @ @ ,                                 ",
"        _.      _._.                            $.@ Z h $.i <.                                  ",
"        _.        _.                              [.}.|.1.1.2.                                  ",
"        _.        _.                              3.4.5.6.7.4.                                  ",
"        _.        _.                              8.5.9.6.4.0.                                  ",
"        _._.      _.                              a.1.2.6.1.a.b.|.3.                            ",
"          _._.  _.                        c.7.6.9.3.6.d.6.6.|.6.6.6.a.                          ",
"                                          d.6.6.6.e.6.|.7.6.6.6.6.5.                            ",
"                                          f.g.h.i.j.k.l.m.0.n.o.p.q.                            ",
"                                                                                                "};
