/* XPM */
static char * captain_xpm[] = {
"25 48 258 2",
"  	c None",
". 	c #41412B",
"+ 	c #6D6D49",
"@ 	c #989865",
"# 	c #999966",
"$ 	c #979764",
"% 	c #565639",
"& 	c #5F5F3F",
"* 	c #959563",
"= 	c #91915A",
"- 	c #383826",
"; 	c #515136",
"> 	c #70704B",
", 	c #6A6A47",
"' 	c #46462F",
") 	c #949463",
"! 	c #939360",
"~ 	c #B4B410",
"{ 	c #8D8D4F",
"] 	c #555538",
"^ 	c #696946",
"/ 	c #8A8A5C",
"( 	c #6F6F4A",
"_ 	c #373725",
": 	c #CBA37A",
"< 	c #DCB084",
"[ 	c #8D7155",
"} 	c #686244",
"| 	c #929261",
"1 	c #5A5A3C",
"2 	c #43432C",
"3 	c #949462",
"4 	c #715D45",
"5 	c #FFCC99",
"6 	c #F5C493",
"7 	c #C79F77",
"8 	c #A98765",
"9 	c #78744B",
"0 	c #878756",
"a 	c #818156",
"b 	c #4E4E34",
"c 	c #333322",
"d 	c #77774F",
"e 	c #78744F",
"f 	c #EDBD8E",
"g 	c #E5B789",
"h 	c #CDA47B",
"i 	c #A18160",
"j 	c #84814F",
"k 	c #A58F63",
"l 	c #896F53",
"m 	c #726A4A",
"n 	c #8B8B5C",
"o 	c #2F2F1F",
"p 	c #666644",
"q 	c #8B8B5D",
"r 	c #73734D",
"s 	c #6A6946",
"t 	c #765F47",
"u 	c #584635",
"v 	c #6D5741",
"w 	c #B18E6A",
"x 	c #A48362",
"y 	c #735C45",
"z 	c #B5916D",
"A 	c #B38F6B",
"B 	c #2C2B1D",
"C 	c #4A4A32",
"D 	c #989866",
"E 	c #505035",
"F 	c #13130D",
"G 	c #010101",
"H 	c #000000",
"I 	c #997B5C",
"J 	c #E8BA8B",
"K 	c #F9C795",
"L 	c #FECB98",
"M 	c #E3B588",
"N 	c #E0B991",
"O 	c #95805C",
"P 	c #5E5E3F",
"Q 	c #848458",
"R 	c #58583A",
"S 	c #3C3C28",
"T 	c #8E8E5F",
"U 	c #5C5C3D",
"V 	c #353524",
"W 	c #1F1A13",
"X 	c #FDCA98",
"Y 	c #B4906C",
"Z 	c #AC8A67",
"` 	c #D8AE84",
" .	c #AFACA9",
"..	c #BEBEBD",
"+.	c #B2906B",
"@.	c #59593C",
"#.	c #656543",
"$.	c #87875A",
"%.	c #716849",
"&.	c #E1B487",
"*.	c #E2B588",
"=.	c #F2C191",
"-.	c #AAA39B",
";.	c #A9A9A9",
">.	c #C6C6C6",
",.	c #AB8966",
"'.	c #8D8D5E",
").	c #919161",
"!.	c #393525",
"~.	c #F3C292",
"{.	c #D1A77D",
"].	c #CAA27A",
"^.	c #AD9073",
"/.	c #92815C",
"(.	c #797951",
"_.	c #504933",
":.	c #FBC997",
"<.	c #B99670",
"[.	c #796349",
"}.	c #706B49",
"|.	c #939362",
"1.	c #7C7C53",
"2.	c #363323",
"3.	c #B7966F",
"4.	c #DAAE83",
"5.	c #776F4C",
"6.	c #75754E",
"7.	c #909060",
"8.	c #88885A",
"9.	c #57573A",
"0.	c #959564",
"a.	c #686344",
"b.	c #555338",
"c.	c #808055",
"d.	c #6E6E49",
"e.	c #4F4F35",
"f.	c #89895B",
"g.	c #7F7F54",
"h.	c #646443",
"i.	c #686845",
"j.	c #74744D",
"k.	c #676745",
"l.	c #626242",
"m.	c #787850",
"n.	c #6A6A46",
"o.	c #979765",
"p.	c #858559",
"q.	c #606040",
"r.	c #555539",
"s.	c #7B7B52",
"t.	c #626241",
"u.	c #86865A",
"v.	c #59593B",
"w.	c #72724C",
"x.	c #525236",
"y.	c #71714C",
"z.	c #70704A",
"A.	c #6B6B47",
"B.	c #4B4B32",
"C.	c #616141",
"D.	c #8C8C5E",
"E.	c #56563A",
"F.	c #5E5E3E",
"G.	c #6E6E4A",
"H.	c #7F7F55",
"I.	c #2C2C1E",
"J.	c #565238",
"K.	c #534834",
"L.	c #646442",
"M.	c #1E1E14",
"N.	c #929262",
"O.	c #828257",
"P.	c #D4AA7F",
"Q.	c #DFB286",
"R.	c #7D644B",
"S.	c #525237",
"T.	c #534232",
"U.	c #FDCB98",
"V.	c #FECB99",
"W.	c #846A4F",
"X.	c #73734C",
"Y.	c #88885B",
"Z.	c #969664",
"`.	c #797850",
" +	c #463A23",
".+	c #947659",
"++	c #4B3D24",
"@+	c #635A50",
"#+	c #9D9D9D",
"$+	c #3B2B1B",
"%+	c #51371C",
"&+	c #685532",
"*+	c #76724B",
"=+	c #5F5F40",
"-+	c #6F6D48",
";+	c #74714B",
">+	c #7B7B53",
",+	c #7E7E54",
"'+	c #89895C",
")+	c #636342",
"!+	c #868659",
"~+	c #45452E",
"{+	c #8F8F5F",
"]+	c #5C5C3E",
"^+	c #7A7A51",
"/+	c #484830",
"(+	c #303020",
"_+	c #3F3F2A",
":+	c #8F8F60",
"<+	c #7D7D53",
"[+	c #72724D",
"}+	c #4F4F41",
"|+	c #33332D",
"1+	c #505048",
"2+	c #404040",
"3+	c #565656",
"4+	c #545454",
"5+	c #464646",
"6+	c #3B3B3B",
"7+	c #535353",
"8+	c #595959",
"9+	c #666666",
"0+	c #606060",
"a+	c #505050",
"b+	c #1C1C1C",
"c+	c #4B4B4B",
"d+	c #2E2E2E",
"e+	c #363636",
"f+	c #555555",
"g+	c #575757",
"h+	c #343434",
"i+	c #2A2A2A",
"j+	c #434343",
"k+	c #393939",
"l+	c #262626",
"m+	c #636363",
"n+	c #4A4A4A",
"o+	c #4E4E4E",
"p+	c #424242",
"q+	c #656565",
"r+	c #353535",
"s+	c #5F5F5F",
"t+	c #414141",
"u+	c #616161",
"v+	c #5A5A5A",
"w+	c #3E3E35",
"x+	c #7E7E6C",
"y+	c #6E6E5D",
"z+	c #46463A",
"A+	c #171714",
"B+	c #575748",
"C+	c #1D1D18",
"D+	c #636352",
"E+	c #2D2D2D",
"F+	c #4D4D49",
"G+	c #52524E",
"H+	c #6C6C60",
"I+	c #4C4C3F",
"                              .                   ",
"                          + @ # $ %               ",
"                      & * # = # # # -             ",
"  ; > , '             ) # ! ~ { # # ]             ",
"^ # # # # / ( _   : < [ } # | # # # 1             ",
"2 # # # # # # 3 4 5 6 7 8 9 0 a # # b             ",
"c # # # # # d e f 5 g h i j k l m n o             ",
"  * @ ; p q r s t u v w x < y z A z B C           ",
"  + # D E F G H H H I J A K L M N O P Q R         ",
"  S # # # # T U V W X Y < Z `  ...+.q # # @.      ",
"    #.# # # # n $.%.5 &.*.=.-.;.>.,.3 # # '.      ",
"      % $ # # # ).!.5 5 ~.{.~.].^./.# # # # (.    ",
"        V q # # , _.5 5 5 :.<.[.}.# # # # # |.    ",
"            1.# Q 2.3.X 4.5.6.7.# # # # # # #     ",
"            c 8.).9.0.a.b.c.'.# # $.d.# # # # |   ",
"            e.f.g.h.i.j.k.l.m.n.d.o.  p.# # # c.  ",
"            q.o.o.( r.s.# j.t.u.v.q     '.# # ,   ",
"            & e.q.^ # # # w.u.^ w.m.    x.# # y.  ",
"            ^ w.z.z.# # # A.s.p.r #.      7.# i.  ",
"            B.C./ p # # # f.( d D.E.      6.# h.  ",
"              F.G.'.# # # # # # #         ( # U   ",
"              f.# # # # # # # # #         ( # E   ",
"              p # # # # # # # # #         H.#     ",
"                o.# # # # # # # # I.      J.> K.  ",
"                i.# # # # # # # # L.    Y 5 5 J   ",
"                M.N.# # # # # # # O.    P.Q.5 5 R.",
"                  S.# # # # # # # p.    T.U.5 V.W.",
"                    X.# Y.(.) Z.`. +        .+    ",
"                      ++@+#+$+%+&+*+=+            ",
"                      -+;+>+,+p.# # 6.            ",
"                      # # # # # # # c.            ",
"                      # # / (.# # # +             ",
"                      '+# # ^ # # # q.            ",
"                      )+# # !+f.# # ~+            ",
"                        s.# {+s.# #               ",
"                        ]+# {+^+# # /+            ",
"                        $.# H.O.# # ^             ",
"                      (+# # r $.# # # _+          ",
"                      ~+# # i.:+# # # ~+          ",
"                        H.# <+p ,+[+}+            ",
"                          |+1+2+3+4+5+            ",
"                          6+7+8+9+0+a+            ",
"                          b+8+c+9+7+d+            ",
"                          e+f+5+9+g+h+i+j+k+      ",
"                  l+m+9+n+k+9+o+9+9+p+q+9+9+r+    ",
"                  o+9+9+9+s+q+t+u+9+9+9+9+v+      ",
"                  w+x+y+z+A+B+C+D+E+F+G+H+I+      ",
"                                                  "};
