/* XPM */
static char * colonel_xpm[] = {
"48 48 329 2",
"  	c None",
". 	c #29291C",
"+ 	c #191911",
"@ 	c #7B7B52",
"# 	c #929261",
"$ 	c #979765",
"% 	c #666644",
"& 	c #5E5E3F",
"* 	c #71714B",
"= 	c #7C7C53",
"- 	c #75754E",
"; 	c #11110C",
"> 	c #7F7F54",
", 	c #838358",
"' 	c #999966",
") 	c #353523",
"! 	c #000000",
"~ 	c #494931",
"{ 	c #828257",
"] 	c #929242",
"^ 	c #838349",
"/ 	c #979764",
"( 	c #57573A",
"_ 	c #868659",
": 	c #73733D",
"< 	c #C7C702",
"[ 	c #D7D702",
"} 	c #787845",
"| 	c #4D4D33",
"1 	c #545438",
"2 	c #606040",
"3 	c #43432C",
"4 	c #7E7E54",
"5 	c #969664",
"6 	c #7A7A2E",
"7 	c #7C7C2D",
"8 	c #2C2C1D",
"9 	c #45452E",
"0 	c #838357",
"a 	c #939362",
"b 	c #797951",
"c 	c #8B8B5D",
"d 	c #8F8F5F",
"e 	c #777750",
"f 	c #43432D",
"g 	c #949462",
"h 	c #74744D",
"i 	c #848458",
"j 	c #989866",
"k 	c #7D7D54",
"l 	c #87875A",
"m 	c #181810",
"n 	c #8F8F8F",
"o 	c #A4A4A4",
"p 	c #808080",
"q 	c #7F7F55",
"r 	c #71710F",
"s 	c #6E6948",
"t 	c #6C6C48",
"u 	c #818156",
"v 	c #6D6D49",
"w 	c #202015",
"x 	c #828282",
"y 	c #AEAEAE",
"z 	c #E6E6E6",
"A 	c #888888",
"B 	c #554F37",
"C 	c #726C58",
"D 	c #939390",
"E 	c #7F6F4D",
"F 	c #6F655B",
"G 	c #7C7C7C",
"H 	c #5C5C5A",
"I 	c #6A5D44",
"J 	c #3C3A28",
"K 	c #323227",
"L 	c #898989",
"M 	c #E4E4E4",
"N 	c #D3D3D3",
"O 	c #F4C493",
"P 	c #E9BA8C",
"Q 	c #6F6051",
"R 	c #9A7D60",
"S 	c #7E756D",
"T 	c #FFFFFF",
"U 	c #84776A",
"V 	c #8F8E8E",
"W 	c #929292",
"X 	c #515151",
"Y 	c #8C8C8C",
"Z 	c #DDDDDD",
"` 	c #555538",
" .	c #646443",
"..	c #535337",
"+.	c #CBA37A",
"@.	c #FFCC99",
"#.	c #F3C292",
"$.	c #D6AC81",
"%.	c #AC9A88",
"&.	c #F6F6F6",
"*.	c #ACACAC",
"=.	c #B6B6B6",
"-.	c #181818",
";.	c #D0D0D0",
">.	c #333322",
",.	c #8F8F0F",
"'.	c #606020",
").	c #373725",
"!.	c #474730",
"~.	c #BE9872",
"{.	c #EBBC8D",
"].	c #796857",
"^.	c #D4AB82",
"/.	c #CFA67E",
"(.	c #C2A282",
"_.	c #A18161",
":.	c #D2D2D2",
"<.	c #9C9C9C",
"[.	c #212116",
"}.	c #8D8D5E",
"|.	c #717146",
"1.	c #5F5F39",
"2.	c #969621",
"3.	c #4C4C2F",
"4.	c #484830",
"5.	c #A48362",
"6.	c #FECB99",
"7.	c #8D7F71",
"8.	c #AEAAA6",
"9.	c #A6A29E",
"0.	c #B9A28B",
"a.	c #C19E7A",
"b.	c #8A6E53",
"c.	c #7E7E7E",
"d.	c #A2A2A2",
"e.	c #585858",
"f.	c #656544",
"g.	c #9A9A0E",
"h.	c #4E4E1A",
"i.	c #7C7C1A",
"j.	c #443D29",
"k.	c #F8C695",
"l.	c #B89471",
"m.	c #B8B8B8",
"n.	c #CCCCCC",
"o.	c #C5C5C5",
"p.	c #656565",
"q.	c #88885B",
"r.	c #6D6D46",
"s.	c #7F7F25",
"t.	c #565623",
"u.	c #9D864F",
"v.	c #D5AB82",
"w.	c #96928E",
"x.	c #8F8E8C",
"y.	c #969696",
"z.	c #636363",
"A.	c #655F59",
"B.	c #7F664C",
"C.	c #6A6A47",
"D.	c #8C8C5D",
"E.	c #616141",
"F.	c #73734C",
"G.	c #86865A",
"H.	c #76764E",
"I.	c #6F6F4A",
"J.	c #4C4C33",
"K.	c #6F6F29",
"L.	c #6C6A3E",
"M.	c #A6A4A2",
"N.	c #989898",
"O.	c #AAA8A6",
"P.	c #AE9A86",
"Q.	c #9B8269",
"R.	c #624F3B",
"S.	c #FDCA98",
"T.	c #EDBE8E",
"U.	c #A48363",
"V.	c #E6B88A",
"W.	c #7B624A",
"X.	c #383826",
"Y.	c #5F5F3F",
"Z.	c #636342",
"`.	c #7A7A51",
" +	c #525237",
".+	c #7A7A27",
"++	c #898928",
"@+	c #8D8D2E",
"#+	c #927B4F",
"$+	c #DEB287",
"%+	c #D3A97F",
"&+	c #4A422F",
"*+	c #70705C",
"=+	c #5B5B49",
"-+	c #A28261",
";+	c #CCA57E",
">+	c #776350",
",+	c #65513D",
"'+	c #3B3024",
")+	c #3B3B27",
"!+	c #8E8E5F",
"~+	c #76764F",
"{+	c #7D7D53",
"]+	c #989865",
"^+	c #88885A",
"/+	c #63633E",
"(+	c #70702F",
"_+	c #886922",
":+	c #8C7023",
"<+	c #7E6F27",
"[+	c #606023",
"}+	c #676745",
"|+	c #71712A",
"1+	c #7D7D7B",
"2+	c #77770E",
"3+	c #4E4E2B",
"4+	c #9C7F5F",
"5+	c #C2A181",
"6+	c #918273",
"7+	c #8F7256",
"8+	c #947759",
"9+	c #BD9872",
"0+	c #7C7C52",
"a+	c #777720",
"b+	c #AE822B",
"c+	c #CC9933",
"d+	c #987427",
"e+	c #6E6E3A",
"f+	c #6E6E49",
"g+	c #313121",
"h+	c #8F825B",
"i+	c #B99674",
"j+	c #717170",
"k+	c #6C5844",
"l+	c #705A43",
"m+	c #AA8866",
"n+	c #5D5D3E",
"o+	c #626242",
"p+	c #665D34",
"q+	c #A77E2A",
"r+	c #8F6B24",
"s+	c #876622",
"t+	c #776F42",
"u+	c #72724C",
"v+	c #46462F",
"w+	c #5A5038",
"x+	c #786048",
"y+	c #B38F6B",
"z+	c #0E0E09",
"A+	c #4E4E34",
"B+	c #888454",
"C+	c #AF842D",
"D+	c #785C21",
"E+	c #8F8F60",
"F+	c #1D1D13",
"G+	c #0F0F0A",
"H+	c #959563",
"I+	c #8F8D5C",
"J+	c #AC8431",
"K+	c #CA9732",
"L+	c #876725",
"M+	c #6B6A45",
"N+	c #858558",
"O+	c #565639",
"P+	c #232317",
"Q+	c #6B6B47",
"R+	c #858559",
"S+	c #6E6E4A",
"T+	c #626241",
"U+	c #696945",
"V+	c #726F47",
"W+	c #665D35",
"X+	c #514A2B",
"Y+	c #4D4D34",
"Z+	c #909060",
"`+	c #929262",
" @	c #47472F",
".@	c #808055",
"+@	c #77774F",
"@@	c #959564",
"#@	c #8A8A5C",
"$@	c #646442",
"%@	c #505035",
"&@	c #363624",
"*@	c #0D0D09",
"=@	c #3A3A27",
"-@	c #4B4B32",
";@	c #8C8C5E",
">@	c #515136",
",@	c #6B6B48",
"'@	c #393926",
")@	c #828256",
"!@	c #12120C",
"~@	c #4A4A31",
"{@	c #696946",
"]@	c #70704B",
"^@	c #13130D",
"/@	c #5A5A3C",
"(@	c #040403",
"_@	c #10100B",
":@	c #4A4A32",
"<@	c #5E4121",
"[@	c #695330",
"}@	c #686643",
"|@	c #44442E",
"1@	c #654D2B",
"2@	c #644321",
"3@	c #7D532A",
"4@	c #724C26",
"5@	c #734C26",
"6@	c #5C3E1F",
"7@	c #53371C",
"8@	c #6D4924",
"9@	c #986633",
"0@	c #996633",
"a@	c #462F18",
"b@	c #17160E",
"c@	c #704B25",
"d@	c #734D26",
"e@	c #774F28",
"f@	c #976532",
"g@	c #4D331A",
"h@	c #84582C",
"i@	c #82562B",
"j@	c #5A3C1E",
"k@	c #6A4723",
"l@	c #895B2E",
"m@	c #8C5D2F",
"n@	c #3A2713",
"                                                                                                ",
"                                                              .                                 ",
"                                                          + @ # $ %                             ",
"                                                          & * = - *                             ",
"                                                        ; > , ' ' # )                           ",
"            ! !   ! !                                   ~ { ' ] ^ / (                           ",
"            ! !   ! !                                   _ - : < [ } |                           ",
"            ! !   ! !                           1 2   3 4 5 ' 6 7 ' 8                           ",
"            ! ! ! !                           2 ' $ 9 0 a ' ' / ' '                             ",
"            ! !   ! !                         b ' c @ - ' ' ' ' d e                             ",
"            ! !   ! !                       f g h 4 i j ' $ k e l ' 0 m         n o p           ",
"            ! !   ! !                         q ' ' q r s & t h u h v w       x y z z A         ",
"              ! ! !                             B C D E F G H I J K           L M z z N         ",
"                                                O P Q R S T z U V W         X Y z z z Z         ",
"                                ~ ` &  ...      +.@.#.$.%.&.*.=.T -.          W z z z ;.        ",
"                      >.2 = # ' ' ' c ,.'.h ).!.~.@.@.@.{.].^./.(._.          x :.z z <.        ",
"                  [.- ' ' ' ' ' ' }.4 |.1.2.3.4.5.@.@.6.7.8.9.0.a.b.          c.L =.d.e.        ",
"                  _ ' ' ' ' ' ' ' ' d f.$ g.h.i.j.k.@.l.m.n.n.n.o.              X p.            ",
"                  5 ' ' ' ' ' ' ' ' ' q.| h r.s.t.u.v.w.n.n.x.n.y.              z.A.B.          ",
"                  C.' D.E.F., G.G.G.{ j 5 H.I.J.K.L.M.N.O.P.Q.n.y           R.S.T.U.V.W.        ",
"                X.J.2 Y.Z.`.G.@ 2  +i ' ' ' { i .+++@+#+$+%+&+*+n.=+        -+;+>+,+'+          ",
"            )+!+' ' v ~+{+' ' ' ' ' 4 @ ]+u ^+' /+(+_+:+<+[+}+|+1+2+3+      4+5+6+@.7+8+9+      ",
"          ) $ ' ' ' 0+b d { ' ' ' ' 4 ' f.]+}+' c a+b+c+d+e+i f+4.f+'     g+h+i+j+k+l+m+m+      ",
"          n+' ' ' ' ' j b `.' ' ' ' i ' d o+v ' p+q+r+s+t+' u+{ ' ' ' 0   v+# w+x+y+            ",
"        z+!+' ' ' ' ' ' ' ' ' ' ' ' `.G.b A+5 B+C+c+c+D+}.E.q ' ' ' ' E+1 i ' ' q F+            ",
"      G+{+' # H+' ]+{ * E+' ' ' ' ' ' ' 5 n+I+J+c+K+L+M+N+O+' ' ' ' ' ' ' ' ' 5 9               ",
"      P+, t ~+Q+h Q+4 5 R+4 ' ' ' ' ' ' S+T+U+V+W+X+1 Y.+   Y+Z+' ' ' ' ' ' `+ @                ",
"          .@' ' ' ' ' ' ' _ +@' ' @@G.c Q+#@_ u+$@%@}.          I.' ' ' ' c &@                  ",
"          .@' ' ' ' ' ' ' ' !+2 Z.m     *@=@~                     -@{+;@f+                      ",
"          .@' ' ' ' ' ' { ' '  @                                                                ",
"          .@' ' ' ' ' = {+' D.                                                                  ",
"          .@' ' ' ' ' O+' ' >@                                                                  ",
"          u ' ' ' ' `.}+' d                                                                     ",
"          a ' ' ' ' n+a ' %                                                                     ",
"          .@' ' ' ' Y.' ' 9                                                                     ",
"          ,@' ' ' ' n+' D.                                                                      ",
"          ( ' ' ' a & ' u+                                                                      ",
"          '@' ' ' {+)@' >@                                                                      ",
"          !@]+' ' I.]+]+                                                                        ",
"            = ' ' % ' #@                                                                        ",
"            ~@' ' {@' ]@                                                                        ",
"            ^@' ' ]@' /@                                                                        ",
"            (@' ' ]@' J.                                                                        ",
"            _@' ' u+' :@                                                                        ",
"            <@[@}@|@1@2@3@4@5@6@                                                                ",
"      7@8@9@0@0@a@b@c@0@0@0@0@0@d@                                                              ",
"    e@0@0@0@f@g@        h@0@f@i@j@                                                              ",
"    k@c@l@m@n@                                                                                  "};
