/* XPM */
static char * colonel_xpm[] = {
"48 48 222 2",
"  	c None",
". 	c #0B0B05",
"+ 	c #030301",
"@ 	c #767630",
"# 	c #A5A545",
"$ 	c #AEAE4A",
"% 	c #4C4C1F",
"& 	c #41411B",
"* 	c #616127",
"= 	c #7A7A31",
"- 	c #69692B",
"; 	c #010101",
"> 	c #7C7C32",
", 	c #878738",
"' 	c #B1B14E",
") 	c #121207",
"! 	c #25250F",
"~ 	c #858536",
"{ 	c #A5A51D",
"] 	c #878725",
"^ 	c #343414",
"/ 	c #FFFFFF",
"( 	c #8E8E39",
"_ 	c #656519",
": 	c #EBEB00",
"< 	c #F5F500",
"[ 	c #6F6F20",
"} 	c #282811",
"| 	c #44441B",
"1 	c #1E1E0D",
"2 	c #74740D",
"3 	c #78780D",
"4 	c #20200D",
"5 	c #98983F",
"6 	c #9C9C41",
"7 	c #6D6D2D",
"8 	c #ABAB49",
"9 	c #9E9C9A",
"0 	c #C3C3C3",
"a 	c #838383",
"b 	c #616101",
"c 	c #5C5324",
"d 	c #5A5A25",
"e 	c #060603",
"f 	c #CFCFCF",
"g 	c #FCFCFC",
"h 	c #949494",
"i 	c #000000",
"j 	c #1C1C1C",
"k 	c #C6C6C6",
"l 	c #342C14",
"m 	c #635838",
"n 	c #A5A5A3",
"o 	c #7E5E29",
"p 	c #5E4C3C",
"q 	c #7A7A76",
"r 	c #3E3E3B",
"s 	c #543F1F",
"t 	c #18160A",
"u 	c #101009",
"v 	c #F3F3F3",
"w 	c #FEE8A7",
"x 	c #FDE19C",
"y 	c #5E442E",
"z 	c #B37A44",
"A 	c #7C695A",
"B 	c #896D54",
"C 	c #2E2E2E",
"D 	c #F8F8F8",
"E 	c #4A4A1E",
"F 	c #313114",
"G 	c #EEC174",
"H 	c #FFEEB1",
"I 	c #FEE6A5",
"J 	c #F5CE83",
"K 	c #CEB392",
"L 	c #DADADA",
"M 	c #030303",
"N 	c #111107",
"O 	c #585834",
"P 	c #E1E1D0",
"Q 	c #9F9F01",
"R 	c #444407",
"S 	c #141408",
"T 	c #23230E",
"U 	c #E3B063",
"V 	c #715136",
"W 	c #F4CD85",
"X 	c #F0C67C",
"Y 	c #E6C085",
"Z 	c #C08545",
"` 	c #B6B6B6",
" .	c #E2E2E2",
"..	c #ABAB88",
"+.	c #CBCB89",
"@.	c #EDEDD7",
"#.	c #B9B961",
"$.	c #616122",
"%.	c #424215",
"&.	c #ACAC06",
"*.	c #28280E",
"=.	c #C38749",
"-.	c #9C7E61",
";.	c #D1CBC6",
">.	c #C6C0BA",
",.	c #DDC098",
"'.	c #E5BA74",
").	c #965C31",
"!.	c #C0C0C0",
"~.	c #383838",
"{.	c #9A9A4E",
"].	c #B3B301",
"^.	c #2B2B04",
"/.	c #787804",
"(.	c #1F190A",
"_.	c #FFEAAB",
":.	c #DDAB65",
"<.	c #DCDCDC",
"[.	c #EEEEEE",
"}.	c #E9E9E9",
"|.	c #4C4C4C",
"1.	c #92923C",
"2.	c #5A5A22",
"3.	c #7E7E08",
"4.	c #353507",
"5.	c #B88E2C",
"6.	c #ACA59E",
"7.	c #ACACAC",
"8.	c #494949",
"9.	c #4C4239",
"0.	c #7E4E28",
"a.	c #545422",
"b.	c #636328",
"c.	c #5E5E0A",
"d.	c #58541A",
"e.	c #C6C3C0",
"f.	c #B0B0B0",
"g.	c #CBC9C6",
"h.	c #D1B38E",
"i.	c #B58553",
"j.	c #472C17",
"k.	c #FCDC96",
"l.	c #744525",
"m.	c #171709",
"n.	c #747409",
"o.	c #98980B",
"p.	c #A5762C",
"q.	c #F9D690",
"r.	c #F3CA7E",
"s.	c #261D0E",
"t.	c #60603E",
"u.	c #3C3C25",
"v.	c #6D492D",
"w.	c #4C2E19",
"x.	c #170E08",
"y.	c #49491A",
"z.	c #60600E",
"A.	c #925307",
"B.	c #9A6007",
"C.	c #7C5E09",
"D.	c #61610B",
"E.	c #6D6D01",
"F.	c #2B2B0B",
"G.	c #B67E42",
"H.	c #A38565",
"I.	c #9F6335",
"J.	c #A96D39",
"K.	c #6D6D06",
"L.	c #D1850B",
"M.	c #EEB111",
"N.	c #B06709",
"O.	c #5C5C16",
"P.	c #9F853C",
"Q.	c #616160",
"R.	c #58381F",
"S.	c #603B1E",
"T.	c #CB924E",
"U.	c #4E3F12",
"V.	c #C77C0B",
"W.	c #9F5608",
"X.	c #904E07",
"Y.	c #6D5E1D",
"Z.	c #3B2D14",
"`.	c #D79F56",
" +	c #010100",
".+	c #2B2B11",
"++	c #928932",
"@+	c #D2890D",
"#+	c #6F3E06",
"$+	c #9F9F44",
"%+	c #050502",
"&+	c #CE890F",
"*+	c #EDAE10",
"=+	c #904F08",
"-+	c #565623",
";+	c #635E23",
">+	c #2E260B",
",+	c #565624",
"'+	c #3B3B18",
")+	c #411C06",
"!+	c #53310E",
"~+	c #514E1E",
"{+	c #4C290B",
"]+	c #4A1E06",
"^+	c #7A310B",
"/+	c #652809",
"(+	c #3E1A05",
"_+	c #311404",
":+	c #5A2508",
"<+	c #B14E11",
"[+	c #220E03",
"}+	c #602708",
"|+	c #6D2C0A",
"1+	c #AE4C10",
"2+	c #291104",
"3+	c #89380C",
"4+	c #85350B",
"5+	c #3B1805",
"6+	c #542307",
"7+	c #943C0D",
"8+	c #9A3F0E",
"9+	c #160902",
"                                                                                                ",
"                                                              .                                 ",
"                                                          + @ # $ %                             ",
"                                                          & * = - *                             ",
"                                                        ; > , ' ' # )                           ",
"                                                        ! ~ ' { ] $ ^                           ",
"                  / / / /                               ( - _ : < [ }                           ",
"                /       /                       ^ |   1 > $ ' 2 3 ' .                           ",
"                /         /                   | ' $ 4 ~ # ' ' $ ' '                             ",
"                / /     /                     @ ' 5 @ - ' ' ' ' 6 7                             ",
"                  / /   /                   1 8 - > ( ' ' $ > 7 ( ' ~ +         9 0 a           ",
"                    / /                       > ' ' > b c & d - ~ - d e       a f g g h         ",
"              i j k   / /                       l m n o p q r s t u           h g g g v         ",
"                /       / /                     w x y z A / g B 9 n         C 9 g g g D         ",
"                /         /     ! ^ & E F       G H I J K / f L / M           n g g g v         ",
"                /     N O P # ' ' ' 5 Q R - S T U H H H x V W X Y Z           a v g g `         ",
"                   ...+.@.#.' ' ' 6 > $.%.&.*.! =.H H H -.;.>.,.'.).          q h L !.~.        ",
"                  {.+.+.' ' ' ' ' ' 6 % $ ].^./.(._.H :.<.[.[.[.}.              C |.            ",
"                  $ ' ' ' ' ' ' ' ' ' 1.} - 2.3.4.5.W 6.[.[.9 [.7.              8.9.0.          ",
"                  a.' 6 | b., ( ( ( ~ ' $ - d } c.d.e.f.g.h.i.[.f           j.H x =.k.l.        ",
"                m.! | & | @ ( @ | F ( ' ' ' ~ ( n.o.o.p.q.r.s.t.[.u.        Z X v.w.x.          ",
"            m.6 ' ' d - = ' ' ' ' ' > @ ' ~ 1.' y.z.A.B.C.R % D.q E.F.      G.Y H.H I.J.U       ",
"          ) $ ' ' ' = @ 6 ~ ' ' ' ' > ' % ' % ' 5 K.L.M.N.O.( d ! d '     N P.:.Q.R.S.T.T.      ",
"          & ' ' ' ' ' ' @ @ ' ' ' ' ( ' 6 | d ' U.V.W.X.Y.' b.~ ' ' ' ~   4 # Z.l.`.            ",
"         +6 ' ' ' ' ' ' ' ' ' ' ' ' @ ( @ .+$ ++@+M.M.#+6 | > ' ' ' ' $+^ ( ' ' > %+            ",
"       += ' # 8 ' ' ~ * $+' ' ' ' ' ' ' $ & 6 &+M.*+=+a.( ^ ' ' ' ' ' ' ' ' ' $ 4               ",
"      e , d - -+- a.> $ ( > ' ' ' ' ' ' d | a.;+U.>+^ & +   .+# ' ' ' ' ' ' # 4                 ",
"          ~ ' ' ' ' ' ' ' ( - ' ' $ ( 5 a.5 ( b.E F 6           d ' ' ' ' 5 S                   ",
"          ~ ' ' ' ' ' ' ' ' 6 | | +      +m.!                     ! = 6 d                       ",
"          ~ ' ' ' ' ' ' ~ ' ' 4                                                                 ",
"          ~ ' ' ' ' ' = = ' 6                                                                   ",
"          > ' ' ' ' ' ^ ' ' F                                                                   ",
"          ~ ' ' ' ' @ % ' 6                                                                     ",
"          # ' ' ' ' & # ' %                                                                     ",
"          ~ ' ' ' ' & ' ' 4                                                                     ",
"          ,+' ' ' ' & ' 6                                                                       ",
"          ^ ' ' ' # & ' b.                                                                      ",
"          m.' ' ' = ~ ' F                                                                       ",
"          ; ' ' ' d ' '                                                                         ",
"            = ' ' % ' 5                                                                         ",
"            ! ' ' a.' *                                                                         ",
"            ; ' ' * ' '+                                                                        ",
"            i ' ' * ' }                                                                         ",
"            ; ' ' b.' !                                                                         ",
"            )+!+~+4 {+]+^+/+/+(+                                                                ",
"      _+:+<+<+<+[++ }+<+<+<+<+<+/+                                                              ",
"    |+<+<+<+1+2+        3+<+1+4+5+                                                              ",
"    6+}+7+8+9+                                                                                  "};
