/* XPM */
static char * colonel_xpm[] = {
"48 48 221 2",
"  	c None",
". 	c #0B0B05",
"+ 	c #030301",
"@ 	c #767630",
"# 	c #A5A545",
"$ 	c #AEAE4A",
"% 	c #4C4C1F",
"& 	c #41411B",
"* 	c #616127",
"= 	c #7A7A31",
"- 	c #69692B",
"; 	c #010101",
"> 	c #7C7C32",
", 	c #878738",
"' 	c #B1B14E",
") 	c #121207",
"! 	c #25250F",
"~ 	c #858536",
"{ 	c #A5A51D",
"] 	c #878725",
"^ 	c #343414",
"/ 	c #8E8E39",
"( 	c #656519",
"_ 	c #EBEB00",
": 	c #F5F500",
"< 	c #6F6F20",
"[ 	c #282811",
"} 	c #44441B",
"| 	c #1E1E0D",
"1 	c #74740D",
"2 	c #78780D",
"3 	c #20200D",
"4 	c #98983F",
"5 	c #9C9C41",
"6 	c #6D6D2D",
"7 	c #ABAB49",
"8 	c #9E9C9A",
"9 	c #C3C3C3",
"0 	c #838383",
"a 	c #616101",
"b 	c #5C5324",
"c 	c #5A5A25",
"d 	c #060603",
"e 	c #CFCFCF",
"f 	c #FCFCFC",
"g 	c #949494",
"h 	c #342C14",
"i 	c #635838",
"j 	c #A5A5A3",
"k 	c #7E5E29",
"l 	c #5E4C3C",
"m 	c #7A7A76",
"n 	c #3E3E3B",
"o 	c #543F1F",
"p 	c #18160A",
"q 	c #101009",
"r 	c #F3F3F3",
"s 	c #FEE8A7",
"t 	c #FDE19C",
"u 	c #5E442E",
"v 	c #B37A44",
"w 	c #7C695A",
"x 	c #FFFFFF",
"y 	c #896D54",
"z 	c #2E2E2E",
"A 	c #F8F8F8",
"B 	c #4A4A1E",
"C 	c #313114",
"D 	c #EEC174",
"E 	c #FFEEB1",
"F 	c #FEE6A5",
"G 	c #F5CE83",
"H 	c #CEB392",
"I 	c #DADADA",
"J 	c #030303",
"K 	c #111107",
"L 	c #585834",
"M 	c #E1E1D0",
"N 	c #9F9F01",
"O 	c #444407",
"P 	c #141408",
"Q 	c #23230E",
"R 	c #E3B063",
"S 	c #715136",
"T 	c #F4CD85",
"U 	c #F0C67C",
"V 	c #E6C085",
"W 	c #C08545",
"X 	c #B6B6B6",
"Y 	c #ABAB88",
"Z 	c #B9B961",
"` 	c #616122",
" .	c #424215",
"..	c #ACAC06",
"+.	c #28280E",
"@.	c #C38749",
"#.	c #9C7E61",
"$.	c #D1CBC6",
"%.	c #C6C0BA",
"&.	c #DDC098",
"*.	c #E5BA74",
"=.	c #965C31",
"-.	c #C0C0C0",
";.	c #383838",
">.	c #9A9A4E",
",.	c #B3B301",
"'.	c #2B2B04",
").	c #787804",
"!.	c #1F190A",
"~.	c #FFEAAB",
"{.	c #DDAB65",
"].	c #DCDCDC",
"^.	c #EEEEEE",
"/.	c #E9E9E9",
"(.	c #4C4C4C",
"_.	c #92923C",
":.	c #5A5A22",
"<.	c #7E7E08",
"[.	c #353507",
"}.	c #B88E2C",
"|.	c #ACA59E",
"1.	c #ACACAC",
"2.	c #494949",
"3.	c #4C4239",
"4.	c #7E4E28",
"5.	c #545422",
"6.	c #636328",
"7.	c #5E5E0A",
"8.	c #58541A",
"9.	c #C6C3C0",
"0.	c #B0B0B0",
"a.	c #CBC9C6",
"b.	c #D1B38E",
"c.	c #B58553",
"d.	c #472C17",
"e.	c #FCDC96",
"f.	c #744525",
"g.	c #171709",
"h.	c #747409",
"i.	c #98980B",
"j.	c #A5762C",
"k.	c #F9D690",
"l.	c #F3CA7E",
"m.	c #261D0E",
"n.	c #60603E",
"o.	c #3C3C25",
"p.	c #6D492D",
"q.	c #4C2E19",
"r.	c #170E08",
"s.	c #49491A",
"t.	c #60600E",
"u.	c #925307",
"v.	c #9A6007",
"w.	c #7C5E09",
"x.	c #61610B",
"y.	c #6D6D01",
"z.	c #2B2B0B",
"A.	c #B67E42",
"B.	c #A38565",
"C.	c #9F6335",
"D.	c #A96D39",
"E.	c #6D6D06",
"F.	c #D1850B",
"G.	c #EEB111",
"H.	c #B06709",
"I.	c #5C5C16",
"J.	c #9F853C",
"K.	c #616160",
"L.	c #58381F",
"M.	c #603B1E",
"N.	c #CB924E",
"O.	c #4E3F12",
"P.	c #C77C0B",
"Q.	c #9F5608",
"R.	c #904E07",
"S.	c #6D5E1D",
"T.	c #3B2D14",
"U.	c #D79F56",
"V.	c #010100",
"W.	c #2B2B11",
"X.	c #928932",
"Y.	c #D2890D",
"Z.	c #6F3E06",
"`.	c #9F9F44",
" +	c #050502",
".+	c #CE890F",
"++	c #EDAE10",
"@+	c #904F08",
"#+	c #565623",
"$+	c #635E23",
"%+	c #2E260B",
"&+	c #565624",
"*+	c #C6C6C6",
"=+	c #3B3B18",
"-+	c #000000",
";+	c #411C06",
">+	c #53310E",
",+	c #514E1E",
"'+	c #4C290B",
")+	c #4A1E06",
"!+	c #7A310B",
"~+	c #652809",
"{+	c #3E1A05",
"]+	c #E2E2E2",
"^+	c #CBCB89",
"/+	c #EDEDD7",
"(+	c #311404",
"_+	c #5A2508",
":+	c #B14E11",
"<+	c #220E03",
"[+	c #602708",
"}+	c #6D2C0A",
"|+	c #AE4C10",
"1+	c #291104",
"2+	c #89380C",
"3+	c #85350B",
"4+	c #3B1805",
"5+	c #542307",
"6+	c #943C0D",
"7+	c #9A3F0E",
"8+	c #160902",
"                                                                                                ",
"                                                              .                                 ",
"                                                          + @ # $ %                             ",
"                                                          & * = - *                             ",
"                                                        ; > , ' ' # )                           ",
"                                                        ! ~ ' { ] $ ^                           ",
"                                                        / - ( _ : < [                           ",
"                                                ^ }   | > $ ' 1 2 ' .                           ",
"                                              } ' $ 3 ~ # ' ' $ ' '                             ",
"                                              @ ' 4 @ - ' ' ' ' 5 6                             ",
"                                            | 7 - > / ' ' $ > 6 / ' ~ +         8 9 0           ",
"                                              > ' ' > a b & c - ~ - c d       0 e f f g         ",
"                                                h i j k l m n o p q           g f f f r         ",
"                                                s t u v w x f y 8 j         z 8 f f f A         ",
"                                ! ^ & B C       D E F G H x e I x J           j f f f r         ",
"                      K L M # ' ' ' 4 N O - P Q R E E E t S T U V W           0 r f f X         ",
"                    Y     Z ' ' ' 5 > `  ...+.! @.E E E #.$.%.&.*.=.          m g I -.;.        ",
"                  >.    ' ' ' ' ' ' 5 % $ ,.'.).!.~.E {.].^.^.^./.              z (.            ",
"                  $ ' ' ' ' ' ' ' ' ' _.[ - :.<.[.}.T |.^.^.8 ^.1.              2.3.4.          ",
"                  5.' 5 } 6., / / / ~ ' $ - c [ 7.8.9.0.a.b.c.^.e           d.E t @.e.f.        ",
"                g.! } & } @ / @ } C / ' ' ' ~ / h.i.i.j.k.l.m.n.^.o.        W U p.q.r.          ",
"            g.5 ' ' c - = ' ' ' ' ' > @ ' ~ _.' s.t.u.v.w.O % x.m y.z.      A.V B.E C.D.R       ",
"          ) $ ' ' ' = @ 5 ~ ' ' ' ' > ' % ' % ' 4 E.F.G.H.I./ c ! c '     K J.{.K.L.M.N.N.      ",
"          & ' ' ' ' ' ' @ @ ' ' ' ' / ' 5 } c ' O.P.Q.R.S.' 6.~ ' ' ' ~   3 # T.f.U.            ",
"        V.5 ' ' ' ' ' ' ' ' ' ' ' ' @ / @ W.$ X.Y.G.G.Z.5 } > ' ' ' ' `.^ / ' ' >  +            ",
"      V.= ' # 7 ' ' ~ * `.' ' ' ' ' ' ' $ & 5 .+G.++@+5./ ^ ' ' ' ' ' ' ' ' ' $ 3               ",
"      d , c - #+- 5.> $ / > ' ' ' ' ' ' c } 5.$+O.%+^ & +   W.# ' ' ' ' ' ' # 3                 ",
"          ~ ' ' ' ' ' ' ' / - ' ' $ / 4 5.4 / 6.B C 5           c ' ' ' ' 4 P                   ",
"          ~ ' ' ' ' ' ' ' ' 5 } } +     V.g.!                     ! = 5 c                       ",
"          ~ ' ' ' ' ' ' ~ ' ' 3                                                                 ",
"          ~ ' ' ' ' ' = = ' 5                                                                   ",
"          > ' ' ' ' ' ^ ' ' C                                                                   ",
"          ~ ' ' ' ' @ % ' 5                                                                     ",
"          # ' ' ' ' & # ' %                                                                     ",
"          ~ ' ' ' ' & ' ' 3                                         x x x x                     ",
"          &+' ' ' ' & ' 5                                         x       x                     ",
"          ^ ' ' ' # & ' 6.                                        x         x                   ",
"          g.' ' ' = ~ ' C                                         x x     x                     ",
"          ; ' ' ' c ' '                                             x x   x                     ",
"            = ' ' % ' 4                                               x x                       ",
"            ! ' ' 5.' *                                             *+  x x                     ",
"            ; ' ' * ' =+                                          x       x x                   ",
"            -+' ' * ' [                                           x         x                   ",
"            ; ' ' 6.' !                                           x                             ",
"            ;+>+,+3 '+)+!+~+~+{+                                    ]+  ^+/+                    ",
"      (+_+:+:+:+<++ [+:+:+:+:+:+~+                                    ^+^+                      ",
"    }+:+:+:+|+1+        2+:+|+3+4+                                                              ",
"    5+[+6+7+8+                                                                                  "};
