/* XPM */
static char * colonel_xpm[] = {
"45 48 328 2",
"  	c None",
". 	c #29291C",
"+ 	c #191911",
"@ 	c #7B7B52",
"# 	c #929261",
"$ 	c #979765",
"% 	c #666644",
"& 	c #5E5E3F",
"* 	c #71714B",
"= 	c #7C7C53",
"- 	c #75754E",
"; 	c #11110C",
"> 	c #7F7F54",
", 	c #838358",
"' 	c #999966",
") 	c #353523",
"! 	c #494931",
"~ 	c #828257",
"{ 	c #929242",
"] 	c #838349",
"^ 	c #979764",
"/ 	c #57573A",
"( 	c #868659",
"_ 	c #73733D",
": 	c #C7C702",
"< 	c #D7D702",
"[ 	c #787845",
"} 	c #4D4D33",
"| 	c #545438",
"1 	c #606040",
"2 	c #43432C",
"3 	c #7E7E54",
"4 	c #969664",
"5 	c #7A7A2E",
"6 	c #7C7C2D",
"7 	c #2C2C1D",
"8 	c #45452E",
"9 	c #838357",
"0 	c #939362",
"a 	c #797951",
"b 	c #8B8B5D",
"c 	c #8F8F5F",
"d 	c #777750",
"e 	c #43432D",
"f 	c #949462",
"g 	c #74744D",
"h 	c #848458",
"i 	c #989866",
"j 	c #7D7D54",
"k 	c #87875A",
"l 	c #181810",
"m 	c #8F8F8F",
"n 	c #A4A4A4",
"o 	c #808080",
"p 	c #7F7F55",
"q 	c #71710F",
"r 	c #6E6948",
"s 	c #6C6C48",
"t 	c #818156",
"u 	c #6D6D49",
"v 	c #202015",
"w 	c #828282",
"x 	c #AEAEAE",
"y 	c #E6E6E6",
"z 	c #888888",
"A 	c #554F37",
"B 	c #726C58",
"C 	c #939390",
"D 	c #7F6F4D",
"E 	c #6F655B",
"F 	c #7C7C7C",
"G 	c #5C5C5A",
"H 	c #6A5D44",
"I 	c #3C3A28",
"J 	c #323227",
"K 	c #898989",
"L 	c #E4E4E4",
"M 	c #D3D3D3",
"N 	c #F4C493",
"O 	c #E9BA8C",
"P 	c #6F6051",
"Q 	c #9A7D60",
"R 	c #7E756D",
"S 	c #FFFFFF",
"T 	c #84776A",
"U 	c #8F8E8E",
"V 	c #929292",
"W 	c #515151",
"X 	c #8C8C8C",
"Y 	c #DDDDDD",
"Z 	c #555538",
"` 	c #646443",
" .	c #535337",
"..	c #CBA37A",
"+.	c #FFCC99",
"@.	c #F3C292",
"#.	c #D6AC81",
"$.	c #AC9A88",
"%.	c #F6F6F6",
"&.	c #ACACAC",
"*.	c #B6B6B6",
"=.	c #181818",
"-.	c #D0D0D0",
";.	c #333322",
">.	c #8F8F0F",
",.	c #606020",
"'.	c #373725",
").	c #474730",
"!.	c #BE9872",
"~.	c #EBBC8D",
"{.	c #796857",
"].	c #D4AB82",
"^.	c #CFA67E",
"/.	c #C2A282",
"(.	c #A18161",
"_.	c #D2D2D2",
":.	c #9C9C9C",
"<.	c #212116",
"[.	c #8D8D5E",
"}.	c #717146",
"|.	c #5F5F39",
"1.	c #969621",
"2.	c #4C4C2F",
"3.	c #484830",
"4.	c #A48362",
"5.	c #FECB99",
"6.	c #8D7F71",
"7.	c #AEAAA6",
"8.	c #A6A29E",
"9.	c #B9A28B",
"0.	c #C19E7A",
"a.	c #8A6E53",
"b.	c #7E7E7E",
"c.	c #A2A2A2",
"d.	c #585858",
"e.	c #656544",
"f.	c #9A9A0E",
"g.	c #4E4E1A",
"h.	c #7C7C1A",
"i.	c #443D29",
"j.	c #F8C695",
"k.	c #B89471",
"l.	c #B8B8B8",
"m.	c #CCCCCC",
"n.	c #C5C5C5",
"o.	c #656565",
"p.	c #88885B",
"q.	c #6D6D46",
"r.	c #7F7F25",
"s.	c #565623",
"t.	c #9D864F",
"u.	c #D5AB82",
"v.	c #96928E",
"w.	c #8F8E8C",
"x.	c #969696",
"y.	c #636363",
"z.	c #655F59",
"A.	c #7F664C",
"B.	c #6A6A47",
"C.	c #8C8C5D",
"D.	c #616141",
"E.	c #73734C",
"F.	c #86865A",
"G.	c #76764E",
"H.	c #6F6F4A",
"I.	c #4C4C33",
"J.	c #6F6F29",
"K.	c #6C6A3E",
"L.	c #A6A4A2",
"M.	c #989898",
"N.	c #AAA8A6",
"O.	c #AE9A86",
"P.	c #9B8269",
"Q.	c #624F3B",
"R.	c #FDCA98",
"S.	c #EDBE8E",
"T.	c #A48363",
"U.	c #E6B88A",
"V.	c #7B624A",
"W.	c #383826",
"X.	c #5F5F3F",
"Y.	c #636342",
"Z.	c #7A7A51",
"`.	c #525237",
" +	c #7A7A27",
".+	c #898928",
"++	c #8D8D2E",
"@+	c #927B4F",
"#+	c #DEB287",
"$+	c #D3A97F",
"%+	c #4A422F",
"&+	c #70705C",
"*+	c #5B5B49",
"=+	c #A28261",
"-+	c #CCA57E",
";+	c #776350",
">+	c #65513D",
",+	c #3B3024",
"'+	c #3B3B27",
")+	c #8E8E5F",
"!+	c #76764F",
"~+	c #7D7D53",
"{+	c #989865",
"]+	c #88885A",
"^+	c #63633E",
"/+	c #70702F",
"(+	c #886922",
"_+	c #8C7023",
":+	c #7E6F27",
"<+	c #606023",
"[+	c #676745",
"}+	c #71712A",
"|+	c #7D7D7B",
"1+	c #77770E",
"2+	c #4E4E2B",
"3+	c #9C7F5F",
"4+	c #C2A181",
"5+	c #918273",
"6+	c #8F7256",
"7+	c #947759",
"8+	c #BD9872",
"9+	c #7C7C52",
"0+	c #777720",
"a+	c #AE822B",
"b+	c #CC9933",
"c+	c #987427",
"d+	c #6E6E3A",
"e+	c #6E6E49",
"f+	c #313121",
"g+	c #8F825B",
"h+	c #B99674",
"i+	c #717170",
"j+	c #6C5844",
"k+	c #705A43",
"l+	c #AA8866",
"m+	c #5D5D3E",
"n+	c #626242",
"o+	c #665D34",
"p+	c #A77E2A",
"q+	c #8F6B24",
"r+	c #876622",
"s+	c #776F42",
"t+	c #72724C",
"u+	c #46462F",
"v+	c #5A5038",
"w+	c #786048",
"x+	c #B38F6B",
"y+	c #0E0E09",
"z+	c #4E4E34",
"A+	c #888454",
"B+	c #AF842D",
"C+	c #785C21",
"D+	c #8F8F60",
"E+	c #1D1D13",
"F+	c #0F0F0A",
"G+	c #959563",
"H+	c #8F8D5C",
"I+	c #AC8431",
"J+	c #CA9732",
"K+	c #876725",
"L+	c #6B6A45",
"M+	c #858558",
"N+	c #565639",
"O+	c #232317",
"P+	c #6B6B47",
"Q+	c #858559",
"R+	c #6E6E4A",
"S+	c #626241",
"T+	c #696945",
"U+	c #726F47",
"V+	c #665D35",
"W+	c #514A2B",
"X+	c #4D4D34",
"Y+	c #909060",
"Z+	c #929262",
"`+	c #47472F",
" @	c #808055",
".@	c #77774F",
"+@	c #959564",
"@@	c #8A8A5C",
"#@	c #646442",
"$@	c #505035",
"%@	c #363624",
"&@	c #0D0D09",
"*@	c #3A3A27",
"=@	c #4B4B32",
"-@	c #8C8C5E",
";@	c #515136",
">@	c #6B6B48",
",@	c #393926",
"'@	c #828256",
")@	c #12120C",
"!@	c #4A4A31",
"~@	c #696946",
"{@	c #70704B",
"]@	c #13130D",
"^@	c #5A5A3C",
"/@	c #040403",
"(@	c #10100B",
"_@	c #4A4A32",
":@	c #5E4121",
"<@	c #695330",
"[@	c #686643",
"}@	c #44442E",
"|@	c #654D2B",
"1@	c #644321",
"2@	c #7D532A",
"3@	c #724C26",
"4@	c #734C26",
"5@	c #5C3E1F",
"6@	c #53371C",
"7@	c #6D4924",
"8@	c #986633",
"9@	c #996633",
"0@	c #462F18",
"a@	c #17160E",
"b@	c #704B25",
"c@	c #734D26",
"d@	c #774F28",
"e@	c #976532",
"f@	c #4D331A",
"g@	c #84582C",
"h@	c #82562B",
"i@	c #5A3C1E",
"j@	c #6A4723",
"k@	c #895B2E",
"l@	c #8C5D2F",
"m@	c #3A2713",
"                                                                                          ",
"                                                          .                               ",
"                                                      + @ # $ %                           ",
"                                                      & * = - *                           ",
"                                                    ; > , ' ' # )                         ",
"                                                    ! ~ ' { ] ^ /                         ",
"                                                    ( - _ : < [ }                         ",
"                                            | 1   2 3 4 ' 5 6 ' 7                         ",
"                                          1 ' $ 8 9 0 ' ' ^ ' '                           ",
"                                          a ' b @ - ' ' ' ' c d                           ",
"                                        e f g 3 h i ' $ j d k ' 9 l         m n o         ",
"                                          p ' ' p q r & s g t g u v       w x y y z       ",
"                                            A B C D E F G H I J           K L y y M       ",
"                                            N O P Q R S y T U V         W X y y y Y       ",
"                            ! Z & `  .      ..+.@.#.$.%.&.*.S =.          V y y y -.      ",
"                  ;.1 = # ' ' ' b >.,.g '.).!.+.+.+.~.{.].^./.(.          w _.y y :.      ",
"              <.- ' ' ' ' ' ' [.3 }.|.1.2.3.4.+.+.5.6.7.8.9.0.a.          b.K *.c.d.      ",
"              ( ' ' ' ' ' ' ' ' c e.$ f.g.h.i.j.+.k.l.m.m.m.n.              W o.          ",
"              4 ' ' ' ' ' ' ' ' ' p.} g q.r.s.t.u.v.m.m.w.m.x.              y.z.A.        ",
"              B.' C.D.E., F.F.F.~ i 4 G.H.I.J.K.L.M.N.O.P.m.x           Q.R.S.T.U.V.      ",
"            W.I.1 X.Y.Z.F.@ 1 `.h ' ' ' ~ h  +.+++@+#+$+%+&+m.*+        =+-+;+>+,+        ",
"        '+)+' ' u !+~+' ' ' ' ' 3 @ {+t ]+' ^+/+(+_+:+<+[+}+|+1+2+      3+4+5++.6+7+8+    ",
"      ) $ ' ' ' 9+a c ~ ' ' ' ' 3 ' e.{+[+' b 0+a+b+c+d+h e+3.e+'     f+g+h+i+j+k+l+l+    ",
"      m+' ' ' ' ' i a Z.' ' ' ' h ' c n+u ' o+p+q+r+s+' t+~ ' ' ' 9   u+# v+w+x+          ",
"    y+)+' ' ' ' ' ' ' ' ' ' ' ' Z.F.a z+4 A+B+b+b+C+[.D.p ' ' ' ' D+| h ' ' p E+          ",
"  F+~+' # G+' {+~ * D+' ' ' ' ' ' ' 4 m+H+I+b+J+K+L+M+N+' ' ' ' ' ' ' ' ' 4 8             ",
"  O+, s !+P+g P+3 4 Q+3 ' ' ' ' ' ' R+S+T+U+V+W+| X.+   X+Y+' ' ' ' ' ' Z+`+              ",
"       @' ' ' ' ' ' ' ( .@' ' +@F.b P+@@( t+#@$@[.          H.' ' ' ' b %@                ",
"       @' ' ' ' ' ' ' ' )+1 Y.l     &@*@!                     =@~+-@e+                    ",
"       @' ' ' ' ' ' ~ ' ' `+                                                              ",
"       @' ' ' ' ' = ~+' C.                                                                ",
"       @' ' ' ' ' N+' ' ;@                                                                ",
"      t ' ' ' ' Z.[+' c                                                                   ",
"      0 ' ' ' ' m+0 ' %                                                                   ",
"       @' ' ' ' X.' ' 8                                                                   ",
"      >@' ' ' ' m+' C.                                                                    ",
"      / ' ' ' 0 & ' t+                                                                    ",
"      ,@' ' ' ~+'@' ;@                                                                    ",
"      )@{+' ' H.{+{+                                                                      ",
"        = ' ' % ' @@                                                                      ",
"        !@' ' ~@' {@                                                                      ",
"        ]@' ' {@' ^@                                                                      ",
"        /@' ' {@' I.                                                                      ",
"        (@' ' t+' _@                                                                      ",
"        :@<@[@}@|@1@2@3@4@5@                                                              ",
"  6@7@8@9@9@0@a@b@9@9@9@9@9@c@                                                            ",
"d@9@9@9@e@f@        g@9@e@h@i@                                                            ",
"j@b@k@l@m@                                                                                "};
