/* XPM */
static char * flag_xpm[] = {
"48 48 27 1",
" 	c None",
".	c #685922",
"+	c #786527",
"@	c #463C17",
"#	c #FDD953",
"$	c #FFDA54",
"%	c #65441B",
"&	c #D0A841",
"*	c #E4B647",
"=	c #33220E",
"-	c #000000",
";	c #0F0A04",
">	c #786837",
",	c #7A5E25",
"'	c #479B4E",
")	c #27180A",
"!	c #FFDC7D",
"~	c #FFC04C",
"{	c #3C2610",
"]	c #2E1D0C",
"^	c #34210D",
"/	c #2A5D2E",
"(	c #422911",
"_	c #291A0B",
":	c #FFDA77",
"<	c #826C2A",
"[	c #816327",
"                                                ",
"                                                ",
"                                                ",
"                                                ",
"                                                ",
"                                                ",
"                                                ",
"                                                ",
"  .+                                            ",
" @#$%                                           ",
"  &*=                  ----------               ",
" ;>,                 ---''''''''----            ",
" )!~{---           ---'''''''''''''---          ",
" ]!~{-'----      ---'''''''''''''''''----       ",
" ^!~{-'''/--------''''''''''''''''''''''------- ",
"  !~{-''''''''''''''''''''''''''''''''''''''''- ",
"  !~{-''''''''''''''''''''''''''''''''''''''''- ",
"  !~{-''''''''''''''''''''''''''''''''''''''''- ",
"  !~{-''''''''''''''''''''''''''''''''''''''''- ",
"  !~{-''''''''''''''''''''''''''''''''''''''''- ",
"  !~{-''''''''''''''''''''''''''''''''''''''''- ",
"  !~{-''''''''''''''''''''''''''''''''''''''''- ",
"  !~{-''''''''''''''''''''''''''''''''''''''''- ",
"  !~{-''''''''''''''''''''''''''''''''''''''''- ",
"  !~{-''''''''''''''''''''''''''''''''''''''''- ",
"  !~{-''''''''''''''''''''''''''''''''''''''''- ",
"  !~{-''''''''''''''''''''''''''''''''''''''''- ",
"  !~{-''''''''''''''''''''''''''''''''''''''''- ",
"  !~{-''''''''''''''''''''''''''''''''''''''''- ",
"  !~{-''''''''''''''''''''''''''''''''''''''''- ",
"  !~{-''''''''''''''''''''''''''''''''''''''''- ",
"  !~(-''''''''''''''''''''''''''''''''''''''''- ",
"  !~(-''''''''''''''''''''''''----''''''''''''- ",
"  !~(--''''''''''''''''''''----  -----''''''''- ",
"  !~( ---''''''''''''''''---         ---''''''- ",
"  !~(   ----'''''''''''---             ---''''- ",
"  !~(      ----'''''----                 ------ ",
"  !~(         -------                           ",
" ^!~(                                           ",
" _:~(                                           ",
"  <[                                            ",
"                                                ",
"                                                ",
"                                                ",
"                                                ",
"                                                ",
"                                                ",
"                                                "};
