/* XPM */
static char * red_flag_xpm[] = {
"47 33 115 2",
"  	c None",
". 	c #685922",
"+ 	c #786527",
"@ 	c #463C17",
"# 	c #FDD953",
"$ 	c #FFDA54",
"% 	c #65441B",
"& 	c #D0A841",
"* 	c #E4B647",
"= 	c #33220E",
"- 	c #880000",
"; 	c #A50000",
"> 	c #D10000",
", 	c #C80000",
"' 	c #A70000",
") 	c #8F0000",
"! 	c #570000",
"~ 	c #0F0A04",
"{ 	c #786837",
"] 	c #7A5E25",
"^ 	c #A60000",
"/ 	c #BE0000",
"( 	c #FD0000",
"_ 	c #FF0000",
": 	c #DF0000",
"< 	c #9F0000",
"[ 	c #27180A",
"} 	c #FFDC7D",
"| 	c #FFC04C",
"1 	c #3C2610",
"2 	c #690000",
"3 	c #510000",
"4 	c #4F0000",
"5 	c #D40000",
"6 	c #B00000",
"7 	c #7E0000",
"8 	c #2E1D0C",
"9 	c #AE0000",
"0 	c #C90000",
"a 	c #650000",
"b 	c #0C0000",
"c 	c #B10000",
"d 	c #E20000",
"e 	c #840000",
"f 	c #280000",
"g 	c #34210D",
"h 	c #ED0000",
"i 	c #AC0000",
"j 	c #830000",
"k 	c #5B0000",
"l 	c #560000",
"m 	c #8D0000",
"n 	c #D70000",
"o 	c #FE0000",
"p 	c #E80000",
"q 	c #B80000",
"r 	c #9C0000",
"s 	c #9D0000",
"t 	c #CC0000",
"u 	c #670000",
"v 	c #770000",
"w 	c #7F0000",
"x 	c #8C0000",
"y 	c #9B0000",
"z 	c #8E0000",
"A 	c #E30000",
"B 	c #B60000",
"C 	c #3E2710",
"D 	c #910000",
"E 	c #422911",
"F 	c #970000",
"G 	c #F90000",
"H 	c #D20000",
"I 	c #AF0000",
"J 	c #BB0000",
"K 	c #580000",
"L 	c #F10000",
"M 	c #5E0000",
"N 	c #140000",
"O 	c #170000",
"P 	c #5D0000",
"Q 	c #A20000",
"R 	c #E70000",
"S 	c #290000",
"T 	c #920000",
"U 	c #F50000",
"V 	c #950000",
"W 	c #100000",
"X 	c #860000",
"Y 	c #D50000",
"Z 	c #9A0000",
"` 	c #700000",
" .	c #BD0000",
"..	c #F60000",
"+.	c #8A0000",
"@.	c #1D0000",
"#.	c #4E0000",
"$.	c #A80000",
"%.	c #F70000",
"&.	c #3B0000",
"*.	c #930000",
"=.	c #DA0000",
"-.	c #C20000",
";.	c #1E0000",
">.	c #730000",
",.	c #9E0000",
"'.	c #CD0000",
").	c #8B0000",
"!.	c #4C0000",
"~.	c #420000",
"{.	c #4A0000",
"].	c #291A0B",
"^.	c #FFDA77",
"/.	c #826C2A",
"(.	c #816327",
"  . +                                                                                         ",
"@ # $ %                                                                                       ",
"  & * =                                         - ; > , ' ) !                                 ",
"~ { ]                                     ^ / ( _ _ _ _ _ _ _ : <                             ",
"[ } | 1 2 3                           4 5 _ _ _ _ _ _ _ _ _ _ _ _ ( 6 7                       ",
"8 } | 1 9 _ 0 a b                 ! c ( _ _ _ _ _ _ _ _ _ _ _ _ _ _ _ _ d e f                 ",
"g } | 1 9 _ _ _ h i j 3 k k l m n _ _ _ _ _ _ _ _ _ _ _ _ _ _ _ _ _ _ _ _ _ o p q r r s t u   ",
"  } | 1 9 _ _ _ _ _ _ _ _ _ _ _ _ _ _ _ _ _ _ _ _ _ _ _ _ _ _ _ _ _ _ _ _ _ _ _ _ _ _ _ _ v   ",
"  } | 1 9 _ _ _ _ _ _ _ _ _ _ _ _ _ _ _ _ _ _ _ _ _ _ _ _ _ _ _ _ _ _ _ _ _ _ _ _ _ _ _ _ v   ",
"  } | 1 9 _ _ _ _ _ _ _ _ _ _ _ _ _ _ _ _ _ _ _ _ _ _ _ _ _ _ _ _ _ _ _ _ _ _ _ _ _ _ _ _ v   ",
"  } | 1 9 _ _ _ _ _ _ _ _ _ _ _ _ _ _ _ _ _ _ _ _ _ _ _ _ _ _ _ _ _ _ _ _ _ _ _ _ _ _ _ _ v   ",
"  } | 1 9 _ _ _ _ _ _ _ _ _ _ _ _ _ _ _ _ _ _ _ _ _ _ _ _ _ _ _ _ _ _ _ _ _ _ _ _ _ _ _ _ w   ",
"  } | 1 9 _ _ _ _ _ _ _ _ _ _ _ _ _ _ _ _ _ _ _ _ _ _ _ _ _ _ _ _ _ _ _ _ _ _ _ _ _ _ _ _ x   ",
"  } | 1 y _ _ _ _ _ _ _ _ _ _ _ _ _ _ _ _ _ _ _ _ _ _ _ _ _ _ _ _ _ _ _ _ _ _ _ _ _ _ _ _ z   ",
"  } | 1 s _ _ _ _ _ _ _ _ _ _ _ _ _ _ _ _ _ _ _ _ _ _ _ _ _ _ _ _ _ _ _ _ _ _ _ _ _ _ _ _ z   ",
"  } | 1 A _ _ _ _ _ _ _ _ _ _ _ _ _ _ _ _ _ _ _ _ _ _ _ _ _ _ _ _ _ _ _ _ _ _ _ _ _ _ _ _ z   ",
"  } | 1 B _ _ _ _ _ _ _ _ _ _ _ _ _ _ _ _ _ _ _ _ _ _ _ _ _ _ _ _ _ _ _ _ _ _ _ _ _ _ _ _ z   ",
"  } | 1 m _ _ _ _ _ _ _ _ _ _ _ _ _ _ _ _ _ _ _ _ _ _ _ _ _ _ _ _ _ _ _ _ _ _ _ _ _ _ _ _ z   ",
"  } | 1 m _ _ _ _ _ _ _ _ _ _ _ _ _ _ _ _ _ _ _ _ _ _ _ _ _ _ _ _ _ _ _ _ _ _ _ _ _ _ _ _ z   ",
"  } | 1 m _ _ _ _ _ _ _ _ _ _ _ _ _ _ _ _ _ _ _ _ _ _ _ _ _ _ _ _ _ _ _ _ _ _ _ _ _ _ _ _ z   ",
"  } | 1 m _ _ _ _ _ _ _ _ _ _ _ _ _ _ _ _ _ _ _ _ _ _ _ _ _ _ _ _ _ _ _ _ _ _ _ _ _ _ _ _ m   ",
"  } | 1 m _ _ _ _ _ _ _ _ _ _ _ _ _ _ _ _ _ _ _ _ _ _ _ _ _ _ _ _ _ _ _ _ _ _ _ _ _ _ _ _ r   ",
"  } | C D _ _ _ _ _ _ _ _ _ _ _ _ _ _ _ _ _ _ _ _ _ _ _ _ _ _ _ _ _ _ _ _ _ _ _ _ _ _ _ _ r   ",
"  } | E F _ _ _ _ _ _ _ _ _ _ _ _ _ _ _ _ _ _ _ _ _ _ _ _ _ _ _ _ _ _ _ _ _ _ _ _ _ _ _ _ r   ",
"  } | E F _ _ _ _ _ _ _ _ _ _ _ _ _ _ _ _ _ _ _ _ _ _ _ G H I J n G _ _ _ _ _ _ _ _ _ _ _ r   ",
"  } | E K 0 ( _ _ _ _ _ _ _ _ _ _ _ _ _ _ _ _ _ _ L D M N         O P Q R _ _ _ _ _ _ _ _ r   ",
"  } | E     S T L _ _ _ _ _ _ _ _ _ _ _ _ _ _ U V f                     W X Y _ _ _ _ _ _ Z   ",
"  } | E           `  .( _ _ _ _ _ _ _ _ _ ..+.@.                              #.$.%._ _ _ Z   ",
"  } | E               &.*.=._ _ _ _ ( -.x                                         ;.>.,.'.).  ",
"  } | E                       !.~.{.                                                          ",
"g } | E                                                                                       ",
"].^.| E                                                                                       ",
"  /.(.                                                                                        "};
