/* XPM */
static char * flag_xpm[] = {
"48 48 36 1",
" 	c None",
".	c #685922",
"+	c #786527",
"@	c #463C17",
"#	c #FDD953",
"$	c #FFDA54",
"%	c #65441B",
"&	c #D0A841",
"*	c #E4B647",
"=	c #33220E",
"-	c #000000",
";	c #0F0A04",
">	c #786837",
",	c #7A5E25",
"'	c #479B4E",
")	c #27180A",
"!	c #FFDC7D",
"~	c #FFC04C",
"{	c #3C2610",
"]	c #2E1D0C",
"^	c #34210D",
"/	c #2A5D2E",
"(	c #5BA561",
"_	c #ACD2AF",
":	c #FFFFFF",
"<	c #84BC89",
"[	c #C1DDC4",
"}	c #6FB074",
"|	c #98C79C",
"1	c #D5E8D7",
"2	c #EAF3EA",
"3	c #422911",
"4	c #291A0B",
"5	c #FFDA77",
"6	c #826C2A",
"7	c #816327",
"                                                ",
"                                                ",
"                                                ",
"                                                ",
"                                                ",
"                                                ",
"                                                ",
"                                                ",
"  .+                                            ",
" @#$%                                           ",
"  &*=                  ----------               ",
" ;>,                 ---''''''''----            ",
" )!~{---           ---'''''''''''''---          ",
" ]!~{-'----      ---'''''''''''''''''----       ",
" ^!~{-'''/--------''''''''''''''''''''''------- ",
"  !~{-''''''''''''''''''''''''''''''''''''''''- ",
"  !~{-''''''''''''''''''''''''''''''''''''''''- ",
"  !~{-''''''''''''''''''''''''''''''''''''''''- ",
"  !~{-''''''''''''''''''''''''''''''''''''''''- ",
"  !~{-'''''''''''(_::_<<_:['''''''''''''''''''- ",
"  !~{-''''''''''''':[''''}_'''''''''''''''''''- ",
"  !~{-''''''''''''':['''''}'''''''''''''''''''- ",
"  !~{-''''''''''''':['''''''''''''''''''''''''- ",
"  !~{-''''''''''''':[''''|''''''''''''''''''''- ",
"  !~{-''''''''''''':['''}[''''''''''''''''''''- ",
"  !~{-''''''''''''':1<<<_[''''''''''''''''''''- ",
"  !~{-''''''''''''':[''''[''''''''''''''''''''- ",
"  !~{-''''''''''''':['''''''''''''''''''''''''- ",
"  !~{-''''''''''''':['''''''''''''''''''''''''- ",
"  !~{-''''''''''''':['''''''''''''''''''''''''- ",
"  !~{-'''''''''''(|:2|('''''''''''''''''''''''- ",
"  !~3-'''''''''''(<<<<('''''''''''''''''''''''- ",
"  !~3-''''''''''''''''''''''''----''''''''''''- ",
"  !~3--''''''''''''''''''''----  -----''''''''- ",
"  !~3 ---''''''''''''''''---         ---''''''- ",
"  !~3   ----'''''''''''---             ---''''- ",
"  !~3      ----'''''----                 ------ ",
"  !~3         -------                           ",
" ^!~3                                           ",
" 45~3                                           ",
"  67                                            ",
"                                                ",
"                                                ",
"                                                ",
"                                                ",
"                                                ",
"                                                ",
"                                                "};
