/* XPM */
static char * general_xpm[] = {
"30 48 218 2",
"  	c None",
". 	c #6E6E00",
"+ 	c #7C7C00",
"@ 	c #5A5A00",
"# 	c #808000",
"$ 	c #919100",
"% 	c #8B8B00",
"& 	c #565600",
"* 	c #8C8C00",
"= 	c #4C4C00",
"- 	c #585800",
"; 	c #8F8F00",
"> 	c #515100",
", 	c #454500",
"' 	c #8E8E00",
") 	c #4D4D00",
"! 	c #222200",
"~ 	c #898900",
"{ 	c #8D8D00",
"] 	c #6D6D00",
"^ 	c #272700",
"/ 	c #888800",
"( 	c #878700",
"_ 	c #7E7E00",
": 	c #575712",
"< 	c #1B1B1B",
"[ 	c #505000",
"} 	c #868600",
"| 	c #787800",
"1 	c #4F4F41",
"2 	c #3E2C0E",
"3 	c #666600",
"4 	c #909000",
"5 	c #6F6F00",
"6 	c #33332A",
"7 	c #A3711C",
"8 	c #797900",
"9 	c #464611",
"0 	c #35250B",
"a 	c #2A2010",
"b 	c #767600",
"c 	c #575715",
"d 	c #3B3B3B",
"e 	c #252525",
"f 	c #000000",
"g 	c #878708",
"h 	c #5D5D3C",
"i 	c #3A3A3A",
"j 	c #070707",
"k 	c #6B6B6B",
"l 	c #8D8D8D",
"m 	c #282828",
"n 	c #616100",
"o 	c #7D7D1E",
"p 	c #5D5D54",
"q 	c #262626",
"r 	c #242424",
"s 	c #7F7F7F",
"t 	c #0D0D0D",
"u 	c #656565",
"v 	c #9A9A9A",
"w 	c #636363",
"x 	c #0C0C0C",
"y 	c #646428",
"z 	c #535353",
"A 	c #141414",
"B 	c #0A0A0A",
"C 	c #7C7C7C",
"D 	c #7B7B7B",
"E 	c #0B0B0B",
"F 	c #020202",
"G 	c #555555",
"H 	c #A6A6A6",
"I 	c #6E6E6E",
"J 	c #878702",
"K 	c #5D5D3A",
"L 	c #444444",
"M 	c #050505",
"N 	c #1B1612",
"O 	c #867564",
"P 	c #857462",
"Q 	c #777700",
"R 	c #888804",
"S 	c #5E5E46",
"T 	c #0D0B09",
"U 	c #554739",
"V 	c #9F856A",
"W 	c #2E261F",
"X 	c #967E65",
"Y 	c #F0C9A1",
"Z 	c #A2886D",
"` 	c #858500",
" .	c #595942",
"..	c #393939",
"+.	c #010101",
"@.	c #090806",
"#.	c #73604D",
"$.	c #C8A886",
"%.	c #D3B18E",
"&.	c #BD9E7F",
"*.	c #DAB692",
"=.	c #BB9C7D",
"-.	c #7D7D00",
";.	c #919002",
">.	c #9C8950",
",.	c #6D5E4E",
"'.	c #1D1A16",
").	c #605446",
"!.	c #E9C39C",
"~.	c #AA8E72",
"{.	c #372E25",
"].	c #DAB792",
"^.	c #C9A887",
"/.	c #373700",
"(.	c #737300",
"_.	c #867E21",
":.	c #BB9D7E",
"<.	c #8D806D",
"[.	c #9D8A72",
"}.	c #7D6954",
"|.	c #B89A7C",
"1.	c #D8B591",
"2.	c #B7997B",
"3.	c #927A61",
"4.	c #CFAD8B",
"5.	c #A0866B",
"6.	c #B99C7D",
"7.	c #EEC8A0",
"8.	c #B39678",
"9.	c #957C64",
"0.	c #AB8F73",
"a.	c #776450",
"b.	c #937B62",
"c.	c #595900",
"d.	c #696900",
"e.	c #8A735D",
"f.	c #CFAE8B",
"g.	c #C5A584",
"h.	c #BC9D7E",
"i.	c #88725B",
"j.	c #B59779",
"k.	c #CBAA88",
"l.	c #E7C19B",
"m.	c #EDC69F",
"n.	c #D9B591",
"o.	c #DBB793",
"p.	c #7E6954",
"q.	c #DBB893",
"r.	c #ECC59E",
"s.	c #CCAB89",
"t.	c #E5C09A",
"u.	c #D6B490",
"v.	c #CEAD8A",
"w.	c #AA8F72",
"x.	c #BC9E7E",
"y.	c #D1AF8C",
"z.	c #E6C19A",
"A.	c #D0AE8B",
"B.	c #B5987A",
"C.	c #A68B6F",
"D.	c #B09376",
"E.	c #D0AF8C",
"F.	c #8C755E",
"G.	c #68704D",
"H.	c #C7A685",
"I.	c #B6987A",
"J.	c #A78C70",
"K.	c #AD9174",
"L.	c #6B754F",
"M.	c #9E9B70",
"N.	c #BE9F7F",
"O.	c #D5B28F",
"P.	c #CDAC8A",
"Q.	c #EDC79F",
"R.	c #8D9A69",
"S.	c #8A8A63",
"T.	c #AE9275",
"U.	c #BA9C7D",
"V.	c #758057",
"W.	c #A8B87D",
"X.	c #96A470",
"Y.	c #C5A684",
"Z.	c #B6997A",
"`.	c #A6B57B",
" +	c #8A8662",
".+	c #EFC8A0",
"++	c #DEBA95",
"@+	c #7D895D",
"#+	c #9CAB74",
"$+	c #9F8D6D",
"%+	c #70634D",
"&+	c #9DAC75",
"*+	c #97A570",
"=+	c #8C7C60",
"-+	c #666E4B",
";+	c #646E4B",
">+	c #555E3E",
",+	c #96A46F",
"'+	c #98A771",
")+	c #546237",
"!+	c #7F9157",
"~+	c #52593D",
"{+	c #A7B77D",
"]+	c #5A6A38",
"^+	c #576D2F",
"/+	c #636D4A",
"(+	c #525E36",
"_+	c #2A3D0A",
":+	c #0B1003",
"<+	c #283A0A",
"[+	c #39530E",
"}+	c #3D590F",
"|+	c #2D410B",
"1+	c #1F2D08",
"2+	c #2B3F0B",
"3+	c #233409",
"4+	c #1A2606",
"5+	c #2A3E0A",
"                                                            ",
"                                                            ",
"                                                            ",
"                                      . + @                 ",
"                                    # $ %                   ",
"                                & * $ $ =                   ",
"                              - ; $ $ >                     ",
"                            , ' $ $ ) !                     ",
"                            ~ $ { ] @ ^                     ",
"                          / $ ( _ $ : <                     ",
"                      [ ~ $ } | $ $ 1 2                     ",
"                    3 4 $ 4 5 $ $ $ 6 7                     ",
"                  8 $ $ $ / ' $ $ $ 9 0 a                   ",
"                b $ $ $ $ $ $ $ $ ; c d e f                 ",
"              5 $ $ $ $ $ $ $ $ g h i j k l m f f           ",
"            n $ $ $ $ $ $ $ $ o p q r s q t u v w x f       ",
"            ; $ $ $ $ $ $ { y z A f f B C D E F G H I j f   ",
"          ] $ $ { + $ $ J K L M f f f f N O P               ",
"          { $ $ Q ~ $ R S d F f T U V W X Y Y Z             ",
"          $ $ $ @ $ `  ...+.@.#.$.%.&.@.*.Y Y =.            ",
"        > $ $ $ -.;.>.,.'.).!.Y Y Y ~.{.].Y Y ^.            ",
"        /.$ $ / (._.%.:.<.[.Y Y Y Y }.|.1.Y Y 2.            ",
"          / $ (.  3.4.5.6.].Y Y Y 7.8.9.0.a.b.              ",
"          c.$ d.  e.f.g.Y Y Y Y Y h.Y Y i.                  ",
"                    j.k.l.m.Y Y n.o.Y m.                    ",
"                    p.q.r.s.t.Y u.Y v.                      ",
"                      w.v.x.y.Y z.1.A.                      ",
"                    }.B.C.x.D.Y E.8.F.                      ",
"                  G.*.H.I.4.J.Y Y K.                        ",
"                L.M.Y Y y.N.O.P.Q.                          ",
"                R.S.Y Y 7.T.Y U.9.                          ",
"              V.W.X.Y.Y Y &.o.Z.                            ",
"                `.W. +.+Y ++                                ",
"                @+W.#+$+Y %+                                ",
"                  &+W.*+=+-+                                ",
"                  ;+W.W.>+,+                                ",
"                    '+W.)+!+                                ",
"                    ~+{+]+^+                                ",
"                      /+(+_+                                ",
"                          :+                                ",
"                          <+                                ",
"                          [+                                ",
"                          }+                                ",
"                        |+}+1+                              ",
"                        2+}+3+                              ",
"                        4+}+1+                              ",
"                          5+                                ",
"                                                            "};
