/* XPM */
static char * lieutenant_xpm[] = {
"48 48 276 2",
"  	c None",
". 	c #6B6B47",
"+ 	c #74744D",
"@ 	c #787850",
"# 	c #696946",
"$ 	c #535337",
"% 	c #969664",
"& 	c #999966",
"* 	c #868659",
"= 	c #42422C",
"- 	c #6B6B48",
"; 	c #7E7E54",
"> 	c #929261",
", 	c #000000",
"' 	c #989866",
") 	c #494930",
"! 	c #4C4C33",
"~ 	c #6E6E49",
"{ 	c #72714C",
"] 	c #7D7B52",
"^ 	c #77774F",
"/ 	c #716F4B",
"( 	c #7E7B54",
"_ 	c #9A9364",
": 	c #7F7F54",
"< 	c #7B7B52",
"[ 	c #817954",
"} 	c #DCB48D",
"| 	c #C1A78D",
"1 	c #E3BA88",
"2 	c #CCBBAA",
"3 	c #C4BEB7",
"4 	c #FDCA98",
"5 	c #D3AF7E",
"6 	c #C0B173",
"7 	c #EDBD8E",
"8 	c #5F523B",
"9 	c #6F6F4A",
"0 	c #797951",
"a 	c #9D968F",
"b 	c #796F64",
"c 	c #FFCC99",
"d 	c #948E88",
"e 	c #E0D9D3",
"f 	c #DCB084",
"g 	c #D0A77E",
"h 	c #E0B486",
"i 	c #BE9972",
"j 	c #8E8E5F",
"k 	c #979765",
"l 	c #B39374",
"m 	c #A98867",
"n 	c #F0C090",
"o 	c #7B6753",
"p 	c #E7BB8F",
"q 	c #EEBF90",
"r 	c #A69788",
"s 	c #C3A578",
"t 	c #89895C",
"u 	c #828257",
"v 	c #8F8F60",
"w 	c #8C8C50",
"x 	c #D6D600",
"y 	c #B0B000",
"z 	c #59593C",
"A 	c #B4966E",
"B 	c #CCA47B",
"C 	c #EEBE8F",
"D 	c #E2B588",
"E 	c #F5C493",
"F 	c #C5A07B",
"G 	c #F3C392",
"H 	c #898359",
"I 	c #6D6D48",
"J 	c #939362",
"K 	c #8E8E5D",
"L 	c #FFFF00",
"M 	c #FAFA00",
"N 	c #A8A818",
"O 	c #666644",
"P 	c #3A3A27",
"Q 	c #797950",
"R 	c #6A6A47",
"S 	c #9F8963",
"T 	c #E3B688",
"U 	c #E7B98B",
"V 	c #917D5A",
"W 	c #9A9A5B",
"X 	c #CFCF0B",
"Y 	c #777750",
"Z 	c #909060",
"` 	c #B4996F",
" .	c #B1936C",
"..	c #8B8B5C",
"+.	c #7D7D53",
"@.	c #A0A03E",
"#.	c #CBCB16",
"$.	c #818156",
"%.	c #505035",
"&.	c #BB9B72",
"*.	c #FECB98",
"=.	c #9E8360",
"-.	c #7C7B52",
";.	c #75754E",
">.	c #989865",
",.	c #C2C212",
"'.	c #A3A333",
").	c #706F4A",
"!.	c #72704B",
"~.	c #736E4B",
"{.	c #96845E",
"].	c #827954",
"^.	c #959563",
"/.	c #6C6C48",
"(.	c #808056",
"_.	c #696936",
":.	c #F7F700",
"<.	c #D8D810",
"[.	c #959562",
"}.	c #919160",
"|.	c #7F7F55",
"1.	c #808055",
"2.	c #7A7A51",
"3.	c #656544",
"4.	c #858559",
"5.	c #5D5D3B",
"6.	c #3B3B08",
"7.	c #636333",
"8.	c #616141",
"9.	c #6D6D49",
"0.	c #717150",
"a.	c #5F5F3F",
"b.	c #848458",
"c.	c #86865A",
"d.	c #7C7C53",
"e.	c #838357",
"f.	c #74744E",
"g.	c #636342",
"h.	c #959564",
"i.	c #8A8A5C",
"j.	c #929262",
"k.	c #7A7A52",
"l.	c #5C5C3E",
"m.	c #919161",
"n.	c #828256",
"o.	c #8F8F5F",
"p.	c #8B8B5D",
"q.	c #383825",
"r.	c #89895B",
"s.	c #5C5C3D",
"t.	c #535338",
"u.	c #73734D",
"v.	c #7B7450",
"w.	c #706B49",
"x.	c #8C8C5D",
"y.	c #73734C",
"z.	c #949463",
"A.	c #B1916B",
"B.	c #4D442C",
"C.	c #8E7255",
"D.	c #9D7E5E",
"E.	c #706C49",
"F.	c #CFA67D",
"G.	c #9C8360",
"H.	c #7D7A53",
"I.	c #7E7D53",
"J.	c #645433",
"K.	c #7F562B",
"L.	c #544327",
"M.	c #594735",
"N.	c #D0A67D",
"O.	c #413E29",
"P.	c #7F6F45",
"Q.	c #919180",
"R.	c #8C8C72",
"S.	c #8C8C6C",
"T.	c #6B613E",
"U.	c #6F532E",
"V.	c #865A2D",
"W.	c #996633",
"X.	c #6E4D29",
"Y.	c #71714B",
"Z.	c #070705",
"`.	c #4E4B32",
" +	c #78532B",
".+	c #A8A8A8",
"++	c #B4B4B4",
"@+	c #8F8F8B",
"#+	c #6F5934",
"$+	c #80683D",
"%+	c #75623B",
"&+	c #746B45",
"*+	c #8D8D5E",
"=+	c #2D2D1E",
"-+	c #545438",
";+	c #979764",
">+	c #88885B",
",+	c #2C1E12",
"'+	c #381C0E",
")+	c #87875A",
"!+	c #4E4E34",
"~+	c #834221",
"{+	c #70541C",
"]+	c #523A15",
"^+	c #874F22",
"/+	c #422E10",
"(+	c #CB6633",
"_+	c #6D361B",
":+	c #76764F",
"<+	c #804020",
"[+	c #CC6633",
"}+	c #67331A",
"|+	c #934A25",
"1+	c #592D16",
"2+	c #6E6E4A",
"3+	c #854321",
"4+	c #C36231",
"5+	c #606040",
"6+	c #88885A",
"7+	c #26130A",
"8+	c #7D3E1F",
"9+	c #656543",
"0+	c #2F2F20",
"a+	c #4B4B37",
"b+	c #7A7A54",
"c+	c #71714D",
"d+	c #69694D",
"e+	c #6D6D51",
"f+	c #55553C",
"g+	c #6F6F50",
"h+	c #6A6A55",
"i+	c #303024",
"j+	c #545454",
"k+	c #5F5F5F",
"l+	c #666666",
"m+	c #555555",
"n+	c #606060",
"o+	c #5D5D5D",
"p+	c #515151",
"q+	c #5B5B5B",
"r+	c #616161",
"s+	c #636363",
"t+	c #565656",
"u+	c #626262",
"v+	c #8D8D8D",
"w+	c #4E4E4E",
"x+	c #656565",
"y+	c #595959",
"z+	c #2C2C2C",
"A+	c #5A5A5A",
"B+	c #5C5C5C",
"C+	c #818181",
"D+	c #3A3A3A",
"E+	c #4A4A4A",
"F+	c #494949",
"G+	c #4F4F4F",
"H+	c #505050",
"I+	c #646464",
"J+	c #5E5E5D",
"K+	c #646463",
"L+	c #535353",
"M+	c #818171",
"N+	c #5E5E5E",
"O+	c #5C5C57",
"P+	c #67675B",
"Q+	c #5C5C50",
"R+	c #5A5A4B",
"S+	c #818168",
"T+	c #33332D",
"U+	c #535349",
"V+	c #7A7A6C",
"W+	c #5C5C52",
"X+	c #5F5F55",
"Y+	c #676758",
"Z+	c #828268",
"`+	c #7B7B62",
"                                                                                                ",
"                                    . + @ #                                                     ",
"                                $ % & & & & *                                                   ",
"                              = & & & & & & & -                                                 ",
"                              ; & & & & & & & >                                                 ",
"      , ,                     ' & & & & & & & &                                                 ",
"      , ,                   ) & & & & & & & & & !                                               ",
"      , ,                   ~ { ] ^ / ( _ : < [                                                 ",
"      , , , ,                 } | 1 2 3 4 5 6 7 8 9 0                                           ",
"            , ,               a b c d e f g h i j & & & k                                       ",
"            , ,               l m n o p q r c s t 0 u v & w x y                                 ",
"      ,     , ,             z A B C D E F } G H I J & & & K L L M N O                           ",
"        , , ,           P Q R S T U c c c c V < % & & & & W L L L X & j #                       ",
"                        Y & Z ` c c c c c  ...+.& & & & & @.L L L #.& & & $.                    ",
"                      %.& & & &.*.*.c 4 =.-.;.>.& & & & >.,.L L L '.& & & &                     ",
"                      ^ & & & ).!.~.{.].^.J /.& & >.$.(._.x :.L <.[.' & & }.                    ",
"                      & & & & |.1.& & & & & ' < 2.+ J 3.& 4.5.6.7.u & & & 8.                    ",
"                    9.& & & J & & & & & & & 4.; $.0.a.}.b.& & |.$.& & & c.                      ",
"                    0 & & & d.e.+.f.g.h.& & & d.i.1.i.j.(.& & & u & & Z                         ",
"                    : & & & k.h.& ;.l.m.& & & n.o.9.m.(.R ' & & + & p.q.                        ",
"                      > & & r.s.t.; ; u.& & & & ;.;.@ ;.% & & & v.w.                            ",
"                        r.& & ^.b.o.x.y.b.& & & & & & & & & & z.A.                              ",
"                            p.& >.;.g.a.: & & & & & & & & & r.B.C.D.                            ",
"                                @ E.F.G.H.& & & & & & & I.J.K.L.M.                              ",
"                                      N.  O.P.Q.R.S.T.U.V.W.X.Y.Z.                              ",
"                                          `. +.+++@+#+$+%+&+*+& =+,                             ",
"                                        -+% ;+>+o.& & & & & & i.,+'+                            ",
"                                        J & & & }.& & o.< ..)+!+  ~+                            ",
"                                        9.r.e.r.x.|.^ >+& & & 8.{+]+                            ",
"                                        d.& & & & k & & & & z.  ^+/+                            ",
"                                        u & & & & 1.% & & & )+  (+_+                            ",
"                                        ^ & & & & r.o.& & & :+<+[+}+                            ",
"                                        9 & & & & (.o.& & & 9 |+[+1+                            ",
"                                        g.& & & & 2+% & & & Y 3+4+                              ",
"                                        5+& & & & 9.& & & & 6+7+8+                              ",
"                                        $.& & & & 9 & & & & k                                   ",
"                                        >.& & & & 9+& & & & & 0+                                ",
"                                        Z & & & & /.& & & & >                                   ",
"                                        a+b+c+d+e+f+i.; g+h+i+                                  ",
"                                        j+k+l+l+l+m+n+o+p+q+                                    ",
"                                        r+s+l+l+l+t+l+u+v+k+                                    ",
"                                        t+u+l+l+l+w+l+x+y+z+                                    ",
"                                        A+y+l+l+B+y+l+q+C+                                      ",
"                                  D+E+F+F+l+l+l+G+l+l+l+H+                                      ",
"                                H+l+l+l+s+y+l+l+H+l+o+G+A+I+A+                                  ",
"                                l+l+l+l+l+l+l+x+J+K+l+l+l+l+l+L+                                ",
"                                M+N+j+O+P+Q+R+    S+T+U+V+W+X+Y+                                ",
"                                  Z+`+                                                          "};
