/* XPM */
static char * lieutenant_xpm[] = {
"29 48 276 2",
"  	c None",
". 	c #6B6B47",
"+ 	c #74744D",
"@ 	c #787850",
"# 	c #696946",
"$ 	c #535337",
"% 	c #969664",
"& 	c #999966",
"* 	c #868659",
"= 	c #42422C",
"- 	c #6B6B48",
"; 	c #7E7E54",
"> 	c #929261",
", 	c #989866",
"' 	c #494930",
") 	c #4C4C33",
"! 	c #6E6E49",
"~ 	c #72714C",
"{ 	c #7D7B52",
"] 	c #77774F",
"^ 	c #716F4B",
"/ 	c #7E7B54",
"( 	c #9A9364",
"_ 	c #7F7F54",
": 	c #7B7B52",
"< 	c #817954",
"[ 	c #DCB48D",
"} 	c #C1A78D",
"| 	c #E3BA88",
"1 	c #CCBBAA",
"2 	c #C4BEB7",
"3 	c #FDCA98",
"4 	c #D3AF7E",
"5 	c #C0B173",
"6 	c #EDBD8E",
"7 	c #5F523B",
"8 	c #6F6F4A",
"9 	c #797951",
"0 	c #9D968F",
"a 	c #796F64",
"b 	c #FFCC99",
"c 	c #948E88",
"d 	c #E0D9D3",
"e 	c #DCB084",
"f 	c #D0A77E",
"g 	c #E0B486",
"h 	c #BE9972",
"i 	c #8E8E5F",
"j 	c #979765",
"k 	c #B39374",
"l 	c #A98867",
"m 	c #F0C090",
"n 	c #7B6753",
"o 	c #E7BB8F",
"p 	c #EEBF90",
"q 	c #A69788",
"r 	c #C3A578",
"s 	c #89895C",
"t 	c #828257",
"u 	c #8F8F60",
"v 	c #8C8C50",
"w 	c #D6D600",
"x 	c #B0B000",
"y 	c #59593C",
"z 	c #B4966E",
"A 	c #CCA47B",
"B 	c #EEBE8F",
"C 	c #E2B588",
"D 	c #F5C493",
"E 	c #C5A07B",
"F 	c #F3C392",
"G 	c #898359",
"H 	c #6D6D48",
"I 	c #939362",
"J 	c #8E8E5D",
"K 	c #FFFF00",
"L 	c #FAFA00",
"M 	c #A8A818",
"N 	c #666644",
"O 	c #3A3A27",
"P 	c #797950",
"Q 	c #6A6A47",
"R 	c #9F8963",
"S 	c #E3B688",
"T 	c #E7B98B",
"U 	c #917D5A",
"V 	c #9A9A5B",
"W 	c #CFCF0B",
"X 	c #777750",
"Y 	c #909060",
"Z 	c #B4996F",
"` 	c #B1936C",
" .	c #8B8B5C",
"..	c #7D7D53",
"+.	c #A0A03E",
"@.	c #CBCB16",
"#.	c #818156",
"$.	c #505035",
"%.	c #BB9B72",
"&.	c #FECB98",
"*.	c #9E8360",
"=.	c #7C7B52",
"-.	c #75754E",
";.	c #989865",
">.	c #C2C212",
",.	c #A3A333",
"'.	c #706F4A",
").	c #72704B",
"!.	c #736E4B",
"~.	c #96845E",
"{.	c #827954",
"].	c #959563",
"^.	c #6C6C48",
"/.	c #808056",
"(.	c #696936",
"_.	c #F7F700",
":.	c #D8D810",
"<.	c #959562",
"[.	c #919160",
"}.	c #7F7F55",
"|.	c #808055",
"1.	c #7A7A51",
"2.	c #656544",
"3.	c #858559",
"4.	c #5D5D3B",
"5.	c #3B3B08",
"6.	c #636333",
"7.	c #616141",
"8.	c #6D6D49",
"9.	c #717150",
"0.	c #5F5F3F",
"a.	c #848458",
"b.	c #86865A",
"c.	c #7C7C53",
"d.	c #838357",
"e.	c #74744E",
"f.	c #636342",
"g.	c #959564",
"h.	c #8A8A5C",
"i.	c #929262",
"j.	c #7A7A52",
"k.	c #5C5C3E",
"l.	c #919161",
"m.	c #828256",
"n.	c #8F8F5F",
"o.	c #8B8B5D",
"p.	c #383825",
"q.	c #89895B",
"r.	c #5C5C3D",
"s.	c #535338",
"t.	c #73734D",
"u.	c #7B7450",
"v.	c #706B49",
"w.	c #8C8C5D",
"x.	c #73734C",
"y.	c #949463",
"z.	c #B1916B",
"A.	c #4D442C",
"B.	c #8E7255",
"C.	c #9D7E5E",
"D.	c #706C49",
"E.	c #CFA67D",
"F.	c #9C8360",
"G.	c #7D7A53",
"H.	c #7E7D53",
"I.	c #645433",
"J.	c #7F562B",
"K.	c #544327",
"L.	c #594735",
"M.	c #D0A67D",
"N.	c #413E29",
"O.	c #7F6F45",
"P.	c #919180",
"Q.	c #8C8C72",
"R.	c #8C8C6C",
"S.	c #6B613E",
"T.	c #6F532E",
"U.	c #865A2D",
"V.	c #996633",
"W.	c #6E4D29",
"X.	c #71714B",
"Y.	c #070705",
"Z.	c #4E4B32",
"`.	c #78532B",
" +	c #A8A8A8",
".+	c #B4B4B4",
"++	c #8F8F8B",
"@+	c #6F5934",
"#+	c #80683D",
"$+	c #75623B",
"%+	c #746B45",
"&+	c #8D8D5E",
"*+	c #2D2D1E",
"=+	c #000000",
"-+	c #545438",
";+	c #979764",
">+	c #88885B",
",+	c #2C1E12",
"'+	c #381C0E",
")+	c #87875A",
"!+	c #4E4E34",
"~+	c #834221",
"{+	c #70541C",
"]+	c #523A15",
"^+	c #874F22",
"/+	c #422E10",
"(+	c #CB6633",
"_+	c #6D361B",
":+	c #76764F",
"<+	c #804020",
"[+	c #CC6633",
"}+	c #67331A",
"|+	c #934A25",
"1+	c #592D16",
"2+	c #6E6E4A",
"3+	c #854321",
"4+	c #C36231",
"5+	c #606040",
"6+	c #88885A",
"7+	c #26130A",
"8+	c #7D3E1F",
"9+	c #656543",
"0+	c #2F2F20",
"a+	c #4B4B37",
"b+	c #7A7A54",
"c+	c #71714D",
"d+	c #69694D",
"e+	c #6D6D51",
"f+	c #55553C",
"g+	c #6F6F50",
"h+	c #6A6A55",
"i+	c #303024",
"j+	c #545454",
"k+	c #5F5F5F",
"l+	c #666666",
"m+	c #555555",
"n+	c #606060",
"o+	c #5D5D5D",
"p+	c #515151",
"q+	c #5B5B5B",
"r+	c #616161",
"s+	c #636363",
"t+	c #565656",
"u+	c #626262",
"v+	c #8D8D8D",
"w+	c #4E4E4E",
"x+	c #656565",
"y+	c #595959",
"z+	c #2C2C2C",
"A+	c #5A5A5A",
"B+	c #5C5C5C",
"C+	c #818181",
"D+	c #3A3A3A",
"E+	c #4A4A4A",
"F+	c #494949",
"G+	c #4F4F4F",
"H+	c #505050",
"I+	c #646464",
"J+	c #5E5E5D",
"K+	c #646463",
"L+	c #535353",
"M+	c #818171",
"N+	c #5E5E5E",
"O+	c #5C5C57",
"P+	c #67675B",
"Q+	c #5C5C50",
"R+	c #5A5A4B",
"S+	c #818168",
"T+	c #33332D",
"U+	c #535349",
"V+	c #7A7A6C",
"W+	c #5C5C52",
"X+	c #5F5F55",
"Y+	c #676758",
"Z+	c #828268",
"`+	c #7B7B62",
"                                                          ",
"                . + @ #                                   ",
"            $ % & & & & *                                 ",
"          = & & & & & & & -                               ",
"          ; & & & & & & & >                               ",
"          , & & & & & & & &                               ",
"        ' & & & & & & & & & )                             ",
"        ! ~ { ] ^ / ( _ : <                               ",
"          [ } | 1 2 3 4 5 6 7 8 9                         ",
"          0 a b c d e f g h i & & & j                     ",
"          k l m n o p q b r s 9 t u & v w x               ",
"        y z A B C D E [ F G H I & & & J K K L M N         ",
"    O P Q R S T b b b b U : % & & & & V K K K W & i #     ",
"    X & Y Z b b b b b `  ...& & & & & +.K K K @.& & & #.  ",
"  $.& & & %.&.&.b 3 *.=.-.;.& & & & ;.>.K K K ,.& & & &   ",
"  ] & & & '.).!.~.{.].I ^.& & ;.#./.(.w _.K :.<., & & [.  ",
"  & & & & }.|.& & & & & , : 1.+ I 2.& 3.4.5.6.t & & & 7.  ",
"8.& & & I & & & & & & & 3.; #.9.0.[.a.& & }.#.& & & b.    ",
"9 & & & c.d...e.f.g.& & & c.h.|.h.i./.& & & t & & Y       ",
"_ & & & j.g.& -.k.l.& & & m.n.8.l./.Q , & & + & o.p.      ",
"  > & & q.r.s.; ; t.& & & & -.-.@ -.% & & & u.v.          ",
"    q.& & ].a.n.w.x.a.& & & & & & & & & & y.z.            ",
"        o.& ;.-.f.0._ & & & & & & & & & q.A.B.C.          ",
"            @ D.E.F.G.& & & & & & & H.I.J.K.L.            ",
"                  M.  N.O.P.Q.R.S.T.U.V.W.X.Y.            ",
"                      Z.`. +.+++@+#+$+%+&+& *+=+          ",
"                    -+% ;+>+n.& & & & & & h.,+'+          ",
"                    I & & & [.& & n.:  .)+!+  ~+          ",
"                    8.q.d.q.w.}.] >+& & & 7.{+]+          ",
"                    c.& & & & j & & & & y.  ^+/+          ",
"                    t & & & & |.% & & & )+  (+_+          ",
"                    ] & & & & q.n.& & & :+<+[+}+          ",
"                    8 & & & & /.n.& & & 8 |+[+1+          ",
"                    f.& & & & 2+% & & & X 3+4+            ",
"                    5+& & & & 8.& & & & 6+7+8+            ",
"                    #.& & & & 8 & & & & j                 ",
"                    ;.& & & & 9+& & & & & 0+              ",
"                    Y & & & & ^.& & & & >                 ",
"                    a+b+c+d+e+f+h.; g+h+i+                ",
"                    j+k+l+l+l+m+n+o+p+q+                  ",
"                    r+s+l+l+l+t+l+u+v+k+                  ",
"                    t+u+l+l+l+w+l+x+y+z+                  ",
"                    A+y+l+l+B+y+l+q+C+                    ",
"              D+E+F+F+l+l+l+G+l+l+l+H+                    ",
"            H+l+l+l+s+y+l+l+H+l+o+G+A+I+A+                ",
"            l+l+l+l+l+l+l+x+J+K+l+l+l+l+l+L+              ",
"            M+N+j+O+P+Q+R+    S+T+U+V+W+X+Y+              ",
"              Z+`+                                        "};
