/* XPM */
static char * major_xpm[] = {
"21 48 265 2",
"  	c None",
". 	c #242424",
"+ 	c #313131",
"@ 	c #2D2D2D",
"# 	c #3D3D3D",
"$ 	c #474747",
"% 	c #464646",
"& 	c #353535",
"* 	c #282828",
"= 	c #434343",
"- 	c #414141",
"; 	c #262626",
"> 	c #525221",
", 	c #4D4D2D",
"' 	c #5B5B3B",
") 	c #404040",
"! 	c #2F2F2F",
"~ 	c #323232",
"{ 	c #3E3E2F",
"] 	c #E1E15A",
"^ 	c #404030",
"/ 	c #3E3E3E",
"( 	c #393939",
"_ 	c #141414",
": 	c #2E2E2E",
"< 	c #434334",
"[ 	c #6A6A30",
"} 	c #5F5F34",
"| 	c #454545",
"1 	c #3C3C3C",
"2 	c #876D53",
"3 	c #544A40",
"4 	c #565637",
"5 	c #656531",
"6 	c #444444",
"7 	c #3B3B3B",
"8 	c #6B5640",
"9 	c #E9BA8C",
"0 	c #FFCC99",
"a 	c #FECB98",
"b 	c #B4916D",
"c 	c #54493E",
"d 	c #383838",
"e 	c #363636",
"f 	c #735C45",
"g 	c #E8BA8B",
"h 	c #E6B88A",
"i 	c #FECC99",
"j 	c #C39C75",
"k 	c #6B5A48",
"l 	c #383736",
"m 	c #624E3B",
"n 	c #AD8B68",
"o 	c #DAAF83",
"p 	c #CBA37A",
"q 	c #B9946F",
"r 	c #DCB084",
"s 	c #655341",
"t 	c #393431",
"u 	c #725B44",
"v 	c #DFB386",
"w 	c #FDCB98",
"x 	c #D1A77E",
"y 	c #D3A97F",
"z 	c #9C7C5D",
"A 	c #C89D75",
"B 	c #6F3F25",
"C 	c #2A2A2A",
"D 	c #3E3935",
"E 	c #1F1F1F",
"F 	c #614E3A",
"G 	c #8F7256",
"H 	c #DFB286",
"I 	c #EDBD8E",
"J 	c #96785A",
"K 	c #3B3A39",
"L 	c #886D52",
"M 	c #604E3C",
"N 	c #3F3F3F",
"O 	c #F4C392",
"P 	c #C59E76",
"Q 	c #B08D6A",
"R 	c #514942",
"S 	c #A78664",
"T 	c #8B6F53",
"U 	c #0E0E0E",
"V 	c #CEA47B",
"W 	c #E1B487",
"X 	c #EDBE8E",
"Y 	c #957A5F",
"Z 	c #695949",
"` 	c #C79F77",
" .	c #C09A73",
"..	c #ECBD8E",
"+.	c #7A6856",
"@.	c #B6926F",
"#.	c #F1C191",
"$.	c #B6926D",
"%.	c #B6916D",
"&.	c #A78564",
"*.	c #EABB8D",
"=.	c #4F4841",
"-.	c #C29B74",
";.	c #856B50",
">.	c #474638",
",.	c #AE8B68",
"'.	c #DAAE83",
").	c #BA9570",
"!.	c #C8A078",
"~.	c #5B5148",
"{.	c #B4A581",
"].	c #E4E4B6",
"^.	c #3D4E37",
"/.	c #AF8C69",
"(.	c #9E7E5F",
"_.	c #C19A74",
":.	c #8E765D",
"<.	c #8B745C",
"[.	c #D6AD83",
"}.	c #CBC59C",
"|.	c #D4D4A9",
"1.	c #4C6346",
"2.	c #3F5F3F",
"3.	c #181717",
"4.	c #866C51",
"5.	c #AC906D",
"6.	c #DCDBAF",
"7.	c #D6D6AB",
"8.	c #526E4D",
"9.	c #4E754E",
"0.	c #486C48",
"a.	c #314A31",
"b.	c #750906",
"c.	c #C1C19A",
"d.	c #E9E9BA",
"e.	c #5D7C57",
"f.	c #4A6F4A",
"g.	c #639463",
"h.	c #669866",
"i.	c #659765",
"j.	c #242619",
"k.	c #9C0000",
"l.	c #B9B994",
"m.	c #647A59",
"n.	c #517951",
"o.	c #5F8F5F",
"p.	c #669966",
"q.	c #416141",
"r.	c #7E140E",
"s.	c #B10504",
"t.	c #44523C",
"u.	c #568156",
"v.	c #598559",
"w.	c #5B8758",
"x.	c #828D16",
"y.	c #5D834D",
"z.	c #4C724C",
"A.	c #395639",
"B.	c #B20A06",
"C.	c #3F2318",
"D.	c #749746",
"E.	c #FFFF00",
"F.	c #849422",
"G.	c #5C8A5C",
"H.	c #466343",
"I.	c #52291D",
"J.	c #45643F",
"K.	c #373A07",
"L.	c #496A42",
"M.	c #659865",
"N.	c #608E5D",
"O.	c #B5B806",
"P.	c #678740",
"Q.	c #4B6948",
"R.	c #568055",
"S.	c #3A1614",
"T.	c #662518",
"U.	c #649564",
"V.	c #4B704B",
"W.	c #606946",
"X.	c #629362",
"Y.	c #5C704B",
"Z.	c #456845",
"`.	c #446744",
" +	c #41429D",
".+	c #3A4963",
"++	c #2A402A",
"@+	c #4A6E4A",
"#+	c #77593B",
"$+	c #9F2F20",
"%+	c #8B2217",
"&+	c #436443",
"*+	c #4B6839",
"=+	c #2D3635",
"-+	c #58835A",
";+	c #476B47",
">+	c #675438",
",+	c #6F583A",
"'+	c #7C4B32",
")+	c #577B52",
"!+	c #9DA714",
"~+	c #A3AC12",
"{+	c #648458",
"]+	c #881911",
"^+	c #7F432D",
"/+	c #3B593B",
"(+	c #5D8959",
"_+	c #578053",
":+	c #609060",
"<+	c #5A875A",
"[+	c #344E34",
"}+	c #527B52",
"|+	c #375337",
"1+	c #4C734C",
"2+	c #436543",
"3+	c #354F35",
"4+	c #263826",
"5+	c #3A573A",
"6+	c #575A45",
"7+	c #8E876A",
"8+	c #A09A7A",
"9+	c #3B3B2F",
"0+	c #3B583B",
"a+	c #527A52",
"b+	c #547D54",
"c+	c #507750",
"d+	c #486B48",
"e+	c #787654",
"f+	c #F0C090",
"g+	c #4B714B",
"h+	c #566E4B",
"i+	c #B08C69",
"j+	c #F2C291",
"k+	c #568056",
"l+	c #619161",
"m+	c #4F6E4A",
"n+	c #B8936E",
"o+	c #E0B386",
"p+	c #9F7F5F",
"q+	c #5E8C5E",
"r+	c #69674A",
"s+	c #716147",
"t+	c #745D46",
"u+	c #426442",
"v+	c #547F54",
"w+	c #5A885A",
"x+	c #649664",
"y+	c #588458",
"z+	c #253525",
"A+	c #2C422C",
"B+	c #588358",
"C+	c #5E8D5E",
"D+	c #3D5B3D",
"E+	c #213221",
"F+	c #343434",
"G+	c #424242",
"H+	c #272727",
"I+	c #333333",
"J+	c #3A3A3A",
"K+	c #222222",
"L+	c #2B2B2B",
"M+	c #1D1D1D",
"N+	c #373737",
"O+	c #1A1A1A",
"P+	c #1E1E1E",
"                                          ",
"                      . +                 ",
"                @ # $ $ $ $ % &           ",
"            * = $ $ $ $ $ $ $ $ -         ",
"          @ $ $ $ $ $ $ $ $ $ $ $ #       ",
"        @ $ $ $ $ $ $ $ $ $ $ $ $ $ ;     ",
"    > , ' ) $ $ $ $ $ $ $ $ $ $ $ $ !     ",
"    ~ { ] ^ $ / $ $ $ $ $ $ $ $ $ $ (     ",
"  _ : ) < = [ } | $ $ $ $ $ $ $ $ $ 1     ",
"      2 3 1 4 5 6 $ $ $ $ $ $ $ $ $ 7     ",
"8 9 0 0 a b c d $ $ $ $ $ $ $ $ $ $ e     ",
"f g 0 0 0 h i j k l $ $ $ $ $ $ $ $ :     ",
"m n 0 0 o p q 0 0 r s t % $ $ $ $ $ ;     ",
"  u v w x y z 0 0 0 A B C D = $ $ $ E     ",
"      F G H j 0 0 0 I J K L M ; N $       ",
"          O P 0 0 0 0 Q R S T     E U     ",
"          V W X 0 0 0 Y Z ` f             ",
"             ...0 0 0 +.@.#.$.            ",
"            %.&.*.0 0 =.9 0 -.;.>.        ",
"              ,.'.).!.~.0 0 ..{.].^.      ",
"              /.(._.:.<.0 [.}.|.1.2.      ",
"                    3.4.5.6.7.8.9.0.a.    ",
"                      b.c.d.e.f.g.h.i.    ",
"                    j.k.l.m.n.o.p.p.p.q.  ",
"                    r.s.t.u.v.p.w.x.y.z.  ",
"                  A.B.C.u.z.p.p.D.E.F.G.  ",
"                  H.I.J.K.L.M.n.N.O.P.h.  ",
"                  Q.R.S.T.U.A.V.W.X.Y.G.  ",
"                  Z.`. +.+p.++@+#+$+%+o.  ",
"                  &+*+=+-+p.X.;+>+,+'+)+A.",
"                  z.!+~+p.p.p.z.{+]+^+i./+",
"                  p.(+_+p.p.p.0.:+<+p.p.[+",
"                }+p.p.p.p.p.p.|+1+2+3+a.4+",
"                5+i.p.p.p.p.p.G.6+7+8+9+  ",
"                  0+a+b+c+z.f.d+e+X f+    ",
"                  g+G.p.p.M.i.i.h+i+j+    ",
"                    k+l+p.p.p.p.m+n+o+p+  ",
"                    2.}+M.p.p.p.q+r+s+t+  ",
"                      u+v+p.p.p.p.p.w+    ",
"                        &+x+p.p.p.p.y+    ",
"                          z+A+B+C+D+E+    ",
"                            & & F+-       ",
"                            ! / $ G+      ",
"                            H+# $ /       ",
"                            * I+$ J+      ",
"                        K+F+L+! | )       ",
"                      M+d N+$ = = G+      ",
"                        O+~ + @   P+      "};
