/* XPM */
static char * major_xpm[] = {
"48 48 266 2",
"  	c None",
". 	c #242424",
"+ 	c #313131",
"@ 	c #2D2D2D",
"# 	c #3D3D3D",
"$ 	c #474747",
"% 	c #464646",
"& 	c #353535",
"* 	c #282828",
"= 	c #434343",
"- 	c #414141",
"; 	c #262626",
"> 	c #525221",
", 	c #4D4D2D",
"' 	c #5B5B3B",
") 	c #404040",
"! 	c #2F2F2F",
"~ 	c #000000",
"{ 	c #323232",
"] 	c #3E3E2F",
"^ 	c #E1E15A",
"/ 	c #404030",
"( 	c #3E3E3E",
"_ 	c #393939",
": 	c #141414",
"< 	c #2E2E2E",
"[ 	c #434334",
"} 	c #6A6A30",
"| 	c #5F5F34",
"1 	c #454545",
"2 	c #3C3C3C",
"3 	c #876D53",
"4 	c #544A40",
"5 	c #565637",
"6 	c #656531",
"7 	c #444444",
"8 	c #3B3B3B",
"9 	c #6B5640",
"0 	c #E9BA8C",
"a 	c #FFCC99",
"b 	c #FECB98",
"c 	c #B4916D",
"d 	c #54493E",
"e 	c #383838",
"f 	c #363636",
"g 	c #735C45",
"h 	c #E8BA8B",
"i 	c #E6B88A",
"j 	c #FECC99",
"k 	c #C39C75",
"l 	c #6B5A48",
"m 	c #383736",
"n 	c #624E3B",
"o 	c #AD8B68",
"p 	c #DAAF83",
"q 	c #CBA37A",
"r 	c #B9946F",
"s 	c #DCB084",
"t 	c #655341",
"u 	c #393431",
"v 	c #725B44",
"w 	c #DFB386",
"x 	c #FDCB98",
"y 	c #D1A77E",
"z 	c #D3A97F",
"A 	c #9C7C5D",
"B 	c #C89D75",
"C 	c #6F3F25",
"D 	c #2A2A2A",
"E 	c #3E3935",
"F 	c #1F1F1F",
"G 	c #614E3A",
"H 	c #8F7256",
"I 	c #DFB286",
"J 	c #EDBD8E",
"K 	c #96785A",
"L 	c #3B3A39",
"M 	c #886D52",
"N 	c #604E3C",
"O 	c #3F3F3F",
"P 	c #F4C392",
"Q 	c #C59E76",
"R 	c #B08D6A",
"S 	c #514942",
"T 	c #A78664",
"U 	c #8B6F53",
"V 	c #0E0E0E",
"W 	c #CEA47B",
"X 	c #E1B487",
"Y 	c #EDBE8E",
"Z 	c #957A5F",
"` 	c #695949",
" .	c #C79F77",
"..	c #C09A73",
"+.	c #ECBD8E",
"@.	c #7A6856",
"#.	c #B6926F",
"$.	c #F1C191",
"%.	c #B6926D",
"&.	c #B6916D",
"*.	c #A78564",
"=.	c #EABB8D",
"-.	c #4F4841",
";.	c #C29B74",
">.	c #856B50",
",.	c #474638",
"'.	c #AE8B68",
").	c #DAAE83",
"!.	c #BA9570",
"~.	c #C8A078",
"{.	c #5B5148",
"].	c #B4A581",
"^.	c #E4E4B6",
"/.	c #3D4E37",
"(.	c #AF8C69",
"_.	c #9E7E5F",
":.	c #C19A74",
"<.	c #8E765D",
"[.	c #8B745C",
"}.	c #D6AD83",
"|.	c #CBC59C",
"1.	c #D4D4A9",
"2.	c #4C6346",
"3.	c #3F5F3F",
"4.	c #181717",
"5.	c #866C51",
"6.	c #AC906D",
"7.	c #DCDBAF",
"8.	c #D6D6AB",
"9.	c #526E4D",
"0.	c #4E754E",
"a.	c #486C48",
"b.	c #314A31",
"c.	c #750906",
"d.	c #C1C19A",
"e.	c #E9E9BA",
"f.	c #5D7C57",
"g.	c #4A6F4A",
"h.	c #639463",
"i.	c #669866",
"j.	c #659765",
"k.	c #242619",
"l.	c #9C0000",
"m.	c #B9B994",
"n.	c #647A59",
"o.	c #517951",
"p.	c #5F8F5F",
"q.	c #669966",
"r.	c #416141",
"s.	c #7E140E",
"t.	c #B10504",
"u.	c #44523C",
"v.	c #568156",
"w.	c #598559",
"x.	c #5B8758",
"y.	c #828D16",
"z.	c #5D834D",
"A.	c #4C724C",
"B.	c #395639",
"C.	c #B20A06",
"D.	c #3F2318",
"E.	c #749746",
"F.	c #FFFF00",
"G.	c #849422",
"H.	c #5C8A5C",
"I.	c #466343",
"J.	c #52291D",
"K.	c #45643F",
"L.	c #373A07",
"M.	c #496A42",
"N.	c #659865",
"O.	c #608E5D",
"P.	c #B5B806",
"Q.	c #678740",
"R.	c #4B6948",
"S.	c #568055",
"T.	c #3A1614",
"U.	c #662518",
"V.	c #649564",
"W.	c #4B704B",
"X.	c #606946",
"Y.	c #629362",
"Z.	c #5C704B",
"`.	c #456845",
" +	c #446744",
".+	c #41429D",
"++	c #3A4963",
"@+	c #2A402A",
"#+	c #4A6E4A",
"$+	c #77593B",
"%+	c #9F2F20",
"&+	c #8B2217",
"*+	c #436443",
"=+	c #4B6839",
"-+	c #2D3635",
";+	c #58835A",
">+	c #476B47",
",+	c #675438",
"'+	c #6F583A",
")+	c #7C4B32",
"!+	c #577B52",
"~+	c #9DA714",
"{+	c #A3AC12",
"]+	c #648458",
"^+	c #881911",
"/+	c #7F432D",
"(+	c #3B593B",
"_+	c #5D8959",
":+	c #578053",
"<+	c #609060",
"[+	c #5A875A",
"}+	c #344E34",
"|+	c #527B52",
"1+	c #375337",
"2+	c #4C734C",
"3+	c #436543",
"4+	c #354F35",
"5+	c #263826",
"6+	c #3A573A",
"7+	c #575A45",
"8+	c #8E876A",
"9+	c #A09A7A",
"0+	c #3B3B2F",
"a+	c #3B583B",
"b+	c #527A52",
"c+	c #547D54",
"d+	c #507750",
"e+	c #486B48",
"f+	c #787654",
"g+	c #F0C090",
"h+	c #4B714B",
"i+	c #566E4B",
"j+	c #B08C69",
"k+	c #F2C291",
"l+	c #568056",
"m+	c #619161",
"n+	c #4F6E4A",
"o+	c #B8936E",
"p+	c #E0B386",
"q+	c #9F7F5F",
"r+	c #5E8C5E",
"s+	c #69674A",
"t+	c #716147",
"u+	c #745D46",
"v+	c #426442",
"w+	c #547F54",
"x+	c #5A885A",
"y+	c #649664",
"z+	c #588458",
"A+	c #253525",
"B+	c #2C422C",
"C+	c #588358",
"D+	c #5E8D5E",
"E+	c #3D5B3D",
"F+	c #213221",
"G+	c #343434",
"H+	c #424242",
"I+	c #272727",
"J+	c #333333",
"K+	c #3A3A3A",
"L+	c #222222",
"M+	c #2B2B2B",
"N+	c #1D1D1D",
"O+	c #373737",
"P+	c #1A1A1A",
"Q+	c #1E1E1E",
"                                                                                                ",
"                                                  . +                                           ",
"                                            @ # $ $ $ $ % &                                     ",
"                                        * = $ $ $ $ $ $ $ $ -                                   ",
"                                      @ $ $ $ $ $ $ $ $ $ $ $ #                                 ",
"                                    @ $ $ $ $ $ $ $ $ $ $ $ $ $ ;                               ",
"                                > , ' ) $ $ $ $ $ $ $ $ $ $ $ $ !                               ",
"          ~ ~   ~ ~             { ] ^ / $ ( $ $ $ $ $ $ $ $ $ $ _                               ",
"                ~ ~           : < ) [ = } | 1 $ $ $ $ $ $ $ $ $ 2                               ",
"                ~ ~               3 4 2 5 6 7 $ $ $ $ $ $ $ $ $ 8                               ",
"              ~ ~           9 0 a a b c d e $ $ $ $ $ $ $ $ $ $ f                               ",
"              ~ ~           g h a a a i j k l m $ $ $ $ $ $ $ $ <                               ",
"              ~             n o a a p q r a a s t u % $ $ $ $ $ ;                               ",
"            ~ ~               v w x y z A a a a B C D E = $ $ $ F                               ",
"            ~                     G H I k a a a J K L M N ; O $                                 ",
"                                      P Q a a a a R S T U     F V                               ",
"                                      W X Y a a a Z `  .g                                       ",
"                                        ..+.a a a @.#.$.%.                                      ",
"                                        &.*.=.a a -.0 a ;.>.,.                                  ",
"                                          '.).!.~.{.a a +.].^./.                                ",
"                                          (._.:.<.[.a }.|.1.2.3.                                ",
"                                                4.5.6.7.8.9.0.a.b.                              ",
"                                                  c.d.e.f.g.h.i.j.                              ",
"                                                k.l.m.n.o.p.q.q.q.r.                            ",
"                                                s.t.u.v.w.q.x.y.z.A.                            ",
"                                              B.C.D.v.A.q.q.E.F.G.H.                            ",
"                                              I.J.K.L.M.N.o.O.P.Q.i.                            ",
"                                              R.S.T.U.V.B.W.X.Y.Z.H.                            ",
"                                              `. +.+++q.@+#+$+%+&+p.                            ",
"                                              *+=+-+;+q.Y.>+,+'+)+!+B.                          ",
"                                              A.~+{+q.q.q.A.]+^+/+j.(+                          ",
"                                              q._+:+q.q.q.a.<+[+q.q.}+                          ",
"                                            |+q.q.q.q.q.q.1+2+3+4+b.5+                          ",
"                                            6+j.q.q.q.q.q.H.7+8+9+0+                            ",
"                                              a+b+c+d+A.g.e+f+Y g+                              ",
"                                              h+H.q.q.N.j.j.i+j+k+                              ",
"                                                l+m+q.q.q.q.n+o+p+q+                            ",
"                                                3.|+N.q.q.q.r+s+t+u+                            ",
"                                                  v+w+q.q.q.q.q.x+                              ",
"                                                    *+y+q.q.q.q.z+                              ",
"                                                      A+B+C+D+E+F+                              ",
"                                                        & & G+-                                 ",
"                                                        ! ( $ H+                                ",
"                                                        I+# $ (                                 ",
"                                                        * J+$ K+                                ",
"                                                    L+G+M+! 1 )                                 ",
"                                                  N+e O+$ = = H+                                ",
"                                                    P+{ + @   Q+                                "};
