/* XPM */
static char * major_xpm[] = {
"48 48 187 2",
"  	c None",
". 	c #080808",
"+ 	c #101010",
"@ 	c #0D0D0D",
"# 	c #1A1A1A",
"$ 	c #232323",
"% 	c #121212",
"& 	c #0A0A0A",
"* 	c #1B1B1B",
"= 	c #303006",
"- 	c #29290D",
"; 	c #3C3C17",
"> 	c #1A1A0E",
", 	c #FAFA3B",
"' 	c #1B1B0E",
") 	c #171615",
"! 	c #020202",
"~ 	c #1E1E11",
"{ 	c #54540E",
"] 	c #424211",
"^ 	c #905A31",
"/ 	c #32261B",
"( 	c #353514",
"_ 	c #4C4C0F",
": 	c #FFFFFF",
"< 	c #56351B",
"[ 	c #FCDF9A",
"} 	c #FFEEB1",
"| 	c #FFEEB0",
"1 	c #D8A35A",
"2 	c #32251A",
"3 	c #653E20",
"4 	c #FCDF98",
"5 	c #FCDC96",
"6 	c #E7B669",
"7 	c #563B24",
"8 	c #141413",
"9 	c #472B17",
"0 	c #CF9851",
"a 	c #F7D287",
"b 	c #EEC174",
"c 	c #DDA95E",
"d 	c #F8D389",
"e 	c #4C311C",
"f 	c #15110F",
"g 	c #633C1F",
"h 	c #F2C77C",
"i 	c #F3CA7E",
"j 	c #B6783F",
"k 	c #EBB869",
"l 	c #5E1B08",
"m 	c #1A1512",
"n 	c #050505",
"o 	c #9F6335",
"p 	c #FDE29E",
"q 	c #AC6F3B",
"r 	c #985E31",
"s 	c #442B18",
"t 	c #FEE7A5",
"u 	c #E9BA6B",
"v 	c #D39C54",
"w 	c #2E251D",
"x 	c #C78E4A",
"y 	c #010101",
"z 	c #F0C376",
"A 	c #FAD890",
"B 	c #AB7442",
"C 	c #E4B365",
"D 	c #745135",
"E 	c #FEE5A3",
"F 	c #2C241C",
"G 	c #E5B367",
"H 	c #8B562D",
"I 	c #232214",
"J 	c #DFAB60",
"K 	c #3C2E24",
"L 	c #D8C483",
"M 	c #FBFBDA",
"N 	c #192B14",
"O 	c #D29A53",
"P 	c #9E6B3F",
"Q 	c #98673E",
"R 	c #F5CF87",
"S 	c #EEE9B6",
"T 	c #F5F5CD",
"U 	c #284922",
"V 	c #1B421B",
"W 	c #030303",
"X 	c #CEA15A",
"Y 	c #F8F7D2",
"Z 	c #305C29",
"` 	c #2B692B",
" .	c #245824",
"..	c #0F260F",
"+.	c #690000",
"@.	c #E5E5B3",
"#.	c #FCFCDF",
"$.	c #3F7836",
"%.	c #49A949",
"&.	c #4EB14E",
"*.	c #4AAB4A",
"=.	c #080903",
"-.	c #B60000",
";.	c #DDDDA9",
">.	c #4A7439",
",.	c #2E712E",
"'.	c #429F42",
").	c #1C451C",
"!.	c #7C0201",
"~.	c #D40000",
"{.	c #1F3018",
"].	c #358134",
"^.	c #398B39",
"/.	c #859C03",
"(.	c #3F8729",
"_.	c #286328",
":.	c #153515",
"<.	c #D60000",
"[.	c #1B0703",
"}.	c #67AE22",
"|.	c #FFFF00",
"1.	c #89A907",
"2.	c #3E963E",
"3.	c #22491E",
"4.	c #300A05",
"5.	c #204A1B",
"6.	c #141600",
"7.	c #25541D",
"8.	c #449E3F",
"9.	c #D9DC00",
"0.	c #4F901B",
"a.	c #275324",
"b.	c #160302",
"c.	c #4E0803",
"d.	c #276127",
"e.	c #445322",
"f.	c #47A747",
"g.	c #3E6027",
"h.	c #235623",
"i.	c #1F4F1F",
"j.	c #1C1DB8",
"k.	c #162549",
"l.	c #0B1B0B",
"m.	c #6D3917",
"n.	c #BB0E06",
"o.	c #980703",
"p.	c #1E4A1E",
"q.	c #275115",
"r.	c #0D1312",
"s.	c #38873B",
"t.	c #4F3214",
"u.	c #5E3816",
"v.	c #782710",
"w.	c #367630",
"x.	c #B8C702",
"y.	c #C1CE02",
"z.	c #4A8938",
"A.	c #920301",
"B.	c #7E1E0D",
"C.	c #173917",
"D.	c #3F9439",
"E.	c #368131",
"F.	c #122C12",
"G.	c #143114",
"H.	c #091409",
"I.	c #363B20",
"J.	c #9E9054",
"K.	c #BDB374",
"L.	c #17170E",
"M.	c #327A32",
"N.	c #6F6B32",
"O.	c #355C27",
"P.	c #2C5C26",
"Q.	c #DCA75C",
"R.	c #FAD78E",
"S.	c #534F26",
"T.	c #614523",
"U.	c #673F22",
"V.	c #3B923B",
"W.	c #081208",
"X.	c #0C1D0C",
"Y.	c #193C19",
"Z.	c #061006",
"`.	c #070707",
" +	c #0B0B0B",
".+	c #0E0E0E",
"++	c #040404",
"                                                                                                ",
"                                                  . +                                           ",
"                                            @ # $ $ $ $ $ %                                     ",
"                                        & * $ $ $ $ $ $ $ $ *                                   ",
"                                      @ $ $ $ $ $ $ $ $ $ $ $ #                                 ",
"                                    @ $ $ $ $ $ $ $ $ $ $ $ $ $ .                               ",
"                                = - ; * $ $ $ $ $ $ $ $ $ $ $ $ @                               ",
"                                + > , ' $ # $ $ $ $ $ $ $ $ $ $ )                               ",
"                              ! @ * ~ * { ] $ $ $ $ $ $ $ $ $ $ #                               ",
"                                  ^ / # ( _ $ $ $ $ $ $ $ $ $ $ )                               ",
"          : : : : :         < [ } } | 1 2 % $ $ $ $ $ $ $ $ $ $ %                               ",
"        : : : : : :         3 4 } } } 5 } 6 7 8 $ $ $ $ $ $ $ $ @                               ",
"                :           9 0 } } a b c } } d e f $ $ $ $ $ $ .                               ",
"                :             g d | h i j } } } k l & m * $ $ $ n                               ",
"                :                 9 o d 6 } } } p q ) r s . # $                                 ",
"              :                       t u } } } } v w x r     n y                               ",
"              :                       z A p } } } B 7 u 3                                       ",
"              :                         C p } } } D 1 E 1                                       ",
"            :                           1 x [ } } F [ } G H I                                   ",
"            :                             0 a J b K } } p L M N                                 ",
"                                          O j G P Q } R S T U V                                 ",
"                                                W ^ X Y T Z `  ...                              ",
"                                                  +.@.#.$. .%.&.*.                              ",
"                                                =.-.;.>.,.'.&.&.&.).                            ",
"                                                !.~.{.].^.&.^./.(._.                            ",
"                                              :.<.[.]._.&.&.}.|.1.2.                            ",
"                                              3.4.5.6.7.&.,.8.9.0.&.                            ",
"                                              a.].b.c.*.:.d.e.f.g.2.                            ",
"                                              h.i.j.k.&.l. .m.n.o.'.                            ",
"                                              p.q.r.s.&.f.h.t.u.v.w.:.                          ",
"                                              _.x.y.&.&.&._.z.A.B.*.C.                          ",
"                                              &.D.E.&.&.&. .f.^.&.&.F.                          ",
"                                            ,.&.&.&.&.&.&.G._.p.F...H.                          ",
"                                            :.*.&.&.&.&.&.2.I.J.K.L.                            ",
"                                              C.,.M.,._.d.a.N.p E                               ",
"                                              d.2.&.&.&.*.*.O.v E                               ",
"                                                ].f.&.&.&.&.P.Q.R.j                             ",
"                                                V ,.&.&.&.&.'.S.T.U.                            ",
"                                                  p.M.&.&.&.&.&.V.                              ",
"                                                    p.*.&.&.&.&.^.                              ",
"                                                      W.X.s.'.Y.Z.                              ",
"                                                        % % % *                                 ",
"                                                        @ # $ *                                 ",
"                                                        . # $ #                                 ",
"                                                        & + $ )                                 ",
"                                                    `.%  +.+$ *                                 ",
"                                                  n ) % $ * * *                                 ",
"                                                    +++ + @   n                                 "};
