/* XPM */
static char * marshall_xpm[] = {
"48 48 385 2",
"  	c None",
". 	c #323232",
"+ 	c #434343",
"@ 	c #414141",
"# 	c #474747",
"$ 	c #3A3A3A",
"% 	c #161616",
"& 	c #242424",
"* 	c #2D2D2D",
"= 	c #1B1B1B",
"- 	c #181818",
"; 	c #3B3B3B",
"> 	c #565656",
", 	c #7B7B7B",
"' 	c #808080",
") 	c #686868",
"! 	c #171717",
"~ 	c #1A1A1A",
"{ 	c #000000",
"] 	c #2E2E2E",
"^ 	c #6D6D6D",
"/ 	c #303030",
"( 	c #0C0C0C",
"_ 	c #1D1D1D",
": 	c #3C3C3C",
"< 	c #7F7F7F",
"[ 	c #787878",
"} 	c #232323",
"| 	c #383838",
"1 	c #545454",
"2 	c #797979",
"3 	c #111111",
"4 	c #1C1C1C",
"5 	c #636363",
"6 	c #676767",
"7 	c #696969",
"8 	c #333333",
"9 	c #5C5C5C",
"0 	c #5A5A5A",
"a 	c #1F1F1F",
"b 	c #4A4A4A",
"c 	c #454545",
"d 	c #3E3E3E",
"e 	c #747474",
"f 	c #7C7C7C",
"g 	c #121212",
"h 	c #595959",
"i 	c #6E6E6E",
"j 	c #292826",
"k 	c #6C6C6C",
"l 	c #554433",
"m 	c #EDBE8E",
"n 	c #6E5943",
"o 	c #424140",
"p 	c #737373",
"q 	c #392E22",
"r 	c #EBBC8D",
"s 	c #FFCC99",
"t 	c #D8AD81",
"u 	c #625141",
"v 	c #555554",
"w 	c #9B7C5D",
"x 	c #C8A078",
"y 	c #FCCA97",
"z 	c #F6C594",
"A 	c #C9A178",
"B 	c #6D5E50",
"C 	c #707070",
"D 	c #8D7155",
"E 	c #E2B587",
"F 	c #FDCB98",
"G 	c #91765A",
"H 	c #68635E",
"I 	c #6A6866",
"J 	c #AF8D6C",
"K 	c #C8A17A",
"L 	c #726961",
"M 	c #7E7E7E",
"N 	c #0F0F0F",
"O 	c #9A7B5C",
"P 	c #6D5C4A",
"Q 	c #8B7F73",
"R 	c #9A9A9A",
"S 	c #A9A9A9",
"T 	c #6E6B68",
"U 	c #6B5947",
"V 	c #F5C493",
"W 	c #665747",
"X 	c #5F5F5F",
"Y 	c #E6B88A",
"Z 	c #8C7055",
"` 	c #635C55",
" .	c #2B2520",
"..	c #B5916D",
"+.	c #FECB98",
"@.	c #9E7F60",
"#.	c #4D4A47",
"$.	c #373737",
"%.	c #DBAF83",
"&.	c #E4B789",
"*.	c #FAC896",
"=.	c #EABB8C",
"-.	c #B8946F",
";.	c #604D3A",
">.	c #84694F",
",.	c #B28F6B",
"'.	c #A88766",
").	c #575757",
"!.	c #070707",
"~.	c #E8BA8B",
"{.	c #DEB285",
"].	c #BB9670",
"^.	c #C49D75",
"/.	c #F0C090",
"(.	c #F9C795",
"_.	c #9B9084",
":.	c #B2B2B2",
"<.	c #151515",
"[.	c #6B6B6B",
"}.	c #D5AB80",
"|.	c #D0A67D",
"1.	c #D8AD82",
"2.	c #AD967F",
"3.	c #B3B3B3",
"4.	c #9F9F9F",
"5.	c #494949",
"6.	c #38322B",
"7.	c #665C53",
"8.	c #777777",
"9.	c #646464",
"0.	c #080808",
"a.	c #F3C292",
"b.	c #D2A87E",
"c.	c #6B6968",
"d.	c #7A7A7A",
"e.	c #767676",
"f.	c #574635",
"g.	c #8B6F53",
"h.	c #8C7258",
"i.	c #605B57",
"j.	c #585858",
"k.	c #DFB286",
"l.	c #F3C392",
"m.	c #AE8C69",
"n.	c #D6AB80",
"o.	c #E0B387",
"p.	c #7B654E",
"q.	c #7B7A78",
"r.	c #515150",
"s.	c #DAAE83",
"t.	c #65513D",
"u.	c #C29B74",
"v.	c #626262",
"w.	c #292929",
"x.	c #66523D",
"y.	c #C9A179",
"z.	c #A88665",
"A.	c #7C634A",
"B.	c #FECC99",
"C.	c #FBC996",
"D.	c #6E5B48",
"E.	c #615448",
"F.	c #282018",
"G.	c #B18D6A",
"H.	c #957759",
"I.	c #010101",
"J.	c #4B3C2D",
"K.	c #D8AC81",
"L.	c #453729",
"M.	c #B38F6B",
"N.	c #F7C694",
"O.	c #5B5B5A",
"P.	c #727272",
"Q.	c #5A4937",
"R.	c #2F261C",
"S.	c #514131",
"T.	c #D0A77D",
"U.	c #736353",
"V.	c #2F2F2F",
"W.	c #101010",
"X.	c #1E1E1E",
"Y.	c #423427",
"Z.	c #F2C291",
"`.	c #8F7356",
" +	c #614D3A",
".+	c #B7926E",
"++	c #FCC997",
"@+	c #CDA47C",
"#+	c #504E4D",
"$+	c #B6916D",
"%+	c #B18E6A",
"&+	c #CFA67C",
"*+	c #A28465",
"=+	c #999999",
"-+	c #424242",
";+	c #D9AE82",
">+	c #997B5C",
",+	c #161310",
"'+	c #3F3F3F",
")+	c #797776",
"!+	c #917B65",
"~+	c #EFBF8F",
"{+	c #967E67",
"]+	c #72604E",
"^+	c #AA8866",
"/+	c #393026",
"(+	c #403326",
"_+	c #EEBE8F",
":+	c #62594F",
"<+	c #8B8681",
"[+	c #C5A07B",
"}+	c #5A5753",
"|+	c #5E5E5E",
"1+	c #413427",
"2+	c #46382A",
"3+	c #433628",
"4+	c #765F47",
"5+	c #A68B70",
"6+	c #484848",
"7+	c #261E17",
"8+	c #5F4C39",
"9+	c #2F271E",
"0+	c #8D8C8C",
"a+	c #C59E77",
"b+	c #887059",
"c+	c #6A6A6A",
"d+	c #716150",
"e+	c #876C51",
"f+	c #9E7F5F",
"g+	c #A98765",
"h+	c #907C67",
"i+	c #222222",
"j+	c #A4A4A4",
"k+	c #796F66",
"l+	c #E7B98B",
"m+	c #B99672",
"n+	c #888684",
"o+	c #BC9671",
"p+	c #7F664C",
"q+	c #0F0C09",
"r+	c #282828",
"s+	c #353535",
"t+	c #5E5D5C",
"u+	c #847667",
"v+	c #87725D",
"w+	c #72665A",
"x+	c #7B7A7A",
"y+	c #B1B1B1",
"z+	c #8B8B8B",
"A+	c #A5A5A5",
"B+	c #7D7D7D",
"C+	c #4F4030",
"D+	c #7B624A",
"E+	c #BF9972",
"F+	c #D1A77D",
"G+	c #ECBD8E",
"H+	c #A98D72",
"I+	c #767473",
"J+	c #AAAAAA",
"K+	c #898989",
"L+	c #22201F",
"M+	c #DAAF83",
"N+	c #C19A74",
"O+	c #1B281B",
"P+	c #6B5540",
"Q+	c #6C5641",
"R+	c #A48363",
"S+	c #997B5E",
"T+	c #31302F",
"U+	c #82684F",
"V+	c #655740",
"W+	c #588458",
"X+	c #2F472F",
"Y+	c #192619",
"Z+	c #775F47",
"`+	c #C19C76",
" @	c #6F6F6F",
".@	c #4E443B",
"+@	c #A08060",
"@@	c #416141",
"#@	c #406040",
"$@	c #568056",
"%@	c #496D49",
"&@	c #3B593B",
"*@	c #263926",
"=@	c #907356",
"-@	c #F8C795",
";@	c #7E7369",
">@	c #444341",
",@	c #D4A97F",
"'@	c #9B7F5F",
")@	c #456544",
"!@	c #659765",
"~@	c #334D33",
"{@	c #5D8C5D",
"]@	c #446544",
"^@	c #507850",
"/@	c #5C8A5C",
"(@	c #4E3F2F",
"_@	c #F6C493",
":@	c #F1C191",
"<@	c #776859",
"[@	c #5B5A5A",
"}@	c #A38362",
"|@	c #E0B386",
"1@	c #6A6247",
"2@	c #537C53",
"3@	c #669966",
"4@	c #395639",
"5@	c #568156",
"6@	c #476A47",
"7@	c #608F60",
"8@	c #3E3225",
"9@	c #81674D",
"0@	c #6D5741",
"a@	c #1C1712",
"b@	c #393939",
"c@	c #31281F",
"d@	c #B08D69",
"e@	c #BC9771",
"f@	c #685A42",
"g@	c #466544",
"h@	c #659865",
"i@	c #4F774F",
"j@	c #3C5A3C",
"k@	c #4C724C",
"l@	c #172116",
"m@	c #2E3F2B",
"n@	c #273725",
"o@	c #2A3F2A",
"p@	c #5B895B",
"q@	c #527A52",
"r@	c #334C33",
"s@	c #203020",
"t@	c #0F160F",
"u@	c #3F5F3F",
"v@	c #507950",
"w@	c #406140",
"x@	c #253725",
"y@	c #3F5E3F",
"z@	c #4F764F",
"A@	c #3A583A",
"B@	c #496E49",
"C@	c #192519",
"D@	c #1A271A",
"E@	c #4A704A",
"F@	c #578257",
"G@	c #3E5D3E",
"H@	c #436543",
"I@	c #5F8F5F",
"J@	c #151F15",
"K@	c #486C48",
"L@	c #223322",
"M@	c #314931",
"N@	c #1C2A1C",
"O@	c #5D8B5D",
"P@	c #2A402A",
"Q@	c #233423",
"R@	c #273B27",
"S@	c #619161",
"T@	c #466946",
"U@	c #609160",
"V@	c #8B7D13",
"W@	c #6C6A1C",
"X@	c #293D29",
"Y@	c #233523",
"Z@	c #385538",
"`@	c #5E8E5E",
" #	c #64651F",
".#	c #FDCA00",
"+#	c #C59E00",
"@#	c #4D734D",
"##	c #090E09",
"$#	c #4A6F4A",
"%#	c #3D5B3D",
"&#	c #141D14",
"*#	c #2C422C",
"=#	c #4F673A",
"-#	c #C19B01",
";#	c #63651F",
">#	c #4D744D",
",#	c #223222",
"'#	c #3D5B3C",
")#	c #5B885B",
"!#	c #385438",
"                                                                                                ",
"                                                    . + @ # + $ % & * = -                       ",
"                                              ; > , ' ' ' ' ' ' ' ) $ ! ~                       ",
"    { {       { {   {                     ] ^ ' ' ' ' ' ' ' ' ' ' ' ' ) / (                     ",
"    { {       {     { {               _ : < ' ' ' ' ' ' ' ' ' ' ' ' ' ' [ }                     ",
"    { {       {     { {           | * 1 ' ' ' ' ' ' ' ' ' ' ' ' ' ' ' ' ' 2 }                   ",
"    { {       {     { {         3 4 5 ' ' ' ' ' ' ' ' ' ' ' ' ' ' ' ' ' ' ' 6                   ",
"    { {       {     { {         ! 7 ' ' ' ' ' ' ' ' ' ' ' ' ' ' ' ' ' ' ' ' ' 8                 ",
"    { {       {     { {         9 ' ' ' ' ' ' ' ' ' ' ' ' ' ' ' ' ' ' ' ' ' ' 0                 ",
"    { {       {     { {       & ' ' ' ' ' ' ' ' ' ' ' ' ' ' ' ' ' ' ' ' ' ' ' ^                 ",
"    { {       { { { {   a b c d e ' ' ' ' ' ' ' ' ' ' ' ' ' ' ' ' ' ' ' ' ' ' f {               ",
"                        g h ' ' i , ' ' ' ' ' ' ' ' ' ' ' ' ' ' ' ' ' ' ' ' ' < {               ",
"                        { { j k ' ' ' ' ' ' ' ' ' ' ' ' ' ' ' ' ' ' ' ' ' ' ' [ {               ",
"                          l m n o , ' ' ' ' ' ' ' ' ' ' ' ' ' ' ' ' ' ' ' ' ' p                 ",
"                        q r s s t u v ' ' ' ' ' ' ' ' ' ' ' ' ' ' ' ' ' ' ' ' 0                 ",
"                        w x s s y z A B C ' ' ' ' ' ' ' ' ' ' ' ' ' ' ' ' ' ' /                 ",
"                        D E F G H I J s K L M ' ' ' ' ' ' ' ' ' ' ' ' ' ' ' M N                 ",
"                        O P Q R S T U s s V W ) ' ' ' ' ' ' ' ' ' ' ' ' ' ' X                   ",
"                        Y Z ` +  ...V s s s +.@.#., ' ' ' ' ' ' ' ' ' ' ' ' $.                  ",
"                      %.s &.+.*.=.-.;.>.,.V s s '.c ).' ' ' ' ' ' ' ' ' ' e !.                  ",
"                    ~.s s s {.].s s s ^./.s s (._.:.<.; [.' ' ' ' ' ' ' ' $                     ",
"                  x s s s s s }.|.1.r s s s s 2.3.4.| 5.6.7.[ ' ' 8.9.9.k 0.                    ",
"                O s s s s s s s z a.s s s s b.c.3.d.8 e.f.g.h.i.M ' d.j.*                       ",
"                k.s s s l.m.n.s s s s s s s o.p.q.X ).r.s.t.=.u.% v.' f w.                      ",
"                s s s /.x.y.z.A.B.s s s s s s C.D.d M E.r F.G.H.{ I.. 8.|                       ",
"              J.s s s 1.K.s s L.M.s s s s s s s N.O.P.Q.R.S.T.U.V.  { W.X.                      ",
"              Y.s s s s s Z.`. +.+++s s s s s s @+d.#+$+%+&+*+=+-+    { {                       ",
"                ;+s s s >+,+'+7 )+!+~+s s s s s {+' ]+s s ^+/+3.b                               ",
"                (+_+s *.:+e.3.3.3.:.<+[+s s s +.}+|+1+2+3+4+5+3.6+                              ",
"                  7+8+9+4.:.3.3.3.3.3.0+a+s s b+c+d+e+f+g+s h+0 i+                              ",
"                      5.:.3.3.j+S 3.3.3.k+l+m+n+@ ^.o+s s F p+q+                                ",
"                      r+s+t+u+v+w+x+:.3.y+z+A+B+C+s s s s s s D+                                ",
"                          E+s F+++G+H+I+J+y+K+L+M+s s s s s s N+O+                              ",
"                          P+;.Q+R+s s Y S+T+).U+s s s s s s s V+W+X+Y+                          ",
"                            Z+s s s s s `+ @.@(.s s s s s s +@@@#@$@%@&@*@                      ",
"                            =@s s s s -@;@>@,@s s s s s s '@)@!@~@{@]@^@/@                      ",
"                            (@_@s s :@<@[@}@s s s s s |@1@2@3@4@5@^@6@3@7@                      ",
"                              8@9@0@a@b@c@d@m s *.e@f@g@h@3@i@j@3@3@!@3@k@                      ",
"                                            l@m@n@o@6@p@3@q@r@3@3@3@3@3@s@                      ",
"                                            t@u@v@w@x@y@z@A@3@3@3@3@3@B@                        ",
"                                            C@D@E@F@Y+G@H@3@3@3@3@3@I@J@                        ",
"                                            K@F@L@M@N@O@3@3@3@3@3@3@P@                          ",
"                                          Q@3@h@s@  R@3@3@3@S@3@3@z@                            ",
"                                          k@W+j@      T@3@U@V@W@W+X@                            ",
"                                      I.Y@u@Z@          `@ #.#+#@###                            ",
"                                      $#%#&#            *#=#-#;#>#                              ",
"                                                          ,#'#)#!#                              ",
"                                                              *#J@                              "};
