/* XPM */
static char * miner_xpm[] = {
"48 39 346 2",
"  	c None",
". 	c #44442D",
"+ 	c #42422C",
"@ 	c #3B3B27",
"# 	c #383825",
"$ 	c #626242",
"% 	c #484830",
"& 	c #3E3E29",
"* 	c #8F8F5F",
"= 	c #999966",
"- 	c #828257",
"; 	c #696946",
"> 	c #313121",
", 	c #222217",
"' 	c #6D6D49",
") 	c #959564",
"! 	c #787850",
"~ 	c #6F6F4A",
"{ 	c #181810",
"] 	c #17170F",
"^ 	c #2B2B1D",
"/ 	c #8C8C5D",
"( 	c #929261",
"_ 	c #343422",
": 	c #7F7F55",
"< 	c #5A5A3C",
"[ 	c #838358",
"} 	c #858559",
"| 	c #969664",
"1 	c #7D7D54",
"2 	c #252519",
"3 	c #5E5E3F",
"4 	c #8E8E5F",
"5 	c #808055",
"6 	c #11110B",
"7 	c #8D8D5E",
"8 	c #6E6E49",
"9 	c #959563",
"0 	c #555539",
"a 	c #505035",
"b 	c #989865",
"c 	c #555538",
"d 	c #7F7F48",
"e 	c #151505",
"f 	c #818156",
"g 	c #000000",
"h 	c #40402A",
"i 	c #909060",
"j 	c #515136",
"k 	c #6F6F45",
"l 	c #2E2E0B",
"m 	c #979765",
"n 	c #16160F",
"o 	c #363624",
"p 	c #5F5F3F",
"q 	c #70704A",
"r 	c #868659",
"s 	c #55552A",
"t 	c #7D7D1F",
"u 	c #37370E",
"v 	c #3D3D29",
"w 	c #71714B",
"x 	c #2C2C1D",
"y 	c #28281B",
"z 	c #3F3F2A",
"A 	c #929262",
"B 	c #7D7D53",
"C 	c #62621C",
"D 	c #A0A028",
"E 	c #A3A329",
"F 	c #7B7B1F",
"G 	c #373724",
"H 	c #838357",
"I 	c #919161",
"J 	c #5F5F44",
"K 	c #14140F",
"L 	c #27271A",
"M 	c #383826",
"N 	c #939361",
"O 	c #6F6F31",
"P 	c #5A5A17",
"Q 	c #78781E",
"R 	c #818120",
"S 	c #5E5E38",
"T 	c #616040",
"U 	c #5F5B3E",
"V 	c #987F5D",
"W 	c #77734E",
"X 	c #636240",
"Y 	c #766B4B",
"Z 	c #786956",
"` 	c #EAEAEA",
" .	c #525252",
"..	c #5B5B3C",
"+.	c #7A7A52",
"@.	c #77774F",
"#.	c #444427",
"$.	c #656542",
"%.	c #646443",
"&.	c #AB8966",
"*.	c #765E47",
"=.	c #FECB99",
"-.	c #816642",
";.	c #9F7828",
">.	c #CFA67C",
",.	c #B9A694",
"'.	c #5D5D3E",
").	c #43432C",
"!.	c #7E7E54",
"~.	c #58583B",
"{.	c #86865A",
"].	c #4F4F34",
"^.	c #73734C",
"/.	c #8E8E5E",
"(.	c #B89C71",
"_.	c #DAAE83",
":.	c #EDBE8E",
"<.	c #8B6E50",
"[.	c #967754",
"}.	c #F3C292",
"|.	c #B79F87",
"1.	c #8E8E8E",
"2.	c #545438",
"3.	c #616141",
"4.	c #72724C",
"5.	c #8B8B5D",
"6.	c #71714C",
"7.	c #9D815F",
"8.	c #FFCC99",
"9.	c #FDCA98",
"0.	c #E7B98B",
"a.	c #B38F6B",
"b.	c #F6C593",
"c.	c #A08060",
"d.	c #6D6D48",
"e.	c #58583A",
"f.	c #2A2A1C",
"g.	c #7A7A51",
"h.	c #666644",
"i.	c #89895B",
"j.	c #8B8B5C",
"k.	c #B4926D",
"l.	c #B8936E",
"m.	c #7E654C",
"n.	c #634F3B",
"o.	c #493A2C",
"p.	c #70704B",
"q.	c #949462",
"r.	c #43432D",
"s.	c #494931",
"t.	c #76764F",
"u.	c #606040",
"v.	c #B6926D",
"w.	c #7D644B",
"x.	c #89895C",
"y.	c #333322",
"z.	c #4F4F35",
"A.	c #545037",
"B.	c #ECBD8E",
"C.	c #C39C75",
"D.	c #564534",
"E.	c #939362",
"F.	c #59593C",
"G.	c #6A6A47",
"H.	c #8A8A5C",
"I.	c #656544",
"J.	c #6A5540",
"K.	c #CFA57C",
"L.	c #FECB98",
"M.	c #261E17",
"N.	c #050504",
"O.	c #989866",
"P.	c #656543",
"Q.	c #626241",
"R.	c #2E2E1E",
"S.	c #1D1D13",
"T.	c #4D4C33",
"U.	c #594B37",
"V.	c #907457",
"W.	c #796249",
"X.	c #614E3A",
"Y.	c #373725",
"Z.	c #3C3C28",
"`.	c #614D3A",
" +	c #C9A178",
".+	c #B7936E",
"++	c #2D2D1E",
"@+	c #232317",
"#+	c #56563A",
"$+	c #8C7054",
"%+	c #C29C75",
"&+	c #6D6A48",
"*+	c #564533",
"=+	c #8B6F54",
"-+	c #765F47",
";+	c #5B5B3D",
">+	c #010101",
",+	c #686845",
"'+	c #65513C",
")+	c #F8C795",
"!+	c #A38262",
"~+	c #82684E",
"{+	c #7E7451",
"]+	c #3D3D28",
"^+	c #4E4E34",
"/+	c #41412B",
"(+	c #6C6C48",
"_+	c #9C7D5E",
":+	c #836A4F",
"<+	c #2E2E1F",
"[+	c #303020",
"}+	c #10100B",
"|+	c #979764",
"1+	c #6F5942",
"2+	c #97795B",
"3+	c #D5AA80",
"4+	c #C7A078",
"5+	c #C29B74",
"6+	c #605E3F",
"7+	c #2A241A",
"8+	c #D8AC81",
"9+	c #D3A97F",
"0+	c #9F7F5F",
"a+	c #4C3D2D",
"b+	c #7B7B52",
"c+	c #393926",
"d+	c #030302",
"e+	c #C69E77",
"f+	c #5E4B38",
"g+	c #EEBF8F",
"h+	c #776148",
"i+	c #6A6645",
"j+	c #C59D76",
"k+	c #CDA47B",
"l+	c #A78564",
"m+	c #FAC896",
"n+	c #A78664",
"o+	c #3A3A27",
"p+	c #343423",
"q+	c #221C14",
"r+	c #626041",
"s+	c #493B2C",
"t+	c #B4906C",
"u+	c #6C5641",
"v+	c #A58463",
"w+	c #BC9671",
"x+	c #636342",
"y+	c #1A1A11",
"z+	c #060604",
"A+	c #7C7C53",
"B+	c #D8AD82",
"C+	c #CEA47B",
"D+	c #7F654C",
"E+	c #202015",
"F+	c #797951",
"G+	c #88885A",
"H+	c #070705",
"I+	c #4B4B32",
"J+	c #13110C",
"K+	c #947759",
"L+	c #A88665",
"M+	c #67523E",
"N+	c #232323",
"O+	c #42423E",
"P+	c #535349",
"Q+	c #505044",
"R+	c #4A4A3A",
"S+	c #3A3A29",
"T+	c #232318",
"U+	c #6B6B47",
"V+	c #9B7C5D",
"W+	c #545454",
"X+	c #434343",
"Y+	c #666666",
"Z+	c #252525",
"`+	c #4A4A31",
" @	c #55553D",
".@	c #505036",
"+@	c #848458",
"@@	c #0F0F0A",
"#@	c #323232",
"$@	c #3A3A3A",
"%@	c #151515",
"&@	c #272727",
"*@	c #575757",
"=@	c #181818",
"-@	c #2E2E2E",
";@	c #646464",
">@	c #494949",
",@	c #242424",
"'@	c #080808",
")@	c #505050",
"!@	c #404040",
"~@	c #474747",
"{@	c #5E5E5E",
"]@	c #262626",
"^@	c #3D3D3D",
"/@	c #484848",
"(@	c #3B3B3B",
"_@	c #656565",
":@	c #101010",
"<@	c #2F2F2F",
"[@	c #606060",
"}@	c #1F1F1F",
"|@	c #363636",
"1@	c #535353",
"2@	c #090908",
"3@	c #5D5D5D",
"4@	c #555555",
"5@	c #050505",
"6@	c #5B5B5B",
"7@	c #222222",
"8@	c #535343",
"9@	c #656554",
"0@	c #4B4B4B",
"a@	c #060606",
"b@	c #626262",
"c@	c #1A1A1A",
"d@	c #646450",
"e@	c #3F3F32",
"f@	c #020202",
"g@	c #595959",
"h@	c #0C0C0C",
"i@	c #444444",
"j@	c #88886D",
"k@	c #A2A282",
"l@	c #87876E",
"m@	c #909074",
"n@	c #49493A",
"o@	c #1A1A15",
"p@	c #434340",
"q@	c #565656",
"r@	c #464646",
"s@	c #585858",
"t@	c #313131",
"u@	c #1C1C17",
"v@	c #989879",
"w@	c #9D9D7D",
"x@	c #A4A483",
"y@	c #7D7D64",
"z@	c #2A2A22",
"A@	c #808066",
"B@	c #8C8C70",
"C@	c #86866B",
"D@	c #B6B691",
"E@	c #3F3F33",
"                                                                                                ",
"                                                                                                ",
"                          . + @ # $ %                                                           ",
"                      & * = = = = - ; >                                   , ' = ) !             ",
"                    . = = = = = = = = ~ { ]                             ^ / = = = = (           ",
"                  _ = = = = = = = = = = : < [ } | 1 2 3 4 } @           5 = = = = = = *         ",
"                6 7 = = = = = = = = = = = 8 5 = = 1 ; = = = 9 &       0 = = = = = = = = !       ",
"                a = = = = = = = = = = = = b < = = c b = = = = d e     f = = = = = = = = =       ",
"              g f = = = = = = = = = = = = = h = i j = = = = = k l     m = = = = = = = = = [     ",
"              n = = = = = = = = = = = = = = o = p q = = = = r s t u v = = = = = = = = = m w     ",
"              x = = = = = = = = = = = = = = y = z A = = = B C D E F G H = = = = = = I J K       ",
"              + = = = = = = = = = = = = = = L = M = = = = N O P Q R S v T U V W X Y Z `  .      ",
"              ..= = = = = = = = = = = = = = , | M = = = = = +.@.#.$.m %.&.*.=.-.;.>.,.`         ",
"              '.= = = = = = = = = = = = = = ).!.~.= = = = {.].i = = ^./.(._.:.<.[.}.|.1.        ",
"              '.= = = = = = = = = = = = = = 2.3.; = = = = 2.4.9 = = 5.6.7.8.8.9.8.8.0.a.b.c.    ",
"              d.= = = = = = = = = = = = = = e.f.g.= = = = h.i.= = = = j.k.8.8.8.8.8.l.m.n.o.    ",
"              p.= = q.= = = = = = = = = = = r.s.5 = = = = 5 t.= = = } u.v.8.8.8.8.8.8.w.        ",
"              ! = = 7 p x.= = = = = = = = = y.7 ~ = = = = !.! = = 5 z.A.B.8.8.8.8.8.C.D.        ",
"              i = = = E.%.F.u.| = = = = = = z = G.= | E.= < H.= | I.r.J.K.8.8.8.8.8.L.M.        ",
"            N.O.= = = = = = P.Q.= = = = = = R.  S.T.U.V.W.X.z.r.Y.a Z.    `. +8.8.8..+          ",
"            ++= = = = = = = @+#+= = = = = = $     $+8.8.8.%+&+O.= 9           *+=+-+            ",
"            ;+= = = = = = 7 >+,+= = = = = = u.    '+8.8.)+!+~+{+= ~ ]+                          ",
"            } = = = = = = ^+  /+= = = = = = (+      c.8.8.8._+:+i.= @.                          ",
"          <+= = = = = = = [+  }+|+= = = = = ~         1+2+3+4+5+6+= m 7+8+9+0+a+                ",
"          b+= = = = = = = c+  d+i = = = = = :           e+f+g+h+i+= . j+k+8.l+m+n+              ",
"          E.= = = = = = = o+  p+= = = = = = :               q+r+= i s+8.t+u+v+w+a.              ",
"          x+= = = = = = = y+z+A+= = = = = = b+                $ = 2.c.B+~+C+8.D+                ",
"          E+F+= = = = = G+H+/+= = = = = = = (+                  I+J+K+2+8.L+M+                  ",
"            N+O+P+Q+R+S+T+  U+= = = = = = = j                           V+o.                    ",
"            W+X+Y+Y+Y+Z+    2 s.`+ @.@~ +@(+@@                                                  ",
"      #@$@%@&@*@Y+Y+Y+=@      -@Y+Y+;@>@,@                                                      ",
"  '@)@Y+Y+!@~@{@Y+Y+Y+=@      ]@Y+Y+Y+^@/@                                                      ",
"  %@Y+Y+Y+(@>@_@Y+Y+Y+:@      <@Y+Y+Y+[@}@  |@1@|@                                              ",
"  2@3@Y+Y+4@Y+Y+Y+Y+;@5@      >@Y+Y+Y+*@N+6@Y+Y+Y+7@                                            ",
"  8@9@X+{@Y+Y+Y+Y+Y+0@      a@b@Y+Y+Y+Y+[@Y+Y+Y+Y+c@                                            ",
"    d@e@f@Z+g@Y+Y+3@}@      h@Y+Y+Y+Y+Y+Y+Y+Y+Y+i@>+                                            ",
"          j@k@l@m@n@        o@p@4@[@q@r@1@[@s@t@u@                                              ",
"                              v@w@x@y@z@A@B@C@D@E@                                              ",
"                                                                                                "};
