/* XPM */
static char * scout_xpm[] = {
"48 48 315 2",
"  	c None",
". 	c #373725",
"+ 	c #4F4F35",
"@ 	c #4E4E34",
"# 	c #3D3D28",
"$ 	c #383825",
"% 	c #818156",
"& 	c #999966",
"* 	c #989865",
"= 	c #5D5D3E",
"- 	c #000000",
"; 	c #3F3F2A",
"> 	c #979764",
", 	c #929261",
"' 	c #696946",
") 	c #8E8E5F",
"! 	c #999962",
"~ 	c #BBBB72",
"{ 	c #80804D",
"] 	c #555539",
"^ 	c #808053",
"/ 	c #9B895D",
"( 	c #967F5A",
"_ 	c #A18161",
": 	c #8C8C8C",
"< 	c #545438",
"[ 	c #989464",
"} 	c #AF8F69",
"| 	c #CCA37A",
"1 	c #C29B74",
"2 	c #FFCC99",
"3 	c #BA946F",
"4 	c #898989",
"5 	c #59593B",
"6 	c #C9AB7C",
"7 	c #C8A078",
"8 	c #A48362",
"9 	c #FECB98",
"0 	c #F5C493",
"a 	c #AB8967",
"b 	c #747474",
"c 	c #919191",
"d 	c #57573A",
"e 	c #848358",
"f 	c #B6926D",
"g 	c #BC9671",
"h 	c #B3906C",
"i 	c #BF9872",
"j 	c #BA9570",
"k 	c #828282",
"l 	c #8B7B6C",
"m 	c #303020",
"n 	c #989866",
"o 	c #867A53",
"p 	c #202020",
"q 	c #8A735B",
"r 	c #F7C694",
"s 	c #998067",
"t 	c #8C5D2F",
"u 	c #656544",
"v 	c #898756",
"w 	c #A89B65",
"x 	c #E2B588",
"y 	c #252524",
"z 	c #313131",
"A 	c #333333",
"B 	c #343333",
"C 	c #E7BA8C",
"D 	c #745D46",
"E 	c #8F8E8C",
"F 	c #987757",
"G 	c #956332",
"H 	c #796B4C",
"I 	c #DAAF83",
"J 	c #E8BC8B",
"K 	c #C6A17B",
"L 	c #D5AB82",
"M 	c #7E654B",
"N 	c #634F3C",
"O 	c #64503C",
"P 	c #B69574",
"Q 	c #926F4D",
"R 	c #885A2D",
"S 	c #987A5B",
"T 	c #D5AA80",
"U 	c #EFBF8F",
"V 	c #C59F79",
"W 	c #D7AC81",
"X 	c #CAA279",
"Y 	c #E4B789",
"Z 	c #E7B98B",
"` 	c #D4A779",
" .	c #CBA27A",
"..	c #E8BA8B",
"+.	c #2E2D2B",
"@.	c #323232",
"#.	c #453D36",
"$.	c #E1B487",
"%.	c #7F542A",
"&.	c #997552",
"*.	c #D2A87E",
"=.	c #E1B587",
"-.	c #BD7558",
";.	c #A10F0B",
">.	c #8A3229",
",.	c #C59F78",
"'.	c #95805C",
").	c #8C8C5D",
"!.	c #73734D",
"~.	c #7C7C53",
"{.	c #606057",
"].	c #78726C",
"^.	c #966432",
"/.	c #6E4D2B",
"(.	c #BA9670",
"_.	c #787850",
":.	c #7E7E54",
"<.	c #4E4B33",
"[.	c #A18261",
"}.	c #FAC896",
"|.	c #A08261",
"1.	c #6B6B48",
"2.	c #7D7D53",
"3.	c #949463",
"4.	c #7F7F6C",
"5.	c #8C8680",
"6.	c #92673C",
"7.	c #816136",
"8.	c #7C7650",
"9.	c #C39C75",
"0.	c #48452F",
"a.	c #8A8A5C",
"b.	c #919161",
"c.	c #838357",
"d.	c #7F7F55",
"e.	c #59543A",
"f.	c #846A4F",
"g.	c #B9946F",
"h.	c #716648",
"i.	c #88885A",
"j.	c #86865C",
"k.	c #8A8A7E",
"l.	c #94806C",
"m.	c #936435",
"n.	c #594628",
"o.	c #8D8D5E",
"p.	c #6F6D49",
"q.	c #929200",
"r.	c #AEAE31",
"s.	c #646443",
"t.	c #6D6D49",
"u.	c #8F7D5A",
"v.	c #7E7D54",
"w.	c #92927E",
"x.	c #7B7A7A",
"y.	c #7C6044",
"z.	c #885C2F",
"A.	c #756C45",
"B.	c #666644",
"C.	c #6B6B47",
"D.	c #F6F600",
"E.	c #C8C80F",
"F.	c #8B8B5D",
"G.	c #58583B",
"H.	c #58583A",
"I.	c #907A59",
"J.	c #857D6D",
"K.	c #939393",
"L.	c #8E7052",
"M.	c #72502A",
"N.	c #666341",
"O.	c #BFBF00",
"P.	c #D5D506",
"Q.	c #898944",
"R.	c #868659",
"S.	c #939362",
"T.	c #6C6947",
"U.	c #E0B386",
"V.	c #82766A",
"W.	c #8A6744",
"X.	c #645432",
"Y.	c #787856",
"Z.	c #656545",
"`.	c #8F8F5F",
" +	c #6C6C40",
".+	c #8E8E5E",
"++	c #8B8B5C",
"@+	c #6C6C48",
"#+	c #6F6F4A",
"$+	c #797951",
"%+	c #74744E",
"&+	c #87875A",
"*+	c #AF906A",
"=+	c #CAA179",
"-+	c #8A5D31",
";+	c #6B4824",
">+	c #76764F",
",+	c #75754E",
"'+	c #959563",
")+	c #857C56",
"!+	c #FDCB98",
"~+	c #F9C796",
"{+	c #D5A779",
"]+	c #9D7D58",
"^+	c #969363",
"/+	c #7D7D54",
"(+	c #4D4D33",
"_+	c #494931",
":+	c #979765",
"<+	c #A98E68",
"[+	c #E7B98A",
"}+	c #E9BB8C",
"|+	c #817953",
"1+	c #848458",
"2+	c #636342",
"3+	c #7A7A52",
"4+	c #969664",
"5+	c #BA9A71",
"6+	c #EDBE8E",
"7+	c #F3C392",
"8+	c #A48764",
"9+	c #71714C",
"0+	c #5A5436",
"a+	c #7C552C",
"b+	c #73502A",
"c+	c #926335",
"d+	c #A87D52",
"e+	c #A98B66",
"f+	c #7C7A52",
"g+	c #807F55",
"h+	c #5E5334",
"i+	c #996633",
"j+	c #6A4C29",
"k+	c #909060",
"l+	c #70704B",
"m+	c #6A6A46",
"n+	c #73734C",
"o+	c #959564",
"p+	c #7E5F35",
"q+	c #8B5D2F",
"r+	c #7A764E",
"s+	c #83835F",
"t+	c #686847",
"u+	c #808055",
"v+	c #8D8B5C",
"w+	c #836A3E",
"x+	c #7B734A",
"y+	c #636350",
"z+	c #757564",
"A+	c #8D8D5F",
"B+	c #828256",
"C+	c #7A7A51",
"D+	c #656543",
"E+	c #88885B",
"F+	c #7B7B52",
"G+	c #949462",
"H+	c #373724",
"I+	c #77774F",
"J+	c #606040",
"K+	c #6E6E49",
"L+	c #313121",
"M+	c #46462E",
"N+	c #71714B",
"O+	c #343431",
"P+	c #5C5C54",
"Q+	c #585851",
"R+	c #666658",
"S+	c #63634F",
"T+	c #61614B",
"U+	c #5B5B4D",
"V+	c #6A6A55",
"W+	c #6C6C52",
"X+	c #4D4D36",
"Y+	c #7E7E7E",
"Z+	c #666666",
"`+	c #606060",
" @	c #626262",
".@	c #676767",
"+@	c #575757",
"@@	c #5D5D5D",
"#@	c #5A5A5A",
"$@	c #5B5B5B",
"%@	c #5F5F5F",
"&@	c #7B7B7B",
"*@	c #434343",
"=@	c #616161",
"-@	c #636363",
";@	c #373737",
">@	c #595959",
",@	c #525252",
"'@	c #646464",
")@	c #656565",
"!@	c #464646",
"~@	c #565656",
"{@	c #444444",
"]@	c #555555",
"^@	c #2D2D2D",
"/@	c #5E5E5E",
"(@	c #6C6C62",
"_@	c #5E5E5B",
":@	c #595957",
"<@	c #565653",
"[@	c #63635A",
"}@	c #32322D",
"|@	c #2B2B2B",
"1@	c #3E3E3A",
"2@	c #51514E",
"3@	c #515151",
"4@	c #CECEA4",
"5@	c #BEBE98",
"6@	c #8C8C70",
"7@	c #2C2C25",
"8@	c #393931",
"9@	c #626251",
"0@	c #767661",
"                                                                                                ",
"                              . + @ #                                                           ",
"                          $ % & & & * =                                                         ",
"        - -   - -       ; > & & & & & , '                                                       ",
"              - -       ) & & & & & ! ~ {                                                       ",
"              - -     ] & & & & & ^ / ( _                                   :                   ",
"            - -       < & & & & [ } | 1 2 3                               4                     ",
"          - -         5 & & & & 6 7 8 9 0 a                           b c                       ",
"        - -           d & & & e f 9 g h i 2 j                       k l                         ",
"        - -           m n & n o 9 2 7   p q r                     : s t                         ",
"        - - - - -       u n v w 2 x y z A B C D                 E F G                           ",
"                          H I J 2 K A A A A L M           N O P Q R                             ",
"                          S T U 2 V A A A z W             X Y Z `                               ",
"                               .2 ..+.@.A #.$.          %.&.2 2 *.                              ",
"                                =.2 -.;.>.,.'.).!.~.{.].^./.9 (.                                ",
"                            _.:.<.[.}.2 2 |.1.2.3.4.5.6.7.8.9.0.                                ",
"                          a.b.:.c.d.e.f.g.h.i.j.k.l.m.n.o.& p.                                  ",
"                        q.r.& & & < s.t.u.v.w.x.y.z.A.B.& & C.                                  ",
"                        D.E.& & F.G.H.s.I.J.K.L.M.N.s., & & s.                                  ",
"                      O.P.Q.& R.% S.G.T.U.V.W.X.S.Y.Z.& & `.                                    ",
"                       +.+++@+#+$+%+&+*+=+-+;+>+,+@+B.++d.d                                     ",
"                      '+& & & & & & )+!+~+{+]+^+/+>+(+                                          ",
"                    _+& & & & & :+& <+2 2 [+}+|+1+d.                                            ",
"                    2+& & & & & 3+4+5+2 6+7+8+4+& )                                             ",
"                      9+$+1+3+0+a+b+c+d+e+f+g+, & 4+                                            ",
"                              h+i+i+i+j+k+l+m+% & n+                                            ",
"                              o+p+i+q+r+b.s+t+u+@+                                              ",
"                              '+v+w+x+l+y+z+A+& t.                                              ",
"                              % :.~.B+3.& & & &                                                 ",
"                              n & & & & & & & C+                                                ",
"                              & & & & & & & & D+                                                ",
"                            t.& & & & & S.& &                                                   ",
"                            E+& & & & F+:+& G+                                                  ",
"                          H+& & & & & I+& & R.                                                  ",
"                          J+& & & & b.K+& & R.                                                  ",
"                        L+S.& & & & ,+).& & R.                                                  ",
"                        I+& & & & & l+S.& & $+                                                  ",
"                      M+& & & & & & N+& & & t.                                                  ",
"                        a.& & & & & $+& & & +                                                   ",
"                        O+P+Q+R+S+T+U+V+W+X+                                                    ",
"                          Y+Z+Z+Z+`+ @.@+@                                                      ",
"                        A @@Z+Z+#@$@%@&@                                                        ",
"                        *@=@Z+Z++@Z+-@`+                                                        ",
"                  ;@+@-@>@,@'@Z+)@Z+%@!@                                                        ",
"                   @Z+Z+Z+Z+)@Z+Z+'@~@{@]@~@^@                                                  ",
"                  Z+Z+Z+Z+Z+Z+Z+Z+Z+Z+Z+Z+Z+/@                                                  ",
"                  (@_@:@<@[@}@|@1@2@Z+Z+Z+Z+3@                                                  ",
"                    4@5@6@          7@8@9@0@                                                    "};
