/* XPM */
static char * scout_xpm[] = {
"32 48 314 2",
"  	c None",
". 	c #373725",
"+ 	c #4F4F35",
"@ 	c #4E4E34",
"# 	c #3D3D28",
"$ 	c #383825",
"% 	c #818156",
"& 	c #999966",
"* 	c #989865",
"= 	c #5D5D3E",
"- 	c #3F3F2A",
"; 	c #979764",
"> 	c #929261",
", 	c #696946",
"' 	c #8E8E5F",
") 	c #999962",
"! 	c #BBBB72",
"~ 	c #80804D",
"{ 	c #555539",
"] 	c #808053",
"^ 	c #9B895D",
"/ 	c #967F5A",
"( 	c #A18161",
"_ 	c #8C8C8C",
": 	c #545438",
"< 	c #989464",
"[ 	c #AF8F69",
"} 	c #CCA37A",
"| 	c #C29B74",
"1 	c #FFCC99",
"2 	c #BA946F",
"3 	c #898989",
"4 	c #59593B",
"5 	c #C9AB7C",
"6 	c #C8A078",
"7 	c #A48362",
"8 	c #FECB98",
"9 	c #F5C493",
"0 	c #AB8967",
"a 	c #747474",
"b 	c #919191",
"c 	c #57573A",
"d 	c #848358",
"e 	c #B6926D",
"f 	c #BC9671",
"g 	c #B3906C",
"h 	c #BF9872",
"i 	c #BA9570",
"j 	c #828282",
"k 	c #8B7B6C",
"l 	c #303020",
"m 	c #989866",
"n 	c #867A53",
"o 	c #202020",
"p 	c #8A735B",
"q 	c #F7C694",
"r 	c #998067",
"s 	c #8C5D2F",
"t 	c #656544",
"u 	c #898756",
"v 	c #A89B65",
"w 	c #E2B588",
"x 	c #252524",
"y 	c #313131",
"z 	c #333333",
"A 	c #343333",
"B 	c #E7BA8C",
"C 	c #745D46",
"D 	c #8F8E8C",
"E 	c #987757",
"F 	c #956332",
"G 	c #796B4C",
"H 	c #DAAF83",
"I 	c #E8BC8B",
"J 	c #C6A17B",
"K 	c #D5AB82",
"L 	c #7E654B",
"M 	c #634F3C",
"N 	c #64503C",
"O 	c #B69574",
"P 	c #926F4D",
"Q 	c #885A2D",
"R 	c #987A5B",
"S 	c #D5AA80",
"T 	c #EFBF8F",
"U 	c #C59F79",
"V 	c #D7AC81",
"W 	c #CAA279",
"X 	c #E4B789",
"Y 	c #E7B98B",
"Z 	c #D4A779",
"` 	c #CBA27A",
" .	c #E8BA8B",
"..	c #2E2D2B",
"+.	c #323232",
"@.	c #453D36",
"#.	c #E1B487",
"$.	c #7F542A",
"%.	c #997552",
"&.	c #D2A87E",
"*.	c #E1B587",
"=.	c #BD7558",
"-.	c #A10F0B",
";.	c #8A3229",
">.	c #C59F78",
",.	c #95805C",
"'.	c #8C8C5D",
").	c #73734D",
"!.	c #7C7C53",
"~.	c #606057",
"{.	c #78726C",
"].	c #966432",
"^.	c #6E4D2B",
"/.	c #BA9670",
"(.	c #787850",
"_.	c #7E7E54",
":.	c #4E4B33",
"<.	c #A18261",
"[.	c #FAC896",
"}.	c #A08261",
"|.	c #6B6B48",
"1.	c #7D7D53",
"2.	c #949463",
"3.	c #7F7F6C",
"4.	c #8C8680",
"5.	c #92673C",
"6.	c #816136",
"7.	c #7C7650",
"8.	c #C39C75",
"9.	c #48452F",
"0.	c #8A8A5C",
"a.	c #919161",
"b.	c #838357",
"c.	c #7F7F55",
"d.	c #59543A",
"e.	c #846A4F",
"f.	c #B9946F",
"g.	c #716648",
"h.	c #88885A",
"i.	c #86865C",
"j.	c #8A8A7E",
"k.	c #94806C",
"l.	c #936435",
"m.	c #594628",
"n.	c #8D8D5E",
"o.	c #6F6D49",
"p.	c #929200",
"q.	c #AEAE31",
"r.	c #646443",
"s.	c #6D6D49",
"t.	c #8F7D5A",
"u.	c #7E7D54",
"v.	c #92927E",
"w.	c #7B7A7A",
"x.	c #7C6044",
"y.	c #885C2F",
"z.	c #756C45",
"A.	c #666644",
"B.	c #6B6B47",
"C.	c #F6F600",
"D.	c #C8C80F",
"E.	c #8B8B5D",
"F.	c #58583B",
"G.	c #58583A",
"H.	c #907A59",
"I.	c #857D6D",
"J.	c #939393",
"K.	c #8E7052",
"L.	c #72502A",
"M.	c #666341",
"N.	c #BFBF00",
"O.	c #D5D506",
"P.	c #898944",
"Q.	c #868659",
"R.	c #939362",
"S.	c #6C6947",
"T.	c #E0B386",
"U.	c #82766A",
"V.	c #8A6744",
"W.	c #645432",
"X.	c #787856",
"Y.	c #656545",
"Z.	c #8F8F5F",
"`.	c #6C6C40",
" +	c #8E8E5E",
".+	c #8B8B5C",
"++	c #6C6C48",
"@+	c #6F6F4A",
"#+	c #797951",
"$+	c #74744E",
"%+	c #87875A",
"&+	c #AF906A",
"*+	c #CAA179",
"=+	c #8A5D31",
"-+	c #6B4824",
";+	c #76764F",
">+	c #75754E",
",+	c #959563",
"'+	c #857C56",
")+	c #FDCB98",
"!+	c #F9C796",
"~+	c #D5A779",
"{+	c #9D7D58",
"]+	c #969363",
"^+	c #7D7D54",
"/+	c #4D4D33",
"(+	c #494931",
"_+	c #979765",
":+	c #A98E68",
"<+	c #E7B98A",
"[+	c #E9BB8C",
"}+	c #817953",
"|+	c #848458",
"1+	c #636342",
"2+	c #7A7A52",
"3+	c #969664",
"4+	c #BA9A71",
"5+	c #EDBE8E",
"6+	c #F3C392",
"7+	c #A48764",
"8+	c #71714C",
"9+	c #5A5436",
"0+	c #7C552C",
"a+	c #73502A",
"b+	c #926335",
"c+	c #A87D52",
"d+	c #A98B66",
"e+	c #7C7A52",
"f+	c #807F55",
"g+	c #5E5334",
"h+	c #996633",
"i+	c #6A4C29",
"j+	c #909060",
"k+	c #70704B",
"l+	c #6A6A46",
"m+	c #73734C",
"n+	c #959564",
"o+	c #7E5F35",
"p+	c #8B5D2F",
"q+	c #7A764E",
"r+	c #83835F",
"s+	c #686847",
"t+	c #808055",
"u+	c #8D8B5C",
"v+	c #836A3E",
"w+	c #7B734A",
"x+	c #636350",
"y+	c #757564",
"z+	c #8D8D5F",
"A+	c #828256",
"B+	c #7A7A51",
"C+	c #656543",
"D+	c #88885B",
"E+	c #7B7B52",
"F+	c #949462",
"G+	c #373724",
"H+	c #77774F",
"I+	c #606040",
"J+	c #6E6E49",
"K+	c #313121",
"L+	c #46462E",
"M+	c #71714B",
"N+	c #343431",
"O+	c #5C5C54",
"P+	c #585851",
"Q+	c #666658",
"R+	c #63634F",
"S+	c #61614B",
"T+	c #5B5B4D",
"U+	c #6A6A55",
"V+	c #6C6C52",
"W+	c #4D4D36",
"X+	c #7E7E7E",
"Y+	c #666666",
"Z+	c #606060",
"`+	c #626262",
" @	c #676767",
".@	c #575757",
"+@	c #5D5D5D",
"@@	c #5A5A5A",
"#@	c #5B5B5B",
"$@	c #5F5F5F",
"%@	c #7B7B7B",
"&@	c #434343",
"*@	c #616161",
"=@	c #636363",
"-@	c #373737",
";@	c #595959",
">@	c #525252",
",@	c #646464",
"'@	c #656565",
")@	c #464646",
"!@	c #565656",
"~@	c #444444",
"{@	c #555555",
"]@	c #2D2D2D",
"^@	c #5E5E5E",
"/@	c #6C6C62",
"(@	c #5E5E5B",
"_@	c #595957",
":@	c #565653",
"<@	c #63635A",
"[@	c #32322D",
"}@	c #2B2B2B",
"|@	c #3E3E3A",
"1@	c #51514E",
"2@	c #515151",
"3@	c #CECEA4",
"4@	c #BEBE98",
"5@	c #8C8C70",
"6@	c #2C2C25",
"7@	c #393931",
"8@	c #626251",
"9@	c #767661",
"                                                                ",
"              . + @ #                                           ",
"          $ % & & & * =                                         ",
"        - ; & & & & & > ,                                       ",
"        ' & & & & & ) ! ~                                       ",
"      { & & & & & ] ^ / (                                   _   ",
"      : & & & & < [ } | 1 2                               3     ",
"      4 & & & & 5 6 7 8 9 0                           a b       ",
"      c & & & d e 8 f g h 1 i                       j k         ",
"      l m & m n 8 1 6   o p q                     _ r s         ",
"        t m u v 1 w x y z A B C                 D E F           ",
"          G H I 1 J z z z z K L           M N O P Q             ",
"          R S T 1 U z z z y V             W X Y Z               ",
"              ` 1  ...+.z @.#.          $.%.1 1 &.              ",
"                *.1 =.-.;.>.,.'.).!.~.{.].^.8 /.                ",
"            (._.:.<.[.1 1 }.|.1.2.3.4.5.6.7.8.9.                ",
"          0.a._.b.c.d.e.f.g.h.i.j.k.l.m.n.& o.                  ",
"        p.q.& & & : r.s.t.u.v.w.x.y.z.A.& & B.                  ",
"        C.D.& & E.F.G.r.H.I.J.K.L.M.r.> & & r.                  ",
"      N.O.P.& Q.% R.F.S.T.U.V.W.R.X.Y.& & Z.                    ",
"      `. +.+++@+#+$+%+&+*+=+-+;+>+++A..+c.c                     ",
"      ,+& & & & & & '+)+!+~+{+]+^+;+/+                          ",
"    (+& & & & & _+& :+1 1 <+[+}+|+c.                            ",
"    1+& & & & & 2+3+4+1 5+6+7+3+& '                             ",
"      8+#+|+2+9+0+a+b+c+d+e+f+> & 3+                            ",
"              g+h+h+h+i+j+k+l+% & m+                            ",
"              n+o+h+p+q+a.r+s+t+++                              ",
"              ,+u+v+w+k+x+y+z+& s.                              ",
"              % _.!.A+2.& & & &                                 ",
"              m & & & & & & & B+                                ",
"              & & & & & & & & C+                                ",
"            s.& & & & & R.& &                                   ",
"            D+& & & & E+_+& F+                                  ",
"          G+& & & & & H+& & Q.                                  ",
"          I+& & & & a.J+& & Q.                                  ",
"        K+R.& & & & >+'.& & Q.                                  ",
"        H+& & & & & k+R.& & #+                                  ",
"      L+& & & & & & M+& & & s.                                  ",
"        0.& & & & & #+& & & +                                   ",
"        N+O+P+Q+R+S+T+U+V+W+                                    ",
"          X+Y+Y+Y+Z+`+ @.@                                      ",
"        z +@Y+Y+@@#@$@%@                                        ",
"        &@*@Y+Y+.@Y+=@Z+                                        ",
"  -@.@=@;@>@,@Y+'@Y+$@)@                                        ",
"  `+Y+Y+Y+Y+'@Y+Y+,@!@~@{@!@]@                                  ",
"  Y+Y+Y+Y+Y+Y+Y+Y+Y+Y+Y+Y+Y+^@                                  ",
"  /@(@_@:@<@[@}@|@1@Y+Y+Y+Y+2@                                  ",
"    3@4@5@          6@7@8@9@                                    "};
