/* XPM */
static char * sergeant_xpm[] = {
"40 48 301 2",
"  	c None",
". 	c #6F6F4A",
"+ 	c #696946",
"@ 	c #666644",
"# 	c #999966",
"$ 	c #969664",
"% 	c #71683C",
"& 	c #5F532B",
"* 	c #87875A",
"= 	c #787850",
"- 	c #31301E",
"; 	c #7C6023",
"> 	c #CC9933",
", 	c #806B33",
"' 	c #939362",
") 	c #98732E",
"! 	c #B4872D",
"~ 	c #AB802B",
"{ 	c #747149",
"] 	c #8B8B5D",
"^ 	c #574529",
"/ 	c #9E7F60",
"( 	c #8C745C",
"_ 	c #9B8F83",
": 	c #98815E",
"< 	c #686845",
"[ 	c #C4C4C4",
"} 	c #807366",
"| 	c #E1E0E0",
"1 	c #C8C1BA",
"2 	c #F5C493",
"3 	c #868057",
"4 	c #3E3A37",
"5 	c #C5C5C5",
"6 	c #8D8D8D",
"7 	c #FFFFFF",
"8 	c #C5B09A",
"9 	c #FFCC99",
"0 	c #D5AD81",
"a 	c #A79469",
"b 	c #5A583B",
"c 	c #F7C694",
"d 	c #FDCB98",
"e 	c #C8A078",
"f 	c #726C65",
"g 	c #BBB3AC",
"h 	c #EABC8E",
"i 	c #F4C393",
"j 	c #9B7C5D",
"k 	c #C09973",
"l 	c #AA8866",
"m 	c #96785A",
"n 	c #EDBE8E",
"o 	c #FECB98",
"p 	c #67523E",
"q 	c #9F7F5F",
"r 	c #EBBC8D",
"s 	c #FBC996",
"t 	c #A98867",
"u 	c #6A5643",
"v 	c #F6C594",
"w 	c #FAC896",
"x 	c #4F4133",
"y 	c #514437",
"z 	c #25211D",
"A 	c #181818",
"B 	c #645240",
"C 	c #CAA179",
"D 	c #121212",
"E 	c #191919",
"F 	c #9D7E5F",
"G 	c #957759",
"H 	c #272717",
"I 	c #868659",
"J 	c #636342",
"K 	c #2F2F24",
"L 	c #221F1C",
"M 	c #EEBF8F",
"N 	c #423F2B",
"O 	c #1E1E13",
"P 	c #555515",
"Q 	c #73731D",
"R 	c #5D5D17",
"S 	c #808054",
"T 	c #4C0908",
"U 	c #4F0C0C",
"V 	c #2C1414",
"W 	c #705C47",
"X 	c #F8C695",
"Y 	c #897D57",
"Z 	c #7D7D53",
"` 	c #8C8C5E",
" .	c #44442D",
"..	c #808055",
"+.	c #7B7B4B",
"@.	c #999926",
"#.	c #808020",
"$.	c #68683E",
"%.	c #7C7C53",
"&.	c #635E40",
"*.	c #B64D3A",
"=.	c #B0291F",
"-.	c #903E2F",
";.	c #9D8B62",
">.	c #7C7C52",
",.	c #8F8F5F",
"'.	c #71714B",
").	c #959564",
"!.	c #838357",
"~.	c #656544",
"{.	c #5F5F3F",
"].	c #69692E",
"^.	c #6E6E26",
"/.	c #676737",
"(.	c #8E8E5F",
"_.	c #919161",
":.	c #6E5F44",
"<.	c #C59D76",
"[.	c #E1B487",
"}.	c #826E50",
"|.	c #979765",
"1.	c #70704B",
"2.	c #949463",
"3.	c #4F4F24",
"4.	c #8D8D5E",
"5.	c #8C8C5D",
"6.	c #6B6B47",
"7.	c #7B7B52",
"8.	c #7A7A51",
"9.	c #736E4B",
"0.	c #C49D76",
"a.	c #876E52",
"b.	c #6F6E4A",
"c.	c #7E7E54",
"d.	c #76763F",
"e.	c #919126",
"f.	c #8F8F24",
"g.	c #4D4D13",
"h.	c #989865",
"i.	c #59593C",
"j.	c #947C5A",
"k.	c #CFA97D",
"l.	c #8E8A5D",
"m.	c #858559",
"n.	c #919160",
"o.	c #515122",
"p.	c #898922",
"q.	c #8E8E23",
"r.	c #5E5E18",
"s.	c #59593B",
"t.	c #545438",
"u.	c #13130D",
"v.	c #88885B",
"w.	c #73734C",
"x.	c #77774F",
"y.	c #8A855A",
"z.	c #E8BA8B",
"A.	c #837E56",
"B.	c #828257",
"C.	c #7B7B2E",
"D.	c #7D7D32",
"E.	c #737334",
"F.	c #4B4B30",
"G.	c #89895B",
"H.	c #191910",
"I.	c #858558",
"J.	c #929261",
"K.	c #91845C",
"L.	c #8C7857",
"M.	c #76764F",
"N.	c #848458",
"O.	c #909060",
"P.	c #42422C",
"Q.	c #313120",
"R.	c #4F4F35",
"S.	c #5C5C3D",
"T.	c #818156",
"U.	c #7F7B54",
"V.	c #73734D",
"W.	c #6D6D48",
"X.	c #555539",
"Y.	c #959563",
"Z.	c #3E3E29",
"`.	c #494931",
" +	c #7F7F55",
".+	c #74744E",
"++	c #484830",
"@+	c #4A4A31",
"#+	c #949462",
"$+	c #2F2B1E",
"%+	c #C39C75",
"&+	c #C19B74",
"*+	c #40402A",
"=+	c #7E7A53",
"-+	c #8E865C",
";+	c #6B6B48",
">+	c #676745",
",+	c #847353",
"'+	c #F0C090",
")+	c #BA956F",
"!+	c #7F654C",
"~+	c #483B2C",
"{+	c #8C7A57",
"]+	c #646443",
"^+	c #75754E",
"/+	c #5D5D3E",
"(+	c #5E5A3D",
"_+	c #9A7C5D",
":+	c #BD9772",
"<+	c #866B50",
"[+	c #C69E77",
"}+	c #CDA47B",
"|+	c #745D46",
"1+	c #83694F",
"2+	c #584E37",
"3+	c #8F8F60",
"4+	c #312E20",
"5+	c #81674D",
"6+	c #B9946F",
"7+	c #56563A",
"8+	c #4A3B2C",
"9+	c #D1A77E",
"0+	c #B38F6C",
"a+	c #72724C",
"b+	c #828256",
"c+	c #6E6D49",
"d+	c #606040",
"e+	c #695F3C",
"f+	c #50351B",
"g+	c #656543",
"h+	c #474731",
"i+	c #777750",
"j+	c #8A8A5C",
"k+	c #6D6C47",
"l+	c #614A2A",
"m+	c #8E5F2F",
"n+	c #54492D",
"o+	c #483018",
"p+	c #696867",
"q+	c #696969",
"r+	c #322E29",
"s+	c #5E4728",
"t+	c #6B5633",
"u+	c #756F48",
"v+	c #373725",
"w+	c #8B8B5C",
"x+	c #797950",
"y+	c #232317",
"z+	c #6C6C48",
"A+	c #505036",
"B+	c #86865A",
"C+	c #242420",
"D+	c #5D5D4A",
"E+	c #595945",
"F+	c #434334",
"G+	c #66664F",
"H+	c #45453C",
"I+	c #202020",
"J+	c #6A6A6A",
"K+	c #666666",
"L+	c #4E4E4E",
"M+	c #595959",
"N+	c #3E3E3E",
"O+	c #0E0E0E",
"P+	c #565656",
"Q+	c #444444",
"R+	c #5E5E5E",
"S+	c #4F4F4F",
"T+	c #252525",
"U+	c #535353",
"V+	c #474747",
"W+	c #626262",
"X+	c #434343",
"Y+	c #313131",
"Z+	c #575757",
"`+	c #464646",
" @	c #515151",
".@	c #656565",
"+@	c #585858",
"@@	c #272727",
"#@	c #5A5A5A",
"$@	c #4A4A4A",
"%@	c #4C4C4C",
"&@	c #5B5B5B",
"*@	c #45453A",
"=@	c #54544F",
"-@	c #4D4D49",
";@	c #5C5C52",
">@	c #67675A",
",@	c #535348",
"'@	c #5B5B4E",
")@	c #626259",
"!@	c #4F4F4E",
"~@	c #525252",
"{@	c #9D9D7E",
"]@	c #84846A",
"^@	c #71715A",
"/@	c #929275",
"(@	c #979779",
"_@	c #838369",
":@	c #77775F",
"                                                                                ",
"                                          . +                                   ",
"                                      @ # # # $                                 ",
"                                  % & * # # # # =                               ",
"                                - ; > , # # # # '                               ",
"                                  ) ! ~ { # # # ]                               ",
"                                ^ / ( _ : # # # <                               ",
"                                [ } | 1 2 3 # '                                 ",
"                              4 5 6 7 8 9 0 a b                                 ",
"                            c d e f g h 9 9 i                                   ",
"                            j k l m n 9 9 o p                                   ",
"                            q r s 2 t u v w                                     ",
"                              x y z A B 9 C                                     ",
"                              D E E E F 9 G                                     ",
"                  H . = I J + K E E L 2 M N                                     ",
"          O P Q R S # # # # . T U V W X Y Z ` ]                                 ",
"       ...+.@.@.#.$.# # # %.&.*.=.-.r ;.>.# ,.'.).!.~.                          ",
"    {.# # # ].^./.* $ # %.(._.:.<.[.}.|.1.# # # # # 2.3.                        ",
"    ' # # # # # # 4.5.# 6.7.8.9.0.a.b.= c.# # # # d.e.f.g.                      ",
"    (.# # # # # h.i.7.|.# # # j.k.l.# m.` # # # # n.o.p.q.r.                    ",
"    s.# # # _.t.u...v.w.x.# y.z.A.x.B.|.# # # # # # v.C.D.E.F.                  ",
"      G.# # # x.H.I.J.7.%.# K.L.+ $ ,.M.N.# # # # # # # # # # O.P.              ",
"      Q.h.# # # 6.R.S.2.T.# U.V.W.6.* = X.!.# # # # # # # # # # Y.Z.            ",
"        `.h.# # 8.M. +* * # # .+ +V.++T.T...@+x.#+# # # # # # # # v.$+%+&+      ",
"          *+B.=+-+= = 8.# # # .+c.8.;+>+# h.        {.< @ %.$ # # . ,+'+)+!+    ",
"              ~+{+= ]+^+# # # v.]+/+< + # T.                  t.V.(+_+:+<+[+}+|+",
"              1+2+# # # # # # # # O.3+' 2.                      4+}+5+6+l       ",
"                  G.# # # # # # # # # # 7+                        8+9+0+        ",
"                  a+# # # # # # # # # b+                                        ",
"                    J.# # # # # # # # c+                                        ",
"                    d+# # # # # # |.e+f+                                        ",
"                      g+.+h+i+j+k+l+m+n+B.                                      ",
"                        o+p+q+r+s+t+u+|.G.                                      ",
"                        a+x...h.# # # # h.                                      ",
"                        v+# # # T.# # # #                                       ",
"                          < # # w+x+# # *                                       ",
"                            7.# # @ # # W.                                      ",
"                            y+J.# z+,.# 7.                                      ",
"                              J # h.d+h.$                                       ",
"                              A+# # .+I B+                                      ",
"                              C+D+E+F+G+H+                                      ",
"                              I+J+K+L+M+N+                                      ",
"                              O+P+K+Q+R+S+                                      ",
"                              T+U+K+V+W+X+                                      ",
"                          Y+Z+Z+`+ @.@+@@@                                      ",
"                          +@K+K+K+ @#@$@%@&@`+                                  ",
"                        *@=@-@;@>@,@'@)@!@~@!@                                  ",
"                          {@]@^@      /@(@_@:@                                  "};
