/* XPM */
static char * sergeant_xpm[] = {
"48 48 302 2",
"  	c None",
". 	c #6F6F4A",
"+ 	c #696946",
"@ 	c #666644",
"# 	c #999966",
"$ 	c #969664",
"% 	c #71683C",
"& 	c #5F532B",
"* 	c #87875A",
"= 	c #787850",
"- 	c #000000",
"; 	c #31301E",
"> 	c #7C6023",
", 	c #CC9933",
"' 	c #806B33",
") 	c #939362",
"! 	c #98732E",
"~ 	c #B4872D",
"{ 	c #AB802B",
"] 	c #747149",
"^ 	c #8B8B5D",
"/ 	c #574529",
"( 	c #9E7F60",
"_ 	c #8C745C",
": 	c #9B8F83",
"< 	c #98815E",
"[ 	c #686845",
"} 	c #C4C4C4",
"| 	c #807366",
"1 	c #E1E0E0",
"2 	c #C8C1BA",
"3 	c #F5C493",
"4 	c #868057",
"5 	c #3E3A37",
"6 	c #C5C5C5",
"7 	c #8D8D8D",
"8 	c #FFFFFF",
"9 	c #C5B09A",
"0 	c #FFCC99",
"a 	c #D5AD81",
"b 	c #A79469",
"c 	c #5A583B",
"d 	c #F7C694",
"e 	c #FDCB98",
"f 	c #C8A078",
"g 	c #726C65",
"h 	c #BBB3AC",
"i 	c #EABC8E",
"j 	c #F4C393",
"k 	c #9B7C5D",
"l 	c #C09973",
"m 	c #AA8866",
"n 	c #96785A",
"o 	c #EDBE8E",
"p 	c #FECB98",
"q 	c #67523E",
"r 	c #9F7F5F",
"s 	c #EBBC8D",
"t 	c #FBC996",
"u 	c #A98867",
"v 	c #6A5643",
"w 	c #F6C594",
"x 	c #FAC896",
"y 	c #4F4133",
"z 	c #514437",
"A 	c #25211D",
"B 	c #181818",
"C 	c #645240",
"D 	c #CAA179",
"E 	c #121212",
"F 	c #191919",
"G 	c #9D7E5F",
"H 	c #957759",
"I 	c #272717",
"J 	c #868659",
"K 	c #636342",
"L 	c #2F2F24",
"M 	c #221F1C",
"N 	c #EEBF8F",
"O 	c #423F2B",
"P 	c #1E1E13",
"Q 	c #555515",
"R 	c #73731D",
"S 	c #5D5D17",
"T 	c #808054",
"U 	c #4C0908",
"V 	c #4F0C0C",
"W 	c #2C1414",
"X 	c #705C47",
"Y 	c #F8C695",
"Z 	c #897D57",
"` 	c #7D7D53",
" .	c #8C8C5E",
"..	c #44442D",
"+.	c #808055",
"@.	c #7B7B4B",
"#.	c #999926",
"$.	c #808020",
"%.	c #68683E",
"&.	c #7C7C53",
"*.	c #635E40",
"=.	c #B64D3A",
"-.	c #B0291F",
";.	c #903E2F",
">.	c #9D8B62",
",.	c #7C7C52",
"'.	c #8F8F5F",
").	c #71714B",
"!.	c #959564",
"~.	c #838357",
"{.	c #656544",
"].	c #5F5F3F",
"^.	c #69692E",
"/.	c #6E6E26",
"(.	c #676737",
"_.	c #8E8E5F",
":.	c #919161",
"<.	c #6E5F44",
"[.	c #C59D76",
"}.	c #E1B487",
"|.	c #826E50",
"1.	c #979765",
"2.	c #70704B",
"3.	c #949463",
"4.	c #4F4F24",
"5.	c #8D8D5E",
"6.	c #8C8C5D",
"7.	c #6B6B47",
"8.	c #7B7B52",
"9.	c #7A7A51",
"0.	c #736E4B",
"a.	c #C49D76",
"b.	c #876E52",
"c.	c #6F6E4A",
"d.	c #7E7E54",
"e.	c #76763F",
"f.	c #919126",
"g.	c #8F8F24",
"h.	c #4D4D13",
"i.	c #989865",
"j.	c #59593C",
"k.	c #947C5A",
"l.	c #CFA97D",
"m.	c #8E8A5D",
"n.	c #858559",
"o.	c #919160",
"p.	c #515122",
"q.	c #898922",
"r.	c #8E8E23",
"s.	c #5E5E18",
"t.	c #59593B",
"u.	c #545438",
"v.	c #13130D",
"w.	c #88885B",
"x.	c #73734C",
"y.	c #77774F",
"z.	c #8A855A",
"A.	c #E8BA8B",
"B.	c #837E56",
"C.	c #828257",
"D.	c #7B7B2E",
"E.	c #7D7D32",
"F.	c #737334",
"G.	c #4B4B30",
"H.	c #89895B",
"I.	c #191910",
"J.	c #858558",
"K.	c #929261",
"L.	c #91845C",
"M.	c #8C7857",
"N.	c #76764F",
"O.	c #848458",
"P.	c #909060",
"Q.	c #42422C",
"R.	c #313120",
"S.	c #4F4F35",
"T.	c #5C5C3D",
"U.	c #818156",
"V.	c #7F7B54",
"W.	c #73734D",
"X.	c #6D6D48",
"Y.	c #555539",
"Z.	c #959563",
"`.	c #3E3E29",
" +	c #494931",
".+	c #7F7F55",
"++	c #74744E",
"@+	c #484830",
"#+	c #4A4A31",
"$+	c #949462",
"%+	c #2F2B1E",
"&+	c #C39C75",
"*+	c #C19B74",
"=+	c #40402A",
"-+	c #7E7A53",
";+	c #8E865C",
">+	c #6B6B48",
",+	c #676745",
"'+	c #847353",
")+	c #F0C090",
"!+	c #BA956F",
"~+	c #7F654C",
"{+	c #483B2C",
"]+	c #8C7A57",
"^+	c #646443",
"/+	c #75754E",
"(+	c #5D5D3E",
"_+	c #5E5A3D",
":+	c #9A7C5D",
"<+	c #BD9772",
"[+	c #866B50",
"}+	c #C69E77",
"|+	c #CDA47B",
"1+	c #745D46",
"2+	c #83694F",
"3+	c #584E37",
"4+	c #8F8F60",
"5+	c #312E20",
"6+	c #81674D",
"7+	c #B9946F",
"8+	c #56563A",
"9+	c #4A3B2C",
"0+	c #D1A77E",
"a+	c #B38F6C",
"b+	c #72724C",
"c+	c #828256",
"d+	c #6E6D49",
"e+	c #606040",
"f+	c #695F3C",
"g+	c #50351B",
"h+	c #656543",
"i+	c #474731",
"j+	c #777750",
"k+	c #8A8A5C",
"l+	c #6D6C47",
"m+	c #614A2A",
"n+	c #8E5F2F",
"o+	c #54492D",
"p+	c #483018",
"q+	c #696867",
"r+	c #696969",
"s+	c #322E29",
"t+	c #5E4728",
"u+	c #6B5633",
"v+	c #756F48",
"w+	c #373725",
"x+	c #8B8B5C",
"y+	c #797950",
"z+	c #232317",
"A+	c #6C6C48",
"B+	c #505036",
"C+	c #86865A",
"D+	c #242420",
"E+	c #5D5D4A",
"F+	c #595945",
"G+	c #434334",
"H+	c #66664F",
"I+	c #45453C",
"J+	c #202020",
"K+	c #6A6A6A",
"L+	c #666666",
"M+	c #4E4E4E",
"N+	c #595959",
"O+	c #3E3E3E",
"P+	c #0E0E0E",
"Q+	c #565656",
"R+	c #444444",
"S+	c #5E5E5E",
"T+	c #4F4F4F",
"U+	c #252525",
"V+	c #535353",
"W+	c #474747",
"X+	c #626262",
"Y+	c #434343",
"Z+	c #313131",
"`+	c #575757",
" @	c #464646",
".@	c #515151",
"+@	c #656565",
"@@	c #585858",
"#@	c #272727",
"$@	c #5A5A5A",
"%@	c #4A4A4A",
"&@	c #4C4C4C",
"*@	c #5B5B5B",
"=@	c #45453A",
"-@	c #54544F",
";@	c #4D4D49",
">@	c #5C5C52",
",@	c #67675A",
"'@	c #535348",
")@	c #5B5B4E",
"!@	c #626259",
"~@	c #4F4F4E",
"{@	c #525252",
"]@	c #9D9D7E",
"^@	c #84846A",
"/@	c #71715A",
"(@	c #929275",
"_@	c #979779",
":@	c #838369",
"<@	c #77775F",
"                                                                                                ",
"                                                  . +                                           ",
"                                              @ # # # $                                         ",
"                                          % & * # # # # =                                       ",
"            - -                         ; > , ' # # # # )                                       ",
"            - -                           ! ~ { ] # # # ^                                       ",
"            - -                         / ( _ : < # # # [                                       ",
"          - - -                         } | 1 2 3 4 # )                                         ",
"            - -                       5 6 7 8 9 0 a b c                                         ",
"        - - - - -                   d e f g h i 0 0 j                                           ",
"            - -                     k l m n o 0 0 p q                                           ",
"            - - -                   r s t 3 u v w x                                             ",
"                                      y z A B C 0 D                                             ",
"                                      E F F F G 0 H                                             ",
"                          I . = J K + L F F M 3 N O                                             ",
"                  P Q R S T # # # # . U V W X Y Z `  .^                                         ",
"              ..+.@.#.#.$.%.# # # &.*.=.-.;.s >.,.# '.).!.~.{.                                  ",
"            ].# # # ^./.(.* $ # &._.:.<.[.}.|.1.2.# # # # # 3.4.                                ",
"            ) # # # # # # 5.6.# 7.8.9.0.a.b.c.= d.# # # # e.f.g.h.                              ",
"            _.# # # # # i.j.8.1.# # # k.l.m.# n. .# # # # o.p.q.r.s.                            ",
"            t.# # # :.u.v.+.w.x.y.# z.A.B.y.C.1.# # # # # # w.D.E.F.G.                          ",
"              H.# # # y.I.J.K.8.&.# L.M.+ $ '.N.O.# # # # # # # # # # P.Q.                      ",
"              R.i.# # # 7.S.T.3.U.# V.W.X.7.* = Y.~.# # # # # # # # # # Z.`.                    ",
"                 +i.# # 9.N..+* * # # ++.+W.@+U.U.+.#+y.$+# # # # # # # # w.%+&+*+              ",
"                  =+C.-+;+= = 9.# # # ++d.9.>+,+# i.        ].[ @ &.$ # # . '+)+!+~+            ",
"                      {+]+= ^+/+# # # w.^+(+[ + # U.                  u.W._+:+<+[+}+|+1+        ",
"                      2+3+# # # # # # # # P.4+) 3.                      5+|+6+7+m               ",
"                          H.# # # # # # # # # # 8+                        9+0+a+                ",
"                          b+# # # # # # # # # c+                                                ",
"                            K.# # # # # # # # d+                                                ",
"                            e+# # # # # # 1.f+g+                                                ",
"                              h+++i+j+k+l+m+n+o+C.                                              ",
"                                p+q+r+s+t+u+v+1.H.                                              ",
"                                b+y.+.i.# # # # i.                                              ",
"                                w+# # # U.# # # #                                               ",
"                                  [ # # x+y+# # *                                               ",
"                                    8.# # @ # # X.                                              ",
"                                    z+K.# A+'.# 8.                                              ",
"                                      K # i.e+i.$                                               ",
"                                      B+# # ++J C+                                              ",
"                                      D+E+F+G+H+I+                                              ",
"                                      J+K+L+M+N+O+                                              ",
"                                      P+Q+L+R+S+T+                                              ",
"                                      U+V+L+W+X+Y+                                              ",
"                                  Z+`+`+ @.@+@@@#@                                              ",
"                                  @@L+L+L+.@$@%@&@*@ @                                          ",
"                                =@-@;@>@,@'@)@!@~@{@~@                                          ",
"                                  ]@^@/@      (@_@:@<@                                          "};
