/* XPM */
static char * sergeant_xpm[] = {
"48 48 213 2",
"  	c None",
". 	c #5E5E26",
"+ 	c #535322",
"@ 	c #4E4E1F",
"# 	c #B1B14E",
"$ 	c #ABAB4A",
"% 	c #FFFFFF",
"& 	c #615118",
"* 	c #42310B",
"= 	c #90903B",
"- 	c #6F6F2D",
"; 	c #0F0E05",
"> 	c #784407",
", 	c #EEB111",
"' 	c #815611",
") 	c #A7A747",
"! 	c #B0650D",
"~ 	c #D8900D",
"{ 	c #CD810B",
"] 	c #676125",
"^ 	c #98983F",
"/ 	c #36200A",
"( 	c #BA7E44",
"_ 	c #9A673E",
": 	c #B59F87",
"< 	c #B08341",
"[ 	c #E9E9E9",
"} 	c #81654E",
"| 	c #FAFAFA",
"1 	c #EBE5DF",
"2 	c #FFE8A7",
"3 	c #8E8136",
"4 	c #1A1614",
"5 	c #9C9C9C",
"6 	c #E9D3B3",
"7 	c #FFEEB1",
"8 	c #F4CF83",
"9 	c #C7A953",
"0 	c #3B3817",
"a 	c #FFEAA9",
"b 	c #FFEEB0",
"c 	c #ECBE71",
"d 	c #63584C",
"e 	c #E0D7CE",
"f 	c #FDE19E",
"g 	c #FEE7A7",
"h 	c #B5783F",
"i 	c #E4B165",
"j 	c #CB924E",
"k 	c #AC6F3B",
"l 	c #FEE49F",
"m 	c #4F301A",
"n 	c #B87C42",
"o 	c #FFECAC",
"p 	c #54351E",
"q 	c #2C1C11",
"r 	c #2E1F14",
"s 	c #080605",
"t 	c #030303",
"u 	c #4A301B",
"v 	c #020202",
"w 	c #AB6D39",
"x 	c #090903",
"y 	c #49491D",
"z 	c #0E0E08",
"A 	c #070504",
"B 	c #1D1B0B",
"C 	c #050502",
"D 	c #343402",
"E 	c #656505",
"F 	c #3F3F03",
"G 	c #818134",
"H 	c #280000",
"I 	c #2C0101",
"J 	c #0C0202",
"K 	c #603E23",
"L 	c #FFEAAB",
"M 	c #947A36",
"N 	c #787831",
"O 	c #9A9A41",
"P 	c #1F1F0D",
"Q 	c #767627",
"R 	c #B1B109",
"S 	c #818106",
"T 	c #51511A",
"U 	c #49411B",
"V 	c #DA2916",
"W 	c #D30A05",
"X 	c #A11A0E",
"Y 	c #B89847",
"Z 	c #616127",
"` 	c #42421B",
" .	c #53530D",
"..	c #5C5C09",
"+.	c #4F4F14",
"@.	c #92923C",
"#.	c #5C421F",
"$.	c #E9B86B",
"%.	c #FAD890",
"&.	c #855C2D",
"*.	c #A9A949",
"=.	c #2C2C08",
"-.	c #655C27",
";.	c #905C30",
">.	c #7E7E34",
",.	c #6B6B1B",
"'.	c #A3A309",
").	c #9F9F08",
"!.	c #292902",
"~.	c #393917",
"{.	c #A9783B",
"].	c #F1CA7A",
"^.	c #9E963F",
"/.	c #2E2E07",
"(.	c #949407",
"_.	c #9E9E07",
":.	c #414103",
"<.	c #323214",
"[.	c #020201",
"}.	c #656529",
"|.	c #968B3B",
"1.	c #FCDF98",
"2.	c #877C35",
"3.	c #67672B",
"4.	c #76760D",
"5.	c #7A7A10",
"6.	c #656511",
"7.	c #25250F",
"8.	c #030301",
"9.	c #A3893E",
"0.	c #9A7136",
"a.	c #1D1D0C",
"b.	c #0F0F06",
"c.	c #2D2D13",
"d.	c #7E7632",
"e.	c #1A1A0A",
"f.	c #0E0B05",
"g.	c #E7B669",
"h.	c #E5B567",
"i.	c #1B1B0B",
"j.	c #7C7431",
"k.	c #9E8E3E",
"l.	c #565624",
"m.	c #896531",
"n.	c #FEE4A1",
"o.	c #DFAB5E",
"p.	c #7E4C28",
"q.	c #25170C",
"r.	c #4A4A1E",
"s.	c #3E3B19",
"t.	c #E2AE63",
"u.	c #8E562D",
"v.	c #EFC376",
"w.	c #673F22",
"x.	c #87532C",
"y.	c #382B14",
"z.	c #9F9F44",
"A.	c #0F0D06",
"B.	c #834F29",
"C.	c #F2C77C",
"D.	c #D79F58",
"E.	c #534218",
"F.	c #2D1204",
"G.	c #23230F",
"H.	c #6D6D2D",
"I.	c #5A5823",
"J.	c #45260B",
"K.	c #9E420E",
"L.	c #32250D",
"M.	c #240E03",
"N.	c #53514F",
"O.	c #545454",
"P.	c #100D0A",
"Q.	c #41230A",
"R.	c #563511",
"S.	c #695E24",
"T.	c #141408",
"U.	c #070703",
"V.	c #080806",
"W.	c #3F3F26",
"X.	c #393920",
"Y.	c #1E1E11",
"Z.	c #4E4E2C",
"`.	c #202017",
" +	c #060606",
".+	c #4C4C4C",
"++	c #2C2C2B",
"@+	c #3C3C3C",
"#+	c #1A1A1A",
"$+	c #010101",
"%+	c #363636",
"&+	c #222222",
"*+	c #414141",
"=+	c #090909",
"-+	c #2E2E2E",
";+	c #474747",
">+	c #1E1E1E",
",+	c #0F0F0F",
"'+	c #262626",
")+	c #32322C",
"!+	c #292925",
"~+	c #3E3E30",
"{+	c #4F4F3B",
"]+	c #313124",
"^+	c #3C3C2B",
"/+	c #474739",
"(+	c #B8B87C",
"_+	c #898954",
":+	c #61613B",
"<+	c #A5A569",
"[+	c #AEAE71",
"}+	c #878753",
"|+	c #6D6D42",
"                                                                                                ",
"                                                  . +                                           ",
"                                              @ # # # $                                         ",
"                      %                   & * = # # # # -                                       ",
"                    % %                 ; > , ' # # # # )                                       ",
"                  % % %                   ! ~ { ] # # # ^                                       ",
"                  %   %                 / ( _ : < # # # +                                       ",
"                %     %                 [ } | 1 2 3 # )                                         ",
"              %       %               4 [ 5 % 6 7 8 9 0                                         ",
"                      %             a b c d e f 7 7 g                                           ",
"            % % % % % % %           h i j k l 7 7 b m                                           ",
"                      %             n f o 2 j p a o                                             ",
"                      %               q r s t u 7 c                                             ",
"                      %               v t t t n 7 w                                             ",
"                          x . - = y + z t t A 2 l B                                             ",
"                  C D E F G # # # # . H I J K L M N O ^                                         ",
"              P G Q R R S T # # # N U V W X f Y N # O Z $ G @                                   ",
"            ` # # #  ...+.@.$ # N O ) #.$.%.&.$ Z # # # # # *.=.                                ",
"            ) # # # # # # O O # + - - -.$.;.. - >.# # # # ,.'.).!.                              ",
"            O # # # # # # ~.- $ # # # {.].^.# = O # # # # ) /.(._.:.                            ",
"            0 # # # ) <.[.G @.}.- # |.1.2.3.G # # # # # # # @.4.5.6.7.                          ",
"              @.# # # 3.8.= ) - N # 9.0.+ $ O 3.= # # # # # # # # # # ) a.                      ",
"              b.# # # # + c.` *.G # d.}.. + = - <.G # # # # # # # # # # *.e.                    ",
"                7.# # # - 3.>.= = # # 3.>.}.7.G G G 7.3.*.# # # # # # # # @.f.g.h.              ",
"                  i.G j.k.- - - # # # 3.>.- l.@ # #         ` + @ N $ # # . m.n.o.p.            ",
"                      q.0.- r.3.# # # = r.` + + # G                   <.}.s.h t.u.$.v.w.        ",
"                      x.y.# # # # # # # # ) z.) *.                      A.v.B.o.j               ",
"                          @.# # # # # # # # # # <.                        q.C.D.                ",
"                          }.# # # # # # # # # G                                                 ",
"                            ) # # # # # # # # .                                                 ",
"                            y # # # # # # $ E.F.                                                ",
"                              r.3.G.H.^ I.J.K.L.G                                               ",
"                                M.N.O.P.Q.R.S.$ @.                                              ",
"                                }.3.G # # # # # #                                               ",
"                                T.# # # G # # # #                                               ",
"                                  + # # ^ - # # =                                               ",
"                                    - # # @ # # .                                               ",
"                                    U.) # . O # -                                               ",
"                                      y # # y $ $                                               ",
"                                      c.# # 3.= =                                               ",
"                                      V.W.X.Y.Z.`.                                              ",
"                                       +O..+++@+#+                                              ",
"                                      $+%+.+&+*+++                                              ",
"                                      =+-+.+&+;+>+                                              ",
"                                  ,+%+%+&+-+.+@+=+                                              ",
"                                  @+.+.+.+-+@+'+++@+&+                                          ",
"                                `.)+!+~+{+]+^+/+++-+++                                          ",
"                                  (+_+:+      <+[+}+|+                                          "};
