/* XPM */
static char * spy_xpm[] = {
"48 48 7 1",
" 	c None",
".	c #000000",
"+	c #FFF4CB",
"@	c #FFFFFF",
"#	c #CB8134",
"$	c #813400",
"%	c #000081",
"                       ...                      ",
"                      .....                     ",
"                      ...+.                     ",
"                      .+++.                     ",
"                      .+++.                     ",
"                      .++...                    ",
"        @@@          ...++..                    ",
"         @@         #...#+.@.                   ",
"         @@        #.####$....#                 ",
"         @@        .##.##$$####                 ",
"         @@       ..######.$###                 ",
"         @@       .#########$..                 ",
"         @@       .##.#########                 ",
"         @@       .############                 ",
"         @@       .##.#.#####$#.                ",
"         @@        #..##########                ",
"                   ## .#####...#                ",
"                   ##.#######.##                ",
"                   #############                ",
"                   $$.#####.####.               ",
"                   ##.##########.               ",
"                   ##..#########.               ",
"                   .++###########               ",
"                    ++##########.               ",
"                    ++.#########                ",
"                    #+.#########                ",
"                    ##.%########                ",
"                    ##%%########                ",
"                    ##%.%#######.               ",
"                    #############               ",
"                   ##############               ",
"                   ##############               ",
"                   ##############               ",
"                   ##############               ",
"                  ###############.              ",
"                  ################              ",
"                  ################              ",
"                  #############                 ",
"                 $$$.   .$$                     ",
"                 $$.    $$$                     ",
"                 $@.    $$$                     ",
"                $.$     $$$                     ",
"                $$.     $$$                     ",
"               .$$      $.                      ",
"              .$$      $$$                      ",
"              $$.      .$$$                     ",
"                        .$$                     ",
"                          $$                    "};
