/* XPM */
static char * spy_xpm[] = {
"48 48 7 1",
" 	c None",
".	c #000000",
"+	c #FFD5AA",
"@	c #AA8055",
"#	c #FFFFFF",
"$	c #805500",
"%	c #000080",
"                       ...                      ",
"                      .....                     ",
"                      ...+.                     ",
"                      .+++.                     ",
"        ..            .+++.                     ",
"        ..            .++...                    ",
"        ..           ...++..                    ",
"        ..          @...@+.#.                   ",
"        ..         @.@@@@$....@                 ",
"        ..         .@@.@@$$@@@@                 ",
"        ..        ..@@@@@@.$@@@                 ",
"        ..        .@@@@@@@@@$..                 ",
"                  .@@.@@@@@@@@@                 ",
"                  .@@@@@@@@@@@@                 ",
"                  .@@.@.@@@@@$@.                ",
"                   @..@@@@@@@@@@                ",
"                   @@ .@@@@@...@                ",
"                   @@.@@@@@@@.@@                ",
"                   @@@@@@@@@@@@@                ",
"                   $$.@@@@@.@@@@.               ",
"                   @@.@@@@@@@@@@.               ",
"                   @@..@@@@@@@@@.               ",
"                   .++@@@@@@@@@@@               ",
"                    ++@@@@@@@@@@.               ",
"                    ++.@@@@@@@@@                ",
"                    @+.@@@@@@@@@                ",
"                    @@.%@@@@@@@@                ",
"                    @@%%@@@@@@@@                ",
"                    @@%.%@@@@@@@.               ",
"                    @@@@@@@@@@@@@               ",
"                   @@@@@@@@@@@@@@               ",
"                   @@@@@@@@@@@@@@               ",
"                   @@@@@@@@@@@@@@               ",
"                   @@@@@@@@@@@@@@               ",
"                  @@@@@@@@@@@@@@@.              ",
"                  @@@@@@@@@@@@@@@@              ",
"                  @@@@@@@@@@@@@@@@              ",
"                  @@@@@@@@@@@@@                 ",
"                 $$$.   .$$                     ",
"                 $$.    $$$                     ",
"                 $#.    $$$                     ",
"                $.$     $$$                     ",
"                $$.     $$$                     ",
"               .$$      $.                      ",
"              .$$      $$$                      ",
"              $$.      .$$$                     ",
"                        .$$                     ",
"                          $$                    "};
