/* XPM */
static char * spy_xpm[] = {
"20 48 257 2",
"  	c None",
". 	c #000000",
"+ 	c #550000",
"@ 	c #800000",
"# 	c #AA0000",
"$ 	c #D50000",
"% 	c #FF0000",
"& 	c #002B00",
"* 	c #552B00",
"= 	c #802B00",
"- 	c #AA2B00",
"; 	c #D52B00",
"> 	c #FF2B00",
", 	c #005500",
"' 	c #555500",
") 	c #805500",
"! 	c #AA5500",
"~ 	c #D55500",
"{ 	c #FF5500",
"] 	c #008000",
"^ 	c #558000",
"/ 	c #808000",
"( 	c #AA8000",
"_ 	c #D58000",
": 	c #FF8000",
"< 	c #00AA00",
"[ 	c #55AA00",
"} 	c #80AA00",
"| 	c #AAAA00",
"1 	c #D5AA00",
"2 	c #FFAA00",
"3 	c #00D500",
"4 	c #55D500",
"5 	c #80D500",
"6 	c #AAD500",
"7 	c #D5D500",
"8 	c #FFD500",
"9 	c #00FF00",
"0 	c #55FF00",
"a 	c #80FF00",
"b 	c #AAFF00",
"c 	c #D5FF00",
"d 	c #FFFF00",
"e 	c #000055",
"f 	c #550055",
"g 	c #800055",
"h 	c #AA0055",
"i 	c #D50055",
"j 	c #FF0055",
"k 	c #002B55",
"l 	c #552B55",
"m 	c #802B55",
"n 	c #AA2B55",
"o 	c #D52B55",
"p 	c #FF2B55",
"q 	c #005555",
"r 	c #555555",
"s 	c #805555",
"t 	c #AA5555",
"u 	c #D55555",
"v 	c #FF5555",
"w 	c #008055",
"x 	c #558055",
"y 	c #808055",
"z 	c #AA8055",
"A 	c #D58055",
"B 	c #FF8055",
"C 	c #00AA55",
"D 	c #55AA55",
"E 	c #80AA55",
"F 	c #AAAA55",
"G 	c #D5AA55",
"H 	c #FFAA55",
"I 	c #00D555",
"J 	c #55D555",
"K 	c #80D555",
"L 	c #AAD555",
"M 	c #D5D555",
"N 	c #FFD555",
"O 	c #00FF55",
"P 	c #55FF55",
"Q 	c #80FF55",
"R 	c #AAFF55",
"S 	c #D5FF55",
"T 	c #FFFF55",
"U 	c #000080",
"V 	c #550080",
"W 	c #800080",
"X 	c #AA0080",
"Y 	c #D50080",
"Z 	c #FF0080",
"` 	c #002B80",
" .	c #552B80",
"..	c #802B80",
"+.	c #AA2B80",
"@.	c #D52B80",
"#.	c #FF2B80",
"$.	c #005580",
"%.	c #555580",
"&.	c #805580",
"*.	c #AA5580",
"=.	c #D55580",
"-.	c #FF5580",
";.	c #008080",
">.	c #558080",
",.	c #808080",
"'.	c #AA8080",
").	c #D58080",
"!.	c #FF8080",
"~.	c #00AA80",
"{.	c #55AA80",
"].	c #80AA80",
"^.	c #AAAA80",
"/.	c #D5AA80",
"(.	c #FFAA80",
"_.	c #00D580",
":.	c #55D580",
"<.	c #80D580",
"[.	c #AAD580",
"}.	c #D5D580",
"|.	c #FFD580",
"1.	c #00FF80",
"2.	c #55FF80",
"3.	c #80FF80",
"4.	c #AAFF80",
"5.	c #D5FF80",
"6.	c #FFFF80",
"7.	c #0000AA",
"8.	c #5500AA",
"9.	c #8000AA",
"0.	c #AA00AA",
"a.	c #D500AA",
"b.	c #FF00AA",
"c.	c #002BAA",
"d.	c #552BAA",
"e.	c #802BAA",
"f.	c #AA2BAA",
"g.	c #D52BAA",
"h.	c #FF2BAA",
"i.	c #0055AA",
"j.	c #5555AA",
"k.	c #8055AA",
"l.	c #AA55AA",
"m.	c #D555AA",
"n.	c #FF55AA",
"o.	c #0080AA",
"p.	c #5580AA",
"q.	c #8080AA",
"r.	c #AA80AA",
"s.	c #D580AA",
"t.	c #FF80AA",
"u.	c #00AAAA",
"v.	c #55AAAA",
"w.	c #80AAAA",
"x.	c #AAAAAA",
"y.	c #D5AAAA",
"z.	c #FFAAAA",
"A.	c #00D5AA",
"B.	c #55D5AA",
"C.	c #80D5AA",
"D.	c #AAD5AA",
"E.	c #D5D5AA",
"F.	c #FFD5AA",
"G.	c #00FFAA",
"H.	c #55FFAA",
"I.	c #80FFAA",
"J.	c #AAFFAA",
"K.	c #D5FFAA",
"L.	c #FFFFAA",
"M.	c #0000D5",
"N.	c #5500D5",
"O.	c #8000D5",
"P.	c #AA00D5",
"Q.	c #D500D5",
"R.	c #FF00D5",
"S.	c #002BD5",
"T.	c #552BD5",
"U.	c #802BD5",
"V.	c #AA2BD5",
"W.	c #D52BD5",
"X.	c #FF2BD5",
"Y.	c #0055D5",
"Z.	c #5555D5",
"`.	c #8055D5",
" +	c #AA55D5",
".+	c #D555D5",
"++	c #FF55D5",
"@+	c #0080D5",
"#+	c #5580D5",
"$+	c #8080D5",
"%+	c #AA80D5",
"&+	c #D580D5",
"*+	c #FF80D5",
"=+	c #00AAD5",
"-+	c #55AAD5",
";+	c #80AAD5",
">+	c #AAAAD5",
",+	c #D5AAD5",
"'+	c #FFAAD5",
")+	c #00D5D5",
"!+	c #55D5D5",
"~+	c #80D5D5",
"{+	c #AAD5D5",
"]+	c #D5D5D5",
"^+	c #FFD5D5",
"/+	c #00FFD5",
"(+	c #55FFD5",
"_+	c #80FFD5",
":+	c #AAFFD5",
"<+	c #D5FFD5",
"[+	c #FFFFD5",
"}+	c #0000FF",
"|+	c #5500FF",
"1+	c #8000FF",
"2+	c #AA00FF",
"3+	c #D500FF",
"4+	c #FF00FF",
"5+	c #002BFF",
"6+	c #552BFF",
"7+	c #802BFF",
"8+	c #AA2BFF",
"9+	c #D52BFF",
"0+	c #FF2BFF",
"a+	c #0055FF",
"b+	c #5555FF",
"c+	c #8055FF",
"d+	c #AA55FF",
"e+	c #D555FF",
"f+	c #FF55FF",
"g+	c #0080FF",
"h+	c #5580FF",
"i+	c #8080FF",
"j+	c #AA80FF",
"k+	c #D580FF",
"l+	c #FF80FF",
"m+	c #00AAFF",
"n+	c #55AAFF",
"o+	c #80AAFF",
"p+	c #AAAAFF",
"q+	c #D5AAFF",
"r+	c #FFAAFF",
"s+	c #00D5FF",
"t+	c #55D5FF",
"u+	c #80D5FF",
"v+	c #AAD5FF",
"w+	c #D5D5FF",
"x+	c #FFD5FF",
"y+	c #00FFFF",
"z+	c #55FFFF",
"A+	c #80FFFF",
"B+	c #AAFFFF",
"C+	c #D5FFFF",
"D+	c #3F3F3F",
"E+	c #6B6B6B",
"F+	c #959595",
"G+	c #C3C3C3",
"H+	c #FFFFFF",
"                  . . .                 ",
"                . . . . .               ",
"                . . . F..               ",
"                . F.F.F..               ",
"                . F.F.F..               ",
"                . F.F.. . .             ",
"              . . . F.F.. .             ",
"            z . . . z F.. H+.           ",
"          z . z z z z ) . . . . z       ",
"          . z z . z z ) ) z z z z       ",
"        . . z z z z z z . ) z z z       ",
"        . z z z z z z z z z ) . .       ",
"        . z z . z z z z z z z z z       ",
"        . z z z z z z z z z z z z       ",
"        . z z . z . z z z z z ) z .     ",
"          z . . z z z z z z z z z z     ",
"          z z   . z z z z z . . . z     ",
"          z z . z z z z z z z . z z     ",
"          z z z z z z z z z z z z z     ",
"          ) ) . z z z z z . z z z z .   ",
"          z z . z z z z z z z z z z .   ",
"          z z . . z z z z z z z z z .   ",
"          . F.F.z z z z z z z z z z z   ",
"            F.F.z z z z z z z z z z .   ",
"            F.F.. z z z z z z z z z     ",
"            z F.. z z z z z z z z z     ",
"            z z . U z z z z z z z z     ",
"            z z U U z z z z z z z z     ",
"            z z U . U z z z z z z z .   ",
"            z z z z z z z z z z z z z   ",
"          z z z z z z z z z z z z z z   ",
"          z z z z z z z z z z z z z z   ",
"          z z z z z z z z z z z z z z   ",
"          z z z z z z z z z z z z z z   ",
"        z z z z z z z z z z z z z z z . ",
"        z z z z z z z z z z z z z z z z ",
"        z z z z z z z z z z z z z z z z ",
"        z z z z z z z z z z z z z       ",
"      ) ) ) .       . ) )               ",
"      ) ) .         ) ) )               ",
"      ) H+.         ) ) )               ",
"    ) . )           ) ) )               ",
"    ) ) .           ) ) )               ",
"  . ) )             ) .                 ",
". ) )             ) ) )                 ",
") ) .             . ) ) )               ",
"                    . ) )               ",
"                        ) )             "};
