/* XPM */
static char * general_xpm[] = {
"48 48 149 2",
"  	c None",
". 	c #5C5C00",
"+ 	c #787800",
"@ 	c #3B3B00",
"# 	c #FFFFFF",
"$ 	c #818100",
"% 	c #A3A300",
"& 	c #989800",
"* 	c #353500",
"= 	c #9A9A00",
"- 	c #282800",
"; 	c #2E2E00",
"> 	c #202000",
", 	c #070700",
"' 	c #090900",
") 	c #363602",
"! 	c #040404",
"~ 	c #2D2D00",
"{ 	c #8E8E00",
"] 	c #6F6F00",
"^ 	c #2C2C1C",
"/ 	c #1A0C01",
"( 	c #4E4E00",
"_ 	c #9F9F00",
": 	c #11110B",
"< 	c #C16104",
"[ 	c #222201",
"} 	c #120801",
"| 	c #0B0601",
"1 	c #6B6B00",
"2 	c #171717",
"3 	c #080808",
"4 	c #000000",
"5 	c #909000",
"6 	c #3F3F18",
"7 	c #565656",
"8 	c #9C9C9C",
"9 	c #0A0A0A",
"0 	c #454500",
"a 	c #7A7A05",
"b 	c #3F3F32",
"c 	c #7E7E7E",
"d 	c #010101",
"e 	c #4C4C4C",
"f 	c #B3B3B3",
"g 	c #494949",
"h 	c #4A4A0A",
"i 	c #313131",
"j 	c #020202",
"k 	c #767676",
"l 	c #343434",
"m 	c #C6C6C6",
"n 	c #5C5C5C",
"o 	c #3F3F16",
"p 	c #1F1F1F",
"q 	c #040302",
"r 	c #8E694A",
"s 	c #8B6747",
"t 	c #929200",
"u 	c #414122",
"v 	c #010100",
"w 	c #342315",
"x 	c #BB8B54",
"y 	c #0D0905",
"z 	c #AC7C4C",
"A 	c #FEECBE",
"B 	c #C0925A",
"C 	c #39391D",
"D 	c #654429",
"E 	c #EBC98E",
"F 	c #F3D49E",
"G 	c #E2BA7E",
"H 	c #F7DBA5",
"I 	c #E0B87C",
"J 	c #B6942D",
"K 	c #5A412B",
"L 	c #050403",
"M 	c #443222",
"N 	c #FCE7B6",
"O 	c #CD9F65",
"P 	c #140D08",
"Q 	c #141400",
"R 	c #656500",
"S 	c #8E7C06",
"T 	c #9C815A",
"U 	c #B89663",
"V 	c #7A5332",
"W 	c #DCB378",
"X 	c #DAB174",
"Y 	c #A57445",
"Z 	c #F1D198",
"` 	c #BD8E56",
" .	c #FEEBBD",
"..	c #D7AC6F",
"+.	c #6D4A2D",
"@.	c #535300",
"#.	c #96653F",
"$.	c #E9C489",
"%.	c #92633C",
"&.	c #D9AE71",
"*.	c #EECB92",
"=.	c #FCE5B3",
"-.	c #FDEABB",
";.	c #F7DCA7",
">.	c #EECD94",
",.	c #F5D8A1",
"'.	c #F1D29A",
").	c #C6985E",
"!.	c #D3A76B",
"~.	c #9A6941",
"{.	c #516029",
"].	c #C79A60",
"^.	c #CFA367",
"/.	c #56692C",
"(.	c #BAB560",
"_.	c #F4D69F",
":.	c #9CB353",
"<.	c #969649",
"[.	c #698136",
"}.	c #C9DC7A",
"|.	c #ACC360",
"1.	c #C6D976",
"2.	c #968E47",
"3.	c #F9DFAB",
"4.	c #7A943F",
"5.	c #B6CD67",
"6.	c #BB9C5A",
"7.	c #B8CE69",
"8.	c #9A7844",
"9.	c #4A5C27",
"0.	c #34411A",
"a.	c #ACC35E",
"b.	c #B0C761",
"c.	c #324714",
"d.	c #7EA336",
"e.	c #303919",
"f.	c #C7DB7A",
"g.	c #3B5414",
"h.	c #365A0E",
"i.	c #495A26",
"j.	c #304113",
"k.	c #0B1A00",
"l.	c #0A1600",
"m.	c #153101",
"n.	c #193901",
"o.	c #0D1C01",
"p.	c #050D00",
"q.	c #071100",
"r.	c #040900",
"                                                                                                ",
"                                                                                                ",
"                                                                                                ",
"                                                        . + @                                   ",
"              # # # #                                 $ % &                                     ",
"            #       # #                           * = % % -                                     ",
"            #         #                         @ = % % ;                                       ",
"          # #         #                       > = % % - ,                                       ",
"          # #         #                       & % = . @ '                                       ",
"            # #       #                     & % & + % ) !                                       ",
"              # # # # #                 ~ & % { ] % % ^ /                                       ",
"                    # #               ( _ % % . % % % : <                                       ",
"                    #               ] % % % & = % % % [ } |                                     ",
"                  #               1 % % % % % % % % = ) 2 3 4                                   ",
"              # #               . % % % % % % % % 5 6 2 4 7 8 9 4 4                             ",
"                              0 % % % % % % % % a b 3 3 c 3 d e f g d 4                         ",
"                              = % % % % % % = h i j 4 4 4 c k 4 4 l m n 4 4                     ",
"                            . % % = + % % { o p 4 4 4 4 4 q r s                                 ",
"                            = % % 1 & % t u 2 4 4 v w x y z A A B                               ",
"                            % % % @ % { C 2 4 4 D E F G 4 H A A I                               ",
"                          ; % % % + % J K L M N A A A O P H A A E                               ",
"                          Q % % & R S F I T U A A A A V W H A A X                               ",
"                            & % R   Y Z ` I H A A A  ...z O +.Y                                 ",
"                            @ % @.  #.Z $.A A A A A G A A %.                                    ",
"                                      &.*.=.-.A A H H A -.                                      ",
"                                      V ;.-.>.=.A ,.A Z                                         ",
"                                        O Z G '.A =.H Z                                         ",
"                                      V X ).G !.A '...~.                                        ",
"                                    {.H $.X Z ].A A ^.                                          ",
"                                  /.(.A A '.G _.Z -.                                            ",
"                                  :.<.A A  .^.A I z                                             ",
"                                [.}.|.$.A A G H X                                               ",
"                                  1.}.2. .A 3.                                                  ",
"                                  4.}.5.6.A D                                                   ",
"                                    7.}.|.8.9.                                                  ",
"                                    9.}.}.0.a.                                                  ",
"                                      b.}.c.d.                                                  ",
"                                      e.f.g.h.                                                  ",
"                                        i.j.k.                                                  ",
"                                            v                                                   ",
"                                            l.                                                  ",
"                                            m.                                                  ",
"                                            n.                                                  ",
"                                          o.n.p.                                                ",
"                                          k.n.q.                                                ",
"                                          r.n.p.                                                ",
"                                            k.                                                  ",
"                                                                                                "};
