/* XPM */
static char * lieutenant_xpm[] = {
"48 48 179 2",
"  	c None",
". 	c #4D4D1A",
"+ 	c #6A6A23",
"@ 	c #6F6F24",
"# 	c #24240C",
"$ 	c #B4B442",
"% 	c #B9B946",
"& 	c #909030",
"* 	c #161607",
"= 	c #4F4F1B",
"- 	c #7E7E29",
"; 	c #A9A93B",
"> 	c #FFFFFF",
", 	c #1C1C09",
"' 	c #20200B",
") 	c #56561C",
"! 	c #5E5C20",
"~ 	c #797427",
"{ 	c #5C581E",
"] 	c #7B7429",
"^ 	c #BBAE42",
"/ 	c #846F29",
"( 	c #FBE1A1",
"_ 	c #EDD0A1",
": 	c #FDE795",
"< 	c #F4E8D4",
"[ 	c #EFEAE4",
"} 	c #FFF3B7",
"| 	c #F8DB7B",
"1 	c #ECDD60",
"2 	c #FEE9A3",
"3 	c #3A2710",
"4 	c #C0B4A5",
"5 	c #6F5842",
"6 	c #FFF4B9",
"7 	c #B0A395",
"8 	c #FCFAF8",
"9 	c #FBDC8B",
"0 	c #F6D07B",
"a 	c #FCE190",
"b 	c #EAB95E",
"c 	c #A5A53A",
"d 	c #DFAE63",
"e 	c #D39548",
"f 	c #FFEEAC",
"g 	c #744828",
"h 	c #FEE8A5",
"i 	c #FEEBA7",
"j 	c #CFB595",
"k 	c #EECD6C",
"l 	c #989835",
"m 	c #86862D",
"n 	c #A5A53B",
"o 	c #9F9F24",
"p 	c #F9F900",
"q 	c #DCDC00",
"r 	c #303011",
"s 	c #E1B456",
"t 	c #F4CC74",
"u 	c #FDE295",
"v 	c #FFEFAE",
"w 	c #F0C574",
"x 	c #988930",
"y 	c #FFFF00",
"z 	c #D2D201",
"A 	c #464617",
"B 	c #0F0F05",
"C 	c #C49840",
"D 	c #FEE69C",
"E 	c #A97932",
"F 	c #BBBB33",
"G 	c #F6F600",
"H 	c #6A6A24",
"I 	c #E1B958",
"J 	c #DDAE51",
"K 	c #7B7928",
"L 	c #C5C512",
"M 	c #F4F401",
"N 	c #E8BD5E",
"O 	c #C2893B",
"P 	c #EEEE01",
"Q 	c #CACA0B",
"R 	c #5E5A1E",
"S 	c #B48B38",
"T 	c #B2B240",
"U 	c #4B4B0D",
"V 	c #FAFA00",
"W 	c #363610",
"X 	c #101000",
"Y 	c #40400B",
"Z 	c #404016",
"` 	c #5C5C24",
" .	c #353512",
"..	c #989833",
"+.	c #28280E",
"@.	c #746324",
"#.	c #5A4F1C",
"$.	c #8B8B2F",
"%.	c #DDA94F",
"&.	c #211707",
"*.	c #A35E2B",
"=.	c #C07B38",
"-.	c #F6CF79",
";.	c #BF893B",
">.	c #42290B",
",.	c #7E2C07",
"'.	c #291605",
").	c #301A0C",
"!.	c #151206",
"~.	c #7E5818",
"{.	c #A9A981",
"].	c #9F9F5E",
"^.	c #9F9F51",
"/.	c #4F3D12",
"(.	c #582808",
"_.	c #903208",
":.	c #B9460B",
"<.	c #562106",
"[.	c #000000",
"}.	c #221E0A",
"|.	c #6C2807",
"1.	c #D2D2D2",
"2.	c #E1E1E1",
"3.	c #A5A59C",
"4.	c #58300B",
"5.	c #814A11",
"6.	c #653F10",
"7.	c #634F18",
"8.	c #080803",
"9.	c #29290E",
"0.	c #070301",
"a.	c #0E0200",
"b.	c #22220B",
"c.	c #811403",
"d.	c #5A2902",
"e.	c #270F01",
"f.	c #932304",
"g.	c #160800",
"h.	c #F4460B",
"i.	c #530D02",
"j.	c #480B02",
"k.	c #AE1D05",
"l.	c #300801",
"m.	c #8E1603",
"n.	c #EE3F0A",
"o.	c #050100",
"p.	c #791203",
"q.	c #444416",
"r.	c #090903",
"s.	c #1E1E0D",
"t.	c #717129",
"u.	c #4B4B21",
"v.	c #535325",
"w.	c #2B2B11",
"x.	c #4D4D2B",
"y.	c #090904",
"z.	c #2C2C2C",
"A.	c #3A3A3A",
"B.	c #464646",
"C.	c #3D3D3D",
"D.	c #282828",
"E.	c #323232",
"F.	c #A1A1A1",
"G.	c #232323",
"H.	c #070707",
"I.	c #848484",
"J.	c #0F0F0F",
"K.	c #1C1C1C",
"L.	c #424240",
"M.	c #84845C",
"N.	c #3A3A2B",
"O.	c #48482F",
"P.	c #353525",
"Q.	c #32321E",
"R.	c #84844A",
"S.	c #0B0B08",
"T.	c #28281C",
"U.	c #717151",
"V.	c #74743F",
"                                                                                                ",
"                                                  . + @ .                                       ",
"                                              # $ % % % % &                                     ",
"                                            * % % % % % % % =                                   ",
"                                            - % % % % % % % ;                                   ",
"                                            % % % % % % % % %                                   ",
"          > > > >                         , % % % % % % % % % '                                 ",
"          > > >                           ) ! ~ + { ] ^ - @ /                                   ",
"        >                                   ( _ : < [ } | 1 2 3 ) @                             ",
"        > >                                 4 5 6 7 8 9 0 a b c % % % $                         ",
"        > > >                               d e f g h i j 6 k l @ m n % o p q                   ",
"            > >                           r s t 2 u v w ( f x ) ; % % % c y y y z A             ",
"              >                       B @ . C u D 6 6 6 6 E @ $ % % % % F y y y G % c .         ",
"              >                       H % ; I 6 6 6 6 6 J l K % % % % % L y y y M % % % m       ",
"              >                     # % % % N } } 6 } O ~ + % % % % % % P y y y Q % % % %       ",
"              >                     + % % % { R { S / T ; ) % % % m m U p y y V T % % % ;       ",
"      > > > >                       % % % % - m % % % % % % @ @ + ; A % & W X Y m % % % Z       ",
"                                  ) % % % ; % % % % % % % & - m `  .; & % % - m % % % &         ",
"                                  @ % % % K m K + Z $ % % % K l m l ; m % % % m % % ;           ",
"                                  - % % % @ $ % +  .; % % % m c ) ; m . % % % + % l B           ",
"                                    ; % % .. .+.- - ! % % % % + + @ + $ % % % @.#.              ",
"                                      ..% % T $.c c ! & % % % % % % % % % % T %.                ",
"                                          l % $ + Z  .- % % % % % % % % % ..&.*.=.              ",
"                                              @ { -.;.~ % % % % % % % K >.,.'.).                ",
"                                                    0   !.~.{.].^./.(._.:.<.R [.                ",
"                                                        }.|.1.2.3.4.5.6.7.c % 8.[.              ",
"                                                      9.$ $ ..c % % % % % % l 0.a.              ",
"                                                      ; % % % ; % % c @ l & b.  c.              ",
"                                                      ) ..m ..c - + ..% % % Z d.e.              ",
"                                                      K % % % % $ % % % % T   f.g.              ",
"                                                      m % % % % m $ % % % &   h.i.              ",
"                                                      + % % % % ..c % % % + c.h.j.              ",
"                                                      ) % % % % m c % % % ) k.h.l.              ",
"                                                      Z % % % % ) $ % % % H m.n.                ",
"                                                      Z % % % % ) % % % % ..o.p.                ",
"                                                      m % % % % ) % % % % $                     ",
"                                                      % % % % % q.% % % % % r.                  ",
"                                                      ; % % % % ) % % % % ;                     ",
"                                                      s.t.! u.v.w.l - v.x.y.                    ",
"                                                      z.A.B.B.B.z.C.A.D.E.                      ",
"                                                      C.C.B.B.B.z.B.C.F.A.                      ",
"                                                      z.C.B.B.B.G.B.B.E.H.                      ",
"                                                      E.E.B.B.A.E.B.E.I.                        ",
"                                                J.K.K.K.B.B.B.G.B.B.B.D.                        ",
"                                              D.B.B.B.C.E.B.B.G.B.A.G.E.B.E.                    ",
"                                              B.B.B.B.B.B.B.B.A.L.B.B.B.B.B.D.                  ",
"                                              M.A.z.N.O.P.Q.    R.S.T.U.P.N.O.                  ",
"                                                R.V.                                            "};
