/* XPM */
static char * major_xpm[] = {
"48 48 187 2",
"  	c None",
". 	c #080808",
"+ 	c #101010",
"@ 	c #0D0D0D",
"# 	c #1A1A1A",
"$ 	c #232323",
"% 	c #121212",
"& 	c #0A0A0A",
"* 	c #1B1B1B",
"= 	c #303006",
"- 	c #29290D",
"; 	c #3C3C17",
"> 	c #1A1A0E",
", 	c #FAFA3B",
"' 	c #1B1B0E",
") 	c #171615",
"! 	c #020202",
"~ 	c #1E1E11",
"{ 	c #54540E",
"] 	c #424211",
"^ 	c #905A31",
"/ 	c #32261B",
"( 	c #353514",
"_ 	c #4C4C0F",
": 	c #56351B",
"< 	c #FCDF9A",
"[ 	c #FFEEB1",
"} 	c #FFEEB0",
"| 	c #D8A35A",
"1 	c #32251A",
"2 	c #653E20",
"3 	c #FCDF98",
"4 	c #FCDC96",
"5 	c #E7B669",
"6 	c #563B24",
"7 	c #141413",
"8 	c #472B17",
"9 	c #CF9851",
"0 	c #F7D287",
"a 	c #EEC174",
"b 	c #DDA95E",
"c 	c #F8D389",
"d 	c #4C311C",
"e 	c #15110F",
"f 	c #633C1F",
"g 	c #F2C77C",
"h 	c #F3CA7E",
"i 	c #B6783F",
"j 	c #EBB869",
"k 	c #5E1B08",
"l 	c #1A1512",
"m 	c #050505",
"n 	c #9F6335",
"o 	c #FDE29E",
"p 	c #AC6F3B",
"q 	c #985E31",
"r 	c #442B18",
"s 	c #FEE7A5",
"t 	c #E9BA6B",
"u 	c #D39C54",
"v 	c #2E251D",
"w 	c #C78E4A",
"x 	c #010101",
"y 	c #F0C376",
"z 	c #FAD890",
"A 	c #AB7442",
"B 	c #E4B365",
"C 	c #745135",
"D 	c #FEE5A3",
"E 	c #2C241C",
"F 	c #E5B367",
"G 	c #8B562D",
"H 	c #232214",
"I 	c #DFAB60",
"J 	c #3C2E24",
"K 	c #D8C483",
"L 	c #FBFBDA",
"M 	c #192B14",
"N 	c #D29A53",
"O 	c #9E6B3F",
"P 	c #98673E",
"Q 	c #F5CF87",
"R 	c #EEE9B6",
"S 	c #F5F5CD",
"T 	c #284922",
"U 	c #1B421B",
"V 	c #030303",
"W 	c #CEA15A",
"X 	c #F8F7D2",
"Y 	c #305C29",
"Z 	c #2B692B",
"` 	c #245824",
" .	c #0F260F",
"..	c #690000",
"+.	c #E5E5B3",
"@.	c #FCFCDF",
"#.	c #3F7836",
"$.	c #49A949",
"%.	c #4EB14E",
"&.	c #4AAB4A",
"*.	c #080903",
"=.	c #B60000",
"-.	c #DDDDA9",
";.	c #4A7439",
">.	c #2E712E",
",.	c #429F42",
"'.	c #1C451C",
").	c #7C0201",
"!.	c #D40000",
"~.	c #1F3018",
"{.	c #358134",
"].	c #398B39",
"^.	c #859C03",
"/.	c #3F8729",
"(.	c #286328",
"_.	c #153515",
":.	c #D60000",
"<.	c #1B0703",
"[.	c #67AE22",
"}.	c #FFFF00",
"|.	c #89A907",
"1.	c #3E963E",
"2.	c #22491E",
"3.	c #300A05",
"4.	c #204A1B",
"5.	c #141600",
"6.	c #25541D",
"7.	c #449E3F",
"8.	c #D9DC00",
"9.	c #4F901B",
"0.	c #275324",
"a.	c #160302",
"b.	c #4E0803",
"c.	c #276127",
"d.	c #445322",
"e.	c #47A747",
"f.	c #3E6027",
"g.	c #235623",
"h.	c #1F4F1F",
"i.	c #1C1DB8",
"j.	c #162549",
"k.	c #0B1B0B",
"l.	c #6D3917",
"m.	c #BB0E06",
"n.	c #980703",
"o.	c #1E4A1E",
"p.	c #275115",
"q.	c #0D1312",
"r.	c #38873B",
"s.	c #4F3214",
"t.	c #5E3816",
"u.	c #782710",
"v.	c #367630",
"w.	c #B8C702",
"x.	c #C1CE02",
"y.	c #4A8938",
"z.	c #920301",
"A.	c #7E1E0D",
"B.	c #173917",
"C.	c #3F9439",
"D.	c #368131",
"E.	c #122C12",
"F.	c #143114",
"G.	c #091409",
"H.	c #FFFFFF",
"I.	c #363B20",
"J.	c #9E9054",
"K.	c #BDB374",
"L.	c #17170E",
"M.	c #327A32",
"N.	c #6F6B32",
"O.	c #355C27",
"P.	c #2C5C26",
"Q.	c #DCA75C",
"R.	c #FAD78E",
"S.	c #534F26",
"T.	c #614523",
"U.	c #673F22",
"V.	c #3B923B",
"W.	c #081208",
"X.	c #0C1D0C",
"Y.	c #193C19",
"Z.	c #061006",
"`.	c #070707",
" +	c #0B0B0B",
".+	c #0E0E0E",
"++	c #040404",
"                                                                                                ",
"                                                  . +                                           ",
"                                            @ # $ $ $ $ $ %                                     ",
"                                        & * $ $ $ $ $ $ $ $ *                                   ",
"                                      @ $ $ $ $ $ $ $ $ $ $ $ #                                 ",
"                                    @ $ $ $ $ $ $ $ $ $ $ $ $ $ .                               ",
"                                = - ; * $ $ $ $ $ $ $ $ $ $ $ $ @                               ",
"                                + > , ' $ # $ $ $ $ $ $ $ $ $ $ )                               ",
"                              ! @ * ~ * { ] $ $ $ $ $ $ $ $ $ $ #                               ",
"                                  ^ / # ( _ $ $ $ $ $ $ $ $ $ $ )                               ",
"                            : < [ [ } | 1 % $ $ $ $ $ $ $ $ $ $ %                               ",
"                            2 3 [ [ [ 4 [ 5 6 7 $ $ $ $ $ $ $ $ @                               ",
"                            8 9 [ [ 0 a b [ [ c d e $ $ $ $ $ $ .                               ",
"                              f c } g h i [ [ [ j k & l * $ $ $ m                               ",
"                                  8 n c 5 [ [ [ o p ) q r . # $                                 ",
"                                      s t [ [ [ [ u v w q     m x                               ",
"                                      y z o [ [ [ A 6 t 2                                       ",
"                                        B o [ [ [ C | D |                                       ",
"                                        | w < [ [ E < [ F G H                                   ",
"                                          9 0 I a J [ [ o K L M                                 ",
"                                          N i F O P [ Q R S T U                                 ",
"                                                V ^ W X S Y Z `  .                              ",
"                                                  ..+.@.#.` $.%.&.                              ",
"                                                *.=.-.;.>.,.%.%.%.'.                            ",
"                                                ).!.~.{.].%.].^./.(.                            ",
"                                              _.:.<.{.(.%.%.[.}.|.1.                            ",
"                                              2.3.4.5.6.%.>.7.8.9.%.                            ",
"                                              0.{.a.b.&._.c.d.e.f.1.                            ",
"                                              g.h.i.j.%.k.` l.m.n.,.                            ",
"                                              o.p.q.r.%.e.g.s.t.u.v._.                          ",
"                                              (.w.x.%.%.%.(.y.z.A.&.B.                          ",
"                                              %.C.D.%.%.%.` e.].%.%.E.                          ",
"                                            >.%.%.%.%.%.%.F.(.o.E. .G.                          ",
"            H.H.H.H.H.                      _.&.%.%.%.%.%.1.I.J.K.L.                            ",
"          H.H.H.H.H.H.                        B.>.M.>.(.c.0.N.o D                               ",
"                  H.                          c.1.%.%.%.&.&.O.u D                               ",
"                  H.                            {.e.%.%.%.%.P.Q.R.i                             ",
"                  H.                            U >.%.%.%.%.,.S.T.U.                            ",
"                H.                                o.M.%.%.%.%.%.V.                              ",
"                H.                                  o.&.%.%.%.%.].                              ",
"                H.                                    W.X.r.,.Y.Z.                              ",
"              H.                                        % % % *                                 ",
"              H.                                        @ # $ *                                 ",
"                                                        . # $ #                                 ",
"                                                        & + $ )                                 ",
"                                                    `.%  +.+$ *                                 ",
"                                                  m ) % $ * * *                                 ",
"                                                    +++ + @   m                                 "};
