/* XPM */
static char * marshall_xpm[] = {
"48 48 234 2",
"  	c None",
". 	c #111111",
"+ 	c #1E1E1E",
"@ 	c #202020",
"# 	c #141414",
"$ 	c #020202",
"% 	c #080808",
"& 	c #0D0D0D",
"* 	c #040404",
"= 	c #FFFFFF",
"- 	c #343432",
"; 	c #767676",
"> 	c #818181",
", 	c #565454",
"' 	c #161616",
") 	c #030303",
"! 	c #5A5A5A",
"~ 	c #000000",
"{ 	c #050505",
"] 	c #1A1A1A",
"^ 	c #E3E3E3",
"/ 	c #070707",
"( 	c #7C7C7C",
"_ 	c #4EB14E",
": 	c #ABABAB",
"< 	c #494949",
"[ 	c #C5C5C5",
"} 	c #D5D5D5",
"| 	c #3B3B3B",
"1 	c #B8B8B8",
"2 	c #262626",
"3 	c #666666",
"4 	c #9C9C9C",
"5 	c #717171",
"6 	c #C6C6C6",
"7 	c #DADADA",
"8 	c #E2E2E2",
"9 	c #ECECEC",
"0 	c #8E8E8E",
"a 	c #776960",
"b 	c #FDECBE",
"c 	c #5C391E",
"d 	c #636363",
"e 	c #150D07",
"f 	c #FDE19C",
"g 	c #FFEEB1",
"h 	c #F6CF85",
"i 	c #472E1C",
"j 	c #B3763F",
"k 	c #ECBE6F",
"l 	c #FFECAE",
"m 	c #FFE9A9",
"n 	c #5A412D",
"o 	c #9C6134",
"p 	c #FAD990",
"q 	c #FFEEB0",
"r 	c #A76D3B",
"s 	c #514941",
"t 	c #54514E",
"u 	c #D29C58",
"v 	c #635345",
"w 	c #010101",
"x 	c #5A3E26",
"y 	c #987E65",
"z 	c #B3B3B3",
"A 	c #CACACA",
"B 	c #5C5651",
"C 	c #563923",
"D 	c #FFE8A7",
"E 	c #4E3623",
"F 	c #515151",
"G 	c #3F3F3E",
"H 	c #FCDC96",
"I 	c #493E34",
"J 	c #0B0806",
"K 	c #DAA35A",
"L 	c #BA7E44",
"M 	c #292623",
"N 	c #131313",
"O 	c #FBDB94",
"P 	c #FFEBAC",
"Q 	c #FDE09A",
"R 	c #DCA95E",
"S 	c #442916",
"T 	c #89532C",
"U 	c #D79F56",
"V 	c #C9904C",
"W 	c #676767",
"X 	c #FCDF98",
"Y 	c #F9D68E",
"Z 	c #DFAC61",
"` 	c #E8B86B",
" .	c #FEE5A3",
"..	c #FFEBAB",
"+.	c #B5A189",
"@.	c #D4D4D4",
"#.	c #F5CD81",
"$.	c #F1C77A",
"%.	c #CFAC7E",
"&.	c #BBBBBB",
"*.	c #14100B",
"=.	c #4E3E31",
"-.	c #F2C97C",
";.	c #362212",
">.	c #985E31",
",.	c #966139",
"'.	c #443C36",
").	c #D19A53",
"!.	c #FAD790",
"~.	c #764C2B",
"{.	c #2E2E2D",
"].	c #4E3019",
"^.	c #E6B567",
"/.	c #0A0A0A",
"(.	c #784926",
"_.	c #5C3C24",
":.	c #453224",
"<.	c #0A0603",
"[.	c #27180D",
"}.	c #20140A",
"|.	c #3B2514",
"1.	c #0E0905",
"2.	c #2E1C0F",
"3.	c #634730",
"4.	c #1D1109",
"5.	c #F0C478",
"6.	c #2D2B29",
"7.	c #C0894C",
"8.	c #030201",
"9.	c #716D6B",
"0.	c #A3764C",
"a.	c #FDE39E",
"b.	c #AC7C4F",
"c.	c #63442B",
"d.	c #CB924E",
"e.	c #180F09",
"f.	c #1B1109",
"g.	c #47392C",
"h.	c #D7D7D7",
"i.	c #988E83",
"j.	c #E9BD76",
"k.	c #3B3631",
"l.	c #22140B",
"m.	c #1E130A",
"n.	c #6D4223",
"o.	c #C69860",
"p.	c #090503",
"q.	c #422815",
"r.	c #9C9A9A",
"s.	c #90582E",
"t.	c #BA7E42",
"u.	c #A1784F",
"v.	c #C4C4C4",
"w.	c #715E4E",
"x.	c #928E89",
"y.	c #E1AE61",
"z.	c #7E4E28",
"A.	c #010100",
"B.	c #896B4F",
"C.	c #90633F",
"D.	c #634E3B",
"E.	c #969696",
"F.	c #2C1B0E",
"G.	c #764726",
"H.	c #E4B163",
"I.	c #CA9C63",
"J.	c #6B6765",
"K.	c #070605",
"L.	c #040A04",
"M.	c #56341B",
"N.	c #5A361C",
"O.	c #C38749",
"P.	c #0F0E0E",
"Q.	c #85512C",
"R.	c #4C361B",
"S.	c #388938",
"T.	c #0E230E",
"U.	c #030903",
"V.	c #E5B66B",
"W.	c #2B1F17",
"X.	c #1B451B",
"Y.	c #368336",
"Z.	c #255C25",
"`.	c #173917",
" +	c #091609",
".+	c #A16535",
"++	c #7C6553",
"@+	c #1F1E1C",
"#+	c #F4CA7E",
"$+	c #204C1F",
"%+	c #4CAE4C",
"&+	c #112911",
"*+	c #419E41",
"=+	c #2E712E",
"-+	c #3F983F",
";+	c #2B1B0E",
">+	c #6D5139",
",+	c #544723",
"'+	c #317831",
")+	c #143414",
"!+	c #235423",
"~+	c #449F44",
"{+	c #834F29",
"]+	c #040302",
"^+	c #0F0A05",
"/+	c #513B1D",
"(+	c #2C6B2C",
"_+	c #193C18",
":+	c #286328",
"<+	c #030603",
"[+	c #0D1B0B",
"}+	c #091408",
"|+	c #0B1A0B",
"1+	c #3C943C",
"2+	c #060F06",
"3+	c #010301",
"4+	c #1A3F1A",
"5+	c #266026",
"6+	c #1E4C1E",
"7+	c #020502",
"8+	c #0F250F",
"9+	c #040B04",
"0+	c #0B1B0B",
"a+	c #071207",
"b+	c #45A345",
"c+	c #987A02",
"d+	c #585404",
"e+	c #4A4C05",
"f+	c #FFED00",
"g+	c #E7B800",
"h+	c #000100",
"i+	c #0C1D0C",
"j+	c #2C4F16",
"k+	c #494C05",
"                                                                                                ",
"                                                    . + + @ + # $ % & * *                       ",
"                        = = = =               # - ; > > > > > > > , ' ) *                       ",
"        = = =         = =     = =         & ! > > > > > > > > > > > > , . ~                     ",
"          = =         =         =     { ] ^ > > > > > > > > > > > > > > ; /                     ",
"          = =         =         = ( & - > > > > > > > > > > > > > > > > _ ; /                   ",
"          = =       = =         = : < > > > > > > > > > > > > > > > > > > > <                   ",
"          = =       = =         = [ > > > > > > > > > > > > > > > > > > > > > .                 ",
"          = =       = =         = } > > > > > > > > > > > > > > > > > > > > > |                 ",
"          = =       = =       % = 1 > > > > > > > > > > > > > > > > > > > > > !                 ",
"          = =         =   2 @ 3 = 4 > > > > > > > > > > > > > > > > > > > > > ^ ~               ",
"          = =         = 5 | > 6 7 ; > > > > > > > > > > > > > > > > > > > > > ^ ~               ",
"          = =           8 5 ; 9 0 > > > > > > > > > > > > > > > > > > > > > > ; ~               ",
"                          a b c + ; > > > > > > > > > > > > > > > > > > > > > d                 ",
"                        e f g g h i - > > > > > > > > > > > > > > > > > > > > |                 ",
"                        j k g g l m k n d > > > > > > > > > > > > > > > > > > .                 ",
"                        o p q r s t u g k v ^ > > > > > > > > > > > > > > > ^ w                 ",
"                        j x y z A B C g g D E F > > > > > > > > > > > > > > G                   ",
"                        H o I + J K D g g g q L M ; > > > > > > > > > > > > N                   ",
"                      h g O q P Q R S T U D g g V @ - > > > > > > > > > > W ~                   ",
"                    X g g g Y Z g g g `  .g g ..+.@.) ' F > > > > > > > > #                     ",
"                  k g g g g g #.$.h f g g g g %.@.&.# 2 *.=.; > > W < < ! ~                     ",
"                j g g g g g g g m  .g g g g -.F @.; . W ;.>.,.'.^ > ; | &                       ",
"                Y g g g  .).#.g g g g g g g !.~.; G - {.h ].Q ^.) < ^ ^ /.                      ",
"                g g g  .].k V (.g g g g g g g P _.] ^ :.f <.U r ~ ~ . W #                       ",
"              [.g g g h h g g }.U g g g g g g g ..| d |.1.2.$.3.&   ~ w {                       ",
"              4.g g g g g  .o S K l g g g g g g 5.; 6.K U 5.7.z +     ~ ~                       ",
"                h g g g j 8.] F 9.0.a.g g g g g b.> c.g g d.e.@.2                               ",
"                f.a.g P g.W h.h.@.@.i.j.g g g q k.G 4.l.m.n.o.@.2                               ",
"                  p.q.1.&.@.h.@.@.h.h.r.` g g ,.F 3.s.t.V g u.| /                               ",
"                      2 @.h.h.v.A h.h.h.w.H Z x.+ ` y.g g q z.A.                                ",
"                      /.N G B.C.D.; @.h.@.E.v.^ F.g g g g g g G.                                ",
"                          H.g $.l a.I.J.A @.E.K.h g g g g g g ^.L.                              ",
"                          M.S N.O.g g H j P.- Q.g g g g g g g R.S.T.U.                          ",
"                            n.g g g g g V.! W...g g g g g g O.X.X.Y.Z.`. +                      ",
"                            .+g g g g ..++@+#+g g g g g g j $+%+&+*+$+=+-+                      ",
"                            ;+D g g  .>+| O.g g g g g !.,+'+_ )+Y.=+!+_ ~+                      ",
"                              e.{+N.]+# ^+U a.g P y./+$+_ _ (+_+_ _ %+_ :+                      ",
"                                            <+[+}+|+!+1+_ =+&+_ _ _ _ _ 2+                      ",
"                                            3+4+=+X.}+4+(+`._ _ _ _ _ Z.                        ",
"                                            U.U.5+Y.U.4+6+_ _ _ _ _ *+7+                        ",
"                                            Z.Y.2+8+9+-+_ _ _ _ _ _ 0+                          ",
"                                          a+_ _ 2+   +_ _ _ b+_ _ (+                            ",
"                                          :+S._+      !+_ b+c+d+S.|+                            ",
"                                      ~ a+4+)+          *+e+f+g+:+h+                            ",
"                                      Z._+7+            i+j+g+k+(+                              ",
"                                                          2+_+1+)+                              ",
"                                                              i+7+                              "};
