/* XPM */
static char * miner_xpm[] = {
"48 48 189 2",
"  	c None",
". 	c #FFFFFF",
"+ 	c #1F1F0D",
"@ 	c #1E1E0D",
"# 	c #171709",
"$ 	c #47471C",
"% 	c #25250F",
"& 	c #1A1A0A",
"* 	c #9C9C41",
"= 	c #B1B14E",
"- 	c #838335",
"; 	c #535322",
"> 	c #0F0F06",
", 	c #070703",
"' 	c #5C5C25",
") 	c #AEAE4A",
"! 	c #74742E",
"~ 	c #CCCCC8",
"{ 	c #030301",
"] 	c #0B0B05",
"^ 	c #A1A144",
"/ 	c #7A7A74",
"( 	c #7A7A32",
"_ 	c #3B3B18",
": 	c #878738",
"< 	c #8B8B39",
"[ 	c #080803",
"} 	c #42421B",
"| 	c #010101",
"1 	c #BDBD80",
"2 	c #F6F6EA",
"3 	c #ABAB49",
"4 	c #323214",
"5 	c #2D2D12",
"6 	c #DCDCAF",
"7 	c #CBCB89",
"8 	c #7E7E24",
"9 	c #020200",
"0 	c #555555",
"a 	c #B9B98E",
"b 	c #1C1C0B",
"c 	c #5E5E20",
"d 	c #0D0D01",
"e 	c #B0B04C",
"f 	c #575755",
"g 	c #141408",
"h 	c #606027",
"i 	c #34340B",
"j 	c #7A7A05",
"k 	c #141401",
"l 	c #0A0A04",
"m 	c #7A7A31",
"n 	c #474704",
"o 	c #BDBD0A",
"p 	c #6F6F05",
"q 	c #42421F",
"r 	c #5E5E0F",
"s 	c #3B3B03",
"t 	c #838306",
"u 	c #414114",
"v 	c #423C1A",
"w 	c #B67A41",
"x 	c #6D652B",
"y 	c #6B5627",
"z 	c #6F5335",
"A 	c #FDFDFD",
"B 	c #2D2D2D",
"C 	c #6D6D2C",
"D 	c #1F1F09",
"E 	c #4C4C1E",
"F 	c #CD944E",
"G 	c #6B4223",
"H 	c #FFEDB0",
"I 	c #834E1D",
"J 	c #BB6F0A",
"K 	c #F1C678",
"L 	c #DDC6A9",
"M 	c #2C2C12",
"N 	c #636328",
"O 	c #DCB661",
"P 	c #F6CF85",
"Q 	c #FDE39E",
"R 	c #985C2D",
"S 	c #AC6D32",
"T 	c #FEE6A5",
"U 	c #DBBB90",
"V 	c #9E9E9E",
"W 	c #98983E",
"X 	c #B88342",
"Y 	c #FFEEB1",
"Z 	c #FCDD98",
"` 	c #D79F56",
" .	c #FFE9A7",
"..	c #BE8345",
"+.	c #383817",
"@.	c #4E4E1F",
"#.	c #94943C",
"$.	c #D9A55A",
"%.	c #DCA75C",
"&.	c #7E4C28",
"*.	c #452B16",
"=.	c #25160C",
"-.	c #7A4A27",
";.	c #322D14",
">.	c #E7B669",
",.	c #352011",
"'.	c #56351C",
").	c #090503",
"!.	c #000000",
"~.	c #050502",
"{.	c #292811",
"].	c #392714",
"^.	c #A16736",
"/.	c #714725",
"(.	c #ECBE6F",
"_.	c #9A6032",
":.	c #5A5424",
"<.	c #985E32",
"[.	c #4E3019",
"}.	c #FFEBAB",
"|.	c #85532B",
"1.	c #7C672E",
"2.	c #5E391D",
"3.	c #AE713C",
"4.	c #F4CB81",
"5.	c #EBBD6F",
"6.	c #E6B567",
"7.	c #44411B",
"8.	c #0B0804",
"9.	c #F3CA7E",
"0.	c #28190D",
"a.	c #EABA6D",
"b.	c #412714",
"c.	c #6D4524",
"d.	c #544E20",
"e.	c #F0C376",
"f.	c #C78E4A",
"g.	c #FFEBAC",
"h.	c #111107",
"i.	c #070402",
"j.	c #C48949",
"k.	c #E1AC61",
"l.	c #020101",
"m.	c #A96D39",
"n.	c #C98E4C",
"o.	c #070707",
"p.	c #1D1D1A",
"q.	c #313125",
"r.	c #2D2D1F",
"s.	c #262616",
"t.	c #16160A",
"u.	c #343434",
"v.	c #1E1E1E",
"w.	c #4E4E4E",
"x.	c #090909",
"y.	c #343419",
"z.	c #565623",
"A.	c #010100",
"B.	c #101010",
"C.	c #171717",
"D.	c #020202",
"E.	c #030303",
"F.	c #0E0E0E",
"G.	c #252525",
"H.	c #232323",
"I.	c #3F3F3F",
"J.	c #191919",
"K.	c #444444",
"L.	c #050505",
"M.	c #131313",
"N.	c #393939",
"O.	c #31311E",
"P.	c #4C4C32",
"Q.	c #4A4A2D",
"R.	c #1B1B11",
"S.	c #92925A",
"T.	c #C0C085",
"U.	c #90905C",
"V.	c #A1A167",
"W.	c #040402",
"X.	c #040403",
"Y.	c #B5B576",
"Z.	c #C3C387",
"`.	c #7A7A4A",
" +	c #0B0B07",
".+	c #81814E",
"++	c #9A9A60",
"@+	c #8E8E56",
"#+	c #DADAA3",
"                                                                                                ",
"                                                                                                ",
"                                                                                                ",
"              . . .                                                                             ",
"            .     . .                                                                           ",
"                  . .                                                                           ",
"                  .                                                                             ",
"                  .       + @ # # $ %                                                           ",
"                . .   & * = = = = - ; >                                   , ' = ) !             ",
"                  . ~ = = = = = = = = ' { {                             ] * = = = = ^           ",
"                  / . = = = = = = = = = ( _ : < ) ( [ } * < #           - = = = = = = *         ",
"                | 1 2 = = = = = = = = = = ' - = = ( ; = = = 3 &       4 = = = = = = = = !       ",
"          .     5 6 7 = = = = = = = = = = = _ = = 4 = = = = = 8 9     - = = = = = = = = =       ",
"          . . 0 a 7 = = = = = = = = = = = = b = ^ 5 = = = = = c d     e = = = = = = = = = :     ",
"              f = = = = = = = = = = = = = = g = } h = = = = < i j k & = = = = = = = = = ) h     ",
"              ] = = = = = = = = = = = = = = l = & ^ = = = m n o o p g - = = = = = = ^ q {       ",
"              @ = = = = = = = = = = = = = = [ = # = = = = ^ r s p t u & $ v w x $ y z A B       ",
"              _ = = = = = = = = = = = = = = , ) # = = = = = ! C D E ) E F G H I J K L A         ",
"              } = = = = = = = = = = = = = = @ ( 4 = = = = < M ^ = = N * O P Q R S T U V         ",
"              } = = = = = = = = = = = = = = 4 $ ; = = = = 4 N 3 = = W N X Y Y H Y Y Z `  ...    ",
"              ' = = = = = = = = = = = = = = +.] ! = = = = @.#.= = = = W $.Y Y Y Y Y %.&.*.=.    ",
"              h = = 3 = = = = = = = = = = = @ % - = = = = - C = = = < $ $.Y Y Y Y Y Y -.        ",
"              ! = = * } W = = = = = = = = = > * ' = = = = ( ! = = - M ;.Q Y Y Y Y Y >.,.        ",
"              ^ = = = ^ E _ $ ) = = = = = = & = ; = ) ^ = _ W = ) @.@ '.K Y Y Y Y Y H ).        ",
"            !.= = = = = = = E $ = = = = = = ]   ~.{.].^./.*.M @ g 5 &     *.(.Y Y Y $.          ",
"            ] = = = = = = = , 4 = = = = = = $     _.Y Y Y >.:.= = 3           ,.<.G             ",
"            _ = = = = = = * !.; = = = = = = $     [.Y Y }...|.1.= ' &                           ",
"            < = = = = = = M   b = = = = = = '       ..Y Y Y w |.#.= C                           ",
"          ] = = = = = = = >   | ) = = = = = '         2.3.4.5.6.7.= ) 8.P 9.w 0.                ",
"          ! = = = = = = = #   !.^ = = = = = (           a.b.Q c.d.= + a.e.Y f.g.f.              ",
"          ^ = = = = = = = #   h.= = = = = = (               i.$ = ^ =.Y $.'.j.k.`               ",
"          E = = = = = = = { !.m = = = = = = !                 $ = 4 ..P |.e.Y &.                ",
"          , ! = = = = = #.!.b = = = = = = = '                   % l.m.3.Y n.[.                  ",
"            o.p.q.r.s.t.,   ; = = = = = = = 5                           w =.                    ",
"            u.v.w.w.w.x.    [ % % y.5 ' < z.A.                                                  ",
"      B.C.D.x.u.w.w.w.E.      F.w.w.w.G.x.                                                      ",
"  !.B w.w.v.H.I.w.w.w.E.      x.w.w.w.J.G.                                                      ",
"  D.w.w.w.C.G.w.w.w.w.|       F.w.w.w.K.L.  M.B M.                                              ",
"  !.I.w.w.u.w.w.w.w.w.!.      G.w.w.w.u.o.N.w.w.w.o.                                            ",
"  O.P.v.I.w.w.w.w.w.G.      !.K.w.w.w.w.K.w.w.w.w.E.                                            ",
"    Q.R.!.x.N.w.w.I.L.      | w.w.w.w.w.w.w.w.w.H.!.                                            ",
"          S.T.U.V.s.        W.v.u.K.u.H.B K.N.B.X.                                              ",
"                              Y.Y.Z.`. +.+++@+#+R.                                              ",
"                                                                                                ",
"                                                                                                ",
"                                                                                                ",
"                                                                                                ",
"                                                                                                "};
