/* XPM */
static char * scout_xpm[] = {
"48 48 215 2",
"  	c None",
". 	c #141408",
"+ 	c #2C2C12",
"@ 	c #1A1A0A",
"# 	c #838335",
"$ 	c #B0B04C",
"% 	c #3F3F1A",
"& 	c #AEAE4A",
"* 	c #A5A545",
"= 	c #535323",
"- 	c #FFFFFF",
"; 	c #9E9E42",
"> 	c #B1B147",
", 	c #E0E063",
"' 	c #818129",
") 	c #818131",
"! 	c #B5943F",
"~ 	c #AC7E3B",
"{ 	c #BE8345",
"] 	c #9C9C9A",
"^ 	c #B0A94A",
"/ 	c #D29F53",
"( 	c #EEC174",
"_ 	c #E6B567",
": 	c #FFEEB1",
"< 	c #DFA95E",
"[ 	c #949494",
"} 	c #ECCD78",
"| 	c #C38747",
"1 	c #FFEEB0",
"2 	c #FFE8A7",
"3 	c #CD944F",
"4 	c #676767",
"5 	c #A7A7A7",
"6 	c #898738",
"7 	c #DAA55A",
"8 	c #E1AC61",
"9 	c #D7A158",
"0 	c #E4B063",
"a 	c #DFAC60",
"b 	c #858585",
"c 	c #987658",
"d 	c #8E7431",
"e 	c #060606",
"f 	c #96653C",
"g 	c #FFEAA9",
"h 	c #B1814F",
"i 	c #9A3F0E",
"j 	c #4C4C20",
"k 	c #949035",
"l 	c #C9B54C",
"m 	c #FAD992",
"n 	c #080808",
"o 	c #111111",
"p 	c #FCDF9A",
"q 	c #673F22",
"r 	c #B06D36",
"s 	c #AB4910",
"t 	c #715628",
"u 	c #F7D287",
"v 	c #FCE198",
"w 	c #EABE76",
"x 	c #F4CD83",
"y 	c #7C4C27",
"z 	c #492C18",
"A 	c #4A2D18",
"B 	c #DAAB67",
"C 	c #A55E29",
"D 	c #923B0D",
"E 	c #B0743C",
"F 	c #FEE49F",
"G 	c #E9BB71",
"H 	c #F5CE83",
"I 	c #FBDB94",
"J 	c #FCDD98",
"K 	c #F4C771",
"L 	c #FCDF98",
"M 	c #0D0D0B",
"N 	c #201913",
"O 	c #FAD990",
"P 	c #7E320B",
"Q 	c #B16930",
"R 	c #F2C97C",
"S 	c #E26938",
"T 	c #BE0101",
"U 	c #96100A",
"V 	c #AB813E",
"W 	c #656529",
"X 	c #787831",
"Y 	c #444436",
"Z 	c #6F6358",
"` 	c #AC4A10",
" .	c #5C290B",
"..	c #71712E",
"+.	c #7C7A32",
"@.	c #2B2711",
"#.	c #FFEBAC",
"$.	c #565624",
"%.	c #A9A949",
"&.	c #7E7E58",
"*.	c #9A8E81",
"=.	c #A54F18",
"-.	c #834513",
";.	c #786B2D",
">.	c #E7B669",
",.	c #24200E",
"'.	c #98983E",
").	c #393216",
"!.	c #89542C",
"~.	c #614E24",
"{.	c #92923C",
"].	c #8E8E3E",
"^.	c #96967C",
"/.	c #A98158",
"(.	c #A74A12",
"_.	c #39220A",
":.	c #5A5A25",
"<.	c #A5A500",
"[.	c #D1D10F",
"}.	c #363616",
"|.	c #4A4A1E",
"1.	c #9F7A3B",
"2.	c #A5A57C",
"3.	c #767676",
"4.	c #78441F",
"5.	c #923E0E",
"6.	c #695820",
"7.	c #FFFF00",
"8.	c #EBEB01",
"9.	c #383817",
"0.	c #A17439",
"a.	c #8B7A5A",
"b.	c #9E6030",
"c.	c #652D0B",
"d.	c #4E491C",
"e.	c #E4E400",
"f.	c #F4F400",
"g.	c #94941F",
"h.	c #8E8E39",
"i.	c #585323",
"j.	c #FAD78E",
"k.	c #856B54",
"l.	c #964F1F",
"m.	c #4A3210",
"n.	c #6F6F35",
"o.	c #58581B",
"p.	c #69692B",
"q.	c #D2A154",
"r.	c #963F0F",
"s.	c #562408",
"t.	c #8B7835",
"u.	c #B87A38",
"v.	c #ACA749",
"w.	c #292911",
"x.	c #25250F",
"y.	c #CA9E51",
"z.	c #FCE09A",
"A.	c #837131",
"B.	c #47471C",
"C.	c #DFB361",
"D.	c #FEE7A5",
"E.	c #C3904A",
"F.	c #3B3213",
"G.	c #78340C",
"H.	c #A54912",
"I.	c #C97A30",
"J.	c #787430",
"K.	c #817E34",
"L.	c #413111",
"M.	c #B14E11",
"N.	c #54280A",
"O.	c #606027",
"P.	c #7C4212",
"Q.	c #746B2B",
"R.	c #878742",
"S.	c #9C983E",
"T.	c #87541A",
"U.	c #766526",
"V.	c #49492E",
"W.	c #6B6B49",
"X.	c #0F0F06",
"Y.	c #22220D",
"Z.	c #11110F",
"`.	c #3E3E32",
" +	c #38382E",
".+	c #4E4E38",
"++	c #49492C",
"@+	c #454527",
"#+	c #3C3C29",
"$+	c #545434",
"%+	c #585830",
"&+	c #E3E3E3",
"*+	c #4E4E4E",
"=+	c #494949",
"-+	c #363636",
";+	c #3F3F3F",
">+	c #393939",
",+	c #1E1E1E",
"'+	c #141414",
")+	c #303030",
"!+	c #0D0D0D",
"~+	c #585847",
"{+	c #41413C",
"]+	c #393936",
"^+	c #353531",
"/+	c #49493B",
"(+	c #10100D",
"_+	c #0B0B0B",
":+	c #1A1A16",
"<+	c #2E2E2B",
"[+	c #F0F0C3",
"}+	c #E3E3B0",
"|+	c #9A9A60",
"1+	c #0C0C08",
"2+	c #15150F",
"                                                                                                ",
"                              . + + @                                                           ",
"                          . # $ $ $ $ %                                                         ",
"                        @ & $ $ $ $ $ * =                                                       ",
"          - - -         ; $ $ $ $ $ > , '                                                       ",
"        -     - -       $ $ $ $ $ ) ! ~ {                                   ]                   ",
"                -       $ $ $ $ ^ / ( _ : <                               [                     ",
"                -       $ $ $ $ } ( | 1 2 3                           4 5                       ",
"                -       $ $ $ 6 7 1 8 9 0 : a                       b c                         ",
"                -       $ $ $ d 1 1 (   e f g                     ] h i                         ",
"              -         j $ k l : m n o o o p q                 ] r s                           ",
"            -             t u v : w o o o o x y           z A B C D                             ",
"                          E x F : G o o o o H             ( I J K                               ",
"                              ( : L M o o N O           P Q : : R                               ",
"        - - - - - -             O : S T U G V ; W X Y Z `  .1 a                                 ",
"                            ..+.@.{ #.: : { $.X %.&.*.=.-.;.>.,.                                ",
"                          '.* +.# +.).!.< ~.{.].^./.(._.; $ :.                                  ",
"                        <.[.$ $ $ }.|.:.1.+.2.3.4.5.6.j $ $ =                                   ",
"                        7.8.$ $ '.9.9.|.0.a.5 b.c.d.|.* $ $ |.                                  ",
"                      e.f.g.$ h.# * 9.i.j.k.l.m.* n.j $ $ ;                                     ",
"                      o.; '.:.:...p.h.q.( r.s.p.p.:.j '.+.}.                                    ",
"                      %.$ $ $ $ $ $ t.1 #.K u.v.+.p.w.                                          ",
"                    x.$ $ $ $ $ & $ y.: : J z.A.h.+.                                            ",
"                    B.$ $ $ $ $ ..& C.: F D.E.& $ ;                                             ",
"                      W ..h...F.G.c.H.I.3 J.K.* $ &                                             ",
"                              L.M.M.M.N.* O.= # $ W                                             ",
"                              & P.M.5.Q.* R.= # :.                                              ",
"                              %.S.T.U.O.V.W.; $ :.                                              ",
"                              # +.X # %.$ $ $ $                                                 ",
"                              $ $ $ $ $ $ $ $ ..                                                ",
"                              $ $ $ $ $ $ $ $ |.                                                ",
"                            :.$ $ $ $ $ * $ $                                                   ",
"                            {.$ $ $ $ X & $ %.                                                  ",
"                          . $ $ $ $ $ p.$ $ h.                                                  ",
"                          B.$ $ $ $ * :.$ $ h.                                                  ",
"                        X.* $ $ $ $ p.; $ $ h.                                                  ",
"                        p.$ $ $ $ $ O.* $ $ ..                                                  ",
"                      Y.$ $ $ $ $ $ O.$ $ $ :.                                                  ",
"                        '.$ $ $ $ $ ..$ $ $ +                                                   ",
"                        Z.`. +.+++@+#+$+%++                                                     ",
"                          &+*+*+*+=+=+*+-+                                                      ",
"                        o ;+*+*+>+>+;+3.                                                        ",
"                        ,+=+*+*+-+*+=+=+                                                        ",
"                  '+-+=+>+)+*+*+*+*+;+,+                                                        ",
"                  =+*+*+*+*+*+*+*+*+-+,+-+-+!+                                                  ",
"                  *+*+*+*+*+*+*+*+*+*+*+*+*+;+                                                  ",
"                  ~+{+]+^+/+(+_+:+<+*+*+*+*+)+                                                  ",
"                    [+}+|+          1+2+V.W.                                                    "};
