<?xml version="1.0" standalone="yes"?>
<svg width="129" height="129">
<path style="fill:#000000; stroke:none;" d="M35 12C33.5056 17.0558 35.1721 22.0225 34.1505 27C33.3065 31.1117 29.6268 34.1973 27.966 38C26.1496 42.1591 26.1927 46.7996 24.5208 51C20.7471 60.4812 12.274 67.371 11.1744 78C10.2343 87.0865 22.7689 97.9567 31.9606 93.9144C38.2141 91.1642 42.225 82.1257 48 78.0432C53.8028 73.941 60.496 71.5229 66 67C65.2944 82.4413 52.4381 90.9618 44.6998 103C42.5092 106.408 37.9194 114.371 41.0316 118.397C43.6874 121.832 54.1089 120 58 120L103 120C108.904 120 116.635 121.825 116.981 113.995C118.1 88.6143 113.024 55.0517 94.9097 36.0147C90.4975 31.3777 85.0592 27.6868 79 25.5478C75.4327 24.2885 70.503 24.5956 67.4985 22.142C64.8638 19.9905 63.4417 12.2769 59.091 12.9213C55.099 13.5126 52.3763 20.8102 51 24L49 24C46.3094 18.3533 40.4936 14.7329 35 12z"/>
<path style="fill:#ffffff; stroke:none;" d="M65 28C70.1507 34.2039 79.8503 34.8526 85.8156 41.0934C99.3155 55.2166 102.724 78.3837 104.089 97C104.366 100.783 103.684 117.292 110.687 115.248C113.44 114.445 113.043 110.165 112.91 108C112.458 100.675 111.752 93.2898 110.844 86C108.101 63.9676 93.9999 23.4036 65 28M41 34L54 29C48.8484 27.5233 42.8157 28.3778 41 34M34 50L36 47C41.2338 46.6262 43.8638 42.3766 46 38C38.6092 38.4046 34.4046 42.6092 34 50M69 55L67 64C69.6592 61.2454 71.1677 58.4254 69 55M20.2593 74.3457C17.2486 75.491 18.3888 81.6079 21.6204 79.8241C24.0517 78.482 23.5089 73.1095 20.2593 74.3457M30 81L27 89C29.6537 86.6591 31.2052 84.5179 30 81z"/>
</svg>
