<?xml version="1.0" standalone="yes"?>
<svg width="129" height="129">
<path style="fill:#000000; stroke:none;" d="M34 12C32.5056 17.0558 34.1721 22.0225 33.1505 27C32.3065 31.1117 28.6268 34.1973 26.966 38C25.1496 42.1591 25.1927 46.7996 23.5208 51C19.7471 60.4812 11.274 67.3711 10.1744 78C9.2343 87.0865 21.7689 97.9567 30.9606 93.9144C36.2824 91.5739 39.5441 84.0509 44.0039 80.3287C50.2788 75.0914 58.3721 72.7186 65 68C63.3873 86.4723 37.0624 97.7263 39.1883 115.941C39.9521 122.486 53.3244 120 58 120C77.4171 120 98.8932 122.547 118 119C118 94.0313 116.073 65.1339 101.279 44C93.2971 32.5982 79.6387 22.3745 65 24C64.8055 22.2069 64.6373 20.6607 63.9252 18.9761C58.5869 6.34717 53.4114 19.02 48 24C45.3094 18.3533 39.4936 14.7329 34 12z"/>
<path style="fill:#ffffff; stroke:none;" d="M58 18L53 30C47.8442 27.6372 45.2154 31.0809 41 34L40 33C44.5132 26.2548 44.9531 22.8189 37 19C37.9171 39.118 21.1514 55.0255 15.2207 74C10.6605 88.5895 22.1685 89.3425 30 80L28 91L43 76.3287L63.348 63.787L68 48L70 48C72.3856 58.1375 69.504 75.423 63.5571 84C56.2413 94.5514 45.014 102.564 43 116L110 116C110 83.0364 104.876 34.5435 66 27L62 31L58 18z"/>
<path style="fill:#000000; stroke:none;" d="M33 50L35 47C40.2338 46.6262 42.8638 42.3766 45 38C37.6092 38.4046 33.4046 42.6092 33 50M19.2593 74.3457C16.2486 75.491 17.3888 81.6079 20.6204 79.8241C23.0517 78.482 22.5089 73.1095 19.2593 74.3457z"/>
</svg>
