<?xml version="1.0" standalone="yes"?>
<svg width="129" height="129">
<path style="fill:#000000; stroke:none;" d="M27 107C24.7678 107.008 21.4842 106.532 19.6034 108.028C16.6507 110.376 17.4267 117.577 21.1481 118.682C27.2173 120.484 35.6864 119 42 119L86 119C91.8892 119 102.344 121.023 107.682 118.397C116.33 114.142 106.249 107.019 101 107C101 97.2268 95.438 94.4587 93.3179 86C90.8472 76.1427 92.1762 61.1315 93.0586 51C93.6154 44.6074 99.2136 42.7823 102.397 37.9606C104.866 34.2194 104.946 25.4047 103.682 21.1481C101.314 13.1732 85.1025 17.3489 85 26L74 26C73.8622 14.3753 55.1378 14.3753 55 26L43 26C42.8975 17.3489 26.6856 13.1732 24.3179 21.1481C23.0675 25.36 23.1091 34.2297 25.6034 37.9105C28.8505 42.7023 34.3822 44.5775 34.9414 51C35.8235 61.1317 37.1528 76.1425 34.6821 86C32.562 94.4587 27 97.2268 27 107z"/>
<path style="fill:#ffffff; stroke:none;" d="M30 35L30 37L74 38L98 37L98 35L54 34L30 35M39 44L39 46C51.2965 49.6347 76.7036 49.6347 89 46L89 44C76.7036 40.3653 51.2964 40.3653 39 44M39 87L39 89C51.2964 92.6347 76.7036 92.6347 89 89L89 87C76.7036 83.3653 51.2964 83.3653 39 87M33 95L33 97L72 98L95 97L95 95L56 94L33 95M31 108L31 110L55 111L97 110L97 108L73 107L31 108z"/>
</svg>
