<?xml version="1.0" standalone="yes"?>
<svg width="129" height="129">
<path style="fill:#000000; stroke:none;" d="M59 24C44.4473 30.8844 29.6498 44.436 33.6806 62C35.0477 67.9574 39.8304 72.0603 41.4699 77.5756C43.0722 82.9659 36.8621 88.4531 37.5278 93.8665C38.2398 99.6568 52.6012 99.6529 57 100L57 101C47.5265 103.585 40.6787 103.047 31 103.001C24.6008 102.97 16.4947 102.744 11.1667 106.97C6.81521 110.421 11.5936 119.012 16.1844 120.187C19.6715 121.079 24.344 118.213 28 118.04C35.3695 117.691 42.5937 119.714 50 118.816C54.5699 118.261 58.5301 115.401 63 114.847C67.9532 114.233 73.0445 118.214 78 118.816C88.5457 120.095 99.4188 119.186 109.96 120.243C114.11 120.659 120.124 113.276 118.694 109.213C117.297 105.24 110.558 104.013 107 103.44C94.5148 101.43 83.4291 104.391 71 101L71 100C75.3988 99.6529 89.7602 99.6568 90.4722 93.8665C91.1446 88.3992 84.9049 82.8915 86.5301 77.4244C88.1516 71.9695 92.9596 67.9255 94.3194 62C98.3502 44.436 83.5527 30.8844 69 24C84.2678 4.87038 43.7322 4.87035 59 24z"/>
<path style="fill:#ffffff; stroke:none;" d="M62.2253 12.7863C56.9628 14.8889 60.7464 22.2228 65.7747 20.2137C71.0372 18.1111 67.2536 10.7772 62.2253 12.7863M63 26.1211C44.4794 29.3937 27.3622 57.4565 43.3904 72.6813C46.5029 75.6378 50.1993 74.3481 54 74.0895C62.5655 73.5068 72.7372 76.1415 80.9846 74.5926C86.7548 73.5089 89.5871 65.0211 90.5324 60C92.9928 46.9317 83.9075 38.0893 74 31.3441C71.0141 29.3113 66.8994 25.4321 63 26.1211z"/>
<path style="fill:#000000; stroke:none;" d="M63 41L62 51L52 52L52 54L62 55L63 64L65 64L66 55L76 54L76 52L66 51L65 41L63 41z"/>
<path style="fill:#ffffff; stroke:none;" d="M46 79L44 86L84 86L82 79L46 79M42 94L86 94C83.657 85.9901 58.802 88.5881 52 89.588C47.9365 90.1853 43.3309 89.4503 42 94M13 110L16 116L49 114.816L64 110.275L79 114.816L112 116L115 110L80 107.815L64 101.556L47 107.907L13 110z"/>
</svg>
