<?xml version="1.0" standalone="yes"?>
<svg width="129" height="129">
<path style="fill:#000000; stroke:none;" d="M63 10L62 16L55 17L55 19L62 20L52 49C37.7996 39.635 10.4043 38.8007 9.10802 62C8.36931 75.2203 20.5592 79.374 25.9722 89.1698C29.6675 95.857 23.6662 106.256 28.858 112.351C32.2356 116.317 40.1754 117.264 45 118.195C60.1879 121.126 83.083 122.45 96.8519 113.722C103.486 109.517 99.0213 96.5236 101.6 90.0394C105.462 80.3258 117.466 76.9347 118.811 65C121.648 39.815 90.6255 39.3546 76 49L66 20L73 19L73 17L66 16L65 10L63 10z"/>
<path style="fill:#ffffff; stroke:none;" d="M63 65L65 65C67.2081 59.6964 70.4633 54.7157 71.5324 49C72.8902 41.7412 65.5682 26.4709 58.0895 37.2284C52.0497 45.9161 59.6634 56.9857 63 65M62 80C61.8715 73.806 60.4788 67.4784 57.4823 62C54.922 57.3192 51.5581 53.2913 46.9992 50.4684C36.0074 43.662 17.9428 44.3909 13.7901 59C11.2482 67.9426 20.1118 83.788 30 84.4213C40.1852 85.0736 51.4619 80.0291 62 80M66 80C76.4343 80.0288 87.9516 85.234 98 84.3966C108.943 83.4847 117.411 66.4881 113.517 57.0008C108.183 44.0048 91.2999 44.091 81.0008 50.4684C76.4419 53.2913 73.078 57.3192 70.5178 62C67.5212 67.4784 66.1285 73.806 66 80M31 98C53.8763 93.2783 73.1456 91.5624 96 98C96.5131 95.2252 97.8371 91.171 95.3958 88.9375C91.8611 85.7036 83.5372 85.5613 79 85.0502C65.4625 83.5251 31.0144 79.3384 31 98M31 102L31 108C54.7312 100.412 72.2088 103.794 96 107C95.3978 99.4479 86.2263 99.2363 80 98.2747C62.8519 95.6262 47.7324 98.5464 31 102M36 110C39.0983 114.088 46.1739 114.331 51 115C64.5428 116.877 79.2569 116.483 92 111C74.7501 101.626 53.9441 107.362 36 110z"/>
</svg>
