<?xml version="1.0" standalone="yes"?>
<svg width="64" height="64">
<path style="fill:#000000; stroke:none;" d="M26 18C18.6974 21.8322 20.9234 29.8793 24 36C15.0857 39.0392 13.0708 47.4415 13 56L51 56C50.9292 47.4415 48.9143 39.0392 40 36C43.0046 30.0225 45.0994 22.7256 38 19C41.5845 3.89505 22.0761 4.56588 26 18z"/>
<path style="fill:#ffffff; stroke:none;" d="M30 19C21.9621 20.6619 20.7404 30.1903 28 34L28 36C19.2869 38.5882 15.7091 45.3297 15 54L49 54C48.2909 45.3297 44.7131 38.5882 36 36L36 34C43.4768 30.0763 41.2943 21.5412 34 19C42.3113 7.38986 21.8615 6.93528 30 19z"/>
</svg>
