<?xml version="1.0" standalone="yes"?>
<svg width="129" height="129">
<path style="fill:#000000; stroke:none;" d="M53 64L52 64C49.4395 52.9322 42.0808 41.2991 41.3426 30C41.1085 26.4162 43.9298 23.5826 43.6628 20.0008C43.4003 16.4788 40.4852 13.1532 36.9961 12.4923C27.0997 10.6176 25.8606 25.3712 35 28L33 65L32 65C29.224 58.3675 25.2682 52.2433 21.7191 46C20.2291 43.3787 17.8089 40.3619 17.4637 37.2855C17.0494 33.5922 19.7831 30.8332 17.8171 27.044C13.6389 18.9909 1.58185 23.1602 3.47762 31.9954C4.47966 36.6653 9.6179 37.9442 11.436 42.054C15.7966 51.9114 14.531 64.6149 17.4938 75C19.3444 81.4864 25.0938 85.6303 27.061 92C29.5258 99.981 18.6073 113.385 28.0193 117.262C44.0753 123.875 68.2201 121.803 85 119.715C90.1716 119.072 100.003 119.364 103.381 114.772C106.555 110.457 101.978 105.963 100.503 102C98.8835 97.6482 100.379 91.867 102.688 88C105.353 83.5378 109.039 80.1432 110.506 75C113.469 64.6149 112.203 51.9114 116.564 42.054C119.208 36.0767 130.016 31.8234 121.772 24.3187C117.917 20.8101 112.454 22.6658 110.183 27.044C108 31.2524 111.622 35.043 110.043 39.1698C106.572 48.2444 99.77 55.9926 96 65L95 65L93 28C102.139 25.3712 100.9 10.6176 91.0039 12.4923C87.5148 13.1532 84.5997 16.4788 84.3372 20.0008C84.0702 23.5826 86.8915 26.4162 86.6574 30C85.9192 41.2992 78.5605 52.9322 76 64C72.1211 53.6608 68.3697 39.0647 67.9514 28C67.7313 22.1791 74.3257 18.0046 70.2569 12.1088C66.2943 6.36677 57.9374 8.18307 56.4776 15.0039C55.4353 19.8743 60.2297 23.2108 60.0486 28C59.5911 40.1004 53.9637 51.8907 53 64z"/>
<path style="fill:#ffffff; stroke:none;" d="M31 89L67 87.0147L97 89C94.2401 83.9943 88.1916 84.4662 83 83.8449C70.5644 82.3568 57.4356 82.3568 45 83.8449C39.8084 84.4662 33.7599 83.9943 31 89M33 101L66 99.0039L95 101C92.2919 96.0729 87.0996 96.3807 82 95.7184C70.4165 94.2138 57.5835 94.2138 46 95.7184C40.9004 96.3807 35.7081 96.0729 33 101M29 106L28 107L28 109L29 110L31 110L32 109L32 107L31 106L29 106z"/>
</svg>
