/* XPM */
static char * hole_xpm[] = {
"12 12 51 1",
". 	c None",
"	c #FFFFFF",
"+	c #2F3536",
"@	c #181E20",
"#	c #020809",
"$	c #010708",
"%	c #2C3233",
"&	c #31383A",
"*	c #272D2F",
"=	c #070D0E",
"-	c #2B3233",
";	c #272C2D",
">	c #121516",
",	c #3E4344",
"'	c #2C3132",
")	c #161B1C",
"!	c #040A0B",
"~	c #797D7F",
"{	c #363B3C",
"]	c #0D1213",
"^	c #030809",
"/	c #8A8C8E",
"(	c #404445",
"_	c #191E1E",
":	c #898A8A",
"<	c #777878",
"[	c #5B5D5D",
"}	c #343839",
"|	c #04090A",
"1	c #080D0E",
"2	c #121819",
"3	c #191F21",
"4	c #888888",
"5	c #838384",
"6	c #696A6B",
"7	c #2C3031",
"8	c #0D1111",
"9	c #101212",
"0	c #17191A",
"a	c #24292A",
"b	c #898989",
"c	c #8B8C8D",
"d	c #3D4041",
"e	c #1A1E1E",
"f	c #1D2020",
"g	c #212626",
"h	c #282E2F",
"i	c #9D9FA1",
"j	c #6B6F70",
"k	c #545758",
"l	c #4A4D4F",
"............",
"....+@#$....",
"..%&*=$$$#..",
"..-;>#$$$$..",
".,')!$$$$$#.",
".~{]^##$$$#.",
"./(_]=!$$$#.",
".:<[}_=|123.",
"..4567890a..",
"..4bcdefgh..",
"....ijkl....",
"............"};
