/* XPM */
static char * yellow_xpm[] = {
"12 12 65 1",
". 	c None",
"	c #FFFFFF",
"+	c #B69A00",
"@	c #B29700",
"#	c #927C00",
"$	c #A48B00",
"%	c #D8B700",
"&	c #9E8600",
"*	c #817530",
"=	c #B6AF8B",
"-	c #635402",
";	c #7E6B00",
">	c #8C7700",
",	c #CAAB00",
"'	c #C4A600",
")	c #665600",
"!	c #A49E81",
"~	c #F8F8F6",
"{	c #D2CFC0",
"]	c #6D5E09",
"^	c #726100",
"/	c #907A00",
"(	c #FFD909",
"_	c #C2A400",
":	c #685800",
"<	c #483D00",
"[	c #948E6C",
"}	c #EDECE6",
"|	c #7D7234",
"1	c #6A5A00",
"2	c #E0BE00",
"3	c #FFE659",
"4	c #F8D200",
"5	c #947D00",
"6	c #564900",
"7	c #463B00",
"8	c #9A9474",
"9	c #766A24",
"0	c #BA9E00",
"a	c #5E5000",
"b	c #FFE86B",
"c	c #FFE035",
"d	c #D6B500",
"e	c #5C4F06",
"f	c #978006",
"g	c #DEBC00",
"h	c #5A4C00",
"i	c #6E5D00",
"j	c #FFE867",
"k	c #FFDC17",
"l	c #AC9200",
"m	c #AA9000",
"n	c #584B00",
"o	c #C6A800",
"p	c #FFE34B",
"q	c #FFDA0D",
"r	c #FAD400",
"s	c #F4CF00",
"t	c #DAB900",
"u	c #766400",
"v	c #B49800",
"w	c #9C8400",
"x	c #847000",
"y	c #504400",
"z	c #645500",
"............",
"....+@##....",
"..#$%&*=-;..",
"..>,')!~{]..",
".^/(_:<[}|@.",
".1234567890.",
".a,bcd#aefg.",
".hij3kdlm%2.",
"..nopqrst'..",
"..aau&0vwx..",
"....yhz:....",
"............"};
