/* XPM */
static char * black_xpm[] = {
"48 48 49 1",
" 	c None",
".	c #070707",
"+	c #058807",
"@	c #044706",
"#	c #0C080C",
"$	c #494949",
"%	c #5F885F",
"&	c #080809",
"*	c #212223",
"=	c #066808",
"-	c #516851",
";	c #2A2A29",
">	c #1F0B20",
",	c #350735",
"'	c #368735",
")	c #380639",
"!	c #580657",
"~	c #316831",
"{	c #686868",
"]	c #0A380B",
"^	c #364735",
"/	c #858686",
"(	c #0A040B",
"_	c #050506",
":	c #585858",
"<	c #171817",
"[	c #020E04",
"}	c #059B05",
"|	c #310831",
"1	c #619861",
"2	c #2C092D",
"3	c #3B9B3B",
"4	c #767676",
"5	c #065A07",
"6	c #4D774C",
"7	c #383838",
"8	c #375436",
"9	c #067707",
"0	c #327832",
"a	c #88938A",
"b	c #4E084C",
"c	c #200820",
"d	c #1E051F",
"e	c #1D881D",
"f	c #20061F",
"g	c #520254",
"h	c #1D071D",
"i	c #1B961B",
"j	c #430943",
"                                                ",
"                                                ",
"                                                ",
"                                                ",
"                  2{44/444{{!                   ",
"               f$$::{444/4{:{/46                ",
"             6:::{{4{44/44:::44{{:              ",
"            $$::4//a44{{{{::$::{::$f            ",
"          0$:$$:4//a/4{{{{::$$7:::$77           ",
"         $$$:7${44//{{{{:{:$$777$::$77          ",
"        7777$:::{44::{:{{::$7;;7777*<*;         ",
"       @*;;*7::{{4{:::44{:$$$7;**<<<*;77        ",
"      ><<<*;7$:{{{{:{:{4{::$77;*<<.<*<;$8       ",
"      ...<<*7$:{{{4{{{{{::$$$7;<<.<<***7;       ",
"     5<...<*7$::{{{{{{{{:$::$$7*<<.**;;*<;      ",
"     <..<<.<;7$$:{4{444{:$$$777;<<<<<;7*<*      ",
"    &..<<..<<;7$:{{444/4{:$7;7**<<<<.<**<<<     ",
"    .....<<<<*7$:{{{4444{:$77;**<<<<<.<<<..     ",
"    <<..<.<.<;;$::::{4{{{{:$77;*<<<.<..<<<<>    ",
"   >*<<..<<.*;;$:$7:{{{{{{::$$7$;*<<<.<<.<*;    ",
"   *;;<<.<*<*;;$:$$::{44444{::$:$;**<<<...*;    ",
"   7;*<<<**<**7$$::{{{{{{{{{{{::$77;***<..*<    ",
"   7;;<.<*;;*;77$$::4{{{{{{4{{{{:$$7$7;*<...    ",
"   $7;*<*;;;**;;77$:{:::::{4{{{{{:::$$7*..<.    ",
"   7$77;777***7$77$::::$::{444{{:::$$$7;*..<    ",
"   7$77$777**;;777$:{{{:::4444{{{::$$7$$*.<.    ",
"   ;$7777;77;7777$$:{444{{4/444{{{::$77$;<<.    ",
"   *7$$$7$$$7777$$$::4444{//44{{{{{:$7;7;<..    ",
"   #7$$$$::$777$$$$${44/444/444{4{{$$;77;7<.    ",
"    ;$$$$:::$$:::$::{444444444{4{{{$$77;7;*=    ",
"    <$$$$:{::$::$:$::{{{{{{444{44{:{:$$77;.     ",
"    97$$$:::$${{{:::{:{{:{{{{{{44{{:::$$$$.     ",
"     <$$::::::{{4:::{::{:::{{:{{::::::$$7.|     ",
"     .<$$$::::{{4{:::::{{:::$$:$:$$$::$$$.      ",
"      .$$$::$:{{{{:::::::{:$$$$$$$$$$$$$.>      ",
"      &.$$:$$:{4{{::$::::{{:::$$7777$$$..       ",
"       ..::$$:{{{{:::::{::::$$7$7;;$$:..        ",
"        ..$:{{{{44{:::$:{{::$$7777;$$..         ",
"         ...::{{4{{:$$::::{:$7777777..          ",
"          ..<:{{4{:$$$::::$$$$777;...           ",
"           ....${{:$$$$$:::$$777....            ",
"            >.....$$$$$$7::$$.....]             ",
"              5..................               ",
"                 .............9                 ",
"                    (]...]&                     ",
"                                                ",
"                                                ",
"                                                "};
