/* XPM */
static char * black_xpm[] = {
"32 32 11 1",
" 	c None",
".	c #FFFFFF",
"+	c #EFEFEF",
"@	c #999999",
"#	c #595959",
"$	c #2C2C2C",
"%	c #0F0F0F",
"&	c #020202",
"*	c #CCCCCC",
"=	c #000000",
"-	c #696969",
"................................",
"................................",
"................................",
"................................",
"................................",
"..........+@#$%&&%$#@+..........",
"........*#&==========&#*........",
".......-================-.......",
"......*==================*......",
"......#==================#......",
".....+&==================&+.....",
".....@====================@.....",
".....#====================#.....",
".....$====================$.....",
".....%====================%.....",
".....&====================&.....",
".....&====================&.....",
".....%====================%.....",
".....$====================$.....",
".....#====================#.....",
".....@====================@.....",
".....+&==================&+.....",
"......#==================#......",
"......*==================*......",
".......-================-.......",
"........*#&==========&#*........",
"..........+@#$%&&%$#@+..........",
"................................",
"................................",
"................................",
"................................",
"................................"};
