/* XPM */
static char * white_xpm[] = {
"48 48 49 1",
" 	c None",
".	c #090A09",
"+	c #0A860A",
"@	c #848484",
"#	c #282529",
"$	c #044F06",
"%	c #518951",
"&	c #979797",
"*	c #DADADA",
"=	c #494949",
"-	c #464645",
";	c #535953",
">	c #0C270D",
",	c #131D13",
"'	c #D5D9D3",
")	c #E9E9E9",
"!	c #516F51",
"~	c #222923",
"{	c #067108",
"]	c #6E8E6E",
"^	c #2E2E2E",
"/	c #636664",
"(	c #919691",
"_	c #323232",
":	c #6F706F",
"<	c #FDFEFC",
"[	c #8C808C",
"}	c #2A8A2A",
"|	c #344934",
"1	c #686968",
"2	c #A8A6A8",
"3	c #346C35",
"4	c #B3B3B3",
"5	c #6C6F6B",
"6	c #B3B4B2",
"7	c #757774",
"8	c #353B35",
"9	c #020E04",
"0	c #191B19",
"a	c #585958",
"b	c #565A56",
"c	c #D4DDD4",
"d	c #2E972F",
"e	c #B2BDB2",
"f	c #0D970D",
"g	c #9C9C9B",
"h	c #549855",
"i	c #4C474C",
"j	c #063606",
"                                                ",
"                                                ",
"                                                ",
"                                                ",
"                  c<<<<<<<<<<~                  ",
"               c<<<<<<<<<<<<<<<<                ",
"             <<<<<<<<<<<<<<<<<<<<<              ",
"           ~<<<<<<<<<<<<<<<<<<<<<<<<            ",
"          c<<<<<<<<<<<<<<<<<<<<<<<<<<           ",
"         )<<<<<<<<<<<<<<<<<<<<<<<<<<<<          ",
"        )<<<<<<<<<<<<<<<<<<<<<<<<<<<<<<         ",
"       <<<<<<<<<<<<<<<<<<<<<<<<<<<<<<<))        ",
"      ~<<<<<<<<<<<<<<<<<<<<<<<<<<<<<<<<)'       ",
"      <<<<<<<<<<<<<<<<<<<<<<<<<<<<<<<<<<<       ",
"     <<<<<<<<<<<<<<<<<<<<<<<<<<<<<<<<<<<<<      ",
"     <<<<<<<<<<<<<<<<<<<<<<<<<<<<<<<<<)<<<~     ",
"    e<<<<<<<<<<<<<<<<<<<<<<<<<<<<<<<<<<<<<<     ",
"    <<<<<<<<<<<<<<<<<<<<<<<<<<<<<<<<<<<<<<<     ",
"    <<<<<<<<<<<<<<<<<<<<<<<<<<<<<<<<<<<<<<<8    ",
"   8<<<<<<<<<<<<<<<<<<<<<<<<<<<<<<<<<<<<<<<)    ",
"   '*<<<<<<<<<<<<<<<<<<<<<<<<<<<<<<<<<<<<<<)    ",
"   ))<<<<<<<<<<<<<<<<<<<<<<<<<<<<<<<<<<<<<<<    ",
"   *)<<<<<<<<<<<<<<<<<<<<<<<<<<<<<<<<)<<<<<<    ",
"   **<<<<<<<<<<<<<<<<<<<<<<<<<<<<<<<))<<<<<<    ",
"   **))<<<<<<<<<<<<<<<<<<<<<<<<<<<<)<)<)<<<<    ",
"   g**))<<<<<<<<<<<<<<<<<<<<<<<<<<<<<<))<<<<    ",
"   @*))))<<<<<<<<<<<<<<<<<<<<<<<<<<<<<<)<<<<    ",
"   :***)<<<<<<<<<<<<<<<<<<<<<<<<<<<<<<<)<<<0    ",
"   8***))))<<<<<<<<<<<<<<<<<<<<<<<<<<<<<))<>    ",
"    :**))))<<<<<<<<<<<<<<<<<<<<<<<<<<<<<)<<,    ",
"    @**))))<<<<<<<<<<<<<<<<<<<<<<<<)<<))))0     ",
"    i4*))))<<<<<<<<<<<<<<<<<<<<<<<<<))<))*0     ",
"     :**)))<<<<<<<<<<<<<<<<<<<<<<<<)<))*)0~     ",
"     @a*))<<<<<<<<<<<<<<<<<<<<<<<<<<))*)*.      ",
"      :g)))<<<<<<<<<<<<<<<<<<<<<<<<<<<))0       ",
"      8:*)<<<<<<<<<<<<<<<<<<<<<<<<<<<<)00       ",
"       aa))<<<<<<<<<<<<<<<<<<<<<<<<<<)0.        ",
"        a=@)))<<<<<<<<<<<<<<<<<<<<<<)0.         ",
"         ===)<)<<<<<<<<<<<<<<<<<<<<*0.          ",
"          ^^^@<)<<<<<<<<<<<<<<<<<<^0.           ",
"           |^^^^<<<<<<<<<<<<<<<<00..            ",
"             0^^000<<<<<<<<<*000..+             ",
"              8.0000000000000....               ",
"                 .....0.0.....~                 ",
"                     f$.0f                      ",
"                                                ",
"                                                ",
"                                                "};
