/* XPM */
static char * white_xpm[] = {
"32 32 10 1",
" 	c None",
".	c #FFFFFF",
"+	c #FCFCFC",
"@	c #EFEFEF",
"#	c #E4E4E4",
"$	c #DBDBDB",
"%	c #D6D6D6",
"&	c #D3D3D3",
"*	c #F7F7F7",
"=	c #E7E7E7",
"................................",
"................................",
"................................",
"................................",
"................................",
"..........+@#$%&&%$#@+..........",
"........*#&&&&&&&&&&&&#*........",
".......=&&&&&&&&&&&&&&&&=.......",
"......*&&&&&&&&&&&&&&&&&&*......",
"......#&&&&&&&&&&&&&&&&&&#......",
".....+&&&&&&&&&&&&&&&&&&&&+.....",
".....@&&&&&&&&&&&&&&&&&&&&@.....",
".....#&&&&&&&&&&&&&&&&&&&&#.....",
".....$&&&&&&&&&&&&&&&&&&&&$.....",
".....%&&&&&&&&&&&&&&&&&&&&%.....",
".....&&&&&&&&&&&&&&&&&&&&&&.....",
".....&&&&&&&&&&&&&&&&&&&&&&.....",
".....%&&&&&&&&&&&&&&&&&&&&%.....",
".....$&&&&&&&&&&&&&&&&&&&&$.....",
".....#&&&&&&&&&&&&&&&&&&&&#.....",
".....@&&&&&&&&&&&&&&&&&&&&@.....",
".....+&&&&&&&&&&&&&&&&&&&&+.....",
"......#&&&&&&&&&&&&&&&&&&#......",
"......*&&&&&&&&&&&&&&&&&&*......",
".......=&&&&&&&&&&&&&&&&=.......",
"........*#&&&&&&&&&&&&#*........",
"..........+@#$%&&%$#@+..........",
"................................",
"................................",
"................................",
"................................",
"................................"};
