/* XPM */
static char *o[] = {
/* width height num_colors chars_per_pixel */
"    20    21        2            1",
/* colors */
". c #000000",
"# c #ff0000",
/* pixels */
".......######.......",
".....##########.....",
"....############....",
"...######..######...",
"..######....######..",
"..#####......#####..",
"..####........####..",
".#####........#####.",
".#####........#####.",
".#####........#####.",
".#####........#####.",
".#####........#####.",
".#####........#####.",
".#####........#####.",
"..####........####..",
"..#####......#####..",
"...#####....#####...",
"...##############...",
"....############....",
"......########......",
"...................."
};
