/* XPM */
static char *x[] = {
/* width height num_colors chars_per_pixel */
"    18    20        2            1",
/* colors */
". c #000000",
"# c #0000ff",
/* pixels */
".#######..######..",
"########..#######.",
"#########.#######.",
"########..#######.",
"...####....###....",
"....####..####....",
"....####.####.....",
".....########.....",
"......######......",
"......#####.......",
".......####.......",
"......######......",
".....########.....",
"....####.####.....",
"....####..####....",
"...####....####...",
".######....######.",
"########..########",
"########.#########",
"########..########"
};
