/* XPM */
static char * blue_xpm[] = {
"12 12 67 1",
" 	c None",
".	c #000069",
"+	c #000063",
"@	c #000075",
"#	c #00007F",
"$	c #010078",
"%	c #00009B",
"&	c #0000B7",
"*	c #0000BF",
"=	c #0000AF",
"-	c #00009D",
";	c #00009F",
">	c #020085",
",	c #00006D",
"'	c #0000A9",
")	c #0000BD",
"!	c #0000D3",
"~	c #0000D1",
"{	c #000083",
"]	c #000098",
"^	c #0000B5",
"/	c #00006B",
"(	c #000093",
"_	c #000089",
":	c #0000CF",
"<	c #0000FA",
"[	c #0000BA",
"}	c #0000C0",
"|	c #0800A8",
"1	c #000087",
"2	c #00008F",
"3	c #0000C6",
"4	c #0000CB",
"5	c #0000C3",
"6	c #0000BB",
"7	c #0000F0",
"8	c #0100B3",
"9	c #000081",
"0	c #0000A3",
"a	c #0000E1",
"b	c #0000CE",
"c	c #00007B",
"d	c #0000FE",
"e	c #0100F2",
"f	c #000065",
"g	c #0000E5",
"h	c #0000FF",
"i	c #0000BC",
"j	c #000080",
"k	c #000099",
"l	c #0100FC",
"m	c #0D00F1",
"n	c #0000A7",
"o	c #0000CA",
"p	c #0000B2",
"q	c #00009E",
"r	c #0100E1",
"s	c #2E00D0",
"t	c #0000AB",
"u	c #0000C9",
"v	c #0100FA",
"w	c #0000F9",
"x	c #0200FC",
"y	c #0E00F0",
"z	c #0100FD",
"A	c #0000F5",
"B	c #0400FA",
"            ",
"    .+@#    ",
"  $%&*=-;>  ",
"  ,')!~{]^  ",
" /(_(:<[-}| ",
" #1{2345678 ",
" 990ab[c2de ",
" f%ghhijklm ",
"  n[ohpqrs  ",
"  tuvhwxyz  ",
"    AzzB    ",
"            "};
