/* XPM */
static char * cyan_xpm[] = {
"12 12 47 1",
" 	c None",
".	c #006A68",
"+	c #006462",
"@	c #007674",
"#	c #00807E",
"$	c #007A78",
"%	c #009C9A",
"&	c #00B8B5",
"*	c #00C0BD",
"=	c #00B0AD",
"-	c #009E9C",
";	c #00A09E",
">	c #008886",
",	c #006E6C",
"'	c #00AAA8",
")	c #00BEBB",
"!	c #00D4D1",
"~	c #00D2CF",
"{	c #009A98",
"]	c #00C2BF",
"^	c #00B6B3",
"/	c #006C6A",
"(	c #009492",
"_	c #008A88",
":	c #00B2AF",
"<	c #00FEFB",
"[	c #00CECB",
"}	c #00C6C3",
"|	c #00ACA9",
"1	c #008684",
"2	c #00AEAB",
"3	c #00F4F1",
"4	c #00CAC7",
"5	c #00CCC9",
"6	c #00F6F3",
"7	c #00B4B1",
"8	c #008280",
"9	c #00A6A4",
"0	c #00FAF7",
"a	c #00E2DF",
"b	c #00FCF9",
"c	c #006664",
"d	c #00D8D5",
"e	c #00BAB7",
"f	c #00A8A6",
"g	c #00E4E1",
"h	c #00E8E5",
"            ",
"    .+@#    ",
"  $%&*=-;>  ",
"  ,')!~{]^  ",
" /(_:!<[}^| ",
" #>12334567 ",
" 889<0a5*b3 ",
" c%dbba)e<< ",
"  f=2a4g<<  ",
"  |4dh0<<<  ",
"    6<<<    ",
"            "};
