/* XPM */
static char * hole_xpm[] = {
"12 12 80 1",
" 	c None",
".	c #917867",
"+	c #8F7867",
"@	c #867260",
"#	c #93826D",
"$	c #756551",
"%	c #726550",
"&	c #756455",
"*	c #6A6055",
"=	c #726255",
"-	c #776A54",
";	c #776A5B",
">	c #61584F",
",	c #887360",
"'	c #887262",
")	c #8F7D64",
"!	c #887864",
"~	c #8B7564",
"{	c #736254",
"]	c #705F51",
"^	c #736153",
"/	c #847366",
"(	c #937D67",
"_	c #7E6C5D",
":	c #8A7763",
"<	c #81725B",
"[	c #756552",
"}	c #6F5F49",
"|	c #715F4E",
"1	c #6C5E4D",
"2	c #7A6B58",
"3	c #826E5D",
"4	c #9B866F",
"5	c #7C6D5D",
"6	c #87725F",
"7	c #645C54",
"8	c #827061",
"9	c #665548",
"0	c #74604F",
"a	c #776857",
"b	c #5C514B",
"c	c #7B695C",
"d	c #706159",
"e	c #6D5C50",
"f	c #6A5E4F",
"g	c #7D6B59",
"h	c #776553",
"i	c #7D6C5B",
"j	c #6E6354",
"k	c #413D3D",
"l	c #51463A",
"m	c #685E4A",
"n	c #786853",
"o	c #6D634F",
"p	c #6B6050",
"q	c #76695B",
"r	c #706456",
"s	c #7A6C5A",
"t	c #645A49",
"u	c #53473D",
"v	c #4E4036",
"w	c #7A6B5A",
"x	c #635647",
"y	c #726453",
"z	c #6B5D4F",
"A	c #574B3F",
"B	c #493F33",
"C	c #40372F",
"D	c #716155",
"E	c #4B4036",
"F	c #55483B",
"G	c #3E3830",
"H	c #5A4F42",
"I	c #4D3F33",
"J	c #40382E",
"K	c #443C30",
"L	c #4F4539",
"M	c #483F36",
"N	c #52493E",
"O	c #413730",
"            ",
"    .+@#    ",
"  $%&*=-;>  ",
"  ,')!~{]^  ",
" /(_:<[}|12 ",
" 34567890ab ",
" cdefghijkl ",
" mnopqrstuv ",
"  wx&yzABC  ",
"  DEFGHIJK  ",
"    LMNO    ",
"            "};
