/* XPM */
static char * kggz_xpm[] = {
"16 16 136 2",
"  	c None",
". 	c #FF0000",
"+ 	c #FF1212",
"@ 	c #FFB0B0",
"# 	c #FF1515",
"$ 	c #FF8989",
"% 	c #FF7A7A",
"& 	c #FF2525",
"* 	c #FF6464",
"= 	c #FF4141",
"- 	c #FF6A6A",
"; 	c #FF5A5A",
"> 	c #FF8080",
", 	c #FF4848",
"' 	c #FFBFBF",
") 	c #FF2828",
"! 	c #FF5454",
"~ 	c #FF7777",
"{ 	c #FF7070",
"] 	c #FF5050",
"^ 	c #FF6767",
"/ 	c #FF0606",
"( 	c #FF9C9C",
"_ 	c #FF3B3B",
": 	c #FFA6A6",
"< 	c #FF9393",
"[ 	c #FF1C1C",
"} 	c #FF0909",
"| 	c #E20000",
"1 	c #BDA9A3",
"2 	c #94544E",
"3 	c #EF8080",
"4 	c #FF9F9F",
"5 	c #FF4444",
"6 	c #FF5555",
"7 	c #700000",
"8 	c #8D0000",
"9 	c #A61818",
"0 	c #A53333",
"a 	c #13C66A",
"b 	c #18C167",
"c 	c #A53434",
"d 	c #F84D4D",
"e 	c #F74D4D",
"f 	c #F94E4E",
"g 	c #F94F4F",
"h 	c #F84E4E",
"i 	c #FA5050",
"j 	c #FB5151",
"k 	c #FA4F4F",
"l 	c #FFFFFF",
"m 	c #AA0000",
"n 	c #9F4A4A",
"o 	c #D6D5D5",
"p 	c #0A6E3A",
"q 	c #D0CFCF",
"r 	c #EBE9E9",
"s 	c #EFEEEE",
"t 	c #F1F0F0",
"u 	c #ECEBEB",
"v 	c #E8E7E7",
"w 	c #EDECEC",
"x 	c #E8E8E8",
"y 	c #EEEDED",
"z 	c #713838",
"A 	c #858484",
"B 	c #868585",
"C 	c #10B05E",
"D 	c #838282",
"E 	c #EEECEC",
"F 	c #EAE7E7",
"G 	c #EEB7B7",
"H 	c #ECB2B2",
"I 	c #EAE3E3",
"J 	c #EEEEEE",
"K 	c #E2E2E2",
"L 	c #6D3434",
"M 	c #227249",
"N 	c #217047",
"O 	c #EAE9E9",
"P 	c #EBA9A9",
"Q 	c #EF1111",
"R 	c #ED0E0E",
"S 	c #D57B7B",
"T 	c #ECECEC",
"U 	c #8D7171",
"V 	c #C60000",
"W 	c #395F4A",
"X 	c #558162",
"Y 	c #549071",
"Z 	c #527A66",
"` 	c #F0F0F0",
" .	c #E5E0E0",
"..	c #F13B3B",
"+.	c #EB0C0C",
"@.	c #EC0E0E",
"#.	c #DF1717",
"$.	c #E2D7D7",
"%.	c #A98D8D",
"&.	c #A44F4F",
"*.	c #A34E4E",
"=.	c #A44C4C",
"-.	c #B73A3A",
";.	c #EF1B1B",
">.	c #EF4D4D",
",.	c #EE8F8F",
"'.	c #EDC4C4",
").	c #EC7575",
"!.	c #EE0F0F",
"~.	c #EA0B0B",
"{.	c #EA0C0C",
"].	c #DA6565",
"^.	c #F0E5E5",
"/.	c #F8F8F8",
"(.	c #F1F1F1",
"_.	c #EEDADA",
":.	c #EC1616",
"<.	c #ED0F0F",
"[.	c #EC0D0D",
"}.	c #EB0D0D",
"|.	c #EF1414",
"1.	c #F3F2F2",
"2.	c #F2F1F1",
"3.	c #ECEAEA",
"4.	c #EC4E4E",
"5.	c #EF1010",
"6.	c #E90B0B",
"7.	c #E80A0A",
"8.	c #F6F6F6",
"9.	c #EEA1A1",
"0.	c #E80909",
"a.	c #F6F5F5",
"b.	c #F0EEEE",
"c.	c #EEBDBD",
"d.	c #F01111",
"e.	c #E50707",
". . . . . . . . . . . . . . . . ",
". . + @ . . . . . . . . . . . . ",
". . # $ % & * % = - ; - > # . . ",
". . , ' ) ! ~ { $ { = ] ^ / . . ",
". . { = ( _ : ) ; < [ ( > } . . ",
". . . . | 1 2 3 4 ^ 5 . . . . . ",
"6 7 8 9 0 a b c d e f g h i j k ",
"l m . n o p p q r s t u v w x y ",
"l z | A B C C D E w F G H I J u ",
"K 8 . L M a a N s O P Q R S T T ",
"U . . V W X Y Z `  ...+.@.#.$.O ",
"%.&.*.=.-.;.>.,.'.).!.~.{.~.].^.",
"l /.(._.:.@.<.@.[.[.@.{.R }.@.|.",
"l 1.2.3.4.R R 5.~.@.!.}.6.7.}.@.",
"l 8.3.s 9.+.R 5.[.0.{.[.~.R @.[.",
"l a.w b.c.@.[.d.e.[.R 5.[.R <.+."};
