/* XPM */
static char * ggz_gtk_lag5_xpm[] = {
"14 14 3 1",
".	c None",
" 	c #1C08F8",
"+	c #E05F14",
"..++++++++++..",
"..++++++++++..",
"..............",
"..++++++++++..",
"..++++++++++..",
"..............",
"..++++++++++..",
"..++++++++++..",
"..............",
"..++++++++++..",
"..++++++++++..",
"..............",
"..++++++++++..",
"..++++++++++.."};
