/* XPM */
static char * ggz_gtk_lag1_xpm[] = {
"14 14 3 1",
".	c None",
" 	c #1C08F8",
"+	c #23F40C",
"..............",
"..............",
"..............",
"..............",
"..............",
"..............",
"..............",
"..............",
"..............",
"..............",
"..............",
"..............",
"..++++++++++..",
"..++++++++++.."};
