/* XPM */
static char * ggz_gtk_registered_xpm[] = {
"14 14 6 1",
".	c ",
"+	c NONE",
"@	c #FF99A0",
"#	c #663338",
"$	c #BB000F",
"%	c #000322",
"..............",
"......%%......",
".....%%%#.....",
"....%%$$##....",
"...%%$$$$##...",
"..%%$$$$$$##..",
".##$$$$$$$$%%.",
".##$$$$$$$$%%.",
"..##$$$$$$%%..",
"...##$$$$%%...",
"....##$$%%....",
".....#%%%.....",
"......%%......",
".............."};
