/* XPM */
static char * ggz_gtk_guest_xpm[] = {
"14 14 39 1",
".	c NONE",
"+	c #C1777B",
"@	c #CC3E47",
"#	c #C9101F",
"$	c #CC5F61",
"%	c #D10011",
"&	c #FA0018",
"*	c #EA0013",
"=	c #C1000C",
"-	c #C1777C",
";	c #CC0010",
">	c #FA0C18",
",	c #FA2D45",
"'	c #FA0414",
")	c #E2000F",
"!	c #990005",
"~	c #FA87AC",
"{	c #FAA0CC",
"]	c #B80012",
"^	c #8F000B",
"/	c #7F0F16",
"(	c #FA1D2C",
"_	c #D1081C",
":	c #7F000C",
"<	c #560008",
"[	c #D90015",
"}	c #B00011",
"|	c #5F0003",
"1	c #B8000F",
"2	c #A8000B",
"3	c #560009",
"4	c #460005",
"5	c #6F0E15",
"6	c #6F0009",
"7	c #460003",
"8	c #97484E",
"9	c #CC5F68",
"0	c #67000A",
"a	c #872F33",
"..............",
"..............",
"....+@##@+....",
"...$%&&&*=$...",
"..-;&>,')=!-..",
"..@&'~{>%]^/..",
"..#&',(_]!:<..",
"..#[)[;}!:|<..",
"..@]]12!:345..",
"..-^!^:6|748..",
"...900<444a...",
"....-5<<58....",
"..............",
".............."};
