/* XPM */
static char * ggz_gtk_lag4_xpm[] = {
"14 14 3 1",
".	c None",
" 	c #1C08F8",
"+	c #E59F12",
"..............",
"..............",
"..............",
"..++++++++++..",
"..++++++++++..",
"..............",
"..++++++++++..",
"..++++++++++..",
"..............",
"..++++++++++..",
"..++++++++++..",
"..............",
"..++++++++++..",
"..++++++++++.."};
