/* XPM */
static char * ggz_gtk_lag2_xpm[] = {
"14 14 3 1",
".	c None",
" 	c #1C08F8",
"+	c #7BEF0E",
"..............",
"..............",
"..............",
"..............",
"..............",
"..............",
"..............",
"..............",
"..............",
"..++++++++++..",
"..++++++++++..",
"..............",
"..++++++++++..",
"..++++++++++.."};
