/* XPM */
static char * ggz_gtk_registered_xpm[] = {
"16 24 7 1",
" 	c None",
".	c #C0C0C0",
"+	c #C2B281",
"@	c #997959",
"#	c #507159",
"$	c #F2F2F2",
"%	c #CACACA",
"        %       ",
" @@          %@ ",
"@$%@   @@@   @@ ",
"@%%@ @@+++@@    ",
" @@ @++%%%++@  %",
"   @++%$$$%++@  ",
"   @+%$$$$$%+@  ",
"  @+%$$$$$$$%+@ ",
"  @+%$$$$$$$%+@ ",
"  @+%$$$$$$$%+@ ",
"   @+%$$$$$%+@  ",
" % @++%$$$%@@@  ",
"    @++%%%+@$%@ ",
"  @  @@+++@@%%@ ",
" @$@   @@@  @@  ",
"  @             ",
"                ",
"                ",
"                ",
"                ",
"                ",
"     ######     ",
"   ##########   ",
"     ######     "};
