/* XPM */
static char * guest_xpm[] = {
"10 13 256 2",
"w+  	c None",
". 	c #000000",
"+ 	c #00003F",
"@ 	c #00007F",
"# 	c #0000C0",
"$ 	c #0000FF",
"% 	c #002A00",
"& 	c #002A3F",
"* 	c #002A7F",
"= 	c #002AC0",
"- 	c #002AFF",
"; 	c #005500",
"> 	c #00553F",
", 	c #00557F",
"' 	c #0055C0",
") 	c #0055FF",
"! 	c #007F00",
"~ 	c #007F3F",
"{ 	c #007F7F",
"] 	c #007FC0",
"^ 	c #007FFF",
"/ 	c #00AA00",
"( 	c #00AA3F",
"_ 	c #00AA7F",
": 	c #00AAC0",
"< 	c #00AAFF",
"[ 	c #00D500",
"} 	c #00D53F",
"| 	c #00D57F",
"1 	c #00D5C0",
"2 	c #00D5FF",
"3 	c #00FF00",
"4 	c #00FF3F",
"5 	c #00FF7F",
"6 	c #00FFC0",
"7 	c #00FFFF",
"8 	c #2A0000",
"9 	c #2A003F",
"0 	c #2A007F",
"a 	c #2A00C0",
"b 	c #2A00FF",
"c 	c #2A2A00",
"d 	c #2A2A3F",
"e 	c #2A2A7F",
"f 	c #2A2AC0",
"g 	c #2A2AFF",
"h 	c #2A5500",
"i 	c #2A553F",
"j 	c #2A557F",
"k 	c #2A55C0",
"l 	c #2A55FF",
"m 	c #2A7F00",
"n 	c #2A7F3F",
"o 	c #2A7F7F",
"p 	c #2A7FC0",
"q 	c #2A7FFF",
"r 	c #2AAA00",
"s 	c #2AAA3F",
"t 	c #2AAA7F",
"u 	c #2AAAC0",
"v 	c #2AAAFF",
"w 	c #2AD500",
"x 	c #2AD53F",
"y 	c #2AD57F",
"z 	c #2AD5C0",
"A 	c #2AD5FF",
"B 	c #2AFF00",
"C 	c #2AFF3F",
"D 	c #2AFF7F",
"E 	c #2AFFC0",
"F 	c #2AFFFF",
"G 	c #550000",
"H 	c #55003F",
"I 	c #55007F",
"J 	c #5500C0",
"K 	c #5500FF",
"L 	c #552A00",
"M 	c #552A3F",
"N 	c #552A7F",
"O 	c #552AC0",
"P 	c #552AFF",
"Q 	c #555500",
"R 	c #55553F",
"S 	c #55557F",
"T 	c #5555C0",
"U 	c #5555FF",
"V 	c #557F00",
"W 	c #557F3F",
"X 	c #557F7F",
"Y 	c #557FC0",
"Z 	c #557FFF",
"` 	c #55AA00",
" .	c #55AA3F",
"..	c #55AA7F",
"+.	c #55AAC0",
"@.	c #55AAFF",
"#.	c #55D500",
"$.	c #55D53F",
"%.	c #55D57F",
"&.	c #55D5C0",
"*.	c #55D5FF",
"=.	c #55FF00",
"-.	c #55FF3F",
";.	c #55FF7F",
">.	c #55FFC0",
",.	c #55FFFF",
"'.	c #7F0000",
").	c #7F003F",
"!.	c #7F007F",
"~.	c #7F00C0",
"{.	c #7F00FF",
"].	c #7F2A00",
"^.	c #7F2A3F",
"/.	c #7F2A7F",
"(.	c #7F2AC0",
"_.	c #7F2AFF",
":.	c #7F5500",
"<.	c #7F553F",
"[.	c #7F557F",
"}.	c #7F55C0",
"|.	c #7F55FF",
"1.	c #7F7F00",
"2.	c #7F7F3F",
"3.	c #7F7F7F",
"4.	c #7F7FC0",
"5.	c #7F7FFF",
"6.	c #7FAA00",
"7.	c #7FAA3F",
"8.	c #7FAA7F",
"9.	c #7FAAC0",
"0.	c #7FAAFF",
"a.	c #7FD500",
"b.	c #7FD53F",
"c.	c #7FD57F",
"d.	c #7FD5C0",
"e.	c #7FD5FF",
"f.	c #7FFF00",
"g.	c #7FFF3F",
"h.	c #7FFF7F",
"i.	c #7FFFC0",
"j.	c #7FFFFF",
"k.	c #AA0000",
"l.	c #AA003F",
"m.	c #AA007F",
"n.	c #AA00C0",
"o.	c #AA00FF",
"p.	c #AA2A00",
"q.	c #AA2A3F",
"r.	c #AA2A7F",
"s.	c #AA2AC0",
"t.	c #AA2AFF",
"u.	c #AA5500",
"v.	c #AA553F",
"w.	c #AA557F",
"x.	c #AA55C0",
"y.	c #AA55FF",
"z.	c #AA7F00",
"A.	c #AA7F3F",
"B.	c #AA7F7F",
"C.	c #AA7FC0",
"D.	c #AA7FFF",
"E.	c #AAAA00",
"F.	c #AAAA3F",
"G.	c #AAAA7F",
"H.	c #AAAAC0",
"I.	c #AAAAFF",
"J.	c #AAD500",
"K.	c #AAD53F",
"L.	c #AAD57F",
"M.	c #AAD5C0",
"N.	c #AAD5FF",
"O.	c #AAFF00",
"P.	c #AAFF3F",
"Q.	c #AAFF7F",
"R.	c #AAFFC0",
"S.	c #AAFFFF",
"T.	c #D50000",
"U.	c #D5003F",
"V.	c #D5007F",
"W.	c #D500C0",
"X.	c #D500FF",
"Y.	c #D52A00",
"Z.	c #D52A3F",
"`.	c #D52A7F",
" +	c #D52AC0",
".+	c #D52AFF",
"++	c #D55500",
"@+	c #D5553F",
"#+	c #D5557F",
"$+	c #D555C0",
"%+	c #D555FF",
"&+	c #D57F00",
"*+	c #D57F3F",
"=+	c #D57F7F",
"-+	c #D57FC0",
";+	c #D57FFF",
">+	c #D5AA00",
",+	c #D5AA3F",
"'+	c #D5AA7F",
")+	c #D5AAC0",
"!+	c #D5AAFF",
"~+	c #D5D500",
"{+	c #D5D53F",
"]+	c #D5D57F",
"^+	c #D5D5C0",
"/+	c #D5D5FF",
"(+	c #D5FF00",
"_+	c #D5FF3F",
":+	c #D5FF7F",
"<+	c #D5FFC0",
"[+	c #D5FFFF",
"}+	c #FF0000",
"|+	c #FF003F",
"1+	c #FF007F",
"2+	c #FF00C0",
"3+	c #FF00FF",
"4+	c #FF2A00",
"5+	c #FF2A3F",
"6+	c #FF2A7F",
"7+	c #FF2AC0",
"8+	c #FF2AFF",
"9+	c #FF5500",
"0+	c #FF553F",
"a+	c #FF557F",
"b+	c #FF55C0",
"c+	c #FF55FF",
"d+	c #FF7F00",
"e+	c #FF7F3F",
"f+	c #FF7F7F",
"g+	c #FF7FC0",
"h+	c #FF7FFF",
"i+	c #FFAA00",
"j+	c #FFAA3F",
"k+	c #FFAA7F",
"l+	c #FFAAC0",
"m+	c #FFAAFF",
"n+	c #FFD500",
"o+	c #FFD53F",
"p+	c #FFD57F",
"q+	c #FFD5C0",
"r+	c #FFD5FF",
"s+	c #FFFF00",
"t+	c #FFFF3F",
"u+	c #FFFF7F",
"v+	c #FFFFC0",
"x+	c #FF0000",
"y+	c #FF003F",
"z+	c #FF007F",
"A+	c #FF00C0",
"B+	c #000000",
"C+	c #2A2A2A",
"D+	c #555555",
"E+	c #7F7F7F",
"F+	c #AAAAAA",
"G+	c #D5D5D5",
"w+w+w+G+G+G+G+w+w+w+",
"w+w+G+B+B+B+B+G+w+w+",
"w+w+B+G+G+G+G+B+w+w+",
"w+w+B+B+w+B+w+B+w+w+",
"w+w+B+w+B+w+B+B+w+w+",
"w+w+B+G+G+G+G+B+w+w+",
"w+w+G+B+B+B+B+G+w+w+",
"w+G+G+G+G+G+G+G+G+w+",
"G+B+B+B+B+B+B+B+B+G+",
"B+G+B+G+B+G+B+G+B+B+",
"B+B+w+B+w+B+w+B+w+B+",
"B+w+B+w+B+w+B+w+B+B+",
"B+B+w+B+w+B+w+B+w+B+",
"B+w+B+w+B+w+B+w+B+B+"};
