/* XPM */
static char * ggz_gtk_lag3_xpm[] = {
"14 14 4 1",
".	c None",
" 	c #1C08F8",
"+	c #A5EA10",
"@	c #7BEF0E",
"..............",
"..............",
"..............",
"..............",
"..............",
"..............",
"..++++++++++..",
"..++++++++++..",
"..............",
"..++++++++++..",
"..++++++++++..",
"..............",
"..++++++++++..",
"..++++++++++.."};
