/* XPM */
static char * ggz_gtk_guest_xpm[] = {
"16 24 6 1",
" 	c None",
".	c #C0C0C0",
"+	c #A1C2C2",
"@	c #597179",
"#	c #385050",
"$	c #302020",
"       $$       ",
"      $+$$      ",
"     $+$++$     ",
"    $++$+++$    ",
"   $++$+++++$   ",
"  $+++$++++++$  ",
" $+++$++++++++$ ",
"$@$$$$++++$$$$#$",
" $@@@$$$$$####$ ",
"  $@@@$######$  ",
"   $@@$#####$   ",
"    $@@$###$    ",
"     $@$##$     ",
"      $$#$      ",
"       $$       ",
"                ",
"                ",
"                ",
"                ",
"                ",
"                ",
"    @@@@@@@@    ",
"  @@@@@@@@@@@@  ",
"    @@@@@@@@    "};
