/* XPM */
static char * ggz_gtk_admin_xpm[] = {
"16 24 9 1",
" 	c None",
".	c #C0C0C0",
"+	c #F2F2B2",
"@	c #C2B281",
"#	c #C2A169",
"$	c #997959",
"%	c #816140",
"&	c #CACACA",
"*	c #302020",
"     ******     ",
"   **@@@#$$**   ",
"  *@+++@@#$$#*  ",
" *@+++++@@$$$@* ",
" *@+++++@@#$$#* ",
"*#@@+++@@@#$$$#*",
"*##@@@@@@##$$%#*",
"*$##@@@@##$$$%$*",
"*$$$**$##$**$%$*",
"*$$*++****++*%$*",
"*#$*+*&++&*&*%$*",
" *$*&&****&&*$* ",
" *#$*&&&&+&*$#* ",
"  *#$******$#*  ",
"   **#$$$$#**   ",
"     ******     ",
"                ",
"                ",
"                ",
"                ",
"                ",
"    %%%%%%%%    ",
"  %%%%%%%%%%%%  ",
"    %%%%%%%%    "};
