/* XPM */
static char * help[] = {
"32 32 63 1",
" 	c None",
".	c #000000",
"+	c #D4C6F7",
"@	c #A789F4",
"#	c #7A49F6",
"$	c #6D40DF",
"%	c #5730BB",
"&	c #24007F",
"*	c #020007",
"=	c #713FF0",
"-	c #340D98",
";	c #5418ED",
">	c #3A07BC",
",	c #3F19A2",
"'	c #3F0FBA",
")	c #541CE3",
"!	c #5F33CE",
"~	c #9878E9",
"{	c #552CBD",
"]	c #7E57E0",
"^	c #6932F5",
"/	c #380AAD",
"(	c #A281F4",
"_	c #4C0EE9",
":	c #3E0BBF",
"<	c #4F0FF2",
"[	c #3303AE",
"}	c #3707B0",
"|	c #C7B5F6",
"1	c #4B0AF1",
"2	c #3202AD",
"3	c #3C07C2",
"4	c #4F11EC",
"5	c #5B2FCC",
"6	c #4708E9",
"7	c #5312F9",
"8	c #3F0BC2",
"9	c #3703BA",
"0	c #5115EA",
"a	c #3904BF",
"b	c #490BE8",
"c	c #3203AA",
"d	c #E8E1F8",
"e	c #AE8FFE",
"f	c #DCD2F7",
"g	c #8859FE",
"h	c #4D0FEC",
"i	c #B091FE",
"j	c #8F63FE",
"k	c #3D09C2",
"l	c #7C52E5",
"m	c #A481FE",
"n	c #9771F8",
"o	c #3102A9",
"p	c #8D61FC",
"q	c #5E35C6",
"r	c #582FBF",
"s	c #B69AFD",
"t	c #3608AD",
"u	c #471BB6",
"v	c #B599FC",
"w	c #4B0EE7",
"x	c #3709AE",
"            ..........          ",
"          ..+@@##$$%%&*.        ",
"        ..+@=......-%;>&*.      ",
"       *+@,..      .*');!&.     ",
"      .+~{.          *]^;>*     ",
"      *+=/.          .(#^_&.    ",
"     .+@:*            *@^<[.    ",
"     .@#}.            .|#12.    ",
"     .@^3*            *+#^2.    ",
"     .=#45*..        .+@#^&.    ",
"     .=67=~@@*.      *+#^8*     ",
"      *96^^##=.     *+@#0&.     ",
"       *&ab^^c.    *de#4&*      ",
"        .*&2&*    *fegh&*       ",
"          ...    *degh&*        ",
"                *figh&*         ",
"               *dig4&*          ",
"              .d+j^k*           ",
"              *+il0&.           ",
"             .d|m^a*            ",
"             .|n^<o.            ",
"             .n^<o&.            ",
"              *&o&*             ",
"               ...              ",
"                                ",
"                                ",
"               ...              ",
"              *pqr*             ",
"             .p+spt.            ",
"             .uvpw&.            ",
"              *xo&*             ",
"               ...              "};
