<?xml version="1.0" standalone="yes"?>
<svg width="129" height="129">
<path style="fill:#000000; stroke:none;" d="M59 25C44.2716 31.9675 29.8986 45.354 33.669 63C34.9566 69.026 39.9943 73.3493 41.2261 79C42.4324 84.5343 36.501 89.4478 37.2122 94.8912C37.9865 100.818 53.4502 100.805 58 101L58 102C47.6159 105.715 40.8258 105.049 30 105.001C24.2147 104.975 16.0109 104.917 11.3364 108.995C7.63382 112.224 12.3063 119.212 16.1736 120.187C19.4694 121.017 23.6281 118.369 27 118.093C34.3694 117.492 41.5953 119.632 49 118.826C54.028 118.28 58.1586 114.99 63 114.356C67.6677 113.745 72.4324 117.671 77 118.532C83.0593 119.676 88.9662 118.5 95 118.09C100.754 117.698 120.683 124.46 118.118 111.214C117.354 107.266 110.207 106.043 107 105.465C93.8002 103.085 83.0497 106.668 70 102L70 101C74.5497 100.805 90.0135 100.818 90.7878 94.8912C91.499 89.4478 85.5676 84.5343 86.7739 79C88.0057 73.3493 93.0434 69.026 94.331 63C98.1014 45.354 83.7284 31.9675 69 25C85.1324 4.78992 42.8676 4.7899 59 25z"/>
<path style="fill:#ffffff; stroke:none;" d="M63 42L62 52L52 53L52 55L62 56L63 66L65 66L66 56L76 55L76 53L66 52L65 42L63 42M49.662 76.0085C47.9251 77.461 49.4335 79.1354 51.1528 79.3974C57.7124 80.3971 65.2718 78.6734 72 79.0887C73.8485 79.2028 77.5165 80.3156 78.8241 78.4159C80.7282 75.6495 75.4142 75.0818 73.9954 75.0193C68.7284 74.7872 53.8006 72.5476 49.662 76.0085M43 88L43 90L65 90.0008L85 90L85 88C73.3959 84.0718 54.6041 84.0718 43 88z"/>
</svg>
